<?xml version="1.0" standalone="no"?>
<!DOCTYPE svg PUBLIC "-//W3C//DTD SVG 20010904//EN"
 "http://www.w3.org/TR/2001/REC-SVG-20010904/DTD/svg10.dtd">
<svg version="1.0" xmlns="http://www.w3.org/2000/svg"
 width="1024.000000pt" height="1024.000000pt" viewBox="0 0 1024.000000 1024.000000"
 preserveAspectRatio="xMidYMid meet">

<g transform="translate(0.000000,1024.000000) scale(0.100000,-0.100000)"
fill="#000000" stroke="none">
<path d="M5035 9764 c-22 -2 -110 -11 -195 -20 -432 -43 -913 -162 -1300 -322
-213 -88 -262 -109 -410 -183 -463 -229 -829 -496 -1227 -897 -747 -751 -1225
-1743 -1343 -2784 -38 -332 -44 -711 -15 -980 60 -568 165 -974 384 -1485 286
-669 770 -1300 1381 -1799 443 -362 1018 -666 1600 -847 482 -150 891 -211
1420 -212 443 0 750 35 1135 131 985 246 1858 799 2508 1589 510 620 876 1399
1022 2174 81 431 99 879 55 1361 -79 863 -445 1760 -1024 2505 -286 368 -708
758 -1092 1008 -206 134 -278 175 -474 273 -497 247 -1029 403 -1600 470 -128
15 -727 28 -825 18z m555 -544 c95 -27 236 -100 294 -151 45 -39 49 -41 173
-59 313 -45 528 -92 708 -153 114 -39 290 -109 344 -136 76 -39 201 -174 201
-216 0 -28 -44 -14 -234 74 -205 94 -251 112 -656 256 -52 19 -151 43 -220 55
-69 11 -138 22 -153 25 l-29 5 22 -33 c35 -53 79 -149 95 -208 14 -51 19 -57
47 -63 68 -13 74 -10 96 52 13 33 36 72 57 92 30 29 43 34 93 38 52 4 61 1 90
-23 68 -57 91 -148 68 -267 l-7 -36 53 -17 c183 -60 454 -194 651 -322 334
-216 621 -478 862 -788 67 -85 82 -100 108 -101 128 -7 263 -41 371 -96 33
-17 85 -54 116 -84 134 -128 152 -292 37 -345 -70 -31 -132 -22 -214 32 l-43
28 57 -112 c175 -349 288 -712 343 -1107 19 -132 40 -440 40 -591 0 -158 -28
-477 -61 -679 -64 -405 -209 -790 -412 -1097 l-72 -110 68 19 c222 63 436 221
532 393 79 141 143 328 195 570 11 54 23 101 25 103 2 2 20 -8 42 -21 31 -21
107 -50 159 -63 15 -3 -1 -92 -51 -286 -104 -407 -308 -849 -528 -1148 -180
-245 -436 -441 -877 -673 -220 -115 -374 -169 -667 -232 -174 -37 -250 -63
-341 -119 -69 -42 -165 -139 -218 -221 -38 -59 -94 -169 -94 -183 0 -4 30 -7
68 -8 52 0 85 -8 146 -33 99 -41 168 -49 216 -24 54 28 59 58 21 135 -52 107
-37 177 50 235 92 60 222 34 284 -59 24 -35 29 -53 29 -103 1 -71 -30 -141
-76 -175 l-29 -22 16 31 c22 43 29 113 16 153 -19 58 -62 91 -125 96 -50 4
-57 2 -80 -23 -30 -32 -33 -64 -10 -126 50 -141 -23 -236 -175 -227 -55 3 -83
11 -156 48 -103 51 -167 60 -204 26 -26 -24 -51 -104 -51 -165 l-1 -46 -16 29
c-8 17 -18 57 -20 90 -6 77 17 151 94 296 54 103 55 107 51 171 -13 181 -166
342 -355 374 l-43 7 26 -69 c37 -96 52 -154 69 -263 33 -212 11 -407 -80 -708
-19 -63 -34 -116 -33 -117 17 -15 113 -55 130 -55 79 0 -120 -53 -356 -95
-299 -53 -383 -60 -716 -60 -395 1 -655 29 -1017 111 -152 34 -154 35 -121 44
45 13 108 53 108 68 0 8 -14 58 -31 111 -70 219 -100 451 -81 629 12 109 44
246 81 342 11 30 19 56 17 58 -8 7 -118 -29 -168 -54 -132 -67 -218 -203 -218
-347 0 -51 6 -70 45 -141 98 -181 123 -307 78 -391 l-22 -40 -1 65 c-1 87 -17
129 -60 158 -47 32 -93 25 -198 -29 -125 -66 -221 -65 -298 3 -46 41 -52 81
-24 175 25 84 20 109 -25 139 -19 12 -39 15 -77 12 -43 -5 -57 -11 -84 -41
-40 -44 -52 -104 -31 -162 8 -22 18 -49 21 -60 4 -11 -12 1 -37 27 -101 107
-82 259 42 325 117 61 278 -8 297 -129 5 -25 -3 -56 -26 -113 -36 -92 -32
-117 25 -141 52 -21 87 -17 188 22 104 40 182 53 216 34 21 -11 22 -10 16 12
-14 45 -68 144 -118 216 -121 176 -276 265 -535 308 -248 41 -441 106 -685
232 -271 139 -534 310 -682 442 -232 207 -485 631 -647 1085 -57 158 -168 573
-156 579 2 1 26 7 53 14 28 7 76 26 107 42 l57 30 11 -58 c58 -293 158 -557
261 -696 91 -121 289 -250 472 -307 85 -26 104 -26 70 2 -53 44 -215 330 -292
517 -170 413 -246 840 -246 1367 1 639 124 1185 374 1661 l59 111 -65 -33
c-230 -121 -357 108 -172 310 54 59 157 118 269 155 66 21 240 54 258 49 6 -2
52 49 103 112 233 288 483 515 799 727 242 161 544 313 755 377 l70 22 -4 81
c-2 64 1 90 16 125 35 77 111 121 180 103 41 -10 98 -74 119 -133 l19 -54 65
7 c36 4 68 9 71 11 4 2 9 18 12 36 8 52 44 139 82 202 l35 58 -58 -7 c-113
-13 -301 -55 -383 -86 -46 -17 -156 -55 -244 -84 -182 -60 -308 -109 -480
-188 -66 -30 -138 -58 -159 -62 -37 -7 -38 -7 -31 16 10 33 56 89 117 144 148
133 648 286 1167 356 159 22 164 24 209 60 99 78 229 139 351 165 100 20 325
12 421 -16z m-1290 -39 c-312 -68 -679 -192 -985 -335 l-120 -55 -30 29 -29
29 23 25 c13 14 73 50 135 80 275 136 527 208 841 239 17 2 80 4 140 4 l110 2
-85 -18z m2295 9 c180 -17 394 -71 585 -148 125 -50 284 -129 304 -151 18 -20
18 -21 -8 -56 -15 -19 -29 -35 -32 -35 -3 0 -78 34 -167 75 -295 139 -608 243
-937 313 -41 9 -37 10 50 11 52 1 145 -4 205 -9z m1085 -518 c354 -150 657
-369 863 -622 38 -46 157 -231 157 -243 0 -2 -17 12 -38 32 -378 359 -646 550
-1090 776 -73 37 -131 69 -130 70 2 2 21 12 42 24 47 25 56 23 196 -37z
m-4550 29 l42 -19 -29 -19 c-15 -11 -84 -49 -153 -85 -379 -196 -673 -406
-972 -696 -43 -41 -78 -72 -78 -68 0 10 122 195 159 241 54 67 201 214 279
278 175 143 430 289 622 357 47 16 86 30 86 30 1 0 21 -8 44 -19z m-150 -389
c-69 -54 -125 -109 -218 -217 -52 -60 -156 -175 -232 -255 -153 -163 -197
-192 -246 -168 -23 10 -30 21 -32 51 -4 47 12 74 103 168 191 198 363 325 555
410 103 45 116 47 70 11z m4744 -24 c196 -92 327 -186 497 -354 121 -119 159
-177 143 -221 -13 -38 -57 -59 -93 -43 -30 12 -219 201 -415 415 -66 72 -145
152 -175 179 -109 95 -109 95 43 24z m-5515 -708 c-267 -291 -379 -438 -486
-640 -174 -324 -336 -866 -369 -1226 -4 -41 -9 -74 -11 -74 -3 0 -18 11 -34
24 -31 26 -127 66 -159 66 -24 0 -24 -6 -5 153 64 552 375 1215 718 1533 89
83 195 155 301 205 123 58 130 52 45 -41z m6246 40 c273 -132 515 -412 716
-829 151 -314 256 -674 285 -977 l6 -72 -53 -17 c-30 -9 -78 -30 -106 -46 -29
-16 -54 -29 -56 -29 -3 0 -7 35 -11 78 -32 365 -205 939 -373 1237 -110 195
-292 441 -448 604 -41 43 -75 81 -75 85 0 15 39 3 115 -34z m-7235 -2027 c114
-51 209 -151 277 -289 58 -118 83 -214 90 -346 20 -369 -164 -689 -424 -738
-61 -11 -140 1 -187 28 -17 10 -44 40 -61 66 -55 90 -33 192 60 274 74 65 176
78 210 26 37 -57 2 -140 -70 -164 -57 -19 -114 10 -116 59 0 23 -1 24 -8 6
-11 -28 5 -77 32 -97 36 -28 101 -33 155 -13 103 40 186 157 219 308 22 104
13 327 -17 422 -29 91 -69 170 -114 222 -41 47 -125 93 -170 93 -42 0 -98 -30
-113 -60 -17 -34 -10 -36 20 -6 32 32 68 33 114 5 57 -36 70 -103 28 -144 -19
-20 -34 -25 -78 -25 -69 0 -125 39 -161 112 -57 114 -23 224 84 273 48 21 170
15 230 -12z m8361 16 c79 -27 138 -121 125 -200 -17 -107 -109 -198 -193 -192
-7 0 -22 1 -33 2 -34 2 -70 46 -70 84 0 74 81 123 153 93 27 -11 37 -21 37
-37 0 -18 3 -20 12 -11 9 9 8 20 -5 46 -19 42 -75 61 -141 50 -121 -20 -205
-119 -261 -309 -23 -78 -27 -109 -28 -230 -1 -105 3 -156 16 -205 53 -195 151
-304 274 -304 81 0 146 60 124 115 -9 23 -10 22 -10 -8 -1 -39 -23 -53 -85
-53 -37 0 -51 6 -80 34 -30 27 -36 40 -36 74 0 60 25 84 86 84 139 0 266 -161
224 -286 -60 -183 -309 -187 -493 -8 -133 129 -219 389 -204 616 17 245 133
477 295 588 85 59 213 83 293 57z m-7501 -3378 c180 -122 217 -149 356 -261
66 -53 181 -142 256 -197 154 -114 177 -140 160 -179 -14 -30 -54 -47 -85 -35
-25 10 -260 183 -387 284 -114 92 -303 281 -391 390 -74 91 -102 141 -61 105
9 -9 78 -57 152 -107z m6604 107 c-4 -7 -32 -47 -63 -88 -124 -168 -298 -336
-521 -502 -74 -56 -158 -118 -185 -139 -68 -51 -101 -63 -136 -49 -29 13 -52
51 -42 75 3 9 92 81 197 160 105 80 247 188 316 241 131 101 153 116 317 225
55 37 104 73 108 78 9 15 18 14 9 -1z"/>
<path d="M5203 9105 c-190 -34 -387 -182 -469 -351 -42 -87 -52 -133 -33 -145
12 -8 11 -12 -5 -24 -22 -16 -35 -79 -35 -172 -1 -52 2 -65 19 -75 18 -12 18
-13 2 -31 -14 -15 -17 -39 -17 -114 0 -88 2 -96 24 -114 l23 -19 -22 -18 c-20
-16 -22 -26 -21 -127 0 -92 3 -112 18 -122 13 -10 92 -13 325 -13 l308 0 0 70
0 70 -67 0 c-99 0 -113 6 -113 44 1 17 7 42 15 56 20 35 20 35 -27 32 -24 -1
-92 1 -153 6 l-110 9 151 2 c83 0 185 4 227 7 l77 7 0 53 0 53 -87 3 -88 3 1
40 c0 22 4 52 8 66 l8 26 -143 2 c-79 1 -145 4 -148 6 -2 3 98 5 222 5 l227 0
0 63 0 64 -55 -5 c-30 -2 -71 -1 -91 2 -36 7 -36 8 -31 49 2 23 8 50 12 60 7
16 -4 17 -131 18 -191 2 -80 16 139 18 l157 1 0 114 c0 130 8 120 -110 133
-33 3 -58 8 -55 11 3 4 40 9 83 12 l77 5 3 118 c3 135 14 126 -115 102z"/>
<path d="M5420 9003 l0 -110 40 -7 c54 -8 87 1 94 27 3 12 6 54 6 94 0 83 -6
90 -90 100 l-50 6 0 -110z"/>
<path d="M5610 8986 c0 -47 4 -87 8 -90 18 -11 105 -15 123 -6 26 14 27 90 2
112 -17 15 -117 68 -128 68 -3 0 -5 -38 -5 -84z"/>
<path d="M5820 8931 c0 -21 13 -41 26 -41 17 0 17 5 4 31 -11 20 -30 26 -30
10z"/>
<path d="M5857 8842 l-38 -3 3 -117 3 -117 99 -3 99 -3 -6 38 c-8 50 -77 183
-102 197 -11 7 -37 10 -58 8z"/>
<path d="M5443 8833 c-22 -4 -23 -8 -23 -113 0 -122 -1 -120 80 -120 58 0 60
3 60 120 0 49 -3 95 -6 104 -6 16 -56 20 -111 9z"/>
<path d="M5615 8734 c-6 -97 -5 -109 11 -121 24 -17 108 -17 123 1 8 9 11 50
9 117 l-3 104 -66 3 -67 3 -7 -107z"/>
<path d="M4211 8653 c-26 -18 -26 -24 -1 -338 5 -66 10 -247 10 -402 0 -276 0
-283 -20 -283 -18 0 -20 -7 -20 -66 0 -41 -4 -63 -10 -59 -6 3 -10 50 -10 106
l0 99 -75 0 -74 0 -3 -62 -3 -63 -62 0 -63 0 0 -82 0 -82 63 -3 62 -3 3 -57 3
-58 74 0 75 0 0 31 c0 24 3 30 16 25 9 -3 22 -6 29 -6 11 0 14 -52 17 -267 l3
-268 28 -59 c52 -112 129 -186 236 -227 47 -19 84 -23 225 -28 l169 -6 25 -72
26 -73 60 -2 c34 -1 71 -2 84 -2 22 0 22 -2 22 -123 l0 -123 254 0 254 0 7 55
c3 30 5 82 4 115 -1 33 2 65 7 70 5 5 41 10 79 12 l70 3 16 64 c11 45 22 67
35 72 10 4 78 8 149 8 74 1 152 7 180 15 157 41 277 166 305 317 6 29 10 159
10 290 l0 239 30 0 c25 0 30 -4 30 -24 0 -21 6 -24 53 -30 91 -11 87 -13 87
54 l0 60 65 0 65 0 0 86 0 85 -62 -2 -63 -3 -3 62 -3 62 -68 0 c-81 0 -81 1
-81 -127 0 -49 -4 -83 -10 -83 -6 0 -10 29 -10 66 0 57 -3 67 -19 71 -19 5
-20 16 -17 376 2 216 8 410 15 462 17 125 17 153 0 169 -26 25 -55 28 -79 8
-37 -30 -50 -187 -59 -695 -4 -285 -11 -441 -18 -448 -7 -7 -12 11 -15 63 -6
82 -31 144 -62 152 -29 8 -1665 5 -1746 -3 l-64 -6 -21 -50 c-11 -27 -23 -51
-27 -53 -5 -2 -8 -28 -8 -58 0 -41 -4 -54 -15 -54 -12 0 -14 52 -15 363 0 293
-4 396 -20 542 -25 224 -27 232 -53 250 -27 19 -37 19 -66 -2z m1317 -990 c95
-3 170 -8 167 -11 -4 -4 -345 -41 -389 -42 -34 0 -8 -13 46 -22 29 -4 125 -17
212 -28 88 -12 161 -22 163 -24 13 -13 -618 -19 -702 -7 l-50 7 75 23 c41 13
78 26 83 30 12 12 -26 40 -84 60 l-54 20 180 0 c99 1 258 -2 353 -6z m632
-328 c0 -92 -3 -127 -12 -130 -26 -8 -825 -13 -1205 -8 l-391 6 -7 43 c-3 24
-3 82 1 129 l7 85 803 0 804 0 0 -125z m-1758 -114 c3 -122 5 -140 27 -174 27
-45 85 -77 138 -77 49 0 50 -2 105 -86 49 -74 131 -157 186 -189 17 -11 32
-25 32 -31 0 -33 -280 -27 -360 8 -60 25 -124 89 -152 152 -21 48 -23 66 -26
292 l-4 242 25 0 25 0 4 -137z m1936 -103 c-3 -238 -4 -244 -29 -298 -36 -77
-80 -123 -141 -151 -47 -20 -70 -23 -205 -24 -178 -2 -184 2 -95 66 31 23 72
58 90 78 35 38 94 124 105 153 3 10 21 19 44 23 104 17 165 59 183 125 5 19
10 88 10 153 0 112 1 117 21 117 20 0 20 -3 17 -242z m-783 5 c107 -4 150 -9
131 -14 -41 -11 -237 -29 -320 -29 l-69 0 33 -22 c41 -28 80 -99 80 -147 0
-49 -28 -101 -70 -129 -70 -47 -172 -6 -212 86 -23 51 -20 93 11 165 l19 45
-24 11 c-14 6 -49 14 -79 17 -177 21 146 32 500 17z"/>
<path d="M4680 7333 l0 -93 235 0 235 0 0 96 0 96 -235 -4 -235 -3 0 -92z"/>
<path d="M5420 7335 l0 -95 303 2 302 3 0 90 0 90 -302 3 -303 2 0 -95z"/>
<path d="M5453 8543 l-33 -4 0 -99 c0 -109 1 -110 70 -110 62 0 71 17 68 124
l-3 91 -35 1 c-19 1 -50 -1 -67 -3z"/>
<path d="M5824 8537 c-3 -8 -3 -56 -2 -108 l3 -94 99 -3 c64 -2 103 1 112 9
15 12 20 119 8 178 l-6 31 -105 0 c-77 0 -105 -3 -109 -13z"/>
<path d="M5616 8532 c-8 -13 -1 -176 7 -189 8 -13 93 -18 121 -7 13 5 16 24
16 105 l0 99 -69 0 c-39 0 -72 -4 -75 -8z"/>
<path d="M5422 8183 l3 -98 39 -6 c22 -4 51 -3 65 1 25 6 26 9 29 103 l3 97
-71 0 -71 0 3 -97z"/>
<path d="M5618 8203 c-6 -126 -7 -124 71 -121 l66 3 3 98 3 97 -70 0 -69 0 -4
-77z"/>
<path d="M5820 8180 l0 -100 109 0 c90 0 110 3 115 16 3 9 6 54 6 100 l0 84
-115 0 -115 0 0 -100z"/>
<path d="M5837 8022 c-15 -3 -17 -17 -17 -111 0 -70 4 -111 12 -119 8 -8 45
-12 99 -12 116 0 119 3 119 128 0 53 -4 102 -8 107 -6 9 -164 14 -205 7z"/>
<path d="M5420 7910 c0 -109 0 -111 26 -120 44 -17 92 -12 104 10 6 12 10 61
8 118 l-3 97 -67 3 -68 3 0 -111z"/>
<path d="M5616 7936 c-7 -86 -1 -135 18 -148 19 -13 103 -9 115 6 8 9 11 50 9
117 l-3 104 -66 3 -66 3 -7 -85z"/>
<path d="M3595 7897 c-78 -51 -172 -112 -210 -137 -38 -25 -73 -48 -78 -51 -5
-4 -4 -17 4 -30 20 -38 112 -159 121 -159 7 0 389 254 435 290 l22 17 -31 44
c-41 58 -99 119 -113 119 -5 -1 -73 -42 -150 -93z"/>
<path d="M6841 7958 c-19 -18 -49 -55 -67 -82 l-33 -49 22 -17 c12 -9 116 -80
231 -158 l209 -141 25 37 c13 20 35 50 49 66 13 15 30 41 38 56 l14 27 -212
141 c-117 78 -219 144 -227 147 -10 3 -29 -7 -49 -27z"/>
<path d="M3200 7633 c-36 -26 -179 -132 -319 -237 -139 -105 -266 -200 -280
-211 -206 -153 -320 -289 -373 -444 -34 -97 -31 -246 6 -356 l27 -80 -58 -55
c-67 -63 -168 -118 -239 -129 l-49 -8 37 -16 c82 -37 249 -12 350 52 l47 30
33 -38 c78 -88 218 -178 333 -214 82 -26 239 -55 425 -77 96 -11 197 -27 225
-35 27 -8 51 -12 53 -10 8 8 -104 72 -163 94 -33 13 -127 38 -209 57 -242 56
-343 95 -451 177 -78 59 -140 135 -181 224 -88 188 -64 363 74 526 80 94 144
141 417 304 179 108 439 270 480 299 l29 22 -35 38 c-19 22 -50 60 -68 87 -19
26 -37 47 -40 47 -3 0 -35 -21 -71 -47z"/>
<path d="M7288 7588 c-37 -44 -65 -84 -63 -88 7 -11 292 -200 475 -315 258
-162 292 -186 370 -265 151 -151 194 -332 125 -516 -34 -90 -64 -138 -132
-207 -122 -125 -228 -175 -523 -247 -132 -32 -244 -81 -301 -131 -19 -17 -25
-26 -13 -20 34 16 148 39 339 66 330 47 496 118 637 271 l39 43 42 -29 c63
-42 156 -70 233 -70 66 0 144 16 144 30 0 4 -21 10 -46 14 -87 12 -207 81
-260 152 l-26 33 27 78 c60 177 40 338 -63 503 -62 100 -134 167 -437 402 -82
64 -195 152 -250 195 -112 88 -241 183 -246 183 -2 0 -34 -37 -71 -82z"/>
<path d="M3446 7438 c5 -7 46 -67 93 -133 46 -66 189 -275 316 -465 454 -677
483 -719 499 -720 4 0 2 10 -6 23 -8 12 -72 128 -143 257 -70 129 -131 240
-135 245 -13 17 -336 607 -374 683 l-36 72 -48 0 c-27 0 -73 11 -107 25 -70
29 -68 29 -59 13z"/>
<path d="M7145 7424 c-32 -15 -69 -24 -102 -24 -32 0 -53 -4 -53 -11 0 -10
-112 -223 -200 -379 -23 -41 -100 -183 -172 -315 -72 -132 -173 -316 -225
-408 -52 -93 -93 -170 -91 -173 6 -5 136 182 385 556 116 173 269 401 340 505
140 207 177 264 172 269 -2 2 -26 -7 -54 -20z"/>
<path d="M3015 7111 c-321 -79 -549 -358 -506 -620 32 -196 181 -345 399 -398
49 -12 123 -16 277 -18 253 -2 326 -17 393 -78 17 -16 22 -17 22 -6 0 28 -59
108 -97 133 -73 49 -116 57 -329 66 -175 7 -210 11 -273 33 -189 66 -289 233
-239 400 39 128 303 287 478 287 59 0 140 -24 140 -41 0 -5 -12 -4 -26 1 -34
13 -115 13 -169 -1 -27 -7 -64 -28 -91 -52 -123 -108 -127 -285 -9 -403 64
-65 129 -89 235 -87 176 3 327 101 404 263 28 58 31 75 31 155 0 80 -3 97 -31
155 -54 112 -147 184 -275 215 -85 20 -245 18 -334 -4z m232 -373 c29 -27 29
-55 1 -85 -30 -32 -71 -30 -97 4 -51 64 36 138 96 81z"/>
<path d="M7290 7115 c-137 -38 -222 -104 -273 -213 -29 -61 -32 -76 -32 -163
0 -92 2 -99 39 -172 24 -48 57 -94 88 -122 189 -177 487 -154 587 46 91 183
-33 389 -236 389 -34 0 -73 -4 -88 -10 -39 -15 -20 9 21 26 79 33 195 11 335
-62 185 -98 257 -235 204 -394 -26 -78 -116 -167 -206 -202 -76 -31 -186 -48
-302 -48 -203 0 -335 -60 -382 -172 -16 -39 -8 -50 16 -22 44 53 148 75 379
79 156 3 208 8 262 24 143 42 255 118 317 216 56 89 74 158 69 266 -4 79 -8
96 -47 175 -77 154 -218 275 -400 342 -86 32 -267 40 -351 17z m192 -372 c26
-23 24 -78 -4 -97 -30 -22 -60 -20 -86 4 -28 26 -28 50 -1 84 24 30 63 34 91
9z"/>
<path d="M8363 7031 c8 -9 25 -35 38 -59 15 -28 32 -45 49 -49 39 -9 124 -46
132 -57 4 -6 10 -7 14 -4 13 13 -33 83 -73 110 -53 36 -180 83 -160 59z"/>
<path d="M2159 7011 c-82 -34 -125 -64 -144 -101 -24 -46 -18 -53 22 -29 20
13 59 30 87 39 41 14 55 25 83 68 18 29 29 52 25 51 -4 0 -37 -13 -73 -28z"/>
<path d="M3656 6535 l-28 -47 74 -76 c137 -144 412 -391 423 -380 4 4 -135
178 -414 517 l-28 33 -27 -47z"/>
<path d="M6873 6472 c-243 -288 -388 -470 -381 -477 4 -4 280 249 421 385 l99
95 -23 48 c-13 26 -25 47 -28 47 -4 0 -43 -44 -88 -98z"/>
<path d="M4828 6035 c-18 -21 -138 -215 -223 -362 l-89 -153 -104 0 c-96 0
-102 1 -87 17 29 29 35 61 35 198 l0 134 -41 -14 c-23 -8 -100 -22 -173 -32
-112 -14 -151 -15 -271 -5 -77 6 -163 18 -190 27 -28 8 -51 15 -52 15 -2 0 -3
-40 -3 -90 l0 -90 -217 0 -218 0 -76 -103 c-42 -56 -102 -139 -133 -184 l-56
-83 0 -1022 0 -1023 43 -26 c147 -92 380 -179 533 -198 294 -37 318 -39 674
-34 l356 6 71 -46 c183 -117 303 -157 475 -157 108 0 136 11 59 24 -56 9 -222
67 -316 110 -43 20 -122 65 -175 101 l-95 64 -470 4 c-435 5 -593 14 -525 30
14 3 66 8 117 11 56 4 121 15 170 31 77 24 84 25 404 25 280 0 328 -2 339 -15
38 -46 227 -159 330 -198 160 -60 239 -72 465 -71 179 0 223 3 300 21 220 53
404 132 504 218 l53 45 446 0 c262 0 465 5 490 11 24 5 80 27 124 49 92 45 86
33 -21 -47 -42 -31 -89 -69 -106 -84 l-30 -28 -480 -3 -480 -3 -72 -48 c-131
-87 -349 -186 -503 -229 l-45 -13 83 -3 c150 -5 281 36 447 140 l97 61 332 -3
c182 -2 408 2 501 8 177 11 214 20 352 83 l53 24 0 1096 0 1096 -101 97 -100
96 -514 0 -513 0 -55 93 c-30 50 -92 155 -137 232 -46 77 -93 155 -105 173
l-23 34 -523 1 c-338 1 -526 -2 -531 -8z m872 -187 c-38 -17 -765 -17 -782 0
-10 9 70 12 398 11 310 0 403 -3 384 -11z m-1468 -88 c-12 -5 -59 -17 -104
-26 -96 -19 -336 -15 -428 7 -51 13 -35 14 235 19 160 3 297 6 305 7 8 1 5 -2
-8 -7z m-261 -121 c54 -29 -56 -55 -116 -27 -25 11 -30 19 -18 31 10 11 112 8
134 -4z m-219 -59 c51 -14 55 -26 16 -46 -62 -33 -258 -14 -258 25 0 27 166
42 242 21z m1828 -55 c235 -41 443 -139 587 -276 78 -74 82 -85 11 -31 -188
142 -422 229 -680 252 -321 29 -613 -58 -869 -260 -291 -229 -465 -594 -470
-985 -1 -75 -3 -83 -10 -50 -14 69 -10 297 7 385 73 386 368 739 745 889 82
33 212 68 298 80 94 14 290 12 381 -4z m-1957 -132 c66 -6 167 11 167 28 0 5
5 9 10 9 23 0 8 -22 -25 -36 -51 -21 -180 -18 -232 6 -24 10 -43 24 -43 30 0
6 13 1 29 -11 20 -14 49 -23 94 -26z m2140 -37 c111 -29 273 -102 368 -167 89
-60 229 -198 284 -278 151 -224 209 -476 173 -745 l-13 -91 -6 135 c-10 209
-50 363 -138 537 -69 138 -220 305 -360 397 -219 146 -413 200 -724 200 -103
1 -184 2 -180 3 153 50 426 54 596 9z m-1919 -2 c-78 -33 -195 -47 -349 -41
-126 5 -304 32 -320 49 -2 1 155 4 348 4 300 1 347 0 321 -12z m356 -19 c-18
-22 -153 -98 -273 -155 l-107 -50 0 -850 0 -850 23 0 c28 0 185 39 210 52 10
5 21 7 24 4 11 -11 -203 -104 -287 -125 -190 -48 -439 -35 -598 31 -40 17 -71
32 -69 34 2 3 28 -1 58 -8 73 -17 304 -17 320 0 11 10 6 12 -22 12 -48 0 -152
20 -164 31 -5 5 16 9 55 10 36 1 79 4 95 8 24 5 11 10 -72 26 -57 10 -100 21
-97 24 3 3 49 11 102 16 l97 10 -115 20 -115 19 60 8 c33 4 85 11 115 16 62
10 65 9 -90 33 -87 14 -76 23 42 34 43 3 80 10 83 15 2 4 -19 10 -48 14 -112
14 -137 19 -137 26 0 4 45 13 100 20 56 7 99 14 97 17 -4 4 -177 32 -202 33
-5 0 -4 4 4 9 8 5 54 12 103 16 50 4 86 11 81 16 -4 4 -42 13 -83 19 -41 7
-82 14 -90 18 -23 8 36 19 113 21 114 2 79 22 -80 46 -72 11 -48 23 58 31 56
4 95 10 88 14 -8 4 -59 15 -114 25 -99 19 -99 19 -55 26 25 4 71 8 103 8 71 1
74 16 5 25 -29 4 -78 13 -108 20 l-55 13 108 8 c59 4 107 11 107 15 0 4 -35
13 -77 20 -131 20 -138 26 -38 34 114 9 138 21 59 31 -33 3 -84 12 -114 19
l-55 13 105 7 c58 4 109 11 113 15 8 8 -5 12 -100 26 -73 11 -53 31 40 40 91
9 92 8 -71 35 -40 7 -72 13 -70 15 2 1 28 6 58 9 123 14 150 19 150 26 0 4
-34 11 -76 15 -42 4 -93 13 -112 19 -35 12 -33 13 58 19 52 3 106 10 120 16
14 5 21 10 15 11 -36 2 -198 30 -202 33 -2 3 44 11 102 17 58 7 102 16 98 20
-4 4 -50 13 -100 20 -51 7 -93 17 -93 21 0 5 11 9 25 9 34 0 177 22 172 26 -2
2 -50 13 -106 23 -56 10 -104 21 -107 24 -3 2 43 8 101 12 58 4 107 10 110 14
2 5 -28 13 -68 20 -40 7 -88 15 -107 18 -29 5 -31 7 -14 14 12 4 62 11 113 14
50 4 90 9 88 11 -1 2 -41 10 -87 19 -139 27 -142 28 -85 36 28 4 73 8 102 8
75 1 73 17 -5 31 -117 20 -122 21 -122 31 0 5 26 9 58 10 31 0 75 4 97 8 46 8
51 7 -87 32 -38 7 -68 16 -68 21 0 4 38 8 85 8 47 0 85 4 85 9 0 5 -46 18
-102 29 -86 16 -96 20 -60 22 23 1 47 4 52 5 6 1 35 3 67 4 31 0 54 3 52 5 -3
3 -38 12 -79 20 -92 19 -219 59 -257 81 l-28 16 30 -6 c103 -22 171 -28 345
-28 146 0 215 4 275 17 112 24 300 88 381 130 80 41 80 41 64 21z m2994 -4 c7
-11 -95 -21 -229 -21 -178 0 -423 13 -395 21 36 10 618 11 624 0z m-1764 -60
c0 -5 -21 -11 -47 -15 -27 -3 -100 -19 -163 -36 l-115 -29 110 -1 c324 -1 580
-72 801 -220 209 -141 361 -351 425 -590 20 -72 23 -110 24 -250 0 -169 -7
-215 -47 -335 -98 -288 -322 -510 -623 -618 -172 -61 -418 -80 -584 -43 -445
99 -800 406 -901 781 -95 349 7 759 252 1015 173 180 354 281 599 335 71 15
269 20 269 6z m1750 -126 l0 -85 -187 0 c-223 0 -396 10 -368 21 11 4 40 8 65
8 25 1 62 6 83 12 30 8 37 15 37 35 0 32 -43 51 -136 59 -38 3 -89 9 -114 13
-39 6 -31 8 55 13 55 3 205 6 333 7 l232 2 0 -85z m-3870 -815 c0 -5 -4 -10
-10 -10 -5 0 -10 5 -10 10 0 6 5 10 10 10 6 0 10 -4 10 -10z m3960 -839 c0
-21 -251 -28 -466 -13 l-109 7 75 6 c124 9 500 10 500 0z m-10 -103 c-34 -15
-352 -22 -519 -12 l-136 9 100 6 c55 3 208 6 340 6 181 1 234 -1 215 -9z"/>
<path d="M3767 5109 c-10 -36 -8 -1679 2 -1679 4 0 11 24 15 53 9 74 6 1608
-3 1631 -7 18 -8 18 -14 -5z"/>
<path d="M3725 4325 c0 -423 1 -595 2 -382 2 214 2 560 0 770 -1 210 -2 36 -2
-388z"/>
<path d="M5252 5130 c-264 -37 -547 -189 -683 -368 -61 -80 -141 -242 -164
-332 -22 -86 -32 -329 -16 -413 79 -416 381 -721 820 -829 115 -29 321 -30
436 -4 233 53 448 185 575 354 293 390 259 931 -80 1271 -156 157 -358 265
-568 305 -105 20 -242 27 -320 16z m113 -49 c-11 -5 -50 -16 -87 -25 -315 -77
-582 -296 -694 -570 -46 -114 -65 -201 -73 -346 l-7 -125 -14 75 c-20 107 -17
287 8 381 62 233 217 431 417 532 66 33 176 66 256 76 85 11 220 12 194 2z
m203 -347 c311 -78 511 -376 458 -681 -26 -153 -107 -289 -223 -375 -117 -86
-244 -123 -398 -115 -166 8 -309 71 -425 187 -72 72 -145 213 -161 310 -47
284 118 574 375 660 124 41 249 46 374 14z m-802 -799 c15 -38 54 -103 85
-145 175 -231 445 -348 715 -310 156 22 263 77 366 189 69 75 53 34 -21 -50
-216 -248 -640 -273 -927 -56 -134 102 -230 268 -257 447 -6 38 -7 40 39 -75z"/>
<path d="M5345 4626 c-166 -54 -276 -157 -336 -310 -92 -237 -7 -481 207 -593
241 -127 532 -55 675 168 95 148 94 371 -2 524 -123 198 -335 280 -544 211z
m95 -98 c35 -11 94 -49 118 -78 7 -8 25 -39 39 -69 22 -46 25 -63 21 -125 -7
-104 -23 -123 -23 -28 -1 86 -11 113 -70 177 l-36 40 25 -45 c46 -83 43 -194
-7 -264 -40 -56 -141 -82 -199 -52 -16 8 -28 13 -28 12 0 -2 18 -22 40 -44 35
-35 40 -45 40 -85 0 -39 -4 -49 -29 -66 -19 -14 -45 -21 -76 -21 -142 0 -255
160 -243 343 15 222 218 367 428 305z"/>
<path d="M3805 5946 c-33 -8 -78 -21 -100 -30 -36 -15 -38 -18 -22 -33 22 -22
87 -29 222 -23 60 3 163 2 228 -3 107 -6 123 -5 164 13 54 24 49 39 -25 66
-64 23 -379 30 -467 10z"/>
<path d="M8236 5863 c-13 -26 -96 -110 -140 -144 -18 -13 -19 -12 -14 54 l6
67 -64 -2 -64 -3 3 -85 2 -84 -60 -18 c-59 -18 -60 -19 -62 -56 -2 -20 -5 -51
-8 -69 l-6 -31 48 18 c26 9 58 21 71 24 l22 7 0 -231 0 -231 58 3 57 3 0 257
0 258 33 0 34 0 -4 -154 c-3 -154 -3 -154 -30 -175 l-27 -22 29 -46 c17 -26
30 -53 30 -60 0 -24 15 -13 48 36 52 76 61 112 62 254 0 120 1 127 20 127 19
0 20 -7 20 -240 l0 -240 58 0 59 0 1 237 c1 130 3 237 4 238 2 2 13 6 26 9
l22 7 0 -245 0 -246 58 0 57 0 0 242 0 243 61 -3 61 -4 11 45 c7 24 14 51 17
58 4 12 -8 14 -68 11 -87 -5 -88 -3 -80 102 l6 66 -62 0 -61 0 0 -85 0 -85
-132 0 -133 0 30 19 c17 10 57 47 88 82 l57 64 -57 27 c-32 14 -61 27 -65 27
-4 1 -14 -11 -22 -26z"/>
<path d="M2169 5837 c-9 -26 -26 -50 -47 -64 -48 -32 -138 -64 -197 -70 l-50
-5 -16 -64 c-14 -58 -13 -64 0 -60 9 3 38 8 65 12 l49 7 -7 -94 c-8 -114 -37
-237 -71 -297 l-25 -45 22 -16 c13 -8 34 -26 47 -39 28 -28 27 -29 72 78 18
41 42 125 55 185 l22 110 1 -191 1 -192 28 -5 c15 -3 110 -4 212 -2 160 4 187
7 197 22 10 12 13 83 13 269 l0 253 -192 3 c-106 2 -195 2 -197 1 -2 -1 5 -28
15 -60 18 -54 21 -58 49 -57 195 8 200 8 203 -14 3 -22 2 -22 -165 -22 l-168
0 3 80 4 80 51 16 c39 13 112 19 292 25 132 4 250 7 263 8 l23 1 -27 49 -28
49 -193 -6 c-211 -5 -208 -6 -178 52 9 16 14 30 13 31 -2 1 -30 5 -64 8 l-60
5 -15 -41z m249 -484 c3 -23 2 -23 -107 -23 -103 0 -111 1 -111 19 0 25 21 29
130 27 80 -1 85 -2 88 -23z m-1 -142 c3 -20 -2 -21 -102 -21 l-105 0 0 26 0
25 102 -5 c93 -4 102 -7 105 -25z"/>
<path d="M6367 5853 c-4 -3 -7 -53 -7 -110 l0 -103 63 -2 c209 -6 283 -6 470
-1 l207 6 0 108 0 109 -363 0 c-200 0 -367 -3 -370 -7z"/>
<path d="M2415 4956 c-30 -100 -65 -112 -65 -22 l0 52 -210 -3 c-115 -2 -210
-6 -210 -8 0 -3 0 -77 0 -165 l0 -160 66 0 c49 0 65 3 61 13 -4 11 24 13 161
7 19 0 14 -28 -8 -40 -24 -13 -224 -32 -246 -23 -14 5 -15 -1 -9 -48 4 -30 9
-55 10 -57 2 -2 49 2 105 8 56 7 120 10 141 7 33 -4 45 0 83 28 48 37 56 51
56 97 l0 31 29 -40 c16 -23 45 -52 63 -67 33 -25 147 -81 151 -75 2 2 12 27
24 56 l21 52 -53 15 c-59 18 -108 61 -127 113 -7 18 -14 33 -18 33 -3 0 -24
-11 -47 -25 l-43 -24 0 49 0 49 67 -31 c37 -16 81 -41 98 -54 l31 -23 63 62
62 63 -81 18 c-91 19 -93 22 -61 106 l19 50 -27 0 c-14 0 -40 4 -57 9 l-31 9
-18 -62z m-175 -85 c0 -26 -19 -31 -110 -31 -79 0 -97 8 -86 35 4 12 27 15
101 15 87 0 95 -2 95 -19z m-9 -144 c-7 -20 -17 -22 -95 -27 l-86 -5 0 27 0
27 88 3 c48 2 90 2 94 0 4 -1 3 -13 -1 -25z"/>
<path d="M7825 4985 c-2 -5 -10 -31 -19 -57 l-15 -48 448 0 449 0 6 31 c3 17
6 43 6 58 l0 26 -436 0 c-283 0 -438 -4 -439 -10z"/>
<path d="M7970 4677 c0 -163 1 -175 20 -192 12 -11 36 -19 55 -19 29 0 35 -4
35 -20 0 -23 31 -79 62 -112 11 -12 16 -24 11 -27 -23 -14 -177 -38 -283 -44
-89 -4 -120 -9 -116 -18 2 -7 8 -33 11 -59 l7 -46 47 5 c25 2 84 7 131 11 98
7 194 25 279 54 l60 20 89 -29 c99 -33 319 -69 331 -55 9 10 34 105 29 109 -2
1 -59 10 -128 19 -195 26 -350 89 -384 155 l-15 29 146 4 c193 6 183 -6 183
219 l0 169 -285 0 -285 0 0 -173z m338 76 c100 -5 112 -8 112 -25 0 -17 -11
-18 -165 -18 -156 0 -165 1 -165 19 0 31 35 35 218 24z m112 -162 c0 -24 -50
-31 -211 -31 l-119 0 0 25 0 25 165 0 c154 0 165 -1 165 -19z"/>
<path d="M2278 4514 c-72 -37 -217 -78 -317 -90 -33 -3 -61 -7 -61 -8 0 0 -7
-23 -15 -50 l-15 -49 80 7 c67 5 176 30 277 61 31 10 43 -20 17 -40 -46 -34
-301 -104 -325 -89 -6 3 -19 -69 -19 -103 0 -16 39 -12 170 18 134 31 259 83
307 128 21 20 21 23 8 62 -8 23 -15 48 -15 55 0 20 47 28 91 15 l39 -12 -1
-52 c-2 -86 -11 -112 -37 -109 -21 3 -22 0 -22 -57 l0 -61 68 0 69 0 11 53
c17 77 43 239 40 242 -2 1 -38 21 -80 44 -58 31 -82 40 -95 33 -10 -5 -31 -12
-46 -16 -25 -6 -29 -3 -38 24 -6 16 -14 30 -17 29 -4 0 -37 -16 -74 -35z"/>
<path d="M2680 4081 c0 -20 42 -188 57 -228 8 -24 32 -59 52 -80 l36 -37 3
119 c3 115 2 121 -20 135 -12 8 -46 34 -75 58 -29 23 -53 38 -53 33z"/>
<path d="M7885 4081 c-6 -5 -62 -42 -125 -81 -63 -40 -138 -92 -167 -117 l-52
-44 -3 -138 -3 -139 60 55 c81 75 142 141 171 183 19 29 137 290 130 290 -1 0
-6 -4 -11 -9z"/>
<path d="M8490 4014 c-66 -52 -212 -120 -320 -150 -192 -52 -281 -84 -344
-124 -61 -39 -158 -133 -238 -231 l-38 -46 0 -167 c0 -158 -1 -168 -24 -204
-13 -21 -41 -53 -62 -71 -22 -20 -30 -31 -18 -27 11 3 46 13 79 21 168 44 300
119 472 267 59 52 150 122 201 157 171 117 267 254 316 451 31 126 37 160 28
159 -4 0 -27 -16 -52 -35z m-240 -238 c0 -2 -33 -29 -74 -60 -148 -111 -211
-179 -315 -346 -31 -49 -18 -4 21 75 57 115 113 173 248 261 107 70 120 77
120 70z"/>
<path d="M2040 4031 c0 -26 33 -161 56 -229 54 -162 135 -266 289 -373 44 -31
123 -96 175 -144 157 -145 278 -215 471 -270 66 -19 125 -35 131 -35 26 0 -31
43 -115 86 -106 54 -191 107 -203 126 -5 7 -11 119 -14 248 l-5 235 -79 52
c-78 52 -140 76 -355 137 -106 31 -225 87 -294 140 -50 38 -57 41 -57 27z
m430 -350 c127 -93 187 -164 235 -276 13 -33 19 -51 12 -41 -6 10 -29 44 -49
75 -50 77 -154 180 -265 264 -51 38 -93 71 -93 73 0 5 121 -66 160 -95z"/>
<path d="M2300 3398 c0 -2 31 -63 69 -136 158 -301 301 -430 588 -528 144 -49
353 -90 500 -100 l98 -6 -75 43 c-51 29 -111 78 -186 151 l-110 108 -80 16
c-217 45 -369 122 -539 274 -44 39 -98 84 -120 99 -38 27 -145 85 -145 79z"/>
<path d="M8202 3365 c-35 -18 -118 -78 -185 -133 -140 -114 -211 -161 -304
-203 -63 -28 -239 -79 -275 -79 -9 0 -33 -21 -53 -47 -98 -128 -220 -232 -302
-257 -31 -10 -29 8 2 22 35 16 109 86 150 142 36 49 107 171 103 176 -2 1 -25
-2 -53 -7 -27 -5 -101 -15 -164 -24 -177 -23 -269 -74 -351 -196 -42 -61 -62
-106 -80 -179 -6 -25 -14 -54 -17 -65 -5 -19 -4 -19 18 2 64 59 250 110 432
118 169 8 460 78 625 151 122 54 278 188 363 310 38 56 170 304 160 303 -3 0
-34 -15 -69 -34z"/>
<path d="M1670 3155 c0 -3 17 -32 39 -63 71 -104 149 -235 221 -372 106 -201
158 -262 310 -364 l85 -58 -64 64 c-64 63 -128 153 -171 238 -21 43 -18 40 56
-39 269 -289 677 -505 1064 -565 58 -9 120 -21 138 -25 17 -5 32 -6 32 -3 0 7
-198 151 -420 308 -135 96 -184 138 -370 319 -97 94 -188 174 -220 192 -30 17
-115 52 -188 78 -212 73 -373 160 -461 246 -28 28 -51 47 -51 44z"/>
<path d="M8904 3137 c-10 -26 -123 -114 -199 -154 -97 -52 -159 -78 -314 -129
-73 -25 -150 -53 -172 -64 -58 -30 -140 -99 -284 -241 -145 -143 -212 -198
-400 -334 -115 -82 -295 -230 -295 -241 0 -6 66 4 180 27 267 54 546 175 774
336 44 32 136 112 202 179 67 66 119 113 116 105 -24 -69 -130 -218 -195 -277
-60 -53 -49 -49 43 14 78 55 159 130 206 194 19 26 71 113 115 194 44 80 115
203 160 272 44 68 77 127 74 130 -2 3 -7 -2 -11 -11z"/>
<path d="M3250 2998 c0 -17 57 -115 101 -173 39 -52 135 -134 199 -172 19 -11
71 -26 115 -33 108 -16 218 -52 260 -85 19 -14 35 -22 35 -18 0 4 -9 38 -19
75 -43 151 -134 263 -256 319 -44 20 -117 38 -237 59 -95 17 -179 32 -185 35
-7 2 -13 -1 -13 -7z"/>
<path d="M3880 2904 c0 -3 18 -38 40 -78 48 -87 79 -175 110 -314 21 -92 25
-101 39 -88 47 41 156 76 239 76 61 0 64 8 31 80 -48 107 -152 207 -265 255
-46 20 -51 24 -24 19 61 -11 177 -71 220 -114 44 -44 81 -115 100 -191 l12
-46 66 -6 c37 -3 69 -3 72 -1 11 11 -2 108 -20 158 -41 109 -151 193 -305 231
-65 17 -315 32 -315 19z"/>
<path d="M6535 2900 c-210 -31 -351 -126 -395 -267 -11 -36 -20 -80 -20 -99
l0 -34 69 0 69 0 11 51 c26 122 100 217 204 264 80 36 122 42 52 7 -106 -53
-189 -144 -234 -259 l-20 -52 37 -6 c113 -18 184 -39 226 -65 45 -29 46 -29
46 -7 0 12 14 74 30 137 31 119 83 241 126 297 13 17 24 34 24 37 0 8 -164 5
-225 -4z"/>
<path d="M5230 2670 c-74 -4 -171 -13 -215 -20 -88 -13 -284 -56 -291 -63 -4
-3 -38 -154 -44 -193 0 0 48 7 108 16 195 31 410 43 656 37 200 -5 429 -24
518 -43 26 -5 27 -5 17 31 -6 20 -13 64 -17 98 l-7 61 -50 13 c-77 19 -281 52
-370 58 -44 3 -100 7 -125 9 -25 2 -106 0 -180 -4z"/>
<path d="M2813 2600 c30 -44 139 -150 207 -200 92 -68 205 -133 357 -205 72
-35 157 -80 189 -101 75 -50 171 -139 191 -178 l16 -31 11 45 c13 49 49 110
104 179 l35 43 -13 52 c-38 155 -145 262 -300 302 -55 14 -87 15 -205 8 -276
-18 -400 -6 -515 48 -25 12 -56 30 -69 42 l-24 21 16 -25z m642 -194 c115 -30
195 -93 248 -194 48 -91 47 -99 -3 -24 -67 99 -148 162 -274 208 -67 25 -50
31 29 10z"/>
<path d="M7715 2595 c-46 -37 -162 -76 -256 -84 -47 -5 -141 -4 -213 2 -212
17 -329 -15 -431 -117 -59 -59 -88 -115 -103 -198 l-10 -52 44 -51 c25 -27 59
-80 77 -117 18 -37 35 -67 39 -67 4 -1 9 8 13 18 9 30 145 152 227 206 40 25
132 78 203 117 181 97 302 190 406 309 53 62 55 75 4 34z m-581 -215 c-100
-49 -172 -112 -225 -198 -42 -70 -44 -52 -2 31 29 58 95 132 137 154 43 22
127 51 151 52 11 1 -16 -17 -61 -39z"/>
<path d="M6050 2467 c0 -1 9 -24 19 -52 l19 -50 113 -32 c240 -70 396 -123
441 -152 l47 -30 -20 51 c-26 66 -50 99 -102 141 -89 72 -188 105 -337 113
-58 2 -122 6 -142 8 -21 2 -38 3 -38 3z"/>
<path d="M4390 2449 c-158 -10 -256 -45 -345 -122 -39 -33 -84 -105 -100 -156
l-7 -24 30 21 c46 33 159 74 379 138 l201 58 12 36 c6 19 14 41 16 48 6 13 -2
13 -186 1z"/>
<path d="M6150 2274 c0 -4 21 -49 48 -101 34 -68 52 -93 67 -94 17 -1 17 -2 3
-6 -24 -6 -23 -14 7 -73 19 -37 32 -51 53 -56 169 -37 239 -72 318 -156 65
-71 92 -120 108 -202 l13 -60 22 64 c31 87 39 233 18 313 -19 73 -71 160 -116
194 -18 14 -59 38 -90 53 -61 30 -261 92 -351 110 -30 6 -65 13 -77 16 -13 2
-23 1 -23 -2z"/>
<path d="M4325 2246 c-130 -34 -249 -73 -298 -97 -104 -52 -172 -140 -203
-259 -24 -93 -15 -235 19 -312 14 -32 27 -58 29 -58 2 0 3 24 4 53 2 158 171
319 379 360 l69 14 30 57 c24 48 27 59 15 67 -12 7 -12 9 1 9 12 0 61 82 108
183 7 14 -63 6 -153 -17z"/>
<path d="M5520 2155 l0 -85 -165 0 c-91 0 -165 -3 -164 -7 0 -5 6 -39 13 -78
l12 -70 150 -5 149 -5 3 -41 3 -42 -106 -7 c-58 -4 -126 -5 -150 -2 l-44 4 5
-61 c4 -33 7 -70 9 -81 2 -20 10 -20 397 -23 l395 -2 7 57 c4 32 8 69 9 83 l2
25 -167 -4 -168 -3 0 51 0 51 150 0 150 0 6 28 c3 15 11 51 18 80 l13 52 -169
0 -168 0 0 85 0 85 -95 0 -95 0 0 -85z"/>
<path d="M5005 2205 c-5 -2 -44 -6 -86 -10 l-76 -6 -13 -76 c-14 -87 -40 -170
-71 -222 -54 -90 -151 -165 -254 -196 -44 -14 -42 -5 -29 -126 l7 -66 80 28
c86 31 169 77 219 122 l31 29 -7 -67 c-18 -181 -141 -358 -318 -462 -43 -25
-78 -48 -78 -50 0 -3 16 -31 36 -64 l36 -58 82 41 c44 22 100 54 124 70 l42
29 0 -153 0 -153 96 0 95 0 -1 255 -2 255 26 52 c30 61 66 185 66 227 l0 29
25 -23 c13 -13 27 -31 31 -42 4 -15 16 -18 75 -18 l69 0 0 53 c0 30 -9 70 -20
95 -19 41 -155 189 -193 209 -16 9 -17 12 -2 54 18 49 54 204 55 232 0 16 -19
21 -45 12z"/>
<path d="M7233 2165 c-108 -49 -269 -179 -325 -262 -23 -33 -26 -52 -31 -148
-3 -60 -8 -119 -12 -130 -7 -20 -6 -20 12 0 10 12 39 35 65 53 67 46 114 104
165 207 67 133 121 223 160 266 41 45 37 46 -34 14z"/>
<path d="M3326 2152 c36 -29 128 -162 180 -260 27 -52 67 -113 89 -135 56 -59
180 -153 170 -130 -4 10 -10 68 -12 130 l-6 112 -49 56 c-84 94 -199 173 -319
220 -74 29 -81 30 -53 7z"/>
<path d="M5249 1560 c0 -3 -1 -171 -2 -375 l-2 -370 98 -1 97 -1 0 118 0 118
133 -4 c72 -2 158 -4 190 -4 l57 -1 0 -41 0 -41 -67 7 -68 7 -1 -88 0 -87 133
6 c74 4 143 12 153 17 47 25 50 48 50 404 l0 336 -385 2 c-212 2 -385 1 -386
-2z m571 -255 c0 -52 -1 -95 -2 -95 -2 0 -87 -3 -190 -7 l-188 -6 0 102 0 101
190 0 190 0 0 -95z"/>
<path d="M0 50 c0 -49 1 -50 30 -50 29 0 30 1 30 50 0 49 -1 50 -30 50 -29 0
-30 -1 -30 -50z"/>
</g>
</svg>
