<?xml version="1.0" standalone="no"?>
<!DOCTYPE svg PUBLIC "-//W3C//DTD SVG 20010904//EN"
 "http://www.w3.org/TR/2001/REC-SVG-20010904/DTD/svg10.dtd">
<svg version="1.0" xmlns="http://www.w3.org/2000/svg"
 width="1024.000000pt" height="1024.000000pt" viewBox="0 0 1024.000000 1024.000000"
 preserveAspectRatio="xMidYMid meet">

<g transform="translate(0.000000,1024.000000) scale(0.100000,-0.100000)"
fill="#000000" stroke="none">
<path d="M4790 9935 c-559 -55 -1034 -178 -1530 -397 -301 -132 -667 -345
-886 -514 -287 -221 -419 -340 -639 -574 -404 -430 -743 -966 -967 -1525 -266
-665 -371 -1243 -354 -1955 3 -140 10 -307 16 -370 79 -854 367 -1652 848
-2355 295 -432 775 -904 1222 -1204 80 -53 163 -108 185 -121 487 -294 1082
-517 1650 -619 352 -63 585 -83 910 -76 338 7 443 17 792 80 245 45 420 90
659 170 831 280 1522 745 2089 1405 184 215 233 279 358 470 510 780 778 1666
801 2650 2 100 -10 467 -18 535 -3 22 -8 72 -11 110 -64 694 -376 1531 -815
2185 -94 140 -250 346 -355 468 -177 205 -460 476 -649 622 -32 25 -73 57 -90
71 -75 62 -283 204 -421 287 -594 355 -1238 570 -1940 647 -196 22 -683 28
-855 10z m835 -150 c341 -36 671 -107 999 -216 710 -237 1336 -637 1866 -1194
372 -391 713 -909 930 -1415 50 -119 82 -211 77 -225 -3 -7 -19 -22 -35 -33
l-29 -21 -43 112 c-23 62 -77 184 -120 272 -349 730 -839 1328 -1465 1790
-956 706 -2155 988 -3373 795 -266 -43 -496 -103 -767 -201 -491 -176 -906
-405 -1259 -693 -55 -45 -122 -99 -150 -122 -71 -57 -337 -321 -433 -429 -180
-204 -333 -410 -496 -668 -36 -56 -207 -363 -207 -371 0 -2 -21 -48 -46 -103
-25 -54 -66 -145 -90 -203 -24 -58 -52 -122 -62 -143 l-17 -38 -34 29 c-40 33
-46 5 51 236 235 556 564 1053 978 1479 496 512 1014 848 1700 1106 414 155
889 251 1360 274 135 7 528 -4 665 -18z m142 -272 c29 -10 51 -22 49 -28 -2
-5 -9 -36 -16 -67 l-13 -58 -94 0 -93 0 -1 -182 c-1 -101 0 -307 0 -458 2
-368 -10 -580 -33 -615 -16 -25 -144 -95 -173 -95 -15 0 -25 18 -74 128 -25
55 -34 84 -26 86 79 21 128 39 134 49 4 7 9 60 11 120 l3 107 -83 1 c-166 1
-235 -3 -333 -19 l-100 -17 1 -80 c1 -44 4 -132 9 -196 l7 -115 -73 -31 c-41
-17 -75 -30 -76 -29 -5 4 -12 174 -12 293 l-1 123 -52 -21 c-29 -11 -88 -36
-131 -55 -43 -19 -82 -34 -86 -34 -8 0 -41 103 -41 128 0 17 61 45 193 88
l117 39 0 85 c1 47 5 148 10 225 4 77 7 142 5 144 -2 2 -11 -13 -19 -33 -27
-65 -105 -175 -168 -238 -55 -55 -151 -128 -167 -128 -3 0 -19 35 -36 77 -16
42 -31 80 -33 84 -2 3 28 29 65 57 126 94 222 242 258 402 9 41 19 83 22 93 4
15 -4 17 -68 17 l-72 0 7 38 c3 20 6 47 6 59 l0 22 493 3 c471 3 494 4 547 24
70 27 73 27 137 7z m-1884 -365 c44 -144 107 -355 188 -637 43 -150 91 -312
105 -360 61 -202 124 -404 127 -407 1 -2 45 12 97 31 233 85 436 118 725 119
298 0 500 -34 756 -129 67 -25 123 -44 125 -42 2 3 213 652 304 937 117 367
181 564 184 567 6 7 462 -165 495 -186 12 -8 11 -18 -7 -63 -29 -74 -172 -476
-184 -516 -11 -39 -21 -38 -141 14 -43 19 -80 34 -82 34 -12 0 -2 -141 14
-190 17 -54 18 -55 51 -52 70 7 104 25 123 65 9 20 19 37 20 37 2 0 30 -11 63
-24 32 -13 165 -61 294 -106 218 -75 235 -80 247 -64 18 24 16 42 -5 53 -27
15 -345 128 -380 136 -18 3 -34 11 -37 16 -6 8 12 89 20 89 2 0 16 -5 32 -11
15 -6 138 -49 273 -95 134 -46 249 -89 254 -94 10 -10 -19 -186 -35 -211 -5
-9 -42 -1 -137 28 l-130 40 -25 -86 c-14 -47 -39 -133 -56 -190 -17 -57 -31
-108 -31 -113 0 -11 140 -79 150 -73 12 7 30 90 30 138 0 24 -7 67 -16 96 -8
29 -14 64 -12 79 2 22 8 27 28 25 81 -8 88 -12 120 -71 27 -48 31 -68 33 -132
2 -138 -47 -275 -109 -305 -130 -62 -390 125 -467 335 -17 46 -12 111 8 116 6
2 29 -22 53 -52 24 -30 46 -54 50 -54 10 0 24 39 62 174 35 126 37 151 13 161
-55 21 -308 105 -318 105 -6 0 -18 -12 -26 -27 -18 -36 -192 -337 -273 -473
-108 -181 -109 -182 -94 -192 7 -4 63 -33 123 -64 162 -83 507 -278 609 -346
49 -32 92 -58 95 -57 6 1 243 251 375 397 43 48 132 143 196 212 64 69 167
180 230 248 62 67 116 122 118 122 8 0 173 -170 277 -285 50 -55 92 -102 95
-105 20 -20 110 -130 124 -151 13 -21 14 -28 4 -36 -23 -18 -617 -419 -1006
-680 -131 -87 -121 -74 -105 -136 39 -151 22 -294 -54 -447 -77 -154 -211
-275 -415 -376 -43 -21 -78 -42 -78 -47 0 -4 10 -21 22 -37 l21 -29 96 51
c286 152 539 356 684 550 103 138 138 231 138 371 0 53 -3 106 -6 118 -6 18
-4 19 12 11 85 -46 136 -219 113 -383 -27 -194 -75 -322 -168 -455 -82 -116
-248 -270 -388 -360 -89 -56 -315 -164 -346 -164 -4 0 -8 15 -8 33 0 31 5 37
73 77 137 81 262 169 355 250 163 143 320 354 371 501 24 67 54 214 48 231 -5
15 -4 18 -37 -87 -62 -196 -251 -442 -460 -597 -82 -61 -291 -181 -382 -219
l-58 -24 0 -48 c0 -93 -89 -306 -175 -421 -23 -31 -93 -113 -156 -183 -63 -69
-184 -205 -269 -301 -136 -155 -316 -329 -328 -318 -2 3 25 40 60 83 35 43
131 161 213 263 82 102 188 230 235 285 172 200 230 289 265 408 9 32 28 77
41 100 42 74 28 161 -36 222 -27 25 -30 36 -30 87 0 41 4 58 13 58 25 0 199
90 274 142 125 86 226 215 263 336 50 162 5 363 -114 502 -101 119 -197 185
-546 380 -386 216 -751 372 -1075 460 -295 79 -761 77 -1080 -5 -359 -93 -648
-226 -1220 -560 -326 -191 -479 -384 -492 -621 -9 -156 35 -262 166 -397 98
-102 272 -208 378 -231 30 -7 32 -11 39 -62 6 -54 6 -55 -39 -103 -66 -71 -72
-144 -16 -222 12 -17 26 -52 31 -78 12 -65 66 -175 126 -253 28 -37 119 -147
204 -245 84 -99 185 -219 225 -268 40 -50 108 -135 152 -189 44 -55 79 -102
76 -104 -6 -7 -153 119 -221 190 -33 35 -98 106 -144 158 -46 52 -143 159
-214 238 -149 164 -225 261 -265 341 -48 95 -90 227 -93 292 l-3 60 -78 34
c-193 83 -376 206 -509 342 -140 141 -242 297 -294 448 -35 104 -48 116 -39
40 35 -310 281 -623 690 -877 50 -31 102 -62 117 -68 28 -13 39 -38 31 -70 -3
-11 -7 -20 -8 -20 -2 0 -50 19 -107 43 -208 86 -419 232 -549 379 -107 122
-167 228 -214 378 -26 83 -32 326 -11 410 19 75 52 137 83 158 l22 14 0 -98
c0 -155 20 -230 95 -356 122 -206 424 -465 714 -613 51 -26 94 -46 95 -44 1 2
12 18 24 35 l21 31 -76 34 c-233 102 -424 291 -483 479 -36 115 -35 278 2 372
14 34 13 35 -158 150 -68 45 -123 86 -123 90 0 4 37 8 83 8 158 0 175 10 162
91 -14 81 -100 156 -213 184 -41 11 -47 16 -57 51 -40 133 -136 194 -306 194
-76 0 -225 -21 -286 -41 -29 -9 -38 -6 -107 38 -41 26 -75 53 -75 59 -2 22
454 509 500 534 17 9 110 -89 389 -410 284 -327 486 -550 496 -546 6 2 56 33
110 69 118 77 441 260 612 347 l122 63 -16 25 c-36 55 -354 644 -354 656 0 14
80 27 153 25 47 -1 89 1 95 5 12 7 124 167 120 171 -22 15 -211 76 -229 73
-21 -3 -25 -9 -29 -57 l-5 -55 -60 -12 c-33 -7 -75 -16 -92 -19 -21 -5 -33 -3
-33 4 0 33 -33 237 -39 244 -8 8 -116 -26 -326 -103 -246 -91 -379 -139 -381
-137 -1 1 -4 21 -8 44 -7 51 -19 44 184 116 85 30 240 87 343 126 104 39 190
71 193 71 2 0 7 -17 10 -39 3 -21 9 -42 13 -48 6 -8 151 -48 178 -48 7 0 28
32 47 71 l34 71 -60 39 c-32 21 -77 62 -100 91 -22 29 -46 53 -54 53 -7 0 -48
-16 -91 -36 -98 -45 -411 -173 -520 -213 l-83 -30 0 40 c0 69 20 93 107 129
43 18 188 80 323 138 337 144 552 232 571 232 11 0 24 -24 42 -82z m1923 -156
c43 -43 94 -90 113 -104 l33 -25 -27 -87 c-16 -47 -31 -86 -34 -86 -20 0 -129
101 -175 162 -60 81 -103 160 -90 165 5 2 27 14 49 27 22 13 43 25 46 25 3 1
41 -34 85 -77z m1472 -106 c120 -46 181 -57 220 -40 29 12 31 11 91 -57 34
-38 60 -73 57 -78 -3 -5 -28 -14 -56 -21 -49 -12 -50 -12 -152 38 -57 28 -147
65 -200 84 -103 35 -107 39 -91 96 7 27 0 28 131 -22z m-121 -127 c26 -12 84
-34 128 -49 104 -36 295 -110 295 -115 0 -4 -39 -77 -44 -82 -1 -1 -33 13 -71
31 -39 18 -142 59 -230 91 -88 32 -161 60 -163 61 -7 4 19 84 28 84 4 0 30 -9
57 -21z m-65 -150 c140 -56 306 -107 317 -96 8 8 26 6 66 -7 30 -9 57 -20 59
-25 8 -13 -27 -111 -40 -111 -6 0 -43 12 -80 26 -38 15 -145 52 -237 84 -92
32 -168 61 -168 64 -2 21 14 86 22 86 4 0 32 -10 61 -21z m-3758 -131 c3 -13
7 -39 11 -59 l5 -36 -107 -30 -108 -31 -9 49 c-5 27 -6 52 -3 56 7 6 185 71
199 72 4 1 10 -9 12 -21z m-348 -125 c23 -74 23 -176 1 -235 -22 -57 -87 -119
-150 -143 -26 -10 -49 -16 -51 -14 -2 2 -7 36 -11 75 l-7 71 38 20 c65 34 79
62 79 161 l0 87 35 17 c19 9 38 17 41 17 4 1 14 -25 25 -56z m479 -155 c76
-169 115 -322 115 -448 0 -107 -27 -156 -105 -190 -84 -36 -89 -35 -120 22
-40 72 -40 131 -1 165 18 15 36 23 49 19 19 -5 19 -1 14 64 -8 95 -41 212 -87
306 -21 43 -37 81 -35 83 7 7 110 40 126 40 11 1 26 -21 44 -61z m-334 -120
c7 -24 12 -75 13 -114 0 -95 -40 -179 -122 -256 -59 -54 -177 -125 -185 -111
-3 5 -8 24 -12 43 -6 34 -4 37 63 92 82 66 126 145 137 242 6 49 13 66 41 95
19 20 34 39 34 44 0 4 4 7 10 7 5 0 15 -19 21 -42z m3741 -58 l27 -31 -47 -61
c-64 -84 -149 -151 -234 -182 -99 -37 -97 -38 -78 40 l17 66 74 39 c41 21 103
66 139 98 36 33 67 60 70 61 3 0 18 -14 32 -30z m-1527 -330 c226 -25 454 -91
820 -237 257 -102 629 -296 850 -444 223 -148 328 -291 342 -464 3 -33 0 -71
-5 -85 -10 -23 -11 -22 -11 15 -4 224 -179 394 -691 673 -292 158 -526 259
-857 371 -281 94 -564 133 -806 111 -223 -20 -336 -40 -495 -91 -268 -86 -556
-217 -887 -406 -391 -223 -524 -333 -598 -493 -25 -54 -31 -82 -35 -165 -5
-98 -6 -99 -18 -60 -60 194 72 430 341 609 186 124 676 391 815 444 30 11 100
40 155 63 188 78 447 148 600 162 91 8 396 6 480 -3z m-3096 -260 c111 -19
181 -70 181 -133 l0 -30 -22 33 c-37 53 -68 71 -147 81 -75 9 -137 3 -286 -26
-44 -9 -144 -20 -222 -24 -158 -10 -193 -22 -193 -66 0 -28 50 -65 85 -64 l20
0 -20 9 c-11 4 -31 19 -44 34 l-24 26 37 15 c21 9 43 14 49 11 7 -2 -3 -7 -20
-11 -39 -9 -40 -15 -10 -42 35 -33 62 -43 114 -44 77 -1 21 -17 -62 -18 -110
-1 -226 44 -239 93 -8 30 15 68 54 90 31 19 59 22 240 27 117 4 239 14 285 23
44 8 94 17 110 19 17 2 35 5 40 5 6 1 39 -3 74 -8z m2955 -71 c16 -8 32 -28
42 -54 15 -42 17 -43 54 -38 69 10 136 -54 128 -122 -3 -26 -7 -30 -33 -31
-17 0 -36 -3 -42 -7 -7 -4 -19 3 -27 15 -18 25 -5 38 18 18 11 -9 16 -7 21 9
13 42 -31 81 -91 81 -13 0 -24 4 -24 10 0 5 -6 7 -14 4 -9 -4 -18 6 -25 29
-12 35 -27 47 -59 47 -24 0 -52 -30 -52 -57 0 -27 -25 -31 -38 -5 -10 18 -8
33 11 71 19 39 81 53 131 30z m-2923 -35 c14 -7 32 -20 40 -30 16 -19 17 -20
-71 25 -52 26 -58 31 -30 26 19 -4 47 -13 61 -21z m-62 -59 c12 -11 5 -16 -39
-29 -30 -9 -59 -16 -66 -16 -18 0 -84 40 -84 50 0 23 165 18 189 -5z m2810 -1
c14 -10 21 -23 18 -34 -7 -26 11 -50 37 -50 30 0 49 23 41 50 -6 18 -2 20 42
20 43 -1 46 -2 30 -15 -29 -21 -18 -49 21 -53 17 -2 33 -6 33 -10 1 -4 3 -17
4 -28 1 -12 5 -26 8 -31 4 -6 -7 -16 -23 -23 -19 -8 -30 -20 -30 -33 0 -17 -5
-19 -41 -14 -23 3 -51 15 -64 27 -22 21 -24 21 -54 6 -35 -19 -37 -23 -15 -54
16 -23 4 -32 -14 -9 -23 28 -23 56 -1 86 36 50 10 65 -54 31 -20 -11 -42 -20
-48 -20 -19 0 -38 33 -39 66 0 37 22 67 65 89 38 19 55 19 84 -1z m-225 -169
c-4 -27 -7 -76 -7 -107 1 -32 -1 -58 -3 -58 -2 0 -14 19 -26 43 -31 59 -30
160 3 213 l23 38 9 -39 c5 -22 5 -62 1 -90z m723 113 c18 -23 35 -90 35 -133
-1 -36 -44 -155 -56 -155 -3 0 0 17 6 37 5 20 7 55 2 77 -9 52 -12 186 -3 186
4 0 11 -6 16 -12z m-252 -24 c9 -14 14 -28 12 -31 -6 -5 -47 37 -47 49 0 17
18 7 35 -18z m-2673 -17 c63 -31 108 -77 108 -110 0 -19 -3 -17 -20 11 -27 43
-108 81 -192 89 -78 7 -200 -9 -374 -47 -200 -44 -302 -56 -375 -42 -73 13
-81 19 -55 38 13 9 47 14 102 14 76 0 191 17 409 60 62 13 129 18 215 17 115
-2 130 -4 182 -30z m2698 -82 c0 -8 -4 -15 -10 -15 -5 0 -10 7 -10 15 0 8 5
15 10 15 6 0 10 -7 10 -15z m-2756 -5 c21 -5 48 -18 60 -29 l20 -21 -59 0
c-33 0 -78 -5 -100 -11 -89 -24 -101 -23 -150 12 -52 37 -45 49 23 38 70 -12
90 -11 104 6 15 16 47 18 102 5z m2355 -38 c-4 -26 -12 -66 -18 -89 -6 -22 -9
-47 -7 -54 11 -30 16 -120 7 -114 -20 12 -48 112 -57 206 -6 51 -4 57 18 71
13 9 33 18 43 21 11 2 20 5 21 6 1 0 -2 -21 -7 -47z m67 32 c-3 -9 -6 -31 -6
-50 0 -21 -4 -33 -10 -29 -5 3 -10 26 -10 51 0 34 4 44 16 44 11 0 14 -5 10
-16z m435 -22 c15 -29 17 -30 22 -11 4 15 12 20 29 17 19 -2 24 -10 26 -41 5
-59 -84 -267 -102 -238 -4 5 4 27 17 48 32 53 46 106 38 145 -7 31 -10 33 -44
30 -37 -3 -37 -3 -37 36 0 63 23 69 51 14z m-303 9 c11 -6 8 -15 -13 -37 l-27
-29 6 25 c3 14 6 31 6 38 0 14 9 15 28 3z m-369 -55 c7 -30 25 -72 40 -93 15
-21 46 -69 69 -107 25 -42 42 -62 42 -50 1 19 1 19 12 0 8 -15 8 -36 -2 -84
-18 -90 -16 -104 18 -170 l30 -58 -29 -47 c-16 -26 -31 -47 -34 -47 -3 0 -10
11 -15 25 -8 20 -4 29 22 55 l31 31 -49 46 c-40 38 -46 48 -31 51 14 3 16 7 6
18 -6 8 -17 14 -23 14 -13 0 -67 82 -59 90 2 3 25 -17 49 -45 36 -42 44 -46
44 -28 0 22 -36 72 -81 110 -41 35 -89 169 -89 247 0 35 3 71 6 80 12 32 31
15 43 -38z m892 27 c14 -37 4 -128 -21 -197 -26 -69 -46 -86 -37 -30 4 21 10
73 13 114 10 144 22 173 45 113z m-307 -42 c-2 -2 -14 6 -25 18 -15 16 -24 20
-32 12 -16 -16 -37 -14 -37 3 0 27 53 24 77 -3 12 -14 20 -27 17 -30z m-130
-14 c12 -9 34 -11 67 -7 47 6 50 5 68 -26 26 -44 32 -67 21 -84 -7 -11 -11 -4
-16 27 l-6 41 -61 6 c-45 6 -62 4 -68 -6 -14 -21 -11 -27 20 -42 35 -19 79
-69 87 -101 12 -49 -54 -126 -125 -145 -62 -16 -106 -6 -134 33 -36 48 -39 65
-17 87 29 29 46 25 90 -20 22 -22 33 -40 26 -40 -7 0 -23 11 -36 25 -26 28
-40 32 -40 11 0 -24 50 -57 74 -49 12 4 32 6 46 6 14 -1 31 4 39 10 12 10 13
9 6 -3 -6 -12 -5 -13 5 -3 7 7 15 27 17 46 5 50 -33 82 -98 82 -30 0 -53 -5
-58 -13 -4 -7 -23 -15 -42 -17 -19 -2 -53 -7 -77 -10 l-44 -6 3 43 4 43 68 12
c69 11 97 25 97 48 0 10 -8 10 -37 -1 -21 -7 -51 -13 -67 -14 l-29 0 23 25
c18 19 34 25 67 25 24 0 43 4 43 9 0 8 19 15 56 20 5 0 18 -5 28 -12z m3683
-24 c36 -39 72 -106 73 -134 0 -31 -399 -422 -558 -547 -52 -41 -55 -28 -4 20
20 19 64 64 97 99 33 35 97 103 143 151 75 80 98 118 72 118 -6 0 -61 -49
-123 -108 -142 -137 -445 -393 -464 -392 -4 1 96 102 222 226 127 124 223 222
215 218 -46 -23 -148 -99 -240 -179 -230 -198 -259 -211 -89 -38 58 60 123
128 145 153 l39 44 -55 -39 c-127 -91 -226 -155 -240 -155 -23 0 73 92 215
206 72 57 168 135 215 173 177 142 282 221 292 221 6 0 26 -17 45 -37z m-7244
-69 c18 -9 55 -35 82 -58 102 -86 212 -174 295 -235 103 -77 186 -156 207
-195 l15 -30 -53 39 c-117 84 -181 126 -187 121 -3 -3 50 -62 116 -131 67 -68
122 -130 122 -137 0 -7 -17 4 -37 24 -36 34 -232 196 -321 266 -91 73 -33 1
146 -177 103 -104 196 -198 207 -211 38 -44 -65 37 -210 165 -156 137 -157
138 -272 247 -73 70 -113 94 -113 70 0 -5 79 -92 175 -193 97 -101 180 -193
186 -203 7 -11 -23 9 -64 43 -67 54 -128 110 -394 365 -38 36 -63 68 -63 80 0
38 90 166 116 166 8 0 29 -7 47 -16z m3872 -64 c-9 -17 -19 -28 -24 -26 -9 6
-42 -59 -34 -68 3 -3 14 -1 24 5 24 12 24 8 -2 -43 -11 -22 -18 -49 -16 -59 3
-11 1 -22 -4 -25 -5 -3 -10 13 -11 35 -1 23 -2 49 -2 59 -1 9 -5 20 -10 23
-10 8 -7 15 29 74 19 30 25 35 26 20 0 -14 2 -16 6 -5 6 17 23 40 29 40 3 0
-3 -14 -11 -30z m-770 -95 c7 -27 18 -77 25 -110 12 -50 22 -68 62 -107 48
-47 56 -62 38 -73 -17 -11 -32 5 -19 21 8 10 8 14 1 14 -6 0 -27 14 -47 31
l-35 31 0 -31 c0 -22 11 -43 36 -71 l36 -40 -37 0 c-40 0 -61 18 -95 82 -33
62 -19 99 31 83 27 -9 24 15 -5 43 -43 40 -73 163 -43 175 27 12 40 0 52 -48z
m913 27 c7 -47 -27 -129 -80 -191 -53 -64 -78 -77 -36 -19 33 44 58 110 58
153 0 50 17 87 38 83 9 -2 18 -13 20 -26z m-58 3 c0 -10 -73 -85 -82 -85 -6 0
7 20 28 44 36 40 54 54 54 41z m-605 -55 c9 -40 64 -86 115 -95 33 -6 40 -10
34 -23 -30 -71 -32 -87 -17 -104 18 -20 73 -24 104 -7 35 18 58 42 52 52 -3 6
-1 7 5 3 8 -5 12 0 12 13 0 11 5 23 10 26 6 3 10 21 10 40 0 19 5 37 11 41 19
11 1 -95 -22 -136 l-21 -35 34 33 c29 29 33 38 31 83 0 28 -4 67 -7 87 -6 32
-5 34 6 17 6 -11 12 -52 12 -92 1 -80 -10 -103 -78 -157 -34 -28 -44 -31 -110
-31 -63 0 -79 4 -122 30 -75 46 -103 119 -90 229 8 61 21 72 31 26z m315 -57
c-1 -18 -105 -103 -126 -103 -6 0 -14 16 -16 35 -3 24 0 35 9 35 7 0 12 -5 11
-11 -2 -6 3 -14 10 -16 6 -3 12 2 12 11 0 21 21 31 31 15 6 -11 9 -10 15 4 3
9 10 14 15 11 5 -3 12 2 15 10 6 16 24 22 24 9z m194 -7 c-10 -8 -21 -12 -24
-10 -5 6 21 24 34 24 6 0 1 -6 -10 -14z m-4529 -93 c127 -95 216 -152 229
-147 7 3 47 -13 89 -36 97 -52 325 -157 547 -253 96 -42 260 -115 364 -164
161 -75 193 -93 209 -121 11 -18 17 -35 14 -38 -2 -3 -28 5 -57 16 -29 11 -55
19 -57 16 -3 -3 25 -27 63 -53 84 -60 141 -110 133 -117 -3 -3 -49 16 -103 43
-130 65 -125 39 9 -52 55 -37 111 -79 125 -93 24 -25 24 -26 3 -20 -12 4 -61
24 -110 45 -48 21 -90 37 -93 34 -10 -10 64 -62 164 -117 143 -78 143 -78 16
-36 -339 111 -751 306 -1000 472 -121 81 -156 108 -301 236 -135 118 -171 163
-321 405 -30 48 -35 65 -15 50 6 -5 48 -37 92 -70z m8483 -10 c-95 -164 -171
-253 -319 -376 -31 -25 -68 -52 -83 -58 -19 -9 -23 -15 -14 -20 16 -10 10 -14
-127 -108 -190 -129 -346 -212 -640 -341 -212 -93 -564 -225 -574 -214 -2 2 5
6 15 10 33 11 255 138 275 158 22 19 18 36 -3 19 -22 -17 -209 -85 -216 -79
-9 10 12 26 146 110 67 43 122 82 122 87 0 12 -23 12 -35 0 -16 -15 -185 -80
-185 -71 0 10 54 53 140 110 78 52 74 49 68 55 -3 3 -28 -4 -57 -16 -28 -12
-54 -19 -58 -15 -4 3 -2 19 3 34 14 42 203 134 769 375 110 47 259 113 330
148 72 35 137 63 145 64 24 1 311 182 326 206 3 5 9 9 14 9 5 0 -13 -39 -42
-87z m-3970 48 c-7 -12 -16 -21 -20 -21 -5 0 -8 -8 -8 -17 -1 -19 -59 -95 -60
-78 0 11 54 99 79 129 19 23 25 13 9 -13z m146 -34 c16 -12 16 -15 0 -52 -29
-70 -52 -95 -87 -95 l-32 1 28 15 c15 8 27 20 28 27 5 106 22 134 63 104z
m-484 -22 c0 -8 -4 -15 -10 -15 -5 0 -7 7 -4 15 4 8 8 15 10 15 2 0 4 -7 4
-15z m-566 -33 c3 -5 -77 -23 -178 -40 -286 -51 -643 -146 -818 -217 -10 -4
-18 -3 -18 3 0 13 142 76 280 122 224 77 714 164 734 132z m1333 -12 c220 -28
535 -105 718 -176 80 -31 174 -77 120 -59 -313 105 -501 154 -765 200 -85 14
-171 30 -190 35 l-35 8 35 1 c20 1 72 -4 117 -9z m-442 -32 c-30 -26 -38 -29
-46 -17 -6 10 -3 15 14 17 12 2 26 10 30 18 4 8 15 14 23 14 9 0 0 -13 -21
-32z m4193 -123 c154 -538 200 -1233 122 -1840 -74 -581 -219 -1072 -460
-1560 -242 -490 -501 -847 -911 -1254 -254 -253 -543 -476 -869 -671 -92 -55
-410 -220 -424 -220 -3 0 -36 -14 -73 -31 -180 -83 -485 -187 -716 -245 -167
-42 -475 -98 -661 -120 -203 -25 -635 -30 -841 -10 -634 61 -1213 225 -1769
503 -265 132 -484 274 -743 480 -326 259 -643 592 -884 928 -421 586 -710
1314 -818 2060 -41 283 -46 372 -46 755 0 408 8 501 66 835 39 228 111 515
129 515 3 0 17 -18 29 -40 l23 -41 -25 -107 c-14 -59 -33 -150 -42 -202 -9
-52 -23 -126 -30 -165 -48 -244 -64 -473 -60 -850 3 -374 10 -462 61 -765 128
-757 400 -1414 823 -1990 340 -462 809 -892 1296 -1187 655 -396 1538 -644
2305 -647 259 -1 395 6 575 30 450 59 841 161 1220 319 570 238 1028 547 1467
991 357 362 577 664 807 1107 246 472 405 1000 480 1587 75 588 42 1167 -100
1760 l-30 126 27 48 c14 26 28 46 29 44 2 -2 21 -66 43 -143z m-4697 36 c-11
-27 -21 -57 -21 -66 0 -9 -4 -13 -10 -10 -16 10 -11 52 12 100 31 63 48 42 19
-24z m450 34 c19 -32 24 -65 11 -65 -4 0 -14 15 -20 34 -7 19 -19 37 -27 40
-21 8 -19 28 2 24 9 -2 24 -16 34 -33z m-72 -56 c6 -27 11 -62 10 -77 -1 -25
-2 -24 -11 8 -6 19 -16 54 -23 77 -13 40 -11 58 6 48 4 -3 12 -28 18 -56z
m-249 37 l45 -13 2 -89 c2 -101 -11 -90 -22 19 -6 55 -11 67 -24 65 -13 -3
-15 -16 -12 -81 1 -42 1 -77 -2 -77 -9 0 -30 111 -29 150 1 32 0 34 -13 16 -8
-10 -17 -39 -20 -65 -9 -63 -13 -73 -26 -65 -15 9 -3 101 17 132 17 26 24 26
84 8z m454 -9 c38 -28 -11 -116 -76 -139 -23 -8 -28 -16 -28 -43 0 -40 -19
-57 -68 -59 -31 -1 -37 2 -40 22 -2 12 0 22 5 21 39 -7 91 34 72 57 -11 13 13
44 35 44 7 0 22 10 33 23 25 26 39 67 24 67 -6 0 -11 5 -11 10 0 14 33 12 54
-3z m-861 -8 c-6 -6 -82 -22 -169 -35 -497 -75 -772 -138 -916 -210 -58 -29
-77 -31 -53 -4 25 27 182 102 291 138 105 35 339 84 499 105 137 18 364 22
348 6z m151 -30 c12 -26 29 -46 51 -56 23 -11 35 -25 39 -45 4 -22 15 -33 46
-46 44 -19 51 -36 21 -52 -53 -28 -105 -1 -105 54 0 31 -3 36 -24 36 -33 0
-102 70 -102 103 0 24 21 46 46 47 5 0 18 -18 28 -41z m368 2 c2 -15 1 -51 -2
-81 l-5 -55 -10 86 c-8 65 -7 85 1 82 7 -2 14 -17 16 -32z m62 2 c3 -21 5 -60
5 -88 l-2 -50 -7 45 c-4 25 -11 64 -15 88 -5 26 -4 42 2 42 6 0 13 -17 17 -37z
m764 12 c301 -45 565 -116 713 -190 71 -37 57 -40 -27 -6 -129 53 -374 106
-694 151 -168 23 -251 40 -264 52 -16 13 166 9 272 -7z m-1493 -106 c-27 -5
-75 -11 -105 -14 -30 -4 -62 -8 -70 -11 -9 -2 -89 -17 -179 -34 -236 -43 -370
-78 -556 -144 -98 -35 -99 -35 -69 -10 73 62 368 152 617 188 217 32 225 33
327 33 78 1 81 0 35 -8z m1480 -9 c209 -26 256 -33 400 -63 198 -42 348 -88
375 -115 13 -13 13 -14 -5 -7 -173 68 -364 110 -740 165 -279 40 -299 53 -30
20z m-1485 -62 c0 -4 -17 -8 -39 -8 -69 0 -381 -58 -576 -107 -122 -30 -333
-99 -352 -115 -19 -16 -27 -3 -9 15 23 23 260 112 361 135 272 64 615 108 615
80z m1348 5 c-10 -2 -28 -2 -40 0 -13 2 -5 4 17 4 22 1 32 -1 23 -4z m3292
-40 c-185 -198 -265 -270 -404 -363 -77 -51 -224 -126 -232 -117 -2 2 28 26
68 52 109 72 252 179 346 259 46 39 122 104 169 144 47 39 88 72 91 72 4 0
-14 -21 -38 -47z m-3083 17 c344 -50 661 -126 695 -167 12 -15 10 -15 -17 -1
-30 16 -125 44 -265 79 -92 23 -305 61 -465 84 -132 19 -153 23 -113 24 14 1
88 -8 165 -19z m-1004 -9 c23 -10 50 -22 61 -25 17 -6 17 -8 3 -29 -17 -25
-75 -29 -102 -7 -14 11 -22 80 -10 80 3 0 24 -9 48 -19z m-3814 -73 c250 -210
382 -313 479 -372 34 -22 60 -41 58 -44 -8 -7 -131 54 -208 104 -83 53 -279
215 -351 289 -51 52 -92 105 -83 105 4 0 51 -37 105 -82z m4028 66 c11 -31
-13 -61 -54 -66 -21 -3 -44 -3 -50 0 -20 7 -16 42 5 42 9 0 31 9 47 19 37 24
44 25 52 5z m-561 -11 c-8 -9 -23 -11 -111 -18 -92 -8 -367 -43 -430 -55 -210
-41 -309 -65 -434 -104 -80 -25 -155 -53 -167 -61 -26 -17 -44 -19 -44 -6 0
11 113 61 225 100 98 33 260 73 370 90 39 6 100 15 136 21 36 5 137 15 225 20
87 6 166 12 174 14 28 7 63 6 56 -1z m1331 -38 c237 -32 422 -67 575 -111 121
-35 188 -62 118 -48 -19 4 -59 15 -90 24 -154 50 -381 93 -790 149 -36 5 -51
9 -33 10 18 0 117 -10 220 -24z m-1528 -49 c-3 -3 -72 -14 -154 -26 -309 -44
-506 -82 -697 -136 -140 -39 -127 -22 17 23 273 87 445 118 740 136 28 2 61 4
74 5 13 1 22 0 20 -2z m1364 -3 c-7 -2 -21 -2 -30 0 -10 3 -4 5 12 5 17 0 24
-2 18 -5z m308 -38 c236 -34 545 -109 574 -138 7 -7 5 -8 -5 -5 -140 49 -357
97 -600 133 -96 14 -193 30 -215 35 -65 15 53 3 246 -25z m-459 -30 c431 -25
770 -79 1027 -161 8 -2 12 -7 9 -9 -3 -3 -61 8 -129 25 -353 87 -868 142
-1334 144 -486 2 -831 -19 -1182 -69 -240 -35 -456 -82 -556 -122 -49 -20 -59
-10 -16 16 80 49 363 119 585 146 115 13 542 41 744 47 165 6 609 -3 852 -17z
m-4419 -227 c47 -68 100 -140 118 -160 58 -64 231 -197 309 -237 71 -37 208
-86 217 -77 5 4 -73 36 -89 36 -16 0 -194 107 -226 136 l-27 24 50 -24 c68
-32 104 -43 210 -61 50 -8 125 -25 168 -36 43 -12 80 -19 83 -16 9 9 -143 51
-218 61 -50 6 -128 36 -243 93 -79 39 -168 94 -162 99 2 3 56 -20 120 -50 117
-55 248 -106 270 -105 7 0 -44 28 -113 61 -132 65 -141 85 -22 49 65 -20 561
-145 693 -175 63 -14 222 -76 215 -83 -2 -2 -37 5 -77 17 -103 28 -109 26 -64
-20 43 -44 37 -48 -41 -26 -72 20 -270 66 -286 66 -30 -1 23 -20 171 -61 107
-29 162 -50 180 -67 l26 -23 -55 6 c-50 5 -239 37 -300 51 -18 4 -22 2 -14 -5
5 -6 84 -27 173 -46 150 -32 224 -56 236 -75 3 -4 -22 -2 -55 5 -33 7 -60 10
-60 6 0 -3 57 -35 126 -69 69 -35 124 -65 122 -67 -7 -7 -201 35 -279 60 -46
14 -137 37 -203 51 -173 36 -514 175 -661 269 -66 42 -210 184 -268 262 -48
67 -132 253 -113 253 2 0 43 -55 89 -122z m7761 46 c-44 -109 -92 -182 -183
-277 -101 -105 -173 -158 -296 -220 -147 -73 -429 -176 -570 -209 -71 -16
-174 -43 -229 -59 -54 -16 -124 -33 -155 -39 -31 -5 -67 -12 -81 -15 -31 -8
73 55 162 98 37 18 68 35 68 38 0 3 -21 2 -47 -2 -174 -29 -35 27 177 71 85
17 157 34 159 36 14 13 -18 10 -128 -11 -176 -35 -243 -41 -236 -24 8 20 41
33 219 83 87 25 161 47 164 50 15 15 -15 10 -153 -25 -195 -50 -229 -55 -223
-38 2 8 21 23 41 34 43 24 49 40 10 30 -16 -4 -39 -8 -53 -10 -14 -2 -47 -9
-74 -15 -59 -13 -72 -7 -19 10 21 7 64 23 95 36 31 13 130 40 220 59 141 30
544 132 648 164 91 28 54 -4 -80 -70 -60 -30 -110 -57 -110 -61 0 -9 108 31
171 62 109 56 230 109 227 99 -6 -17 -168 -105 -291 -159 -114 -50 -167 -83
-79 -50 29 11 64 20 77 20 14 0 62 18 106 41 45 22 83 39 85 36 10 -10 -198
-134 -277 -165 -49 -19 -88 -36 -86 -39 11 -10 175 54 252 98 194 111 322 226
424 379 35 52 68 101 73 108 22 26 19 2 -8 -64z m-6468 -92 c-3 -2 -23 6 -46
19 -41 23 -72 63 -84 109 -5 19 11 6 64 -49 38 -41 68 -76 66 -79z m5170 91
c-19 -36 -65 -79 -93 -86 -13 -3 -23 -3 -23 0 0 3 24 30 52 60 29 29 57 62 62
71 18 30 20 -12 2 -45z m-2231 36 c339 -16 626 -40 920 -79 186 -25 195 -27
195 -45 0 -21 -11 -24 -70 -14 -222 35 -740 85 -1035 98 -428 20 -1155 -6
-1490 -53 -55 -8 -125 -17 -155 -21 -30 -3 -95 -13 -144 -22 -75 -13 -90 -13
-97 -2 -18 29 -5 35 114 53 321 47 475 63 827 85 166 10 709 10 935 0z m-4457
-129 c11 -30 42 -109 67 -175 26 -66 83 -217 127 -335 44 -118 93 -248 109
-288 16 -40 29 -74 29 -76 0 -2 -21 -6 -47 -10 -27 -3 -72 -16 -101 -27 -29
-12 -55 -19 -58 -16 -9 9 -60 230 -99 432 -20 105 -43 203 -51 219 -17 35 -17
39 -2 30 8 -5 9 2 5 26 -4 18 -10 92 -13 164 -7 142 -1 151 34 56z m8178 -390
c-9 -85 -20 -217 -26 -293 -13 -168 -67 -446 -82 -422 -3 6 9 82 28 170 25
121 33 183 33 255 l-1 95 -13 -55 c-12 -53 -83 -292 -88 -297 -2 -1 -30 8 -62
22 -33 13 -81 27 -107 30 -27 4 -48 10 -48 13 0 3 32 82 71 176 40 93 104 256
144 360 40 105 93 238 117 296 l43 106 3 -151 c2 -87 -3 -215 -12 -305z
m-5660 398 c19 -62 -3 -109 -63 -135 -75 -31 -154 52 -108 113 13 16 16 17 25
4 5 -8 10 -26 10 -40 0 -51 53 -68 90 -28 22 24 27 77 9 109 -9 19 -9 19 10
10 11 -6 23 -21 27 -33z m3166 22 c5 0 0 -12 -11 -26 -12 -15 -21 -37 -21 -49
0 -30 33 -59 59 -50 28 9 35 39 16 75 -9 17 -11 30 -5 30 5 0 10 -8 11 -17 0
-12 2 -13 6 -5 4 10 9 9 24 -4 45 -40 2 -118 -63 -116 -38 1 -88 49 -88 83 0
35 31 91 47 85 8 -4 19 -6 25 -6z m-3218 -23 c7 -11 8 -22 1 -33 -16 -24 -29
-22 -43 10 -12 24 -12 30 -1 37 18 11 30 7 43 -14z m1290 -9 c-8 -13 21 -9 35
5 11 10 12 9 6 -2 -6 -11 -4 -13 11 -7 10 5 24 8 29 7 72 -7 114 -15 109 -22
-3 -5 -18 -9 -35 -9 -38 0 -38 -16 1 -23 38 -8 39 -27 3 -28 -28 -1 -27 -1 7
-16 l35 -16 -35 -13 c-25 -9 -29 -13 -15 -14 11 -1 26 -1 34 0 11 1 11 -2 -2
-14 -8 -9 -22 -16 -29 -16 -7 -1 -2 -7 12 -15 16 -9 20 -15 10 -15 -10 -1 -11
-3 -2 -7 13 -5 17 -24 5 -22 -25 4 -34 -4 -13 -11 24 -8 24 -8 3 -9 -25 -1
-32 -21 -8 -21 31 0 14 -18 -22 -23 -45 -7 -302 9 -353 22 l-35 9 40 2 c32 1
36 3 20 10 -15 7 -10 9 25 10 44 2 44 2 12 10 -47 11 -51 20 -11 21 l34 2 -40
6 -40 7 60 14 c51 11 56 14 35 21 -14 4 -43 8 -65 9 -39 2 -39 2 18 15 72 15
83 25 29 25 -23 0 -42 5 -42 10 0 6 9 10 21 10 11 0 17 5 14 10 -4 6 7 10 26
10 47 0 29 11 -33 19 -58 8 -51 14 32 28 50 9 53 11 30 20 -21 8 -16 10 32 9
31 0 54 -4 52 -8z m-755 -64 c36 -2 67 -6 70 -9 2 -3 -5 -13 -18 -21 -20 -15
-21 -17 -5 -28 16 -12 16 -13 -1 -20 -17 -6 -17 -7 1 -28 l19 -21 -48 6 c-65
9 -277 80 -252 85 52 9 95 24 95 32 0 5 -21 11 -47 13 -47 4 57 -1 186 -9z
m-154 -112 c226 -64 445 -107 670 -131 289 -32 759 -32 1050 -1 265 29 642
106 875 179 35 11 65 19 66 18 2 -1 -41 -25 -94 -52 -111 -56 -107 -53 -100
-60 6 -6 138 45 201 76 20 11 37 17 37 14 0 -8 -133 -71 -195 -92 -262 -88
-575 -149 -918 -178 -166 -15 -715 -15 -807 -1 -19 3 -98 13 -175 22 -250 28
-473 78 -685 151 -61 21 -203 93 -197 99 3 3 29 -7 58 -22 29 -14 83 -37 119
-51 84 -32 64 -10 -50 52 -110 61 -122 73 -35 37 39 -16 120 -43 180 -60z
m-1180 68 c4 -6 46 -29 93 -51 224 -104 262 -123 259 -126 -9 -9 -202 63 -311
115 -5 3 -6 -1 -2 -7 10 -16 85 -53 196 -96 111 -43 172 -74 149 -75 -21 0
-160 41 -214 64 -35 14 -37 15 -20 1 27 -21 178 -97 238 -120 68 -26 53 -28
-32 -5 -82 23 -213 86 -284 137 -66 46 -46 15 25 -40 67 -52 190 -117 268
-142 54 -17 86 -35 63 -35 -29 0 -185 56 -258 92 -135 68 -233 147 -309 250
l-28 37 69 4 c37 2 73 4 80 5 6 1 15 -3 18 -8z m4873 -5 c28 0 52 -3 52 -7 0
-14 -98 -124 -141 -159 -88 -71 -212 -134 -363 -185 -110 -38 -100 -28 40 40
125 60 245 133 260 157 6 10 -155 -72 -181 -92 -12 -9 -215 -79 -215 -74 0 2
69 37 153 79 83 42 163 85 177 96 15 13 -7 5 -55 -19 -86 -42 -222 -87 -232
-77 -6 6 218 116 267 131 36 11 103 46 98 51 -2 2 -54 -17 -114 -42 -128 -53
-225 -86 -232 -79 -6 5 157 83 280 134 41 18 84 38 94 46 11 8 27 11 39 7 11
-4 44 -7 73 -7z m1876 -184 c-6 -72 -8 -79 -21 -64 -12 16 -13 13 -8 -22 9
-59 27 -129 36 -139 16 -18 9 -26 -15 -20 -46 11 -50 -6 -10 -47 21 -21 35
-42 31 -45 -10 -10 -50 3 -90 30 -22 15 -37 20 -37 13 0 -18 38 -77 63 -98 20
-16 20 -18 4 -19 -67 -1 -124 85 -112 169 14 97 37 152 96 231 32 43 59 84 59
91 0 7 3 10 6 7 3 -4 2 -43 -2 -87z m-8633 6 c26 -35 54 -78 63 -96 44 -84 59
-200 33 -251 -15 -29 -72 -70 -99 -70 -16 0 -14 4 12 26 31 26 60 72 60 95 0
7 -9 4 -22 -8 -25 -22 -91 -47 -110 -41 -6 2 5 19 25 38 47 42 48 61 4 53 -26
-4 -34 -2 -34 11 0 8 4 13 9 10 5 -3 24 10 43 29 38 38 44 74 20 117 -14 24
-14 24 -15 -20 0 -27 -8 -58 -20 -77 -27 -45 -32 -41 -12 8 13 35 14 51 3 122
-7 45 -15 90 -18 100 -9 33 12 16 58 -46z m440 -94 c22 -65 42 -124 44 -130 2
-7 2 -13 0 -13 -12 0 -105 254 -105 284 1 22 21 -25 61 -141z m7719 -22 c-22
-63 -43 -117 -45 -120 -13 -13 -1 38 31 131 20 57 39 112 42 123 7 20 7 20 10
0 1 -11 -15 -72 -38 -134z m-5179 86 c41 -19 107 -44 147 -57 l72 -24 0 -55
c2 -263 134 -482 359 -595 51 -25 102 -46 113 -46 41 0 11 -35 -73 -84 -48
-28 -93 -57 -101 -63 -30 -26 -187 120 -388 362 -64 77 -161 187 -216 245 -55
58 -114 123 -131 145 -39 52 -97 154 -90 161 3 3 11 -5 18 -18 44 -83 171
-216 254 -265 33 -20 73 -50 88 -67 21 -22 27 -25 22 -11 -14 40 -55 251 -55
283 0 34 -6 41 -80 101 -35 28 -24 26 61 -12z m2649 18 c-7 -8 -27 -24 -45
-35 -30 -19 -33 -25 -40 -88 -7 -68 -41 -249 -51 -277 -10 -26 5 -16 20 13 8
15 52 53 98 85 98 66 127 95 202 201 31 43 56 75 56 71 0 -30 -86 -159 -161
-242 -131 -145 -210 -234 -343 -387 -114 -131 -242 -247 -293 -267 -20 -7 -39
0 -106 38 -85 48 -117 71 -117 83 0 4 21 13 47 19 116 30 249 119 321 216 88
118 134 250 136 391 l1 82 120 42 c66 23 129 48 139 56 26 18 32 18 16 -1z
m-5433 -97 c-2 -13 -4 -3 -4 22 0 25 2 35 4 23 2 -13 2 -33 0 -45z m7821 -30
c-62 -80 -147 -118 -263 -118 l-50 1 75 40 c58 32 234 105 259 109 2 0 -8 -15
-21 -32z m-7417 7 c24 -9 90 -39 149 -68 l105 -52 -53 -3 c-70 -4 -145 21
-194 66 -35 31 -66 72 -55 72 3 0 24 -7 48 -15z m1284 -95 c28 -5 97 -14 155
-19 70 -6 129 -18 175 -36 39 -14 86 -31 105 -38 34 -11 34 -11 8 -15 -15 -2
-43 1 -62 7 -58 15 -42 -2 34 -38 39 -18 70 -34 70 -35 0 -2 -36 5 -80 15 -44
9 -77 13 -74 8 6 -11 79 -45 149 -70 66 -23 30 -24 -69 0 -118 28 -64 -7 98
-63 10 -4 16 -9 13 -12 -11 -12 -174 38 -267 81 -123 58 -151 59 -91 5 47 -43
37 -53 -18 -19 -55 34 -164 125 -196 165 -60 76 -59 74 -28 73 15 0 51 -4 78
-9z m4875 4 c0 -17 -109 -129 -168 -172 -107 -79 -175 -109 -109 -48 20 18 37
39 37 45 0 7 -3 10 -7 8 -111 -60 -282 -119 -383 -131 l-55 -7 85 30 c93 32
180 68 180 74 0 2 -46 -9 -102 -24 -56 -16 -115 -28 -132 -28 -20 1 -24 3 -11
6 11 2 70 23 130 46 115 44 117 57 3 34 -37 -8 -65 -11 -62 -6 3 5 9 9 14 9 5
0 37 14 72 30 l63 30 -50 -6 c-27 -3 -52 -7 -55 -8 -3 0 -5 4 -6 9 0 6 37 25
84 43 73 29 110 36 266 51 99 10 187 19 194 20 6 0 12 -2 12 -5z m-6495 -334
c48 -242 50 -250 36 -250 -15 0 -92 401 -90 468 1 41 5 23 54 -218z m419 206
c52 -97 208 -202 335 -226 41 -7 44 -7 27 6 -11 8 -26 14 -34 14 -18 0 -154
71 -148 77 3 3 20 0 38 -5 18 -6 62 -12 98 -15 l65 -5 -54 13 c-30 8 -82 23
-115 35 -69 25 -99 46 -51 36 75 -15 251 -35 365 -41 315 -16 630 -59 630 -85
0 -11 -107 -22 -300 -29 -148 -5 -165 -7 -110 -13 36 -4 114 -10 174 -12 104
-5 125 -11 126 -39 0 -14 -22 -16 -265 -28 -297 -14 -321 -13 -420 12 -139 36
-209 80 -369 233 -57 55 -84 87 -75 90 8 2 21 7 29 9 29 10 36 7 54 -27z
m7301 14 c3 -5 2 -10 -3 -10 -5 0 -54 -41 -108 -92 -150 -139 -228 -184 -391
-225 -61 -15 -91 -15 -342 -4 -152 7 -293 16 -315 19 l-38 7 21 19 c16 14 21
16 21 5 1 -11 2 -11 9 1 7 12 33 16 113 18 137 3 248 13 248 21 0 4 -82 8
-182 8 -181 0 -347 13 -318 25 24 9 191 46 240 52 25 3 173 15 330 26 330 23
358 26 424 45 61 18 61 18 47 2 -6 -8 -61 -31 -121 -52 -152 -51 -140 -58 33
-16 20 5 37 8 37 6 0 -8 -100 -66 -131 -76 -51 -17 -57 -29 -10 -18 95 21 243
116 318 204 32 37 44 44 75 45 20 0 40 -4 43 -10z m-5538 -136 c-3 -3 -12 -4
-19 -1 -8 3 -5 6 6 6 11 1 17 -2 13 -5z m-570 -80 c-3 -3 -12 -4 -19 -1 -8 3
-5 6 6 6 11 1 17 -2 13 -5z m387 -79 c69 -20 62 -30 -35 -43 l-64 -10 60 -1
c96 -4 110 -17 26 -24 -64 -6 -243 7 -263 20 -5 2 -8 0 -8 -6 0 -13 21 -18
105 -26 78 -7 258 -34 263 -40 8 -8 -166 7 -201 17 -50 15 -57 5 -11 -17 24
-11 77 -19 162 -24 117 -7 121 -8 47 -11 -119 -3 -147 -15 -60 -25 146 -16
158 -23 30 -18 -166 7 -258 24 -336 63 -79 39 -163 100 -152 111 5 5 53 20
108 34 116 29 230 29 329 0z m4339 -2 c67 -16 107 -31 107 -39 0 -19 -56 -58
-140 -98 -85 -40 -200 -62 -355 -69 l-100 -3 60 13 c33 7 87 16 120 20 l60 7
-60 6 -60 5 70 13 c39 6 81 14 95 17 14 2 -15 2 -63 -1 -49 -2 -97 -9 -107
-14 -10 -6 -34 -9 -52 -9 -31 1 -30 2 9 8 23 4 47 12 55 18 13 11 111 27 240
38 37 4 70 11 73 16 4 5 -59 6 -158 2 -184 -7 -246 3 -132 21 l70 12 -62 7
c-35 5 -63 12 -63 16 0 14 131 39 210 40 50 1 110 -8 183 -26z m1564 -25 c27
-13 49 -31 51 -41 4 -18 2 -18 -25 2 -15 11 -59 28 -98 38 -82 20 -79 19 -71
31 8 14 86 -3 143 -30z m-7607 22 c0 -5 -8 -10 -17 -10 -10 0 -55 -13 -100
-29 -79 -27 -100 -28 -69 -1 43 35 186 66 186 40z m2083 3 c-7 -2 -19 -2 -25
0 -7 3 -2 5 12 5 14 0 19 -2 13 -5z m3395 -24 c23 -10 45 -25 48 -34 22 -56
-192 -144 -323 -133 -37 3 -36 4 22 16 86 19 163 45 143 50 -9 2 -33 -1 -53
-7 -19 -5 -33 -6 -30 -1 3 5 22 11 43 15 64 10 73 25 17 26 -37 0 -45 3 -30 9
11 5 38 9 60 11 39 1 38 2 -20 14 -46 10 -52 13 -27 14 22 1 31 5 26 12 -5 8
2 10 22 6 25 -4 26 -3 11 8 -9 7 -17 15 -17 18 0 10 61 -4 108 -24z m-3458 11
c-11 -7 -7 -10 18 -10 19 0 31 -4 27 -10 -3 -5 9 -14 27 -20 28 -8 23 -9 -34
-6 -74 4 -83 -7 -16 -19 39 -7 40 -8 18 -15 l-25 -7 27 -8 c15 -4 32 -4 39 1
7 4 9 3 5 -4 -4 -7 10 -14 36 -20 24 -6 34 -10 23 -11 -11 0 -47 6 -80 14 -32
8 -61 12 -63 10 -4 -4 90 -33 177 -55 23 -6 41 -14 38 -16 -11 -11 -202 17
-243 36 -53 23 -114 68 -114 84 0 22 87 63 135 65 16 1 17 -1 5 -9z m-2000
-30 c0 -5 -12 -12 -27 -16 -94 -20 -149 -36 -157 -44 -13 -13 -26 -13 -26 0 0
16 52 38 126 54 87 18 84 18 84 6z m7538 -20 c45 -12 82 -27 82 -32 0 -6 -6
-8 -12 -6 -15 6 -131 35 -171 43 -15 3 -25 10 -22 16 4 5 14 8 23 5 10 -3 54
-14 100 -26z m-6400 5 c3 -3 -28 -6 -69 -6 -74 -1 -74 -1 -24 -10 28 -4 70
-10 95 -13 25 -2 47 -5 50 -6 3 -1 -56 -10 -130 -21 -148 -20 -274 -19 -455 7
-137 19 -185 35 -85 28 41 -2 100 0 130 7 30 6 87 14 125 18 75 7 355 4 363
-4z m5599 -10 c50 -8 109 -13 130 -10 21 3 52 8 68 10 25 4 24 3 -9 -10 -116
-45 -382 -60 -598 -35 -135 15 -167 29 -70 31 60 1 137 16 95 18 -12 0 -24 4
-26 9 -9 13 314 3 410 -13z m-430 9 c-3 -3 -12 -4 -19 -1 -8 3 -5 6 6 6 11 1
17 -2 13 -5z m-5952 -134 c109 -31 252 -48 495 -61 134 -6 265 -18 324 -30 54
-10 140 -19 190 -20 90 -1 90 -1 46 -13 -34 -9 -41 -14 -27 -19 10 -4 30 -7
43 -7 13 0 24 -5 24 -10 0 -16 -40 -28 -134 -41 -48 -7 -86 -15 -86 -19 0 -4
47 -6 105 -4 73 2 104 0 99 -7 -3 -6 -17 -8 -29 -5 -13 3 -27 2 -30 -4 -3 -5
-14 -10 -23 -10 -9 -1 -30 -7 -47 -15 -28 -13 -26 -14 41 -8 41 3 79 1 89 -5
15 -8 13 -11 -19 -22 -21 -6 -40 -10 -43 -7 -3 3 10 10 28 16 29 8 30 9 9 10
-14 0 -41 -9 -60 -20 l-35 -19 98 2 c53 2 97 0 97 -4 0 -6 -55 -28 -120 -47
-124 -36 -440 -75 -440 -54 0 5 34 17 76 27 41 10 73 20 71 22 -2 2 -68 0
-145 -6 -146 -10 -223 -5 -331 24 -64 18 -94 39 -35 25 22 -4 68 -9 104 -9 97
0 330 22 330 32 0 5 -12 6 -27 3 -45 -8 -322 -13 -398 -7 l-70 6 55 7 c30 4
92 7 138 8 53 1 81 5 77 11 -4 6 -67 10 -153 11 -81 1 -158 4 -172 9 -23 7
146 12 430 12 63 0 97 4 85 9 -11 4 -78 8 -150 9 -197 2 -418 15 -437 26 -11
6 42 8 150 6 92 -2 249 1 350 5 l183 8 34 -52 c19 -29 35 -57 35 -62 0 -17 31
-41 53 -41 21 0 20 1 -6 23 -15 12 -30 36 -33 52 -3 17 -18 48 -33 70 l-29 40
-109 -5 c-199 -9 -436 -5 -493 9 -102 24 -219 88 -287 156 -35 35 -63 68 -63
73 0 6 30 -5 68 -24 37 -19 98 -43 137 -54z m6896 62 c-57 -80 -192 -167 -321
-207 -75 -23 -249 -29 -475 -17 -107 6 -191 7 -193 2 -2 -5 -17 -26 -33 -46
-18 -23 -27 -44 -24 -55 4 -11 -5 -25 -27 -42 -29 -24 -31 -27 -13 -33 13 -5
22 -2 29 11 6 10 28 43 48 74 l37 56 366 0 c320 0 362 -2 333 -14 -24 -10
-107 -15 -295 -20 -144 -3 -265 -9 -269 -13 -9 -9 40 -11 311 -9 110 1 209 4
220 7 16 5 18 4 8 -6 -8 -9 -61 -16 -150 -21 -181 -10 -232 -15 -241 -24 -4
-4 68 -5 160 -3 141 3 163 2 138 -9 -17 -6 -30 -16 -30 -21 0 -16 -102 -44
-188 -52 -87 -7 -159 -6 -302 5 -86 7 -78 -5 18 -25 34 -7 62 -17 62 -22 0
-12 -114 -2 -260 22 -111 18 -165 15 -95 -6 83 -24 294 -53 430 -59 130 -6
205 -19 205 -36 0 -11 -98 -23 -170 -21 -61 2 -316 47 -530 94 -89 20 -150 42
-150 54 0 6 89 -2 138 -12 22 -4 32 -3 32 6 0 7 -6 10 -12 7 -7 -2 -45 10 -84
27 l-71 31 86 -2 c47 0 95 3 106 7 18 8 18 9 -6 9 -14 1 -34 8 -45 16 -18 15
-16 15 23 10 23 -4 49 -2 59 3 12 7 2 12 -42 21 -33 7 -72 18 -89 26 l-30 14
35 -4 c82 -11 179 -14 184 -7 2 4 -41 16 -96 25 -56 10 -105 20 -110 23 -14 9
2 24 26 24 13 0 29 7 36 14 10 13 3 15 -42 18 -29 2 1 5 67 5 73 1 141 8 175
17 30 9 123 20 205 26 377 25 465 32 541 46 93 16 239 63 287 92 45 28 52 27
28 -6z m-6022 -22 c11 -7 -8 -10 -64 -11 -68 -1 -75 -2 -47 -10 18 -6 59 -14
90 -18 54 -8 51 -9 -43 -9 -119 -1 -250 28 -205 45 14 6 32 13 40 16 22 9 210
-2 229 -13z m5211 4 c19 -19 -87 -46 -190 -50 -97 -3 -96 -2 3 25 27 8 19 9
-48 11 l-80 3 60 13 c68 15 240 13 255 -2z m-1227 -1 c-7 -2 -19 -2 -25 0 -7
3 -2 5 12 5 14 0 19 -2 13 -5z m-5180 -40 c3 -16 4 -29 3 -31 -2 -1 -35 -3
-74 -5 -62 -2 -75 -6 -100 -30 l-29 -28 -7 27 c-9 35 0 43 81 70 94 32 119 31
126 -3z m3622 2 c14 -13 25 -28 25 -33 0 -5 -42 -12 -92 -15 -137 -9 -304 -55
-427 -116 -100 -50 -140 -59 -148 -34 -6 18 87 82 130 89 22 4 51 17 66 30 19
15 47 25 88 30 37 4 64 12 67 20 8 20 72 28 107 13 28 -11 33 -10 48 8 30 39
102 43 136 8z m199 1 c14 -9 26 -26 26 -37 0 -17 -5 -19 -32 -15 -18 3 -54 8
-79 11 -37 5 -48 11 -53 28 -3 12 0 25 7 30 19 12 103 2 131 -17z m3685 -8
c39 -20 46 -28 49 -57 l3 -33 -37 28 c-30 23 -49 29 -105 32 -38 3 -69 7 -69
11 0 3 3 17 7 30 6 22 9 23 56 17 28 -3 71 -16 96 -28z m-3511 -15 c29 -14 53
-55 39 -69 -3 -4 -122 24 -134 31 -2 1 -6 16 -9 35 l-7 33 39 -7 c21 -4 54
-15 72 -23z m3472 -65 c129 -42 170 -63 170 -89 0 -16 -4 -19 -17 -14 -55 23
-245 87 -283 95 -85 19 -90 20 -90 29 0 29 94 20 220 -21z m-7360 22 c0 -9
-57 -28 -135 -46 -16 -4 -79 -25 -138 -46 -60 -22 -111 -37 -114 -35 -13 14
11 46 45 60 136 58 342 99 342 67z m4060 -15 c35 -18 70 -61 70 -87 0 -11 -3
-18 -7 -16 -91 41 -153 81 -153 98 0 16 7 20 30 20 17 0 44 -7 60 -15z m-265
-39 c204 -44 363 -128 511 -268 96 -91 140 -150 197 -264 109 -216 140 -435
91 -644 -15 -66 -54 -183 -60 -178 -1 2 5 35 13 73 12 50 16 122 17 250 0 155
-3 191 -22 260 -25 90 -93 238 -148 321 -71 106 -213 233 -336 298 -477 253
-1084 107 -1361 -327 -114 -178 -147 -288 -154 -512 -5 -147 -3 -169 21 -277
15 -65 36 -144 46 -175 18 -56 18 -57 0 -33 -30 40 -87 189 -105 274 -20 100
-20 273 0 389 19 112 71 248 132 350 92 154 298 331 465 400 56 23 183 58 268
73 94 17 328 11 425 -10z m-1910 -10 l-50 -24 40 4 c29 3 35 2 20 -5 -18 -8
-17 -9 10 -13 18 -3 8 -6 -28 -7 -39 -1 -56 -5 -51 -12 4 -7 37 -9 98 -5 l91
5 -62 -15 c-35 -9 -63 -20 -63 -25 0 -5 26 -10 58 -10 l57 -2 -52 -6 c-28 -4
-55 -10 -60 -15 -4 -5 14 -6 42 -2 130 18 122 17 95 5 -14 -6 -63 -13 -110
-16 -74 -5 -92 -3 -137 17 -28 12 -59 30 -68 40 -15 17 -14 19 21 41 52 32
145 69 174 69 20 0 14 -5 -25 -24z m3442 -23 c35 -19 66 -40 70 -45 10 -17
-46 -56 -99 -69 -37 -8 -68 -8 -131 1 -120 17 -134 33 -24 27 72 -4 86 -2 77
8 -6 8 -29 16 -51 20 -21 4 -42 11 -45 17 -5 8 18 9 72 5 98 -7 148 7 58 16
-33 3 -71 11 -85 17 -19 8 -12 9 33 5 31 -3 65 -8 75 -12 24 -8 16 -1 -32 32
-38 25 -39 26 -10 19 17 -3 58 -22 92 -41z m-3797 9 l-45 -17 65 -6 c49 -4 55
-6 23 -7 -58 -3 -63 -19 -8 -33 56 -14 58 -29 5 -29 -64 0 -44 -36 27 -47 35
-6 36 -7 13 -14 l-25 -7 25 -1 c29 -1 66 -21 40 -21 -44 0 -155 22 -183 36
-44 22 -77 54 -77 74 0 23 65 67 115 79 63 14 74 11 25 -7z m4115 -8 c47 -31
65 -52 65 -75 0 -20 -63 -63 -116 -79 -45 -13 -155 -9 -116 4 12 5 22 12 22
17 0 5 9 9 21 9 11 0 30 5 41 11 17 9 18 13 7 20 -8 5 -26 9 -41 9 -15 0 -29
4 -32 9 -8 12 18 21 57 21 30 1 31 1 13 15 -11 8 -28 15 -38 15 -10 0 -18 4
-18 10 0 9 19 7 105 -11 22 -4 41 -6 43 -4 2 2 -18 15 -45 29 -31 16 -41 25
-28 26 11 0 38 -12 60 -26z m-1358 -51 c44 -32 57 -57 43 -84 -11 -20 -12 -20
-43 5 -18 15 -49 35 -69 46 -45 24 -52 34 -38 59 9 17 14 19 43 9 17 -6 47
-22 64 -35z m3494 -85 c-109 -110 -127 -133 -166 -213 -24 -49 -57 -130 -75
-180 -62 -180 -101 -242 -195 -313 -41 -30 -2 -17 50 18 66 44 72 44 24 -2
-26 -24 -62 -50 -80 -59 -116 -53 -173 -85 -239 -133 -41 -30 -77 -52 -79 -50
-12 12 114 169 236 293 79 80 141 146 139 148 -3 3 -120 -64 -214 -124 -54
-34 -77 -39 -47 -10 8 9 15 19 15 24 0 10 102 102 202 182 38 30 66 56 64 58
-6 7 -289 -180 -365 -241 -38 -31 -78 -67 -90 -82 -20 -26 -21 -26 -21 -5 0
55 115 208 274 366 167 165 325 284 488 366 76 38 170 77 192 78 5 1 -45 -54
-113 -121z m-8449 88 c123 -46 317 -175 523 -347 99 -83 149 -135 254 -266 82
-102 101 -136 101 -176 0 -20 -2 -19 -27 9 -44 49 -117 105 -286 217 -86 57
-157 103 -157 102 0 -1 51 -49 113 -105 106 -98 182 -179 173 -187 -2 -2 -67
39 -144 90 -78 52 -137 87 -132 78 11 -22 146 -168 204 -221 46 -43 141 -162
166 -209 12 -23 9 -22 -31 8 -81 61 -177 121 -242 151 -72 33 -178 111 -159
118 6 2 32 -13 57 -33 51 -43 62 -39 13 4 -49 43 -92 121 -148 270 -28 74 -67
165 -86 202 -34 65 -139 189 -234 277 -52 48 -45 51 42 18z m638 -68 c55 -142
148 -402 155 -433 6 -25 2 -22 -25 20 -60 90 -181 369 -204 468 -6 24 -4 27
18 27 21 0 29 -10 56 -82z m7270 61 c0 -55 -210 -526 -217 -489 -4 20 20 92
109 322 56 145 77 188 91 188 11 0 17 -8 17 -21z m-3480 -15 c92 -21 138 -38
232 -85 328 -165 510 -455 525 -835 4 -99 1 -150 -11 -213 -66 -323 -241 -550
-530 -687 -74 -35 -166 -56 -166 -38 0 5 39 28 88 51 133 65 208 118 308 217
124 125 184 219 228 363 36 115 48 195 48 318 1 610 -625 1051 -1212 854 -162
-54 -270 -117 -378 -223 -128 -123 -209 -262 -249 -422 -27 -109 -24 -325 6
-439 32 -125 75 -226 136 -320 123 -190 256 -292 477 -364 49 -16 65 -26 61
-37 -20 -52 -251 41 -390 156 -148 122 -247 287 -305 506 -29 108 -32 133 -32
269 0 278 71 466 247 651 132 139 267 218 462 270 127 34 321 38 455 8z
m-1529 -8 c-18 -22 24 -46 84 -47 l50 -1 -50 -13 -50 -12 28 -12 c16 -6 38
-11 50 -11 18 0 19 -2 7 -10 -21 -13 -118 -1 -162 22 -47 23 -48 46 -5 76 37
26 67 31 48 8z m2698 -12 c17 -14 31 -31 31 -38 0 -23 -73 -49 -150 -52 -56
-3 -67 -1 -42 5 19 5 39 14 44 19 11 11 -1 16 -62 25 -14 3 -2 5 27 6 53 1
103 17 103 33 0 5 -10 13 -22 18 -21 8 -20 9 9 9 20 1 43 -8 62 -25z m-2064 0
c13 -5 11 -10 -13 -28 -16 -11 -55 -41 -86 -65 -52 -40 -58 -43 -73 -28 -22
22 -12 39 47 86 50 40 86 50 125 35z m794 -30 c13 -11 -18 -18 -94 -20 -47 -1
-92 -7 -99 -14 -17 -13 -72 -2 -58 12 18 18 117 34 182 30 36 -3 67 -6 69 -8z
m51 -35 c0 -16 -7 -19 -40 -19 -22 0 -40 5 -40 10 0 6 11 10 24 10 13 0 27 7
30 16 8 20 26 9 26 -17z m2133 9 c29 -15 14 -19 -24 -7 -45 16 -63 33 -24 23
17 -4 38 -11 48 -16z m-2488 -79 c31 -101 36 -142 14 -147 -12 -2 -22 19 -43
90 -15 51 -29 98 -31 104 -4 12 14 34 27 34 4 0 19 -36 33 -81z m485 69 c0 -7
-14 -59 -32 -115 -25 -79 -37 -103 -50 -103 -24 0 -23 9 13 128 26 81 36 102
51 102 10 0 18 -6 18 -12z m614 -23 c18 -20 40 -49 46 -66 11 -27 10 -32 -8
-49 -21 -20 -21 -20 -79 41 -67 70 -69 74 -53 94 21 25 57 17 94 -20z m-919
16 c11 -5 33 -4 49 0 38 11 50 -6 28 -39 -19 -30 -5 -42 51 -42 31 0 37 -3 37
-21 0 -17 -4 -20 -22 -15 -13 4 -37 9 -55 13 -30 5 -32 4 -38 -33 -9 -54 -13
-64 -25 -64 -6 0 -10 25 -10 60 0 63 -3 68 -29 47 -23 -20 -94 -38 -104 -28
-15 15 1 30 43 42 43 13 52 36 25 59 -13 11 -13 15 -3 21 16 10 26 10 53 0z
m433 -57 c12 -8 22 -26 22 -38 0 -25 46 -67 86 -80 12 -4 32 -15 44 -26 25
-22 40 -25 40 -10 0 12 -88 70 -105 70 -16 0 -60 48 -52 57 4 3 15 -1 24 -9
10 -9 34 -23 53 -32 19 -9 50 -30 67 -46 29 -27 32 -32 21 -55 -13 -29 -30
-32 -48 -10 -7 9 -19 14 -27 11 -7 -3 -13 -1 -13 4 0 6 -7 10 -15 10 -9 0 -18
7 -21 15 -7 17 -34 21 -34 5 0 -5 6 -10 14 -10 8 0 18 -9 21 -21 4 -13 12 -18
21 -15 16 6 64 -35 64 -54 0 -13 -13 -13 -28 2 -18 18 -27 1 -13 -26 13 -24 8
-46 -10 -46 -5 0 -9 7 -9 15 0 9 -9 15 -22 15 -20 0 -20 -1 -4 -19 12 -13 14
-21 6 -26 -18 -11 -45 30 -41 63 1 6 -5 12 -14 12 -8 0 -15 -4 -15 -9 0 -18
-35 -22 -47 -5 -11 14 -9 21 12 40 14 13 25 30 25 39 0 10 5 14 13 10 6 -4 3
1 -7 9 -26 21 -36 20 -36 -2 0 -21 -18 -42 -37 -42 -19 0 -16 47 4 58 10 6 14
16 10 26 -10 25 -20 19 -45 -24 -12 -22 -29 -40 -37 -40 -16 0 -11 21 15 60 9
14 25 45 34 70 29 74 43 83 84 54z m-2569 -8 c-12 -12 -304 -89 -444 -117
-172 -35 -342 -45 -380 -22 -19 11 -18 13 15 26 20 9 88 18 160 21 199 11 297
25 430 61 104 28 235 46 219 31z m524 -36 c-35 -16 -63 -32 -63 -35 0 -4 8 -4
18 0 26 11 157 44 160 40 2 -2 -24 -18 -57 -35 -34 -18 -61 -37 -61 -42 0 -6
8 -7 18 -3 9 4 24 8 32 10 51 10 98 27 119 41 13 10 21 12 17 6 -9 -15 -56
-40 -120 -63 -45 -16 -48 -18 -21 -18 17 -1 55 5 85 13 49 13 53 13 35 -1 -44
-33 -98 -54 -153 -59 -58 -6 -172 11 -172 25 0 15 57 87 82 103 24 16 111 46
133 47 6 0 -18 -13 -52 -29z m3311 6 c34 -14 106 -97 106 -122 0 -17 -61 -34
-121 -34 -58 0 -162 35 -185 63 -11 12 -12 17 -4 10 25 -18 97 -36 117 -29 14
6 8 13 -35 38 -56 32 -66 51 -12 23 17 -9 37 -14 43 -12 7 2 22 0 35 -4 44
-16 11 12 -42 37 -40 19 -46 24 -26 24 14 0 42 -8 63 -19 20 -10 34 -15 31
-10 -3 5 -1 9 5 9 5 0 13 -4 16 -10 3 -5 11 -10 17 -10 6 0 3 9 -7 20 -10 11
-25 20 -34 20 -9 0 -23 5 -31 10 -24 16 24 13 64 -4z m-3784 0 c0 -7 -232 -98
-286 -111 -66 -18 -224 -39 -231 -31 -10 10 -2 14 92 41 265 78 425 116 425
101z m1224 -5 c9 -14 -101 -151 -122 -151 -4 0 -13 4 -21 9 -32 20 66 151 114
151 13 0 26 -4 29 -9z m3212 -41 c224 -57 295 -78 309 -92 7 -7 -13 -8 -55 -3
-131 13 -237 37 -354 82 -212 80 -181 84 100 13z m-2758 24 c32 -22 27 -31
-23 -37 -25 -2 -55 -13 -65 -22 -25 -22 -35 -76 -21 -104 14 -26 57 -28 83 -4
20 18 25 64 6 61 -7 -2 -13 4 -13 12 0 8 16 18 38 23 48 12 87 -4 87 -34 0
-17 -4 -20 -24 -15 -20 5 -24 1 -30 -25 -9 -45 -60 -89 -103 -89 -115 0 -123
186 -9 236 40 17 47 17 74 -2z m1444 -41 c36 -38 68 -106 68 -143 0 -40 -23
-39 -38 3 -7 17 -21 43 -32 57 -16 21 -16 16 6 -38 14 -34 22 -67 18 -73 -4
-7 -12 1 -20 20 -7 17 -29 56 -49 86 l-37 54 18 31 c22 37 33 38 66 3z m-2947
-25 c-84 -43 -92 -63 -10 -28 26 11 50 19 52 17 8 -8 -24 -26 -92 -50 -112
-40 -208 -80 -230 -95 -20 -14 -20 -14 0 -8 178 61 260 86 274 83 9 -2 -2 -9
-25 -15 -23 -7 -52 -20 -65 -30 -13 -10 -41 -27 -62 -37 -21 -11 -40 -23 -43
-26 -6 -10 95 16 175 45 41 15 76 24 79 22 3 -3 -4 -9 -14 -12 -42 -15 -145
-66 -141 -70 2 -3 25 3 51 11 26 9 59 15 74 13 24 -3 20 -6 -35 -35 -34 -18
-90 -43 -125 -57 -36 -13 -120 -51 -187 -85 -161 -80 -192 -80 -75 0 149 101
151 116 8 46 -96 -47 -133 -62 -176 -71 -39 -9 -35 7 5 22 43 16 190 102 184
108 -3 3 -45 -15 -95 -40 -145 -73 -209 -90 -337 -91 -105 0 -112 1 -157 30
-27 17 -48 35 -48 41 0 20 204 122 347 172 174 63 293 95 443 122 63 11 135
27 160 35 50 15 82 22 120 23 17 1 -1 -13 -55 -40z m3904 22 c34 -10 89 -24
124 -30 125 -22 365 -84 492 -126 100 -34 348 -146 374 -170 9 -8 -22 -33 -65
-53 -101 -48 -267 -36 -422 30 -52 22 -111 51 -133 65 -21 13 -39 20 -39 15 0
-12 83 -64 160 -100 49 -23 59 -30 39 -31 -61 -1 -264 84 -276 117 -7 18 -23
17 -23 -2 0 -12 74 -72 177 -143 16 -11 14 -12 -14 -6 -40 7 -495 234 -470
234 10 0 50 -7 88 -16 39 -9 73 -14 75 -11 3 2 -33 19 -78 37 -46 18 -87 37
-92 41 -8 7 101 -20 203 -50 51 -16 27 2 -73 53 -49 25 -85 46 -80 46 5 0 50
-14 99 -31 105 -35 158 -50 164 -44 2 3 -8 9 -23 15 -15 5 -54 23 -87 40 -34
16 -66 27 -72 23 -6 -3 -7 -1 -3 5 4 7 1 12 -8 12 -20 0 -129 41 -123 46 2 2
23 -3 47 -11 24 -8 45 -13 47 -11 2 2 -21 18 -52 35 -30 17 -55 33 -55 36 0
10 39 4 99 -15z m-580 -69 c18 -25 19 -30 5 -49 -13 -19 -51 -32 -108 -37 -28
-2 -41 6 -26 15 9 5 6 13 -10 28 l-23 21 39 -6 39 -6 -19 21 -19 22 34 1 c29
0 31 1 13 9 -12 5 -25 15 -29 22 -6 10 -5 11 6 1 18 -17 48 -18 31 -1 -7 7
-12 16 -12 21 0 13 57 -31 79 -62z m-2723 44 c-3 -8 -9 -23 -13 -32 -5 -12 -2
-15 10 -10 9 3 17 2 17 -3 0 -6 8 -10 18 -10 14 0 15 -2 2 -10 -12 -8 -11 -10
8 -10 28 0 28 -14 1 -34 -21 -14 -21 -15 12 -19 19 -2 9 -3 -22 -1 -63 4 -105
19 -114 41 -6 18 29 78 53 93 25 14 35 12 28 -5z m-2036 -64 c0 -23 -3 -21
-25 18 -31 54 -31 60 0 31 14 -13 25 -35 25 -49z m6800 52 c-1 -5 -9 -24 -20
-43 -21 -38 -28 -18 -8 25 10 23 29 35 28 18z m-3295 -43 c94 -24 161 -58 227
-116 160 -140 232 -365 179 -559 -38 -138 -108 -239 -221 -319 -144 -103 -299
-138 -445 -101 -111 28 -203 81 -286 164 -123 124 -169 228 -169 386 0 179 84
350 220 450 144 105 321 139 495 95z m-3138 -112 c43 -16 42 -24 -4 -33 -39
-7 -33 -12 -123 89 -24 26 -22 26 35 -8 32 -20 74 -42 92 -48z m6145 45 c-11
-16 -36 -43 -55 -61 -33 -32 -35 -33 -74 -20 l-41 12 64 27 c35 15 76 36 91
48 37 27 38 26 15 -6z m-4147 -15 c-4 -13 -17 -39 -29 -58 -12 -19 -28 -50
-35 -67 -15 -38 -30 -41 -56 -13 -13 15 -16 29 -12 56 10 58 87 126 87 77 0
-14 3 -13 16 5 20 29 37 29 29 0z m4295 -109 c-5 -68 -9 -218 -8 -334 3 -233
-4 -282 -54 -377 -33 -62 -73 -98 -144 -129 -68 -31 -75 -18 -14 28 63 47 89
74 119 123 29 48 26 59 -7 27 -42 -40 -56 -35 -32 12 19 38 42 121 34 121 -2
0 -18 -15 -34 -32 l-31 -33 7 40 c4 22 19 84 34 137 15 54 24 95 20 93 -8 -5
-90 -169 -168 -335 -39 -85 -45 -92 -53 -72 -32 85 -17 221 36 326 27 54 30
64 14 55 -46 -24 -133 -195 -146 -284 -3 -25 -9 -45 -14 -45 -15 0 -21 92 -10
148 22 113 77 199 280 442 57 69 120 146 140 172 19 26 36 46 38 44 2 -1 -1
-59 -7 -127z m-6422 -44 c66 -82 145 -179 176 -215 64 -75 113 -161 132 -234
16 -58 19 -172 5 -180 -5 -3 -17 26 -26 66 -23 92 -74 194 -120 238 l-37 35
39 -74 38 -74 0 -123 c0 -74 -4 -127 -11 -134 -7 -7 -22 18 -52 87 -51 120
-171 354 -172 333 0 -8 14 -64 31 -124 16 -60 29 -118 27 -130 -3 -18 -7 -16
-31 19 -25 36 -27 38 -27 15 0 -14 11 -49 25 -79 14 -30 23 -56 20 -59 -2 -3
-21 8 -41 23 l-36 28 7 -24 c13 -41 69 -112 122 -154 59 -46 65 -57 25 -46
-70 20 -143 74 -169 125 -36 70 -45 129 -49 351 -2 121 -6 282 -7 358 -2 75 0
134 3 130 4 -5 61 -75 128 -158z m4369 159 c-3 -3 -12 -4 -19 -1 -8 3 -5 6 6
6 11 1 17 -2 13 -5z m-2832 -65 c-50 -46 -54 -63 -6 -28 17 12 34 19 38 16 4
-4 -3 -14 -15 -23 -12 -8 -20 -20 -17 -25 4 -5 0 -9 -8 -9 -8 0 -20 -7 -27
-15 -18 -22 4 -19 59 5 24 11 46 19 48 16 2 -2 -13 -18 -34 -35 -52 -43 -26
-39 32 5 36 28 44 31 36 15 -7 -11 -15 -21 -19 -21 -4 0 -15 -13 -24 -29 -25
-45 -84 -58 -142 -32 -24 10 -47 28 -51 39 -13 43 35 99 123 143 55 27 56 23
7 -22z m3209 12 c49 -34 106 -95 106 -114 0 -38 -94 -86 -144 -73 -11 3 -43
28 -71 57 l-50 52 47 -32 c47 -31 78 -40 78 -21 0 6 -3 10 -7 10 -5 0 -24 14
-43 31 -19 17 -26 26 -14 20 31 -15 108 -41 111 -37 2 2 -21 26 -51 54 -58 55
-61 64 -11 34 17 -10 38 -21 48 -25 16 -6 16 -5 1 19 -9 14 -29 31 -43 39 -14
8 -20 14 -13 15 7 0 33 -13 56 -29z m-491 -13 c30 -40 47 -90 47 -134 0 -52
-17 -40 -31 21 -7 30 -18 60 -26 66 -16 14 -17 20 7 -89 26 -118 29 -235 6
-211 -2 2 -12 48 -21 101 -9 54 -27 131 -39 172 -21 68 -22 76 -8 90 24 23 38
20 65 -16z m-1805 -29 c11 -17 10 -25 -7 -53 l-20 -32 23 -25 c13 -14 31 -40
40 -56 14 -28 14 -36 1 -81 -25 -84 -96 -108 -156 -54 -27 24 -31 34 -31 77 0
63 16 105 42 112 22 6 26 18 10 28 -17 10 -11 33 10 40 11 4 27 20 35 36 18
34 35 37 53 8z m-818 -9 c0 -5 -5 -10 -11 -10 -5 0 -7 5 -4 10 3 6 8 10 11 10
2 0 4 -4 4 -10z m2100 -8 c0 -4 14 -16 32 -26 29 -18 30 -20 13 -32 -29 -21
-44 -17 -65 19 -25 40 -25 47 0 47 11 0 20 -4 20 -8z m-1180 -41 c0 -9 -11
-28 -26 -41 -21 -21 -27 -22 -34 -10 -13 20 -12 26 5 61 13 25 19 28 35 19 11
-6 20 -19 20 -29z m1392 -13 c58 -112 2 -278 -111 -325 -29 -13 -36 -13 -48 0
-13 12 -9 18 31 41 71 42 116 135 101 213 l-6 35 -23 -25 c-30 -32 -98 -67
-130 -67 -23 0 -46 24 -46 48 0 5 17 9 38 8 41 -1 120 47 148 90 9 13 18 24
20 24 2 0 14 -19 26 -42z m3300 -70 c-69 -148 -250 -361 -376 -443 -65 -42
-216 -109 -216 -96 0 14 101 87 168 120 34 17 62 33 62 35 0 3 -26 -6 -57 -19
-71 -28 -193 -56 -193 -44 0 19 46 49 99 65 95 28 238 113 319 189 75 70 169
187 207 258 37 69 27 19 -13 -65z m-8199 49 c45 -76 192 -251 248 -294 87 -67
169 -112 244 -134 79 -23 115 -43 115 -63 0 -10 -17 -9 -82 6 -45 11 -95 26
-110 34 -53 28 -28 5 30 -26 72 -39 155 -110 128 -110 -55 0 -270 147 -364
248 -102 110 -221 288 -237 355 -10 39 -1 34 28 -16z m2713 -1 c-42 -56 -35
-63 34 -38 13 5 13 3 2 -11 -8 -9 -11 -25 -7 -37 5 -14 2 -20 -10 -20 -9 0
-13 -5 -9 -11 3 -6 17 -9 30 -6 29 5 31 -8 4 -23 -30 -16 -89 5 -101 37 -19
50 -11 80 28 112 49 41 62 39 29 -3z m2790 -21 c19 -29 13 -78 -13 -107 -18
-20 -73 -24 -90 -7 -14 14 4 49 22 42 7 -2 20 3 29 12 18 18 22 45 6 45 -5 0
-10 5 -10 11 0 5 5 7 10 4 13 -8 13 1 -1 26 -10 19 -9 19 10 9 12 -6 28 -22
37 -35z m-3306 4 l-35 -20 38 6 c21 3 46 8 55 11 12 4 10 1 -3 -7 -11 -7 -48
-34 -83 -61 -60 -46 -98 -67 -223 -121 -31 -14 -60 -30 -64 -37 -5 -7 -4 -11
1 -9 5 3 25 12 44 21 19 8 64 30 100 47 36 17 70 31 77 31 6 0 49 23 95 50
l83 51 -85 -80 c-69 -65 -79 -78 -53 -69 17 7 30 15 27 20 -3 4 1 5 8 3 7 -3
45 15 83 40 l70 46 -99 -96 c-93 -90 -138 -122 -276 -198 -30 -17 -71 -40 -90
-52 -79 -50 -235 -115 -273 -115 -5 0 5 15 21 34 17 19 49 71 72 114 56 108
162 239 230 283 48 31 231 110 268 115 8 2 16 5 20 8 3 3 10 6 16 6 6 -1 -5
-10 -24 -21z m780 -83 c-19 -72 -26 -86 -43 -86 -45 0 -63 77 -27 122 18 24
80 61 88 53 2 -2 -6 -42 -18 -89z m3121 49 c156 -67 210 -120 320 -312 39 -69
87 -140 106 -159 l34 -35 -28 7 c-85 19 -116 31 -213 79 -154 78 -303 185
-396 285 -43 47 -72 80 -64 74 8 -6 44 -33 80 -60 84 -65 105 -76 58 -29 -21
20 -38 38 -38 41 0 7 38 -15 45 -26 3 -6 13 -10 22 -10 18 0 -42 59 -89 88
-59 35 -24 30 50 -7 138 -70 274 -132 279 -128 2 3 -47 31 -109 62 -99 51
-248 141 -248 151 0 7 54 -18 84 -39 l31 -22 -34 44 -35 43 34 -7 c19 -4 69
-22 111 -40z m-797 -79 c16 -35 20 -124 7 -181 -6 -25 -11 -14 -33 78 -15 60
-24 115 -21 123 9 24 30 15 47 -20z m561 -57 c22 -16 78 -65 125 -108 47 -43
112 -98 145 -123 65 -50 104 -88 88 -88 -25 0 -323 220 -323 239 0 5 -21 32
-46 60 -52 58 -48 65 11 20z m-4261 11 c17 -1 18 -2 6 -9 -20 -12 -130 -34
-137 -28 -2 3 1 15 7 27 11 20 17 22 57 16 25 -3 55 -6 67 -6z m730 -15 c-16
-24 -32 -37 -18 -13 4 7 3 8 -4 4 -6 -4 -9 -13 -6 -20 6 -17 -82 -97 -179
-161 -39 -26 -84 -56 -100 -67 -37 -26 -119 -60 -126 -53 -3 3 1 10 9 15 52
29 194 135 260 192 64 56 165 128 177 128 2 0 -4 -11 -13 -25z m4352 -3 c17
-24 12 -25 -46 -13 -28 6 -65 11 -82 11 -44 0 -23 18 27 23 55 5 86 -1 101
-21z m-6266 -141 c50 -32 6 -16 -65 24 -52 29 -115 78 -115 89 0 2 33 -17 73
-43 39 -26 88 -58 107 -70z m2096 77 c-85 -106 -146 -188 -137 -188 5 0 38 37
74 83 77 98 129 147 66 62 -48 -66 -60 -85 -85 -130 -11 -20 8 -5 55 42 39 40
81 77 93 83 21 11 21 10 -3 -12 -14 -12 -45 -47 -68 -75 -35 -44 -39 -53 -24
-53 10 0 39 20 63 45 54 55 72 59 31 8 -28 -37 -130 -206 -161 -268 -29 -59
-142 -158 -245 -215 -54 -30 -132 -79 -172 -109 -41 -29 -76 -51 -79 -48 -2 2
0 16 5 30 12 32 58 67 141 108 103 50 190 111 259 180 68 69 138 165 127 176
-7 7 -17 -2 -141 -118 -120 -112 -339 -249 -397 -249 -40 0 -13 36 135 185
131 131 217 229 217 248 0 7 -17 -7 -38 -31 -21 -24 -46 -42 -57 -42 -21 0
-53 16 -45 23 3 2 32 25 65 52 33 26 101 84 152 128 80 70 180 133 192 121 2
-2 -8 -18 -23 -36z m3150 29 c6 2 29 -9 51 -24 70 -47 323 -274 317 -284 -11
-19 -41 -7 -79 31 -39 40 -63 53 -48 26 14 -25 128 -149 199 -216 141 -135
196 -201 181 -217 -10 -9 -179 76 -264 133 -46 31 -129 98 -185 150 -89 84
-118 105 -118 89 0 -14 54 -87 110 -148 73 -79 152 -137 267 -197 81 -41 143
-96 143 -125 0 -8 -3 -15 -7 -15 -7 0 -64 42 -85 63 -7 7 -47 33 -88 57 -223
129 -249 156 -383 400 -16 30 -47 76 -69 103 -22 26 -35 47 -30 47 5 0 15 -7
22 -15 13 -16 137 -105 146 -105 8 0 -30 47 -84 105 -26 28 -54 59 -62 70 -20
26 81 -55 148 -119 28 -28 52 -47 52 -42 0 12 -52 79 -77 99 -13 10 -23 24
-23 30 0 8 4 7 12 -1 7 -7 17 -12 22 -12 6 0 -19 30 -54 66 -36 37 -56 62 -45
56 11 -5 25 -8 31 -5z m-2707 -67 c-2 -69 -2 -70 -30 -70 -34 0 -59 23 -59 54
0 29 48 85 73 86 16 0 18 -8 16 -70z m5001 62 c0 -8 -118 -86 -170 -112 -38
-19 -19 -4 72 61 83 58 98 66 98 51z m-2710 -31 c28 -53 5 -265 -47 -419 -111
-334 -388 -608 -728 -720 -94 -31 -125 -36 -125 -19 0 15 21 26 118 63 279
105 525 324 637 568 65 140 101 293 106 451 1 44 4 83 6 88 7 13 22 7 33 -12z
m-3606 -42 c-34 -38 -73 -52 -130 -46 -64 7 -104 25 -83 38 8 5 30 9 49 9 19
1 67 7 105 14 39 7 72 11 74 9 2 -1 -4 -12 -15 -24z m4975 11 c169 -25 179
-31 80 -52 -80 -16 -143 -4 -187 37 -21 19 -35 35 -32 35 3 0 65 -9 139 -20z
m-1655 -92 c21 -59 -52 -258 -106 -292 -31 -19 -31 3 0 62 34 64 62 164 62
225 0 31 3 38 17 35 10 -2 22 -15 27 -30z m-3599 -7 c-7 -23 -25 -29 -25 -8 0
14 21 39 28 33 2 -3 1 -14 -3 -25z m1362 -53 c-20 -40 -41 -86 -47 -103 -10
-30 -10 -30 7 -8 10 12 31 40 47 62 16 23 31 39 33 38 1 -2 -11 -29 -27 -61
-37 -70 -92 -198 -87 -202 2 -2 25 38 52 89 48 92 75 137 75 125 0 -22 -131
-297 -142 -298 -3 0 -7 21 -8 48 0 26 -1 57 -1 70 -1 31 -10 26 -51 -28 -19
-25 -49 -52 -68 -62 -35 -16 -51 -9 -32 15 5 7 22 35 38 62 53 96 61 110 97
166 39 62 137 173 145 165 2 -3 -11 -38 -31 -78z m522 -17 c12 -54 34 -117 51
-147 16 -30 30 -61 30 -69 0 -28 -30 -15 -55 24 -57 85 -89 220 -65 267 7 13
15 23 16 21 2 -1 12 -45 23 -96z m2315 -61 c35 -52 84 -134 110 -182 l46 -87
-32 9 c-18 6 -44 23 -58 39 -14 16 -40 46 -57 67 -30 36 -32 37 -23 11 18 -52
22 -89 8 -85 -12 4 -151 269 -144 275 2 2 18 -16 37 -41 19 -24 42 -49 52 -55
16 -11 16 -8 -2 28 -12 22 -25 42 -31 46 -5 3 -15 16 -21 28 -9 18 -5 16 21
-8 l32 -30 -21 45 c-12 25 -29 59 -38 75 l-16 30 37 -35 c21 -19 66 -78 100
-130z m-730 124 c43 -44 30 -95 -30 -120 -29 -12 -39 -12 -62 -2 -77 37 -52
148 34 148 20 0 40 -9 58 -26z m2015 -7 c0 -21 -1 -21 -9 -2 -12 28 -12 37 0
30 6 -3 10 -16 9 -28z m-3891 -29 c-1 -13 2 -49 6 -80 4 -32 5 -58 1 -58 -3 0
-19 7 -35 15 -35 18 -57 74 -40 104 21 41 71 54 68 19z m442 -33 c32 -46 56
-57 66 -30 10 24 19 18 33 -21 16 -44 3 -58 -44 -48 -43 9 -74 32 -102 77 -46
73 -3 94 47 22z m-1897 6 c-17 -11 -34 -29 -38 -40 -9 -31 -25 -25 -25 8 0 23
6 32 28 39 15 6 36 11 47 11 16 1 13 -3 -12 -18z m5227 -1 c11 -11 20 -32 20
-47 l0 -28 -31 38 c-16 20 -38 41 -47 47 -14 8 -12 9 11 10 15 0 36 -9 47 -20z
m-3966 -192 c-25 -56 -52 -114 -59 -128 -15 -29 -45 -58 -45 -43 0 17 136 273
145 273 2 0 -17 -46 -41 -102z m-1236 -88 c43 -49 87 -111 103 -145 44 -96 45
-115 1 -50 -22 33 -52 71 -66 84 -22 21 -20 14 17 -58 36 -70 42 -93 45 -157
6 -116 -2 -121 -52 -29 -24 44 -64 111 -90 148 -25 38 -46 73 -46 78 0 5 -4 9
-9 9 -11 0 -3 -82 15 -144 8 -27 14 -54 14 -59 0 -14 -31 14 -52 48 l-18 30 6
-35 c11 -61 49 -133 103 -195 29 -33 48 -61 42 -63 -17 -6 -72 28 -122 75 -72
67 -92 128 -92 273 1 63 6 135 12 160 6 25 11 83 11 130 l0 84 51 -49 c28 -28
85 -88 127 -135z m3942 98 c0 -3 20 -39 45 -79 25 -40 45 -80 45 -89 -1 -29
-57 50 -109 153 -50 101 -51 102 -16 62 19 -22 35 -43 35 -47z m1402 -137 c21
-157 21 -166 6 -242 -22 -106 -58 -163 -137 -216 -35 -24 -72 -43 -83 -43 -17
0 -9 13 41 64 60 63 100 131 101 170 0 19 -1 19 -20 -2 -32 -34 -41 -26 -23
21 15 43 27 176 13 160 -10 -12 -132 -210 -160 -261 -23 -41 -25 -42 -33 -20
-22 58 16 215 69 286 14 17 21 32 15 32 -14 0 -74 -77 -105 -135 -21 -39 -26
-44 -21 -20 19 93 90 200 224 338 82 85 86 88 88 60 2 -15 13 -102 25 -192z
m-6587 171 c55 -17 198 -58 317 -91 319 -90 318 -89 433 -237 35 -44 96 -111
137 -148 l73 -67 -50 25 c-90 45 -158 100 -228 186 -37 47 -75 89 -84 94 -22
12 -244 68 -250 63 -2 -2 25 -23 61 -45 35 -22 70 -50 76 -62 13 -25 15 -25
-58 13 -47 25 -218 97 -229 97 -16 0 20 -26 110 -79 98 -58 167 -114 155 -127
-8 -7 -238 109 -323 163 -86 56 -165 125 -230 199 -33 39 -43 56 -30 52 11 -4
65 -20 120 -36z m7234 -17 c1 -15 -9 -25 -35 -34 -44 -16 -54 -8 -27 22 11 12
26 33 33 47 13 23 14 24 21 5 4 -11 8 -29 8 -40z m480 -4 c-105 -120 -232
-213 -419 -308 -110 -55 -120 -59 -120 -43 0 18 56 61 158 122 56 33 101 62
99 64 -5 5 -162 -58 -225 -90 -30 -15 -56 -25 -59 -22 -7 7 43 52 99 88 27 17
48 33 48 34 0 12 -227 -42 -258 -62 -12 -8 -49 -48 -81 -89 -69 -87 -104 -118
-186 -168 -92 -56 -97 -44 -14 32 42 38 109 111 150 161 41 51 92 102 114 115
47 27 184 72 373 121 199 52 345 93 350 99 3 3 9 5 14 5 5 0 -14 -27 -43 -59z
m-7265 7 c20 -23 34 -43 33 -45 -2 -2 -21 3 -43 10 -33 12 -39 19 -42 45 -4
43 9 40 52 -10z m1296 23 c0 -23 -38 -64 -80 -86 -35 -18 -137 -55 -152 -55
-11 0 108 91 171 132 53 33 61 34 61 9z m4240 -56 c47 -34 99 -69 115 -78 48
-26 11 -19 -74 13 -81 32 -155 85 -164 120 -8 32 24 17 123 -55z m-983 20 c-9
-64 -66 -209 -117 -298 -144 -253 -373 -442 -645 -533 -99 -33 -241 -58 -250
-44 -2 3 44 18 102 33 226 60 398 156 557 312 145 142 259 323 317 503 26 81
45 96 36 27z m-2284 -47 c22 -48 25 -63 15 -70 -7 -4 -16 -8 -20 -8 -12 0 -49
69 -55 105 -5 30 -3 35 14 35 14 0 26 -17 46 -62z m-53 -80 c0 -5 -4 -8 -8 -8
-13 0 -46 116 -37 131 5 8 15 -11 26 -52 10 -35 18 -67 19 -71z m-1210 113 c0
-16 -80 -81 -99 -81 -22 0 -69 35 -59 45 5 6 127 41 151 44 4 1 7 -3 7 -8z
m1058 -48 c-19 -55 -90 -163 -107 -163 -21 0 -14 18 45 106 35 52 64 99 64
105 0 5 4 9 9 9 5 0 0 -26 -11 -57z m3805 17 c25 0 21 -12 -15 -37 -29 -21
-33 -21 -62 -6 -32 16 -86 62 -86 73 0 4 33 -1 73 -11 39 -10 80 -19 90 -19z
m-1087 -148 c19 -68 -41 -14 -81 73 -43 94 -38 101 19 25 31 -41 59 -85 62
-98z m-902 133 c18 -14 17 -16 -17 -54 -59 -65 -81 -86 -90 -83 -12 4 -67 -27
-67 -38 0 -20 -28 -10 -33 12 -7 27 -1 38 23 38 19 0 30 19 30 51 0 23 9 24
38 3 21 -14 23 -13 47 13 14 15 28 38 31 51 7 26 12 27 38 7z m-990 -29 c8
-19 31 -53 52 -76 37 -41 38 -43 19 -57 -18 -12 -21 -12 -30 3 -5 10 -22 31
-36 47 l-25 30 -20 -30 c-10 -17 -42 -56 -71 -87 l-52 -57 -16 24 c-14 23 -13
26 36 78 28 30 67 78 86 107 19 28 37 52 39 52 2 0 10 -15 18 -34z m1032 -72
c38 -29 42 -41 17 -59 -14 -11 -13 -15 15 -40 25 -22 29 -31 21 -46 -10 -20
-126 -109 -191 -148 -45 -27 -57 -13 -23 27 29 34 31 42 11 42 -8 0 -18 12
-24 28 l-9 27 -17 -32 c-18 -35 -22 -38 -31 -24 -3 6 9 26 26 45 l31 36 -25 0
c-15 0 -32 -9 -41 -22 -19 -26 -21 -14 -5 30 6 17 20 34 31 38 23 7 127 84
148 108 17 22 26 20 66 -10z m-1577 -40 c46 -52 47 -56 26 -74 -18 -15 -27 -5
-70 73 -35 63 -11 64 44 1z m2248 4 c-3 -7 -5 -2 -5 12 0 14 2 19 5 13 2 -7 2
-19 0 -25z m-2460 0 c-3 -8 -6 -5 -6 6 -1 11 2 17 5 13 3 -3 4 -12 1 -19z
m-1062 -51 c-10 -24 -15 -70 -15 -135 0 -105 -13 -199 -31 -217 -7 -7 -8 4 -2
35 15 87 8 231 -13 292 l-21 57 46 3 c25 2 47 3 49 2 1 0 -5 -17 -13 -37z
m753 14 c53 -27 131 -99 164 -150 32 -51 38 -115 13 -147 -14 -18 -14 -17 -15
12 0 16 -11 53 -25 81 -28 55 -153 183 -179 183 -9 0 -33 -8 -54 -19 -20 -10
-55 -24 -77 -30 -70 -21 -115 -44 -115 -58 0 -18 2 -17 105 18 143 49 132 50
206 -28 70 -74 99 -124 99 -170 0 -30 -66 -146 -79 -139 -4 3 -13 -11 -20 -30
-7 -20 -15 -33 -18 -30 -3 3 9 39 26 81 18 42 30 84 28 93 -3 11 -12 -2 -27
-36 -26 -61 -43 -57 -42 9 1 63 -21 99 -61 99 -18 0 -43 -7 -56 -16 -20 -14
-22 -22 -17 -55 5 -30 2 -40 -11 -48 -10 -6 -12 -11 -5 -11 6 0 12 -7 12 -15
0 -8 -3 -15 -7 -15 -15 0 -53 67 -53 93 0 17 -5 27 -14 27 -22 0 -28 -17 -14
-39 10 -17 9 -24 -10 -44 -26 -27 -32 -68 -7 -47 13 11 19 4 40 -45 26 -58 48
-141 59 -226 8 -55 -11 -81 -38 -54 -19 19 -20 37 -4 53 9 9 8 24 -1 64 -13
59 -65 181 -73 173 -2 -3 -16 17 -29 44 -13 27 -32 52 -43 55 -15 4 -18 11
-13 36 6 27 3 33 -26 51 -55 34 -132 1 -139 -60 -3 -25 -4 -25 -14 -6 -26 47
-25 73 3 100 47 43 112 45 193 6 l39 -19 3 91 3 90 40 14 c22 7 54 20 71 28
75 35 120 54 132 54 7 1 29 -8 50 -18z m1222 11 c0 -4 17 -14 38 -22 20 -8 40
-16 44 -18 4 -2 13 8 19 22 17 36 29 32 29 -9 0 -30 4 -37 35 -49 24 -10 35
-22 35 -35 0 -25 -8 -26 -46 -6 -42 22 -47 20 -68 -33 -58 -145 -73 -171 -96
-165 -31 8 -35 28 -10 53 26 26 23 35 -17 61 -28 18 -32 18 -46 4 -16 -16 -39
-20 -50 -9 -10 10 21 62 45 75 18 10 24 8 37 -7 9 -11 28 -27 43 -36 l26 -17
22 55 c13 30 21 56 19 57 -2 2 -16 9 -32 17 -25 12 -29 11 -53 -11 -25 -24
-26 -24 -41 -4 -32 44 -34 52 -9 48 16 -3 31 2 43 15 19 22 33 27 33 14z m522
-9 c17 -15 19 -15 38 2 19 17 21 17 40 0 22 -20 18 -35 -10 -35 -32 0 -32 -18
0 -102 36 -94 48 -162 31 -172 -6 -4 -13 -1 -15 6 -3 7 -21 58 -41 113 -20 55
-38 105 -40 112 -3 8 -20 6 -60 -9 -31 -11 -59 -17 -62 -14 -12 11 7 34 34 41
39 9 53 23 53 51 0 28 7 30 32 7z m1510 -22 c45 -21 95 -43 110 -49 22 -9 28
-20 34 -57 3 -26 4 -66 0 -91 -3 -24 -3 -44 0 -44 2 0 27 11 54 25 59 30 114
32 157 5 40 -24 51 -59 28 -94 l-17 -26 -17 32 c-22 44 -57 60 -104 47 -46
-12 -55 -27 -29 -48 15 -12 18 -21 11 -38 -4 -13 -13 -23 -18 -23 -13 0 -31
33 -31 58 0 15 -5 18 -25 14 -28 -5 -42 -21 -29 -31 5 -3 18 -16 28 -28 18
-22 18 -24 1 -43 -24 -27 -32 -25 -51 12 -13 26 -14 35 -4 51 10 17 10 19 -5
13 -14 -5 -16 -4 -7 7 15 18 6 26 -18 20 -15 -4 -18 -11 -14 -30 5 -19 2 -25
-15 -30 -11 -3 -19 -9 -16 -13 3 -4 -2 -13 -10 -20 -21 -17 -29 8 -21 63 6 39
4 44 -23 60 -37 21 -69 22 -93 0 -14 -12 -18 -31 -18 -82 l-1 -66 -24 40 c-44
72 -46 74 -40 25 3 -25 15 -62 26 -84 11 -21 18 -40 17 -42 -2 -2 -26 27 -52
64 -58 79 -68 128 -40 187 23 49 131 165 153 165 9 0 63 -15 119 -34 68 -23
104 -31 108 -24 8 13 -21 37 -56 45 -14 3 -58 19 -97 34 -86 34 -105 30 -171
-34 -61 -59 -99 -116 -113 -171 -17 -68 -39 -56 -39 23 0 66 95 181 192 234
46 24 66 22 160 -22z m641 29 c24 0 26 -2 18 -19 -14 -26 -31 -177 -25 -229 2
-23 6 -60 8 -82 2 -22 1 -38 -4 -35 -12 8 -21 63 -29 190 -5 83 -13 131 -25
154 l-18 34 24 -6 c12 -4 36 -7 51 -7z m-3381 -97 c139 -208 278 -336 462
-426 99 -49 255 -105 326 -117 l45 -8 -41 -1 c-83 -2 -281 61 -404 131 -179
101 -363 287 -449 455 -11 23 -21 47 -21 53 0 26 22 3 82 -87z m557 51 c22
-28 28 -78 11 -89 -9 -5 -60 83 -60 105 0 19 29 10 49 -16z m-450 -86 c171
-196 310 -292 536 -369 71 -24 108 -49 94 -63 -2 -3 -38 4 -79 15 -244 66
-443 207 -598 423 -48 67 -13 62 47 -6z m-394 31 c11 -17 -1 -21 -15 -4 -8 9
-8 15 -2 15 6 0 14 -5 17 -11z m2645 1 c0 -5 -5 -10 -11 -10 -5 0 -7 5 -4 10
3 6 8 10 11 10 2 0 4 -4 4 -10z m-4943 -105 c54 -13 136 -32 183 -40 138 -26
204 -51 260 -102 27 -25 50 -49 50 -54 0 -4 -19 0 -42 10 -49 20 -138 44 -145
38 -2 -3 31 -21 74 -41 106 -51 245 -127 240 -132 -2 -2 -37 10 -78 27 -152
63 -339 124 -339 110 0 -3 37 -28 83 -54 141 -82 154 -101 46 -67 -78 24 -165
74 -267 155 -66 53 -184 175 -168 175 3 0 49 -11 103 -25z m7252 -68 c-150
-146 -277 -222 -413 -248 -27 -5 -51 -7 -54 -5 -2 3 18 16 45 29 79 41 189
107 176 107 -37 0 -240 -65 -357 -115 -21 -9 -40 -14 -43 -12 -6 7 87 57 199
108 53 24 95 45 93 47 -4 4 -121 -14 -152 -24 -35 -11 63 68 113 91 27 13 120
37 205 54 85 17 174 37 199 45 91 29 90 20 -11 -77z m-6577 -56 c188 -89 263
-136 393 -240 50 -40 99 -79 109 -87 11 -7 18 -16 15 -19 -3 -2 -90 50 -195
117 -183 118 -354 216 -354 203 0 -4 14 -26 31 -51 33 -45 99 -100 209 -173
170 -114 453 -341 440 -354 -3 -2 -63 38 -135 89 -71 51 -183 130 -249 176
-270 188 -396 298 -475 412 l-34 48 39 -20 c21 -12 114 -57 206 -101z m1853
62 c4 -26 3 -43 -3 -43 -12 0 -22 34 -22 75 0 41 16 20 25 -32z m2201 11 c8
-58 -12 -88 -86 -127 -63 -33 -77 -49 -85 -100 -8 -42 -25 -41 -25 2 0 56 44
101 133 135 l37 15 0 60 c0 72 16 81 26 15z m2039 -1 c-88 -115 -223 -239
-390 -358 -60 -43 -132 -97 -160 -120 -148 -122 -310 -236 -303 -214 6 19 291
257 453 379 127 95 199 160 178 160 -5 0 -18 -9 -28 -20 -10 -11 -25 -20 -34
-20 -9 0 1 11 21 25 20 14 41 25 46 25 5 0 15 7 22 15 10 12 10 15 -1 15 -31
0 -125 -54 -312 -179 -109 -73 -201 -130 -204 -127 -3 3 7 16 23 29 16 13 54
45 84 70 145 120 276 197 581 343 63 30 64 29 24 -23z m-3059 -13 c60 -26 123
-121 111 -167 -4 -14 -5 -13 -6 5 -1 31 -34 92 -63 119 -32 30 -90 53 -133 53
-19 0 -35 5 -35 10 0 14 75 2 126 -20z m1154 15 c0 -8 -4 -15 -10 -15 -5 0 -7
7 -4 15 4 8 8 15 10 15 2 0 4 -7 4 -15z m-1305 -5 c-11 -5 -27 -9 -35 -9 -13
-1 -13 0 0 9 8 5 24 9 35 9 l20 0 -20 -9z m-71 -25 c-10 -8 -23 -15 -28 -15
-6 0 -1 7 10 15 10 8 23 15 28 15 6 0 1 -7 -10 -15z m178 -5 c38 -11 83 -55
100 -99 5 -14 11 -47 12 -73 2 -40 -1 -49 -17 -54 -10 -3 -24 -1 -31 6 -8 9
-6 16 12 30 28 23 28 39 -4 85 -32 48 -60 70 -106 86 -34 11 -40 9 -85 -18
-100 -61 -140 -170 -90 -244 19 -29 28 -33 55 -31 18 2 32 -1 32 -7 0 -19 32
-41 59 -41 32 0 51 16 51 45 1 18 21 55 31 55 2 0 4 -14 4 -32 0 -26 5 -33 25
-38 23 -5 22 -7 -18 -23 -62 -25 -134 -22 -180 7 -101 65 -123 153 -66 268 34
67 130 102 216 78z m-1642 -15 c18 -22 8 -48 -24 -56 -37 -10 -46 -5 -46 31 0
39 45 55 70 25z m3255 -25 c0 -32 -2 -35 -30 -35 -26 0 -30 4 -33 29 -4 32 12
48 43 44 16 -2 20 -11 20 -38z m-3591 -11 c13 -20 12 -23 -12 -45 -15 -13 -22
-24 -15 -24 35 -1 114 -125 128 -200 l6 -35 -19 40 c-11 22 -42 70 -69 107
-28 37 -56 81 -63 97 -12 30 -30 42 -30 20 0 -5 -4 -7 -10 -4 -16 10 -12 43 8
54 28 17 60 12 76 -10z m969 -61 c29 -39 41 -87 27 -108 -7 -11 -10 -5 -10 23
0 57 -23 92 -85 127 -68 39 -72 49 -6 15 28 -13 61 -39 74 -57z m2983 61 c18
-20 18 -21 -1 -35 -29 -21 -48 -13 -56 24 -6 28 -4 32 16 32 12 0 30 -9 41
-21z m-3144 -57 c48 -31 88 -62 88 -69 0 -7 -9 -35 -20 -63 -13 -32 -20 -74
-20 -115 0 -35 -3 -66 -7 -68 -5 -3 -46 18 -92 47 l-84 51 -88 0 c-53 0 -89 4
-88 10 0 16 56 56 107 77 26 10 36 17 22 14 -14 -3 -32 -6 -41 -6 -8 0 -41
-16 -74 -35 -32 -20 -60 -34 -62 -32 -2 3 18 28 44 57 53 59 109 89 166 90 25
0 36 4 31 11 -15 25 -142 -8 -196 -51 -36 -27 -35 -15 0 41 37 56 61 77 109
95 60 22 108 10 205 -54z m1148 48 c22 0 64 -45 55 -59 -3 -6 -20 -11 -36 -11
-22 0 -32 6 -38 23 -5 12 -7 25 -4 30 2 4 -5 7 -16 7 -11 0 -22 4 -26 9 -7 12
27 20 40 9 5 -4 16 -8 25 -8z m1330 -5 c30 -16 61 -52 100 -120 l23 -40 -34
31 c-43 39 -107 64 -162 63 l-42 0 54 -15 c69 -18 109 -43 147 -91 48 -60 51
-70 11 -40 -43 32 -108 58 -146 56 -22 -1 -20 -3 13 -12 21 -6 59 -30 85 -53
46 -42 52 -66 11 -44 -14 7 -50 11 -89 8 -54 -3 -76 -9 -116 -36 -28 -17 -66
-40 -85 -49 -19 -10 -36 -21 -38 -25 -7 -15 -29 -8 -49 15 -20 21 -41 87 -29
87 3 0 12 -15 19 -32 15 -35 44 -65 53 -55 3 3 0 15 -6 27 -6 12 -9 34 -5 49
4 18 -2 52 -15 91 -25 74 -27 70 84 145 73 50 86 55 134 55 29 0 66 -7 82 -15z
m-1397 -12 c6 -10 -3 -32 -25 -62 -14 -20 -20 -22 -33 -11 -18 15 -20 66 -2
73 19 8 55 8 60 0z m-1563 -172 c0 -120 3 -151 15 -161 18 -15 20 -51 3 -68
-18 -18 -26 -15 -42 17 -14 25 -14 30 -1 41 8 7 12 17 9 22 -9 14 -34 196 -34
248 0 41 2 46 25 48 l25 2 0 -149z m-454 123 c44 -21 117 -104 137 -155 19
-48 15 -49 -13 -4 -29 46 -86 75 -147 74 -82 -1 -96 -16 -20 -21 61 -4 71 -7
100 -37 24 -25 27 -32 12 -26 -40 14 -98 19 -91 7 4 -7 15 -12 25 -12 32 0 79
-24 100 -52 l21 -26 -69 -4 c-59 -3 -83 -11 -166 -53 -92 -47 -97 -49 -123
-35 -20 11 -32 31 -45 75 -10 33 -23 75 -28 93 -9 29 -8 38 15 70 32 46 81 80
149 103 65 23 100 23 143 3z m3708 -91 c-5 -60 -9 -137 -10 -173 -2 -93 -1
-92 -26 -88 -29 4 -35 38 -13 71 8 13 15 33 14 43 -1 10 -1 72 -1 137 2 113 3
117 23 117 22 0 22 -2 13 -107z m552 92 c65 -19 141 -70 160 -106 13 -27 13
-36 -1 -87 -36 -127 -40 -136 -67 -151 -25 -14 -31 -13 -130 38 -85 43 -113
53 -160 54 -32 1 -58 5 -58 9 0 15 62 49 102 57 l43 9 -48 1 c-27 1 -57 -4
-68 -9 -29 -16 -22 2 11 28 36 28 102 52 149 53 l36 1 -30 9 c-35 11 -109 2
-147 -17 -14 -8 -36 -26 -47 -40 -14 -18 -21 -22 -21 -11 0 23 75 113 122 147
47 34 80 37 154 15z m-238 -17 c2 -8 -17 -39 -42 -68 -25 -29 -55 -72 -66 -94
-19 -39 -20 -39 -20 -13 0 32 29 93 74 154 31 42 48 49 54 21z m-4827 -5 c13
-16 12 -17 -3 -4 -10 7 -18 15 -18 17 0 8 8 3 21 -13z m4662 -41 c-35 -82 -70
-232 -52 -232 14 0 11 -46 -5 -59 -20 -17 -54 32 -37 52 6 8 8 16 5 20 -11 10
25 168 51 224 21 47 27 53 40 43 13 -10 12 -16 -2 -48z m-1793 28 c26 -14 41
-44 34 -65 -4 -8 -18 -22 -33 -29 -22 -12 -30 -12 -53 0 -34 18 -36 49 -6 81
24 26 31 27 58 13z m-126 -13 c25 -18 19 -72 -8 -72 -21 0 -42 45 -32 70 7 18
17 19 40 2z m309 -74 c-11 -31 -44 -73 -56 -72 -8 0 -8 2 1 6 7 3 22 22 32 44
21 40 34 53 23 22z m-1069 -49 c13 -34 4 -54 -41 -93 -26 -22 -48 -39 -50 -38
-1 2 11 29 27 61 17 32 30 65 30 72 0 19 27 18 34 -2z m-154 -95 c-7 -16 -16
-29 -21 -29 -13 0 -11 15 9 54 20 40 30 20 12 -25z m-219 16 c49 -26 107 -84
119 -119 8 -26 7 -44 -9 -93 -37 -115 -62 -143 -125 -143 -12 0 -45 -11 -72
-25 -74 -38 -113 -46 -180 -36 -32 5 -48 9 -34 10 14 1 62 14 107 30 44 16
101 32 125 36 70 11 107 25 123 48 28 41 18 47 -37 22 -29 -13 -82 -29 -118
-34 -36 -6 -89 -20 -118 -31 -91 -35 -153 -23 -205 40 -26 30 -54 126 -44 151
3 8 6 2 6 -14 1 -26 2 -27 44 -21 80 11 144 34 183 65 40 32 57 33 133 12 16
-4 22 -3 18 5 -4 5 -30 16 -57 23 -73 19 -61 39 23 39 68 0 112 -18 158 -63
41 -40 42 -41 24 -9 -32 54 -111 96 -200 105 l-30 3 25 12 c31 14 100 8 141
-13z m2639 4 c10 -6 5 -8 -18 -9 -42 0 -118 -39 -156 -79 -38 -39 -24 -40 20
-1 40 35 98 52 161 48 61 -4 64 -20 9 -37 -25 -7 -53 -22 -63 -33 -18 -21 -18
-21 12 -5 56 28 103 32 128 9 33 -30 77 -49 151 -66 83 -20 75 -20 86 7 7 19
9 16 9 -18 1 -83 -58 -160 -131 -171 -21 -4 -64 4 -113 20 -44 14 -111 30
-150 36 -38 6 -89 20 -112 30 l-43 19 15 -29 c20 -39 44 -51 124 -61 37 -4 89
-18 116 -29 28 -12 73 -24 100 -28 42 -5 46 -7 25 -13 -61 -17 -134 -10 -190
20 -31 16 -81 32 -113 36 l-59 7 -23 51 c-13 29 -30 74 -37 100 -11 45 -11 51
11 92 51 95 167 145 241 104z m-4665 -19 c13 -10 219 -58 275 -64 25 -3 86
-10 137 -16 51 -5 127 -21 170 -35 79 -25 197 -90 188 -104 -2 -4 -30 -5 -62
-1 -214 27 -446 43 -421 29 7 -4 121 -35 253 -69 305 -78 343 -90 322 -102
-29 -16 -200 -21 -288 -9 -141 21 -297 86 -419 175 -60 44 -230 204 -230 217
0 8 57 -8 75 -21z m1803 -1 c4 -35 -18 -53 -43 -35 -17 12 -18 17 -7 41 15 33
46 30 50 -6z m3008 5 c13 -18 12 -23 -4 -37 -16 -14 -21 -15 -37 -3 -13 9 -16
20 -11 40 8 32 31 32 52 0z m1805 -3 c-40 -56 -206 -203 -283 -251 -45 -27
-127 -64 -191 -86 -108 -37 -117 -38 -247 -38 -74 0 -146 5 -159 11 -22 9 -16
12 60 36 46 14 156 44 244 67 189 48 256 69 270 83 7 7 4 8 -7 4 -22 -8 -88
-15 -193 -22 -44 -3 -126 -10 -183 -16 -57 -6 -106 -8 -109 -5 -3 3 22 23 56
44 72 47 170 75 334 97 185 24 351 63 407 96 23 13 23 11 1 -20z m-4180 -29
c-15 -35 -149 -177 -176 -186 -14 -5 -11 1 10 18 17 14 33 25 37 26 9 0 104
130 119 164 16 35 25 15 10 -22z m31 -54 c-11 -40 -23 -86 -26 -101 -12 -53
11 -18 44 65 56 140 65 123 14 -27 l-23 -70 30 35 c16 19 37 48 45 63 24 44
27 25 4 -27 -19 -45 -133 -176 -152 -176 -5 0 -6 10 -4 23 3 12 8 67 12 122 4
55 9 92 13 82 5 -13 13 1 31 49 31 83 38 60 12 -38z m-1013 71 c11 -19 10 -24
-8 -42 -17 -17 -22 -18 -35 -7 -19 15 -21 41 -4 58 18 18 31 15 47 -9z m3709
1 c10 -16 10 -24 0 -40 -7 -11 -18 -20 -25 -20 -18 0 -44 30 -37 43 24 42 43
47 62 17z m214 -37 c34 -15 75 -44 98 -69 33 -36 40 -50 40 -86 0 -46 -30 -99
-67 -119 -18 -9 -32 -10 -62 -1 -52 16 -65 15 -144 -10 -55 -17 -75 -19 -96
-11 -68 27 -67 27 -38 -3 23 -25 35 -29 80 -29 28 0 63 4 77 8 22 7 21 5 -4
-9 -37 -21 -115 -20 -157 1 -16 9 -38 30 -48 46 -23 37 -34 121 -23 169 7 31
11 35 40 34 18 -1 51 -11 74 -23 23 -11 43 -19 45 -17 2 2 -6 15 -18 30 -12
15 -19 29 -17 32 6 5 66 -61 84 -92 7 -10 15 -16 18 -13 4 3 -9 30 -29 59
l-35 52 32 -4 c18 -3 42 -8 53 -13 l20 -7 -20 14 c-11 8 -38 22 -60 30 l-40
16 30 8 c42 10 131 -11 171 -41 19 -15 45 -47 59 -73 16 -31 24 -40 24 -27 2
53 -85 135 -163 156 -72 19 -86 30 -31 23 28 -3 76 -17 107 -31z m-4044 18 c9
-5 -3 -10 -35 -13 -58 -6 -139 -44 -165 -78 -22 -31 -40 -90 -27 -90 5 0 9 8
9 18 0 31 38 81 78 101 63 32 126 45 152 31 21 -11 19 -13 -35 -36 -110 -44
-87 -47 46 -5 33 10 62 -9 53 -34 -5 -13 -3 -16 7 -12 56 23 90 30 100 20 16
-16 23 -126 10 -165 -17 -52 -59 -87 -122 -100 -49 -10 -59 -9 -107 12 -29 12
-50 25 -48 28 3 2 21 -3 40 -12 66 -31 153 -14 185 36 11 18 10 18 -11 4 -42
-26 -82 -28 -139 -6 -65 24 -82 25 -142 4 -42 -14 -48 -14 -72 2 -30 20 -75
92 -75 120 0 30 47 97 87 124 67 46 178 73 211 51z m2802 -48 c13 -21 29 -60
36 -88 15 -53 19 -175 7 -175 -5 0 -33 20 -64 44 -41 32 -58 53 -63 77 -8 39
0 52 10 15 3 -14 27 -45 53 -67 45 -41 46 -41 49 -16 2 20 -19 110 -54 230 -9
28 2 20 26 -20z m60 -48 c0 -5 -5 -3 -10 5 -5 8 -10 20 -10 25 0 6 5 3 10 -5
5 -8 10 -19 10 -25z m-1530 10 c7 -8 16 -12 21 -9 5 3 9 -5 9 -18 0 -18 2 -20
10 -8 7 11 10 11 10 2 0 -23 -21 -56 -70 -107 -42 -44 -48 -57 -53 -105 l-6
-55 20 55 c10 30 35 70 54 90 19 19 48 60 64 90 24 43 31 50 31 31 0 -37 -38
-108 -71 -132 -28 -20 -75 -96 -66 -106 3 -2 17 12 32 32 15 19 30 33 33 31 9
-9 -47 -93 -85 -126 -36 -32 -37 -33 -47 -11 -14 32 24 212 66 314 22 51 29
55 48 32z m1440 -49 c0 -18 -17 8 -24 34 l-7 25 15 -25 c9 -14 15 -29 16 -34z
m-738 -13 l70 -8 -73 -47 c-85 -54 -85 -54 -87 52 -1 54 1 60 9 38 9 -24 17
-27 81 -35z m622 0 c22 -68 46 -173 46 -205 0 -24 -4 -22 -58 35 -53 56 -74
85 -120 167 -8 14 3 5 24 -20 55 -64 116 -121 123 -114 3 3 -8 19 -26 34 -26
23 -58 73 -91 141 -1 3 17 6 42 7 l44 2 16 -47z m163 -99 c-5 -6 -107 127
-107 140 0 4 25 -24 56 -64 31 -39 54 -73 51 -76z m-1257 -1 c-6 -32 -34 -132
-61 -223 -73 -248 -70 -282 6 -65 36 105 78 225 91 268 44 136 44 89 -1 -143
-34 -175 -47 -314 -35 -386 6 -32 10 -62 10 -66 0 -5 4 -8 8 -8 4 0 6 15 4 33
-6 51 23 216 75 427 55 228 68 225 21 -6 -29 -142 -32 -177 -33 -329 0 -158 2
-174 24 -222 16 -36 35 -60 60 -75 30 -19 33 -23 16 -27 -32 -6 -78 26 -112
78 -25 39 -41 52 -79 65 -60 20 -129 72 -149 113 -8 17 -15 51 -15 75 0 42 24
131 41 153 13 18 85 225 109 318 26 97 38 110 20 20z m-86 -149 c-63 -233
-105 -298 -179 -280 -49 12 -65 39 -65 112 l0 66 77 79 c42 44 80 79 84 79 4
0 6 -9 4 -20 -6 -30 12 -15 20 17 8 32 35 74 35 53 0 -7 -34 -83 -75 -167 -76
-157 -85 -183 -62 -183 15 0 70 55 86 88 15 29 111 322 112 342 0 10 2 11 6 3
2 -7 -17 -92 -43 -189z m1532 72 c5 -51 2 -79 -15 -134 -12 -39 -25 -73 -30
-76 -14 -9 -41 70 -41 120 0 30 11 71 33 119 36 82 42 79 53 -29z m-2077 42
c37 -89 40 -189 6 -234 -13 -18 -15 -16 -34 28 -11 26 -23 64 -27 84 -7 38 14
174 26 174 4 0 17 -23 29 -52z m855 -140 c-3 -197 -1 -195 35 22 l19 115 2
-90 c3 -137 15 -159 25 -45 l9 95 18 -115 c9 -63 20 -163 24 -222 3 -60 9
-108 14 -108 4 0 8 89 8 198 1 109 5 208 9 220 4 11 7 -76 5 -194 -1 -118 2
-213 6 -210 5 3 9 49 10 103 3 107 10 206 21 268 l7 40 12 -53 c7 -29 12 -69
12 -87 0 -19 5 -35 10 -35 9 0 16 124 10 190 -1 14 1 22 4 19 13 -12 92 -439
98 -529 l3 -45 14 45 c17 57 9 218 -19 380 -21 122 -25 178 -9 125 28 -93 59
-306 59 -409 0 -160 -7 -173 -213 -394 l-31 -33 -55 55 c-31 31 -78 70 -106
88 -87 57 -112 140 -98 321 l8 102 6 -140 c4 -85 12 -152 20 -171 13 -28 14
-7 14 190 1 182 5 243 23 346 12 69 22 128 22 133 0 4 1 7 3 7 2 0 2 -82 1
-182z m611 -161 c47 -185 29 -259 -78 -330 -37 -24 -64 -51 -77 -77 -22 -43
-63 -70 -106 -70 l-27 0 33 23 c18 12 41 33 52 47 24 33 48 148 48 232 0 62
-33 379 -46 441 -12 56 5 24 47 -90 48 -132 143 -334 135 -288 -3 17 -10 57
-16 90 -6 33 -26 116 -45 184 -19 69 -35 132 -35 140 1 31 90 -204 115 -302z
m133 231 c19 -33 42 -37 42 -8 0 28 14 25 54 -11 44 -38 56 -79 45 -148 -23
-145 -53 -179 -111 -124 l-28 27 0 -53 c0 -108 -42 -191 -113 -227 l-32 -16
26 28 c72 79 68 141 -27 438 -38 119 -40 156 -4 86 33 -65 110 -183 116 -177
3 2 -3 20 -14 38 -22 41 -72 165 -72 180 0 6 22 -31 48 -83 74 -141 122 -227
133 -233 19 -12 8 62 -17 115 -14 30 -35 79 -45 109 -11 30 -29 71 -40 90
l-21 36 22 -20 c12 -11 29 -32 38 -47z m-51 0 c-3 -8 -6 -5 -6 6 -1 11 2 17 5
13 3 -3 4 -12 1 -19z m-1704 -150 c142 -211 339 -384 602 -530 383 -212 430
-248 536 -411 l37 -57 28 47 c35 62 162 193 239 247 33 24 134 82 225 131 90
48 207 117 258 152 172 121 373 330 465 487 25 43 30 47 60 44 21 -2 33 -9 35
-20 4 -23 -161 -240 -250 -329 -38 -38 -96 -89 -128 -115 -33 -26 -60 -49 -60
-52 0 -3 28 -2 63 1 107 10 330 75 509 147 79 32 79 19 0 -31 -161 -103 -331
-154 -596 -179 -123 -11 -103 -2 -355 -159 -248 -153 -339 -235 -437 -389 -20
-31 -42 -60 -47 -64 -16 -10 -35 9 -85 87 -90 140 -197 229 -492 407 -185 112
-179 109 -314 120 -247 18 -503 101 -651 211 -35 27 -10 28 47 3 93 -41 227
-86 363 -120 131 -34 249 -51 243 -37 -2 5 -38 36 -81 71 -124 99 -357 373
-357 420 0 17 46 42 61 34 4 -2 41 -54 82 -116z m1731 96 c3 -8 2 -12 -4 -9
-6 3 -10 10 -10 16 0 14 7 11 14 -7z m-2576 -12 c46 -23 282 -164 339 -203 46
-32 76 -59 70 -65 -4 -4 -156 79 -337 185 -104 60 -106 61 -181 61 -84 0 -139
8 -139 21 0 10 39 16 133 18 57 1 88 -4 115 -17z m4347 4 l60 -13 -45 -6 c-25
-3 -101 -9 -170 -12 -71 -4 -136 -12 -150 -19 -81 -42 -335 -185 -388 -219
-69 -43 -93 -44 -42 0 58 48 102 77 220 145 178 101 223 125 245 131 41 10
212 6 270 -7z m-3848 -58 c41 -89 181 -206 302 -253 38 -14 79 -37 92 -51 l23
-25 -44 7 c-170 25 -367 145 -449 272 -37 58 -37 59 -8 65 54 10 74 7 84 -15z
m3133 5 c0 -6 -17 -33 -38 -60 -112 -139 -275 -237 -432 -258 l-55 -7 19 20
c10 12 49 33 87 47 121 47 227 128 302 232 29 41 33 43 74 41 24 -2 43 -8 43
-15z m-3344 -24 c19 -22 19 -22 -3 -10 -24 12 -39 31 -25 31 5 0 17 -10 28
-21z m-528 -25 c63 -8 68 -18 9 -22 -41 -3 -161 -32 -155 -38 2 -1 93 -5 203
-8 217 -5 261 -14 370 -68 61 -31 109 -65 178 -125 49 -43 30 -43 -100 1 -55
19 -129 37 -164 40 l-64 6 54 -20 c30 -11 57 -23 60 -26 17 -18 -324 10 -384
32 -14 5 -17 4 -10 -4 15 -16 151 -59 230 -72 115 -19 227 -56 153 -50 -46 4
-98 0 -98 -8 0 -14 104 -32 180 -32 41 0 104 7 139 15 35 9 66 14 68 11 8 -8
-50 -46 -105 -68 -48 -19 -76 -22 -172 -22 -63 0 -135 6 -159 13 -71 20 -167
68 -249 123 -82 55 -305 230 -360 282 l-33 31 128 5 c70 3 151 7 178 8 28 1
74 -1 103 -4z m4951 -10 c5 -4 -45 -46 -129 -109 -37 -27 -109 -82 -161 -120
-163 -122 -267 -178 -391 -210 -70 -19 -209 -21 -270 -5 -49 14 -153 65 -163
80 -8 13 -15 13 95 -11 100 -22 162 -20 257 6 48 13 48 13 13 15 -19 1 -43 5
-53 9 -22 8 50 30 188 57 93 18 163 40 180 57 7 7 3 8 -10 3 -11 -4 -80 -14
-155 -21 -229 -25 -292 -16 -153 20 97 26 96 32 -3 23 -51 -5 -130 -23 -195
-44 -60 -20 -114 -34 -119 -32 -20 6 115 109 195 148 133 66 191 74 580 81
l50 1 -40 13 c-22 7 -66 16 -97 20 -70 9 -75 23 -10 27 57 4 385 -3 391 -8z
m-1984 -221 c-10 -52 -35 -96 -73 -128 -48 -40 -51 -22 -5 28 22 24 46 61 53
83 15 45 19 54 27 54 3 0 2 -17 -2 -37z m-1346 -105 c33 -39 36 -63 6 -38 -31
25 -53 66 -59 105 l-6 40 13 -34 c7 -18 28 -51 46 -73z m-499 -152 c0 -19
-302 -125 -442 -155 -218 -47 -2 53 307 143 47 14 135 21 135 12z m2505 -48
c129 -40 285 -104 285 -118 0 -8 -94 5 -172 26 -132 34 -358 122 -358 140 0
14 122 -10 245 -48z m-1987 -99 c77 -19 72 -29 -16 -29 -78 0 -206 -23 -226
-41 -5 -4 20 -7 55 -5 76 4 268 -10 299 -22 21 -8 19 -10 -22 -30 -110 -51
-224 -62 -427 -42 -73 8 -125 8 -182 0 -45 -6 -83 -9 -85 -7 -2 2 20 20 48 40
163 112 408 172 556 136z m1509 -9 c46 -11 115 -36 155 -56 84 -42 178 -102
178 -114 0 -4 -21 -1 -47 7 -55 18 -224 22 -380 9 -70 -6 -116 -5 -150 3 -61
15 -163 54 -163 63 0 11 127 22 257 21 67 0 120 3 118 7 -10 17 -172 47 -270
51 l-40 1 40 13 c61 20 207 18 302 -5z"/>
<path d="M4856 9318 c-3 -29 -8 -94 -10 -144 -5 -89 -5 -92 17 -98 30 -8 438
-8 516 0 l61 7 0 143 0 144 -289 0 -290 0 -5 -52z m442 -100 l3 -58 -115 -2
c-64 -1 -128 -2 -143 -2 -24 -1 -27 2 -30 47 -7 80 -11 78 144 75 l138 -3 3
-57z"/>
<path d="M4924 8784 c3 -97 6 -178 8 -179 2 -2 23 0 48 5 57 11 203 19 348 19
l112 1 0 165 0 165 -261 0 -261 0 6 -176z m376 11 l0 -65 -120 0 -120 0 0 65
0 65 120 0 120 0 0 -65z"/>
<path d="M4970 7217 c-29 -14 -39 -54 -16 -63 24 -9 76 27 76 53 0 26 -21 30
-60 10z"/>
<path d="M4740 6875 c0 -48 39 -129 80 -166 40 -37 40 -37 40 -11 0 14 -15 48
-34 76 -19 29 -42 69 -52 89 -20 43 -34 48 -34 12z"/>
<path d="M4943 6825 c-8 -24 -2 -25 50 -12 55 14 52 27 -5 27 -26 0 -41 -5
-45 -15z"/>
<path d="M8791 6916 l-23 -25 37 -50 c40 -56 52 -60 85 -33 21 17 22 22 11 52
-14 41 -49 80 -71 80 -9 0 -27 -11 -39 -24z"/>
<path d="M8666 6815 c-21 -33 -13 -55 40 -106 l34 -33 27 27 28 27 -56 56 -56
55 -17 -26z"/>
<path d="M1582 6787 c-46 -47 -50 -61 -26 -88 21 -23 41 -13 84 41 31 39 31
41 16 65 -9 14 -20 25 -24 25 -4 0 -27 -19 -50 -43z"/>
<path d="M1010 6443 c0 -8 156 -156 208 -197 43 -34 242 -162 322 -207 41 -23
86 -48 100 -56 l25 -15 -25 19 c-13 10 -103 73 -200 140 -97 68 -219 160 -272
205 -95 83 -158 126 -158 111z"/>
<path d="M1030 6384 c0 -19 56 -88 121 -149 159 -148 192 -176 236 -195 64
-28 65 -19 1 18 -97 57 -124 91 -37 46 62 -31 75 -27 16 6 -42 23 -183 126
-189 139 -9 17 -148 144 -148 135z"/>
<path d="M1300 6271 c0 -20 334 -204 410 -225 23 -7 22 -6 -5 12 -16 10 -77
43 -135 72 -58 30 -121 63 -140 75 -92 56 -130 75 -130 66z"/>
<path d="M1723 5907 c38 -32 205 -112 213 -104 4 4 5 8 3 10 -33 19 -229 117
-235 117 -5 -1 3 -11 19 -23z"/>
<path d="M1980 5780 c0 -5 7 -10 16 -10 8 0 12 5 9 10 -3 6 -10 10 -16 10 -5
0 -9 -4 -9 -10z"/>
<path d="M2056 5741 c14 -13 169 -81 185 -81 24 0 -4 16 -92 54 -87 36 -111
43 -93 27z"/>
<path d="M9267 6414 c-21 -14 -89 -66 -150 -115 -62 -49 -190 -140 -285 -201
-168 -108 -225 -153 -106 -85 33 19 109 63 169 98 149 85 270 177 410 310 28
27 6 23 -38 -7z"/>
<path d="M9225 6325 c-66 -66 -210 -182 -301 -242 -29 -19 30 6 86 36 45 24
164 116 228 175 29 27 79 105 70 109 -2 1 -39 -34 -83 -78z"/>
<path d="M8915 6226 c-55 -28 -156 -80 -224 -114 -68 -35 -121 -66 -118 -69
14 -14 447 208 447 229 0 4 -1 8 -2 7 -2 -1 -48 -24 -103 -53z"/>
<path d="M8941 6050 c-56 -38 -61 -42 -25 -30 30 11 96 60 79 59 -5 0 -30 -13
-54 -29z"/>
<path d="M8880 6060 c-9 -6 -10 -10 -3 -10 6 0 15 5 18 10 8 12 4 12 -15 0z"/>
<path d="M8490 5878 c-99 -50 -140 -78 -115 -78 12 0 200 100 225 120 39 31
14 21 -110 -42z"/>
<path d="M8317 5793 c-4 -3 -7 -11 -7 -17 0 -6 5 -5 12 2 6 6 9 14 7 17 -3 3
-9 2 -12 -2z"/>
<path d="M8175 5725 c-93 -36 -129 -55 -122 -61 4 -5 195 72 206 82 15 14 -15
7 -84 -21z"/>
<path d="M1859 5349 c35 -16 66 -27 69 -24 3 2 -6 9 -19 14 -13 5 -41 16 -63
25 -64 27 -55 17 13 -15z"/>
<path d="M1940 5316 c0 -2 7 -7 16 -10 8 -3 12 -2 9 4 -6 10 -25 14 -25 6z"/>
<path d="M2060 5256 c0 -9 58 -36 77 -36 14 1 13 4 -7 14 -32 17 -70 29 -70
22z"/>
<path d="M8355 5386 c-16 -7 -61 -20 -100 -30 -63 -17 -106 -36 -79 -36 28 0
201 53 214 65 17 18 5 19 -35 1z"/>
<path d="M8452 5353 c-24 -8 -41 -17 -39 -19 5 -5 69 16 82 27 11 11 10 11
-43 -8z"/>
<path d="M8183 5240 c-13 -5 -23 -12 -23 -15 0 -11 47 -4 66 10 19 14 19 14
-1 14 -11 0 -30 -4 -42 -9z"/>
<path d="M1110 5498 c5 -18 19 -78 31 -133 21 -98 90 -362 130 -497 13 -44 25
-68 34 -68 8 0 15 7 15 16 0 41 -158 592 -195 681 -18 42 -26 42 -15 1z"/>
<path d="M9151 5214 c0 -11 3 -14 6 -6 3 7 2 16 -1 19 -3 4 -6 -2 -5 -13z"/>
<path d="M9116 5191 c-18 -28 -66 -170 -65 -191 1 -20 2 -21 6 -5 2 11 8 29
14 40 14 30 58 165 54 165 -2 0 -6 -4 -9 -9z"/>
<path d="M9140 5172 c0 -10 -13 -61 -30 -112 -16 -52 -30 -97 -29 -100 1 -19
46 88 60 145 22 82 22 85 9 85 -5 0 -10 -8 -10 -18z"/>
<path d="M9171 5074 c0 -11 3 -14 6 -6 3 7 2 16 -1 19 -3 4 -6 -2 -5 -13z"/>
<path d="M9161 5034 c0 -11 3 -14 6 -6 3 7 2 16 -1 19 -3 4 -6 -2 -5 -13z"/>
<path d="M9441 5275 c-1 -32 32 -95 49 -95 15 0 12 9 -20 70 -27 51 -29 53
-29 25z"/>
<path d="M2810 5115 c0 -9 86 -62 118 -73 48 -16 39 1 -16 31 -52 28 -102 49
-102 42z"/>
<path d="M7406 5079 c-43 -22 -76 -43 -73 -45 8 -8 130 51 146 69 18 22 19 22
-73 -24z"/>
<path d="M1850 4876 c0 -1 34 -11 75 -21 41 -9 72 -21 69 -26 -3 -5 38 -8 93
-8 l98 2 -95 12 c-52 7 -121 20 -153 29 -56 15 -87 20 -87 12z"/>
<path d="M8348 4873 c7 -3 16 -2 19 1 4 3 -2 6 -13 5 -11 0 -14 -3 -6 -6z"/>
<path d="M8448 4863 c7 -3 16 -2 19 1 4 3 -2 6 -13 5 -11 0 -14 -3 -6 -6z"/>
<path d="M8383 4853 c9 -2 25 -2 35 0 9 3 1 5 -18 5 -19 0 -27 -2 -17 -5z"/>
<path d="M8253 4836 c-102 -12 -133 -26 -57 -26 46 0 149 22 162 34 3 3 1 5
-4 5 -5 -1 -50 -7 -101 -13z"/>
<path d="M7813 4323 c9 -2 25 -2 35 0 9 3 1 5 -18 5 -19 0 -27 -2 -17 -5z"/>
<path d="M7790 4263 c0 -12 234 -33 355 -32 181 1 145 16 -55 22 -107 4 -219
9 -247 12 -29 4 -53 2 -53 -2z"/>
<path d="M5140 4215 c0 -8 7 -15 15 -15 8 0 15 7 15 15 0 8 -7 15 -15 15 -8 0
-15 -7 -15 -15z"/>
<path d="M5520 4182 c0 -9 40 -35 46 -29 3 2 2 12 -2 21 -6 16 -44 23 -44 8z"/>
<path d="M5500 4147 c0 -17 20 -37 37 -37 20 0 15 13 -12 33 -19 13 -25 15
-25 4z"/>
<path d="M5565 4110 c-8 -14 3 -30 21 -30 8 0 14 9 14 20 0 21 -24 28 -35 10z"/>
<path d="M5606 4001 c-8 -13 20 -33 40 -29 17 3 17 4 0 21 -19 19 -32 22 -40
8z"/>
<path d="M2905 3979 c-27 -11 -144 -55 -260 -99 -115 -43 -237 -91 -270 -105
-51 -23 -57 -28 -41 -37 28 -16 251 18 340 52 37 14 32 20 -6 10 -18 -5 -78
-16 -133 -24 -55 -8 -109 -17 -120 -21 -11 -3 -9 0 5 6 48 24 106 47 215 87
159 58 308 121 325 137 19 20 5 18 -55 -6z"/>
<path d="M7340 3996 c0 -11 192 -98 290 -131 102 -35 253 -95 248 -100 -4 -4
-207 30 -237 40 -14 4 -21 3 -18 -3 15 -23 297 -79 342 -68 51 13 69 5 -430
196 -181 70 -195 75 -195 66z"/>
<path d="M5135 3938 c-3 -7 -6 -62 -7 -122 -2 -62 -7 -111 -13 -113 -6 -2 -29
45 -52 104 -61 158 -83 150 -33 -12 42 -139 37 -149 -16 -28 -19 42 -43 86
-54 97 l-20 20 0 -21 c0 -12 16 -58 35 -102 19 -43 35 -85 35 -91 0 -6 -17 10
-39 37 -54 67 -131 140 -131 123 0 -13 47 -100 59 -110 15 -11 70 -94 67 -98
-3 -2 -26 11 -51 30 -97 68 -110 77 -122 77 -33 2 48 -86 120 -131 6 -4 8 -10
5 -14 -4 -3 -48 9 -98 26 -68 25 -94 30 -102 22 -15 -15 -21 -11 97 -68 l100
-48 -102 -6 c-56 -3 -104 -8 -108 -12 -20 -19 14 -28 106 -28 117 0 130 -16
33 -38 -99 -22 -134 -35 -134 -49 0 -16 6 -16 85 -2 34 6 75 9 91 7 26 -3 21
-7 -49 -42 -77 -39 -105 -61 -94 -72 8 -8 104 24 156 52 49 27 51 28 51 15 0
-5 -28 -29 -62 -54 -75 -53 -102 -82 -93 -97 4 -7 21 2 45 24 49 44 89 70 96
63 3 -3 -17 -35 -45 -72 -28 -37 -48 -71 -45 -77 7 -11 129 115 139 145 6 15
25 25 25 12 0 -3 -20 -45 -45 -94 -50 -98 -51 -101 -32 -101 8 0 35 37 60 83
26 45 47 78 47 73 0 -5 -9 -39 -19 -75 -28 -98 -33 -131 -18 -131 7 0 30 47
52 105 22 58 45 103 50 102 6 -2 14 -48 18 -103 11 -128 14 -144 32 -144 12 0
15 21 17 113 0 61 1 118 1 125 -2 35 23 1 66 -92 27 -57 55 -107 61 -111 21
-13 4 67 -31 148 -16 38 -28 72 -26 74 3 2 29 -35 58 -82 30 -46 58 -85 63
-85 16 0 -4 65 -40 124 -19 32 -33 63 -32 68 2 6 23 -12 47 -39 98 -109 106
-116 109 -98 2 9 -24 57 -57 106 -33 49 -57 89 -52 89 5 0 41 -31 81 -70 40
-38 80 -70 89 -70 10 0 -1 17 -33 48 -42 40 -47 47 -29 50 11 2 40 -4 64 -12
91 -31 51 10 -63 65 -37 18 -68 36 -68 39 0 3 46 0 102 -7 66 -9 105 -10 112
-3 12 12 1 16 -111 44 -48 12 -88 27 -90 33 -3 7 26 11 83 12 48 0 96 3 106 7
40 12 13 22 -79 29 -54 3 -105 7 -113 9 -8 1 31 25 88 52 151 72 134 98 -27
38 -76 -29 -108 -31 -71 -6 50 34 140 113 140 122 0 22 -36 7 -111 -44 -43
-30 -79 -52 -79 -48 0 12 50 83 87 125 19 22 33 48 33 63 0 23 -2 25 -16 13
-12 -10 -106 -122 -141 -168 -2 -2 -5 -2 -7 0 -3 2 13 44 35 93 38 86 48 126
31 126 -10 0 -18 -16 -60 -111 -31 -69 -58 -102 -42 -52 31 102 39 132 42 160
6 62 -16 34 -53 -67 -55 -149 -57 -149 -66 18 -5 94 -9 122 -20 122 -7 0 -16
-6 -18 -12z m59 -297 c145 -34 170 -241 36 -308 -55 -29 -101 -29 -158 -2
-104 51 -123 179 -37 264 38 38 54 46 110 53 6 1 27 -3 49 -7z"/>
<path d="M5095 3591 c-60 -25 -85 -126 -46 -189 64 -101 231 -45 231 77 0 40
-34 95 -68 110 -27 13 -88 13 -117 2z m99 -42 c37 -29 49 -55 37 -77 -9 -15
-10 -15 -11 5 0 12 -5 25 -12 29 -8 5 -9 2 -5 -9 3 -10 4 -17 2 -17 -9 0 -45
35 -45 43 0 5 7 4 15 -3 9 -7 18 -10 22 -6 10 10 -28 46 -50 46 -20 0 -67 -43
-67 -61 0 -5 -4 -9 -9 -9 -17 0 1 40 27 60 32 26 63 25 96 -1z m-48 -26 c-10
-11 -37 -12 -30 -2 3 5 12 9 21 9 9 0 13 -3 9 -7z m10 -55 c4 -6 2 -14 -4 -16
-7 -2 -12 -13 -12 -24 0 -14 5 -18 15 -14 19 7 20 -8 1 -23 -10 -8 -19 -6 -40
10 -31 24 -33 35 -7 44 12 4 18 12 14 21 -6 17 22 19 33 2z"/>
<path d="M5110 3431 c0 -5 5 -13 10 -16 6 -3 10 -2 10 4 0 5 -4 13 -10 16 -5
3 -10 2 -10 -4z"/>
<path d="M4389 3698 c-16 -38 -15 -93 1 -113 21 -26 58 -18 75 15 13 26 14 34
2 63 -8 18 -26 40 -40 50 -25 16 -25 16 -38 -15z"/>
<path d="M2950 3444 c-95 -55 -128 -80 -119 -88 6 -6 171 93 184 110 5 7 21
18 35 23 14 5 18 10 10 10 -8 0 -58 -25 -110 -55z"/>
<path d="M3074 3460 c-11 -4 -45 -24 -75 -42 -30 -19 -82 -50 -116 -68 -97
-51 -77 -67 22 -17 53 27 170 104 185 122 14 17 13 17 -16 5z"/>
<path d="M7254 3477 c77 -57 196 -136 196 -128 0 14 -44 48 -127 100 -85 53
-120 67 -69 28z"/>
<path d="M7180 3465 c0 -14 167 -126 215 -144 63 -24 65 -24 65 -13 0 5 -17
16 -37 26 -21 10 -79 44 -128 77 -82 53 -115 69 -115 54z"/>
<path d="M3500 3290 c-9 -6 -10 -10 -3 -10 6 0 15 5 18 10 8 12 4 12 -15 0z"/>
<path d="M3351 3196 c-9 -10 -6 -12 14 -8 31 6 40 17 15 19 -10 1 -24 -4 -29
-11z"/>
<path d="M6910 3224 c0 -13 48 -59 55 -52 3 2 -9 17 -25 33 -17 16 -30 24 -30
19z"/>
<path d="M5817 3333 c-4 -3 -7 -19 -7 -34 0 -31 22 -44 51 -29 20 11 23 27 13
54 -6 16 -45 22 -57 9z"/>
<path d="M5647 2907 c-20 -18 -47 -39 -61 -47 -14 -7 -26 -19 -26 -27 0 -21
34 -15 57 10 12 12 37 37 57 55 20 18 36 35 36 37 0 15 -33 1 -63 -28z"/>
<path d="M5662 2832 c-48 -44 -68 -80 -54 -94 13 -13 42 3 93 49 43 39 48 57
20 72 -15 8 -26 3 -59 -27z"/>
<path d="M3313 2573 c-23 -8 -15 -49 12 -61 29 -13 38 -3 29 32 -6 26 -21 36
-41 29z"/>
<path d="M2844 2304 c4 -11 11 -41 15 -67 5 -27 16 -56 26 -65 16 -16 17 -14
10 38 -8 63 -24 101 -44 108 -10 3 -12 0 -7 -14z"/>
<path d="M7482 2303 c-24 -34 -39 -145 -19 -137 7 2 20 33 28 67 9 34 19 70
23 80 13 27 -10 20 -32 -10z"/>
<path d="M3230 2059 c-44 -56 -46 -78 -4 -38 39 37 66 77 55 84 -6 3 -28 -18
-51 -46z"/>
<path d="M5160 1216 c0 -87 4 -147 10 -151 6 -3 13 1 16 10 9 23 -7 285 -17
285 -5 0 -9 -65 -9 -144z"/>
<path d="M0 50 c0 -49 1 -50 30 -50 29 0 30 1 30 50 0 49 -1 50 -30 50 -29 0
-30 -1 -30 -50z"/>
</g>
</svg>
