<?xml version="1.0" standalone="no"?>
<!DOCTYPE svg PUBLIC "-//W3C//DTD SVG 20010904//EN"
 "http://www.w3.org/TR/2001/REC-SVG-20010904/DTD/svg10.dtd">
<svg version="1.0" xmlns="http://www.w3.org/2000/svg"
 width="1024.000000pt" height="1024.000000pt" viewBox="0 0 1024.000000 1024.000000"
 preserveAspectRatio="xMidYMid meet">

<g transform="translate(0.000000,1024.000000) scale(0.100000,-0.100000)"
fill="#000000" stroke="none">
<path d="M4879 9676 c-2 -2 -42 -6 -89 -9 -429 -28 -942 -149 -1370 -324 -356
-145 -792 -396 -1101 -635 -174 -133 -339 -285 -522 -478 -156 -164 -245 -274
-457 -565 -45 -63 -136 -212 -226 -375 -331 -595 -500 -1179 -544 -1878 -12
-184 -9 -209 20 -220 10 -4 113 -6 228 -4 l209 3 7 122 c19 320 54 553 131
857 64 251 149 470 300 769 514 1015 1351 1728 2452 2085 254 82 599 158 790
173 l82 6 7 44 c4 25 3 66 -1 91 -14 92 -17 87 52 90 l63 3 -6 -31 c-4 -17 -7
-65 -8 -108 l-1 -77 80 4 c44 1 82 5 85 8 7 7 12 403 5 431 -5 21 -10 22 -94
22 -48 0 -90 -2 -92 -4z m-1909 -810 c0 -3 -4 -8 -10 -11 -5 -3 -10 -1 -10 4
0 6 5 11 10 11 6 0 10 -2 10 -4z"/>
<path d="M5197 9673 c-4 -3 -7 -107 -7 -230 l0 -223 33 0 c17 0 56 -3 85 -6
l52 -7 0 79 c0 51 -6 89 -15 108 -8 15 -15 30 -15 32 0 7 115 4 127 -4 8 -5 9
-20 3 -52 -5 -25 -9 -71 -10 -102 0 -66 -23 -55 185 -83 343 -45 747 -159
1096 -311 610 -264 1030 -564 1483 -1059 234 -256 433 -551 600 -890 183 -370
280 -659 355 -1060 36 -187 46 -269 62 -500 6 -93 12 -171 13 -172 9 -11 448
-4 441 7 -3 6 -1 10 4 10 7 0 11 27 11 69 0 105 -29 440 -40 461 -5 9 -7 20
-4 23 4 3 1 37 -6 74 -6 37 -13 82 -15 98 -7 69 -28 165 -36 171 -5 3 -7 9 -4
14 3 5 -13 83 -36 172 -260 1020 -960 1996 -1869 2605 -387 259 -874 482
-1330 608 -69 19 -142 40 -162 46 -20 7 -43 9 -52 6 -8 -3 -16 -2 -18 3 -4 12
-211 54 -391 80 -230 32 -524 50 -540 33z m1903 -704 c0 -5 -4 -9 -8 -9 -5 0
-9 7 -9 15 0 8 4 12 9 9 4 -3 8 -9 8 -15z m1375 -1138 c3 -5 1 -12 -5 -16 -5
-3 -10 1 -10 9 0 18 6 21 15 7z"/>
<path d="M4923 9093 c-22 -4 -23 -9 -23 -99 l0 -95 83 3 82 3 3 98 3 97 -63
-1 c-35 -1 -73 -4 -85 -6z"/>
<path d="M5190 9000 l0 -100 34 0 c18 0 54 -3 79 -6 l46 -7 3 101 3 100 -35 6
c-19 3 -56 6 -82 6 l-48 0 0 -100z"/>
<path d="M4685 9073 c-190 -25 -543 -109 -765 -183 -372 -124 -776 -323 -1064
-524 -356 -249 -695 -584 -951 -941 -61 -84 -99 -145 -94 -150 2 -2 78 -54
169 -115 163 -111 165 -112 179 -90 140 210 475 578 671 737 348 281 730 489
1160 633 101 33 376 104 451 115 72 11 72 11 64 109 l-7 86 -34 0 -34 0 0 54
c0 61 -2 59 101 71 33 4 59 3 62 -3 4 -5 9 -70 13 -146 8 -155 -5 -141 117
-129 l67 6 0 238 0 239 -37 -1 c-21 -1 -51 -4 -68 -6z m-442 -270 c3 -5 8 -33
12 -64 l7 -57 -54 -12 c-365 -84 -805 -279 -1163 -515 -61 -40 -129 -88 -152
-106 -23 -19 -77 -61 -120 -94 -165 -127 -464 -438 -612 -637 -24 -32 -48 -58
-55 -58 -6 0 -29 15 -50 33 l-39 34 33 49 c217 315 594 675 950 906 344 223
737 400 1100 494 146 38 138 36 143 27z"/>
<path d="M5460 8846 l0 -234 28 -6 c15 -3 54 -6 87 -8 l60 -3 7 104 c7 98 23
181 34 181 67 0 486 -96 633 -146 389 -130 828 -354 1128 -575 322 -238 640
-557 790 -793 l25 -39 -29 -23 c-15 -14 -36 -29 -45 -34 -18 -11 -19 -10 -146
150 -151 191 -467 488 -682 642 -445 319 -1013 568 -1507 663 -43 8 -84 15
-90 15 -10 0 -13 -24 -13 -85 0 -95 -12 -84 105 -105 180 -34 474 -122 664
-200 622 -256 1175 -688 1553 -1213 70 -97 71 -98 94 -82 13 8 34 21 47 29 12
7 79 50 150 96 l127 83 -21 36 c-11 20 -51 77 -87 126 -303 411 -728 804
-1136 1049 -453 273 -980 475 -1471 565 -140 25 -247 41 -279 41 l-26 0 0
-234z"/>
<path d="M4973 8783 l-73 -4 0 -74 c0 -41 0 -78 0 -81 0 -4 101 -7 225 -8
l225 -1 0 83 0 82 -42 1 c-24 0 -92 2 -153 3 -60 1 -143 1 -182 -1z"/>
<path d="M4965 8493 c-634 -31 -1280 -245 -1797 -596 -360 -244 -718 -607
-949 -962 -319 -490 -490 -989 -530 -1540 -6 -82 -13 -160 -15 -172 -4 -24
-60 -48 -87 -37 -20 7 -32 77 -22 133 l7 40 -39 3 c-21 2 -116 2 -211 0 l-172
-3 0 -85 0 -86 123 2 c67 1 128 2 135 1 7 -1 20 -16 29 -35 13 -29 14 -40 4
-64 -16 -37 -52 -55 -87 -42 -14 6 -66 10 -115 10 l-89 0 0 -85 c0 -61 4 -85
13 -86 51 -4 385 -5 395 -1 9 3 11 13 7 29 -3 13 -3 46 1 73 7 50 7 50 43 50
62 0 63 -4 78 -177 34 -405 134 -792 296 -1142 185 -398 371 -664 687 -981
102 -102 228 -220 280 -262 409 -327 1004 -598 1520 -692 440 -80 1007 -70
1443 25 693 151 1310 502 1787 1015 106 114 179 203 291 354 38 50 147 230
204 335 224 410 357 885 390 1390 7 111 19 135 66 135 38 0 52 -28 47 -96 -2
-30 1 -55 7 -58 6 -2 99 -4 208 -5 l197 -1 0 68 c0 37 3 77 6 90 6 22 5 22
-80 22 -48 0 -96 -5 -107 -10 -30 -17 -93 4 -107 35 -17 37 -15 50 15 85 22
26 31 31 57 26 17 -3 74 -6 126 -7 l95 -2 -2 34 c0 19 -1 58 -2 87 l-1 52
-205 0 -205 0 0 -80 c0 -68 -3 -81 -19 -90 -29 -15 -49 -12 -70 9 -15 15 -20
40 -26 127 -21 350 -75 610 -190 929 -205 567 -577 1076 -1081 1481 -91 73
-336 237 -451 303 -224 127 -483 235 -741 310 -298 87 -529 127 -807 141 -174
9 -222 10 -350 3z m529 -323 c287 -34 639 -130 911 -247 140 -60 417 -211 510
-278 219 -157 286 -214 469 -393 241 -236 404 -454 573 -762 50 -91 162 -358
191 -455 28 -94 89 -340 97 -390 3 -22 10 -65 15 -95 15 -86 18 -117 25 -245
4 -66 8 -145 10 -175 4 -81 -23 -388 -46 -520 -51 -292 -147 -588 -269 -832
-66 -131 -161 -295 -216 -371 -24 -34 -68 -96 -98 -137 -186 -260 -493 -539
-816 -740 -338 -210 -735 -373 -1065 -438 -211 -42 -281 -52 -435 -61 -502
-29 -935 40 -1392 220 -189 75 -549 268 -668 359 -19 15 -79 59 -132 99 -129
96 -268 222 -350 318 -257 299 -355 442 -493 714 -105 207 -193 433 -238 614
-63 253 -86 421 -94 691 -14 515 107 1034 344 1467 82 151 102 184 167 277
303 436 592 709 1014 960 324 194 660 316 1087 395 227 43 656 54 899 25z"/>
<path d="M5102 8147 c-12 -6 -25 -21 -29 -35 -6 -27 14 -759 24 -829 4 -32 10
-43 23 -43 23 0 26 15 29 130 1 52 6 192 11 310 20 447 13 499 -58 467z"/>
<path d="M5526 8114 c-9 -8 -16 -18 -16 -22 0 -4 -7 -47 -15 -97 -37 -223 -98
-743 -88 -757 11 -18 32 -5 42 25 29 93 161 755 161 809 0 22 -34 58 -54 58
-8 0 -22 -7 -30 -16z"/>
<path d="M4652 8108 c-19 -19 -14 -90 18 -278 33 -189 116 -563 132 -594 9
-17 11 -17 26 -3 14 15 13 37 -12 244 -47 390 -78 597 -92 621 -16 24 -53 29
-72 10z"/>
<path d="M4095 7976 c-29 -21 -23 -60 33 -208 90 -238 223 -562 238 -578 12
-12 16 -12 30 2 18 18 15 28 -139 506 -92 287 -109 317 -162 278z"/>
<path d="M6104 7982 c-6 -4 -18 -20 -26 -37 -16 -31 -111 -308 -148 -430 -12
-38 -37 -119 -56 -180 -40 -128 -41 -145 -14 -145 13 0 26 13 39 38 21 41 161
377 161 387 0 3 25 69 56 147 30 78 56 155 56 171 1 41 -38 69 -68 49z"/>
<path d="M3711 7814 c-20 -24 -7 -66 56 -178 31 -56 67 -121 81 -146 14 -25
57 -101 97 -170 39 -69 84 -151 100 -182 42 -82 58 -100 78 -92 9 3 17 11 17
18 0 23 -327 722 -352 754 -14 17 -60 15 -77 -4z"/>
<path d="M6457 7813 c-16 -19 -62 -114 -243 -502 -88 -190 -111 -247 -102
-258 14 -17 38 3 71 61 253 445 349 622 354 650 9 55 -44 88 -80 49z"/>
<path d="M3377 7622 c-33 -36 -30 -42 110 -232 107 -145 262 -357 329 -449 41
-57 47 -62 61 -48 14 14 9 26 -52 126 -38 61 -72 111 -77 111 -4 0 -8 5 -8 12
0 13 -37 76 -183 313 -114 185 -141 210 -180 167z"/>
<path d="M6808 7629 c-10 -5 -63 -87 -119 -182 -56 -95 -138 -229 -183 -299
-140 -220 -147 -231 -144 -247 2 -9 10 -16 17 -16 12 0 363 472 471 634 35 52
39 96 11 111 -24 12 -31 12 -53 -1z"/>
<path d="M3058 7379 c-29 -16 -22 -62 15 -107 59 -70 531 -562 539 -562 18 0
19 31 3 57 -10 14 -92 119 -183 232 -332 414 -327 408 -374 380z"/>
<path d="M7104 7357 c-16 -18 -58 -70 -94 -116 -36 -45 -100 -126 -142 -179
-43 -53 -78 -100 -78 -104 0 -4 -10 -18 -22 -31 -13 -12 -54 -60 -91 -106 -62
-75 -67 -85 -53 -99 18 -18 12 -23 308 293 304 326 298 317 263 355 -27 29
-59 25 -91 -13z"/>
<path d="M2765 7075 c-14 -13 -25 -28 -25 -34 0 -25 75 -92 229 -205 14 -11
59 -45 100 -75 261 -197 274 -206 298 -197 23 9 14 22 -79 104 -47 42 -164
149 -260 238 -168 156 -214 194 -231 194 -4 0 -19 -11 -32 -25z"/>
<path d="M7243 6923 c-104 -98 -228 -215 -276 -259 -85 -79 -102 -104 -72
-104 39 0 577 413 604 464 12 22 12 29 -3 51 -32 49 -52 37 -253 -152z"/>
<path d="M4475 7043 c-41 -6 -89 -45 -110 -89 -25 -52 -18 -202 13 -260 l21
-41 -40 -12 c-66 -20 -79 -40 -79 -121 l0 -70 -55 0 c-47 0 -55 3 -55 19 0 10
-9 30 -21 45 l-20 26 -160 0 c-90 0 -169 -4 -179 -10 -11 -6 -25 -28 -31 -50
l-12 -40 -97 0 c-90 0 -98 -2 -103 -20 -5 -20 -5 -20 -41 1 -33 19 -53 21
-278 24 -264 4 -287 0 -326 -50 -21 -27 -22 -37 -22 -271 l0 -244 25 -16 25
-16 0 -1124 0 -1124 -25 -16 -25 -16 0 -234 0 -233 30 -34 c49 -56 61 -58 344
-55 l258 3 20 28 20 27 1585 0 1585 0 35 -30 34 -30 253 0 c246 0 254 1 287
23 64 42 69 66 69 305 l0 214 -30 28 -30 28 0 1118 c0 630 3 1120 8 1122 5 1
18 9 28 17 18 12 19 31 22 243 4 269 -1 291 -68 321 -38 17 -63 18 -278 14
-130 -3 -245 -10 -255 -15 -14 -7 -22 -5 -31 7 -10 15 -30 17 -129 16 -112 -2
-117 -1 -117 19 0 12 -11 32 -24 45 -23 23 -30 24 -174 24 -170 1 -196 -5
-214 -56 -12 -32 -14 -33 -65 -33 l-53 0 0 74 c0 68 -2 76 -25 94 -14 11 -43
23 -64 27 l-39 6 26 52 c24 45 27 63 27 147 0 84 -3 99 -24 129 -13 18 -43 42
-66 52 -40 18 -78 19 -681 17 -352 0 -652 -3 -669 -5z m69 -92 c17 -7 16 -9
-14 -20 -42 -14 -80 -49 -80 -72 0 -30 -17 -31 -23 -1 -13 66 53 118 117 93z
m1270 -17 c18 -19 26 -37 26 -61 0 -20 -4 -32 -10 -28 -5 3 -10 12 -10 19 0
21 -45 56 -85 67 -28 8 -35 13 -24 20 28 18 76 10 103 -17z m-160 -206 c3 -13
6 -37 6 -54 0 -29 -3 -32 -41 -37 -67 -9 -85 -34 -81 -117 l3 -70 -53 -1 c-49
-1 -298 -1 -614 0 l-132 1 -4 71 c-3 63 -7 74 -31 95 -18 15 -41 24 -63 24
l-34 0 0 55 0 55 519 0 519 0 6 -22z m-1019 -197 c3 -17 4 -34 1 -39 -3 -5
-62 -10 -131 -11 l-125 -2 0 39 0 40 124 1 124 2 7 -30z m1257 5 c21 -48 10
-53 -125 -55 -119 -2 -126 -1 -132 18 -3 12 -3 30 0 41 6 19 15 20 126 20 117
0 120 -1 131 -24z m-1834 -238 l3 -138 -106 0 -105 0 0 133 c0 74 3 137 7 141
4 4 50 5 103 4 l95 -3 3 -137z m2359 0 l1 -138 -99 0 -99 0 0 134 c0 98 3 136
13 140 6 2 50 4 97 3 l85 -2 2 -137z m-2657 12 l0 -60 -120 0 -120 0 0 60 0
60 120 0 120 0 0 -60z m2350 0 l0 -60 -970 0 -970 0 0 60 0 60 970 0 970 0 0
-60z m646 15 c3 -25 4 -51 1 -59 -7 -16 -89 -24 -182 -16 l-60 5 -3 44 c-5 72
-6 71 122 71 l115 0 7 -45z m-3475 23 c5 -26 10 -254 5 -272 l-6 -26 -135 0
-136 0 3 142 3 143 30 6 c28 6 234 12 236 7z m158 -14 c3 -3 6 -81 6 -172 0
-159 -1 -169 -24 -206 -36 -58 -67 -66 -240 -66 -82 0 -156 3 -165 6 -11 4
-16 19 -16 51 0 39 2 44 18 38 42 -18 94 -25 189 -25 172 0 179 9 170 237 l-7
155 32 -6 c17 -3 34 -9 37 -12z m3469 -161 c3 -214 -3 -207 154 -211 81 -3
122 0 158 12 63 21 60 22 60 -18 0 -64 -13 -68 -194 -64 -179 3 -199 10 -232
76 -18 39 -31 228 -20 314 6 48 11 57 29 61 12 2 27 3 32 2 6 -1 11 -69 13
-172z m353 156 c5 -8 9 -74 9 -146 l0 -133 -135 0 -135 0 0 144 0 145 38 4
c73 9 214 0 223 -14z m-3511 -273 c0 -53 -7 -55 -145 -48 -101 5 -100 4 -89
61 l7 31 113 0 114 0 0 -44z m355 19 c0 -19 -8 -20 -142 -23 l-143 -3 0 26 0
26 143 -3 c134 -3 142 -4 142 -23z m1995 -22 l0 -48 -943 2 c-518 1 -950 2
-959 3 -15 0 -18 9 -18 45 l0 45 960 0 960 0 0 -47z m350 22 l0 -25 -140 0
-140 0 0 25 0 25 140 0 140 0 0 -25z m312 13 c3 -7 3 -29 1 -48 -4 -32 -8 -36
-31 -34 -15 1 -66 2 -114 3 l-88 1 0 45 0 45 114 0 c82 0 115 -3 118 -12z
m-2679 -163 c3 -19 15 -47 27 -62 17 -22 20 -35 15 -63 -4 -19 -7 -82 -6 -140
1 -153 -16 -202 -84 -237 -39 -21 -122 -20 -163 1 -57 30 -66 55 -74 210 -4
78 -10 157 -13 177 -6 31 -3 39 19 56 19 16 26 30 26 57 l0 36 124 0 123 0 6
-35z m2365 2 c-1 -21 6 -44 22 -65 23 -31 23 -35 12 -90 -7 -32 -12 -105 -12
-163 0 -118 -14 -155 -72 -185 -42 -22 -124 -22 -166 0 -57 29 -66 56 -74 205
-4 75 -10 157 -13 183 -7 45 -5 48 19 58 22 8 26 16 26 50 l0 40 130 0 131 0
-3 -33z m-2978 -1213 c0 -636 -3 -1154 -7 -1152 -5 2 -25 12 -45 22 l-37 19
-3 746 c-2 410 -2 913 0 1117 l3 370 34 13 c19 7 35 17 35 22 0 6 4 8 10 4 6
-3 9 -438 10 -1161z m3396 1135 l34 -21 0 -526 c0 -290 0 -763 0 -1052 1 -289
1 -553 0 -587 0 -60 -1 -62 -37 -84 -21 -13 -41 -25 -45 -27 -5 -2 -8 519 -8
1157 0 858 3 1161 11 1161 7 0 27 -9 45 -21z m-3707 -251 l17 -143 7 105 c4
57 11 108 16 113 22 22 26 -159 24 -1018 -2 -864 -8 -1077 -28 -903 -4 37 -10
141 -14 230 l-7 163 -7 -175 c-4 -96 -11 -193 -15 -215 -5 -34 -7 -27 -13 50
-4 50 -8 142 -10 205 l-3 115 -6 -120 c-4 -66 -8 -156 -9 -200 -2 -51 -5 -73
-10 -60 -8 21 -22 636 -22 945 2 801 17 1182 35 915 11 -160 13 -159 15 5 2
85 5 150 7 143 3 -6 13 -76 23 -155z m4014 -773 c1 -501 1 -957 -3 -1015 l-5
-105 -7 70 c-5 39 -8 149 -9 245 -2 183 -16 170 -18 -16 -1 -50 -4 -140 -8
-200 -9 -135 -20 -100 -22 71 -3 200 -17 223 -22 38 -5 -154 -9 -186 -26 -169
-14 14 -17 1699 -3 1824 7 61 16 112 21 112 5 0 9 -35 10 -77 1 -86 16 -68 19
22 1 28 5 59 9 70 7 18 19 -85 22 -195 l1 -45 9 40 c4 22 8 69 9 105 0 65 10
144 16 137 2 -2 5 -412 7 -912z m-2234 547 c187 -309 196 -321 211 -301 9 11
99 157 200 325 l183 304 209 0 c121 0 208 -4 208 -9 0 -5 -53 -90 -118 -188
-66 -98 -172 -259 -238 -358 -65 -99 -140 -210 -166 -247 l-48 -68 53 -1 c28
0 116 0 195 1 l142 1 0 -110 0 -111 -235 0 -235 0 1 -95 2 -95 234 0 234 0 -3
-112 -3 -113 -190 -2 c-104 -1 -209 -2 -232 -3 l-43 0 0 -265 0 -265 -80 0
c-44 -1 -117 -1 -162 -1 l-83 -1 -3 266 -2 266 -235 0 -235 0 0 115 0 115 235
0 235 0 0 95 0 95 -235 0 -235 0 0 110 0 111 186 -1 c102 -1 188 1 191 4 3 3
-68 117 -158 253 -217 330 -384 585 -393 601 -6 10 35 12 205 10 l212 -3 196
-323z m1706 73 c14 -161 16 -301 12 -915 -5 -685 -9 -800 -27 -800 -4 0 -13
33 -20 73 -22 119 -26 1375 -6 1616 9 103 16 195 16 206 0 10 2 16 4 14 3 -2
12 -90 21 -194z m-2975 -75 c10 -104 13 -324 12 -785 -1 -597 -11 -876 -32
-914 -4 -7 -13 53 -21 135 -20 211 -20 1364 0 1588 8 89 17 151 21 140 4 -10
13 -84 20 -164z m-310 -1836 c25 -10 48 -29 62 -53 21 -33 23 -50 27 -198 l3
-163 -36 0 -36 0 0 144 c0 80 -4 156 -9 169 -15 39 -56 49 -194 45 -102 -2
-129 -6 -144 -21 -24 -21 -33 -13 -33 29 0 65 -3 64 166 64 117 0 163 -4 194
-16z m3914 0 c8 -21 8 -69 -1 -77 -3 -4 -16 -1 -28 7 -15 10 -59 14 -152 15
-124 2 -132 1 -158 -21 l-27 -23 1 -158 2 -157 -35 0 c-46 0 -49 13 -41 178
11 236 28 252 276 252 134 0 158 -2 163 -16z m-504 -169 c0 -36 -4 -45 -17
-46 -10 0 -117 0 -238 -1 -344 -1 -441 -12 -160 -18 127 -3 -452 -4 -1285 -2
-833 2 -1525 3 -1537 3 -21 -1 -23 3 -23 54 l0 55 1630 0 1630 0 0 -45z
m-3506 29 c14 -5 16 -27 16 -140 l0 -134 -130 0 c-126 0 -131 1 -139 23 -4 12
-7 36 -6 52 1 17 3 69 4 118 l1 87 119 0 c66 0 126 -3 135 -6z m3986 1 c19 -6
20 -15 20 -125 0 -154 4 -150 -151 -150 l-119 0 0 119 c0 109 -1 119 -18 114
-13 -3 -18 2 -19 19 -2 23 -2 23 132 26 74 2 144 1 155 -3z m-633 -101 c-3 -3
-12 -4 -19 -1 -8 3 -5 6 6 6 11 1 17 -2 13 -5z"/>
<path d="M3908 6238 c-3 -15 -4 -29 -2 -30 1 -2 23 -2 48 0 42 4 46 6 45 31 0
26 0 26 -11 4 -13 -27 -21 -28 -42 -7 -15 14 -16 14 -17 -3 -1 -12 -3 -10 -8
7 l-7 25 -6 -27z"/>
<path d="M6289 6243 l-6 -33 49 0 c39 0 48 3 47 18 0 10 -3 12 -6 5 -2 -7 -20
-13 -38 -13 -29 0 -34 4 -37 28 -3 26 -4 26 -9 -5z"/>
<path d="M6352 6250 c0 -14 2 -19 5 -12 2 6 2 18 0 25 -3 6 -5 1 -5 -13z"/>
<path d="M3080 6190 l0 -80 75 0 76 0 -3 78 -3 77 -72 3 -73 3 0 -81z m100 5
c0 -32 -3 -35 -29 -35 -26 0 -29 3 -29 35 0 32 3 35 29 35 26 0 29 -3 29 -35z"/>
<path d="M7057 6263 c-2 -5 -2 -41 1 -80 l4 -73 69 0 69 0 0 80 0 80 -69 0
c-39 0 -72 -3 -74 -7z m103 -67 c0 -33 -13 -46 -46 -46 -10 0 -14 12 -14 40 0
38 2 40 30 40 27 0 30 -3 30 -34z"/>
<path d="M3853 5888 c-29 -36 -21 -98 12 -98 28 0 56 39 53 73 -2 26 -8 33
-29 35 -14 2 -30 -3 -36 -10z"/>
<path d="M3988 5874 c-28 -61 49 -110 81 -52 13 23 13 30 1 52 -19 36 -66 36
-82 0z m58 -9 c4 -8 3 -23 0 -32 -6 -15 -8 -15 -23 -1 -16 17 -12 48 7 48 6 0
13 -7 16 -15z"/>
<path d="M3870 5740 c-1 -3 -1 -49 -2 -102 -2 -110 9 -133 67 -144 42 -8 101
19 108 49 3 12 6 61 6 109 l1 87 -90 3 c-50 2 -90 1 -90 -2z m140 -64 c0 -18
-56 -29 -81 -16 -33 18 -21 30 31 30 36 0 50 -4 50 -14z"/>
<path d="M6202 5885 c-17 -36 -15 -59 7 -86 l18 -23 32 31 c37 38 38 47 6 78
-31 32 -49 32 -63 0z m51 -21 c9 -10 -12 -46 -24 -39 -14 9 -11 45 4 45 8 0
17 -3 20 -6z"/>
<path d="M6356 5884 c-37 -36 4 -105 53 -89 40 12 36 61 -4 51 -13 -3 -26 -2
-30 3 -3 5 5 11 17 13 13 2 24 11 26 21 4 22 -40 24 -62 1z"/>
<path d="M6230 5642 c0 -107 1 -111 26 -131 15 -12 41 -21 59 -21 18 0 44 9
59 21 25 20 26 24 26 125 l0 104 -47 0 c-27 1 -65 3 -85 6 l-38 6 0 -110z
m134 33 c3 -9 0 -15 -8 -15 -7 0 -28 -3 -45 -6 -27 -6 -31 -4 -31 15 0 18 6
21 39 21 25 0 41 -5 45 -15z"/>
<path d="M6058 3303 c7 -3 16 -2 19 1 4 3 -2 6 -13 5 -11 0 -14 -3 -6 -6z"/>
<path d="M3080 3265 l0 -75 69 0 69 0 7 55 c11 89 6 95 -76 95 l-69 0 0 -75z
m100 10 c0 -32 -2 -35 -30 -35 -28 0 -30 3 -30 35 0 32 2 35 30 35 28 0 30 -3
30 -35z"/>
<path d="M7054 3318 c3 -13 6 -47 6 -75 l0 -53 71 0 70 0 -2 58 c-4 95 -2 92
-81 92 -68 0 -70 -1 -64 -22z m96 -43 c0 -31 -3 -35 -25 -35 -22 0 -25 4 -25
35 0 31 3 35 25 35 22 0 25 -4 25 -35z"/>
<path d="M2510 6735 c-20 -21 -22 -29 -12 -49 10 -22 248 -194 281 -203 9 -2
29 9 45 26 l28 29 -100 80 c-124 99 -186 142 -205 142 -7 0 -24 -11 -37 -25z"/>
<path d="M7600 6694 c-47 -36 -109 -84 -138 -106 l-54 -40 32 -33 c38 -39 18
-47 193 73 123 85 146 110 129 147 -21 45 -65 34 -162 -41z"/>
<path d="M2300 6360 c-45 -45 -19 -68 181 -164 205 -98 257 -116 269 -96 18
28 10 45 -33 71 -116 72 -366 209 -380 209 -9 0 -26 -9 -37 -20z"/>
<path d="M7875 6363 c-89 -47 -335 -196 -350 -213 -11 -12 -14 -26 -10 -40 9
-29 20 -26 222 70 252 119 268 131 238 176 -18 28 -55 31 -100 7z"/>
<path d="M2157 5972 c-45 -49 -11 -74 187 -136 212 -68 388 -116 420 -116 13
0 26 7 30 15 10 28 -70 67 -311 154 -59 21 -143 53 -186 70 -89 36 -117 38
-140 13z"/>
<path d="M7920 5939 c-74 -27 -171 -63 -215 -79 -202 -73 -267 -109 -235 -131
19 -12 49 -8 175 26 132 35 425 124 450 138 57 29 42 98 -22 97 -10 -1 -79
-23 -153 -51z"/>
<path d="M2077 5570 c-32 -25 -34 -41 -7 -65 22 -20 56 -27 250 -55 388 -55
470 -59 470 -26 0 15 -17 22 -140 55 -73 19 -424 93 -505 106 -33 5 -46 2 -68
-15z"/>
<path d="M8030 5569 c-52 -11 -167 -36 -255 -56 -88 -19 -183 -41 -211 -47
-28 -6 -62 -19 -75 -28 -23 -17 -23 -18 -5 -32 10 -8 30 -13 45 -11 14 3 89
12 166 20 77 9 208 27 290 41 83 14 158 26 168 27 9 1 29 11 45 23 26 22 26
24 12 51 -20 36 -54 39 -180 12z"/>
<path d="M7965 5169 c-314 -20 -466 -36 -482 -52 -34 -34 14 -40 366 -41 185
0 348 2 363 7 39 11 52 40 30 67 -22 27 -79 31 -277 19z"/>
<path d="M2028 5148 c-23 -28 -22 -31 3 -54 20 -18 39 -19 371 -16 206 1 358
7 369 12 26 14 13 39 -24 45 -62 10 -487 35 -593 35 -100 0 -110 -2 -126 -22z"/>
<path d="M2555 4814 c-11 -1 -119 -13 -239 -26 -174 -18 -224 -26 -242 -41
-29 -22 -31 -53 -6 -66 24 -13 142 -11 142 1 0 6 7 7 16 4 18 -7 493 69 537
86 30 12 33 18 15 36 -11 11 -164 15 -223 6z"/>
<path d="M7488 4810 c-55 -34 5 -49 447 -115 211 -31 248 -32 276 -4 25 25 21
39 -18 62 -58 33 -665 83 -705 57z"/>
<path d="M2595 4471 c-202 -48 -399 -102 -428 -119 -47 -28 -47 -65 -1 -82 18
-7 54 -1 141 25 142 41 430 138 461 154 40 22 21 52 -31 50 -12 0 -76 -13
-142 -28z"/>
<path d="M7482 4488 c-23 -23 -11 -36 61 -61 147 -52 262 -85 265 -76 2 5 13
14 25 20 21 10 21 10 3 -5 -13 -10 -16 -20 -10 -25 15 -15 218 -71 256 -71 58
0 79 46 35 75 -30 19 -135 54 -165 55 -13 0 -32 5 -42 10 -18 10 -379 90 -404
90 -7 0 -17 -5 -24 -12z m128 -42 c0 -2 -7 -7 -16 -10 -8 -3 -12 -2 -9 4 6 10
25 14 25 6z m105 -26 c3 -5 1 -10 -4 -10 -6 0 -11 5 -11 10 0 6 2 10 4 10 3 0
8 -4 11 -10z"/>
<path d="M2645 4115 c-260 -113 -339 -151 -355 -170 -19 -23 -4 -62 27 -70 22
-5 55 8 168 66 145 75 301 165 310 179 10 16 -7 40 -29 39 -11 -1 -66 -21
-121 -44z"/>
<path d="M7464 4138 c-11 -17 38 -51 176 -122 69 -35 162 -83 207 -106 94 -48
128 -49 139 -3 5 17 3 28 -5 31 -6 2 -18 10 -25 18 -8 7 -20 15 -27 16 -7 2
-38 17 -68 34 -72 39 -340 144 -368 144 -12 0 -25 -5 -29 -12z m146 -62 c0 -2
-7 -7 -16 -10 -8 -3 -12 -2 -9 4 6 10 25 14 25 6z m40 -36 c0 -5 -5 -10 -11
-10 -5 0 -7 5 -4 10 3 6 8 10 11 10 2 0 4 -4 4 -10z m99 -29 c-14 -11 -26 -15
-28 -9 -4 12 17 28 38 28 8 0 3 -8 -10 -19z m60 -12 c-22 -14 -33 -10 -19 6 7
8 17 12 22 9 6 -4 5 -10 -3 -15z m-49 -9 c0 -5 -4 -10 -10 -10 -5 0 -10 5 -10
10 0 6 5 10 10 10 6 0 10 -4 10 -10z m89 -19 c19 -19 19 -19 -5 -24 -14 -2
-27 0 -31 6 -3 6 -1 7 5 3 7 -4 12 -2 12 3 0 6 -8 11 -17 11 -15 0 -16 2 -3
10 19 12 17 13 39 -9z"/>
<path d="M2705 3720 c-38 -28 -77 -53 -85 -57 -8 -4 -17 -9 -20 -13 -3 -3 -26
-21 -52 -39 -62 -41 -76 -66 -52 -92 35 -39 82 -19 222 95 40 32 77 67 82 77
12 21 2 79 -14 79 -6 0 -42 -23 -81 -50z"/>
<path d="M7466 3754 c-21 -55 0 -87 120 -179 111 -86 156 -101 189 -65 16 18
16 22 2 43 -12 19 -180 140 -276 200 -26 16 -29 16 -35 1z m244 -178 c0 -2 -7
-7 -16 -10 -8 -3 -12 -2 -9 4 6 10 25 14 25 6z"/>
<path d="M3553 2911 c-12 -8 -122 -147 -162 -202 -40 -56 -39 -96 1 -118 24
-14 28 -14 48 4 12 11 58 71 102 135 45 63 94 132 110 153 l30 38 -61 -2 c-33
-1 -64 -5 -68 -8z"/>
<path d="M4168 2888 c-43 -58 -254 -459 -269 -512 -6 -22 -4 -36 6 -53 17 -25
56 -31 73 -10 5 6 33 71 62 142 28 72 55 135 60 140 4 6 10 19 13 30 3 11 24
64 47 118 24 59 38 107 35 118 -5 14 -2 17 9 13 12 -5 16 0 16 20 0 36 -22 33
-52 -6z"/>
<path d="M4507 2893 c-8 -15 -27 -64 -42 -108 -15 -44 -33 -93 -40 -110 -8
-16 -20 -50 -29 -75 -8 -25 -40 -117 -70 -204 -61 -173 -67 -210 -37 -226 49
-26 67 -2 105 135 19 66 61 217 94 335 33 118 62 228 64 245 4 41 -26 46 -45
8z"/>
<path d="M4817 2890 c-8 -19 -40 -159 -71 -310 -94 -463 -96 -485 -50 -496 54
-14 60 0 89 206 31 225 34 249 69 562 2 21 -2 45 -9 55 -13 17 -15 15 -28 -17z"/>
<path d="M5684 2906 c-7 -18 78 -345 172 -664 l25 -83 37 3 c47 4 55 32 31
108 -31 100 -210 612 -220 631 -11 22 -37 25 -45 5z"/>
<path d="M6010 2907 c0 -15 91 -249 174 -447 52 -123 86 -180 108 -180 17 0
48 41 48 63 0 23 -251 528 -278 560 -18 20 -52 23 -52 4z"/>
<path d="M6570 2915 c0 -14 212 -313 233 -329 24 -18 27 -18 51 -2 46 30 36
62 -66 198 -50 68 -96 126 -102 130 -12 8 -116 11 -116 3z"/>
<path d="M3044 2895 c-9 -21 23 -65 46 -65 20 0 90 55 90 71 0 5 -29 9 -65 9
-49 0 -67 -4 -71 -15z"/>
<path d="M5095 2878 c-9 -57 -25 -445 -25 -625 l0 -173 25 -16 c24 -16 27 -16
47 2 20 19 21 22 14 359 -8 425 -12 485 -37 485 -13 0 -20 -10 -24 -32z"/>
<path d="M5388 2900 c-8 -24 41 -537 67 -700 18 -115 21 -120 61 -120 52 0 57
20 35 147 -122 695 -118 676 -142 681 -10 2 -19 -2 -21 -8z"/>
<path d="M7080 2899 c0 -16 60 -69 78 -69 42 0 75 68 35 71 -56 5 -113 3 -113
-2z"/>
<path d="M1685 7088 c-26 -46 -49 -86 -52 -90 -2 -4 18 -19 44 -34 27 -16 103
-61 171 -101 67 -40 126 -73 131 -73 9 0 91 136 91 151 0 8 -323 229 -334 229
-2 0 -25 -37 -51 -82z"/>
<path d="M8482 7119 l-53 -40 42 -77 c23 -42 45 -81 49 -85 8 -9 130 50 130
62 0 13 -96 175 -106 177 -5 2 -33 -15 -62 -37z"/>
<path d="M8265 6974 c-33 -20 -61 -37 -63 -39 -5 -5 90 -155 99 -155 7 0 96
50 118 66 4 4 -83 164 -89 164 -3 0 -32 -16 -65 -36z"/>
<path d="M1515 6760 c-158 -315 -280 -729 -330 -1113 -8 -65 -15 -129 -15
-143 l0 -24 203 2 202 3 3 35 c13 161 85 480 160 710 26 80 47 149 47 153 0 4
-43 29 -95 55 -56 29 -96 55 -98 65 -4 21 79 206 92 207 20 0 86 -36 86 -48 0
-7 -9 -31 -21 -53 -24 -48 -21 -59 17 -79 16 -8 37 -20 46 -28 15 -13 21 -5
62 77 25 50 46 94 46 98 0 9 -11 16 -198 119 -72 41 -136 74 -142 74 -5 0 -35
-50 -65 -110z m38 -471 c23 -12 43 -22 44 -24 2 -1 -8 -35 -22 -76 -39 -113
-125 -468 -125 -515 0 -2 -25 -4 -55 -4 -64 0 -62 -7 -40 125 33 202 123 515
148 515 4 0 27 -10 50 -21z"/>
<path d="M8523 6767 c-90 -51 -163 -97 -163 -104 0 -7 17 -48 37 -90 21 -43
38 -79 39 -81 1 -1 72 29 159 68 87 39 169 73 182 76 13 4 23 13 23 21 0 28
-88 203 -102 202 -7 -1 -86 -42 -175 -92z"/>
<path d="M8661 6455 c-90 -41 -166 -77 -169 -80 -4 -4 45 -166 55 -184 1 -2
54 16 118 39 64 23 117 41 119 39 32 -41 146 -489 146 -575 0 -24 -2 -25 -57
-22 l-57 3 -12 70 c-14 80 -35 173 -65 291 l-21 81 -65 -21 c-60 -19 -64 -22
-59 -46 3 -14 17 -74 31 -135 14 -60 35 -183 47 -272 l22 -163 204 0 204 0 -6
68 c-10 94 -34 258 -46 312 -63 280 -101 419 -162 588 -21 59 -35 82 -46 81
-10 0 -91 -34 -181 -74z"/>
<path d="M581 5049 l-24 -9 7 -143 c4 -78 14 -196 22 -262 8 -66 17 -142 20
-170 3 -27 13 -95 24 -150 10 -55 21 -118 25 -140 10 -64 93 -400 121 -493 56
-184 176 -473 266 -642 127 -237 303 -520 325 -520 7 0 13 -7 13 -17 0 -31
221 -310 375 -472 209 -219 366 -363 566 -518 478 -369 1074 -662 1664 -818
294 -78 671 -139 938 -152 l137 -6 0 79 c0 43 3 150 7 237 l6 157 -91 0 -92 0
0 -63 c0 -34 4 -78 10 -96 5 -19 7 -37 5 -40 -3 -2 -33 -7 -66 -9 l-61 -5 8
44 c9 43 9 167 1 175 -2 3 -58 12 -123 20 -497 64 -940 204 -1421 448 -600
304 -1144 782 -1500 1316 -363 545 -598 1159 -677 1771 -14 104 -40 418 -38
461 0 10 -10 18 -31 21 -52 9 -390 5 -416 -4z"/>
<path d="M9240 5036 c-1 -24 -6 -101 -20 -291 -25 -324 -90 -637 -199 -965
-101 -299 -202 -516 -382 -816 -384 -641 -1004 -1200 -1695 -1530 -448 -214
-858 -334 -1363 -400 l-133 -17 4 -91 c3 -50 8 -99 13 -108 6 -16 1 -18 -48
-18 -82 0 -88 4 -71 45 8 19 14 64 14 100 l0 65 -85 0 -85 0 0 -230 c0 -208 2
-230 18 -239 21 -11 312 11 501 39 478 71 796 161 1266 358 75 31 350 167 425
210 244 138 539 346 742 522 422 365 716 726 1008 1235 322 560 520 1274 547
1971 6 152 5 162 -13 171 -11 6 -112 10 -231 10 -210 0 -213 0 -213 -21z m110
-536 c0 -5 -4 -10 -10 -10 -5 0 -10 5 -10 10 0 6 5 10 10 10 6 0 10 -4 10 -10z
m-2210 -3200 c0 -11 -4 -20 -10 -20 -5 0 -10 9 -10 20 0 11 5 20 10 20 6 0 10
-9 10 -20z m80 0 c0 -5 -5 -10 -11 -10 -5 0 -7 5 -4 10 3 6 8 10 11 10 2 0 4
-4 4 -10z m-75 -50 c3 -5 1 -10 -4 -10 -6 0 -11 5 -11 10 0 6 2 10 4 10 3 0 8
-4 11 -10z m-130 -19 c3 -5 1 -12 -5 -16 -5 -3 -10 1 -10 9 0 18 6 21 15 7z
m-33 -43 c-7 -7 -12 -8 -12 -2 0 14 12 26 19 19 2 -3 -1 -11 -7 -17z"/>
<path d="M8878 4762 l-188 -2 0 -29 c0 -75 -55 -383 -96 -539 -25 -94 -25
-112 2 -112 8 0 33 -9 55 -21 23 -11 43 -18 45 -16 8 8 83 312 99 402 24 133
19 125 76 125 37 0 51 -4 56 -17 16 -42 -120 -593 -160 -646 -11 -14 -23 -11
-122 28 -60 25 -111 45 -112 45 -1 0 -14 -37 -29 -82 -31 -94 -35 -86 71 -140
33 -17 72 -39 87 -50 l27 -19 -19 -50 c-18 -44 -58 -128 -65 -137 -1 -2 -23 7
-49 20 -49 23 -54 37 -31 78 22 39 18 48 -35 75 -52 26 -70 31 -70 16 0 -6
-31 -76 -68 -153 -3 -6 328 -208 342 -208 8 0 68 121 112 227 148 355 244 721
284 1078 13 119 13 122 -7 126 -10 2 -102 3 -205 1z"/>
<path d="M1164 4743 c2 -10 7 -43 11 -73 22 -190 107 -595 146 -697 l8 -22 62
28 c33 16 63 32 66 34 2 3 -9 52 -25 110 -38 131 -79 314 -88 390 l-7 57 56 0
56 0 11 -57 c15 -80 96 -402 109 -435 l10 -27 48 19 c26 10 56 21 67 24 12 4
16 12 11 24 -36 90 -125 523 -125 608 l0 34 -211 0 c-196 0 -210 -1 -205 -17z"/>
<path d="M1560 3919 c-96 -39 -179 -74 -184 -79 -5 -5 6 -52 28 -114 l38 -105
109 54 c60 30 112 55 116 55 5 0 44 -71 87 -157 63 -125 188 -356 201 -371 6
-7 120 71 117 80 -2 6 -34 66 -71 133 -73 130 -170 337 -221 475 -18 47 -35
88 -39 92 -3 3 -85 -25 -181 -63z"/>
<path d="M1543 3542 l-53 -27 45 -99 c61 -136 188 -366 201 -366 6 0 17 7 24
15 7 8 30 25 51 37 22 12 39 27 39 33 0 6 -14 33 -32 61 -17 27 -69 121 -114
209 -46 88 -89 161 -96 162 -7 1 -37 -10 -65 -25z"/>
<path d="M8236 3339 c-27 -44 -46 -81 -45 -83 2 -1 29 -17 59 -36 30 -19 106
-67 168 -108 130 -86 117 -89 181 30 l42 76 -123 73 c-68 40 -144 85 -171 101
-26 15 -51 28 -55 28 -5 0 -30 -36 -56 -81z"/>
<path d="M1980 3064 c-85 -58 -161 -108 -168 -113 -10 -6 0 -27 41 -88 235
-350 586 -706 944 -961 200 -142 325 -216 558 -332 389 -192 718 -304 1120
-379 128 -24 299 -50 303 -46 1 1 3 108 3 236 l0 234 -33 6 c-18 4 -59 9 -90
13 l-58 6 0 -55 c0 -76 -20 -201 -35 -222 -13 -17 -18 -17 -119 0 -520 88
-1120 344 -1586 676 -228 163 -487 397 -641 579 -83 98 -209 273 -209 290 0
11 71 62 86 62 5 -1 34 -33 64 -73 139 -183 310 -366 490 -528 441 -393 1082
-719 1685 -855 61 -13 120 -27 133 -29 23 -6 23 -5 20 82 l-3 88 -60 12 c-372
79 -655 179 -982 348 -318 164 -585 354 -823 585 -113 110 -303 329 -387 447
-49 67 -90 122 -93 121 -3 0 -75 -47 -160 -104z"/>
<path d="M8089 3103 c-50 -73 -85 -117 -205 -258 -236 -275 -508 -512 -789
-688 -385 -240 -807 -405 -1248 -488 l-118 -22 3 -88 3 -87 40 1 40 2 3 -57 3
-56 -41 -6 c-129 -19 -116 -21 -129 16 -7 18 -15 84 -18 146 l-6 112 -42 0
c-23 0 -62 -3 -87 -6 l-44 -6 1 -234 c1 -128 3 -236 6 -238 7 -7 206 21 359
50 553 104 1105 328 1562 634 375 251 794 663 1036 1020 28 41 49 77 46 81 -8
14 -323 219 -335 219 -4 0 -23 -21 -40 -47z m120 -200 c22 -16 40 -31 41 -35
1 -27 -253 -329 -386 -459 -384 -370 -807 -643 -1289 -832 -205 -80 -492 -167
-553 -167 -22 0 -32 25 -32 82 0 35 2 38 43 48 432 112 740 241 1109 467 196
120 317 212 548 419 148 132 209 196 353 372 59 73 112 132 117 132 6 0 28
-12 49 -27z"/>
<path d="M4898 1531 l3 -79 31 -6 c40 -8 298 -8 366 0 l52 7 0 78 0 79 -227 0
-228 0 3 -79z"/>
<path d="M4900 1313 c-1 -10 -1 -54 -2 -98 l-2 -80 87 -3 87 -3 0 94 0 94 -46
7 c-86 11 -124 8 -124 -11z"/>
<path d="M5225 1321 l-40 -6 0 -92 0 -93 83 0 82 0 0 100 0 100 -42 -1 c-24
-1 -61 -5 -83 -8z"/>
<path d="M2 48 l1 -53 7 45 7 45 1 -42 c2 -36 5 -43 22 -43 17 0 20 7 20 50 0
49 -1 50 -30 50 -30 0 -30 0 -28 -52z"/>
</g>
</svg>
