<?xml version="1.0" standalone="no"?>
<!DOCTYPE svg PUBLIC "-//W3C//DTD SVG 20010904//EN"
 "http://www.w3.org/TR/2001/REC-SVG-20010904/DTD/svg10.dtd">
<svg version="1.0" xmlns="http://www.w3.org/2000/svg"
 width="500.000000pt" height="80.000000pt" viewBox="0 0 500.000000 80.000000"
 preserveAspectRatio="none">

<g transform="translate(0.000000,80.000000) scale(0.100000,-0.100000)"
fill="#000000" stroke="none">
<path d="M36 771 c5 -21 0 -34 -17 -50 -12 -11 -19 -24 -16 -28 4 -3 18 4 32
17 24 23 26 23 43 6 16 -16 15 -19 -16 -47 -18 -16 -39 -29 -47 -29 -8 0 -15
-4 -15 -10 0 -21 47 -4 86 32 19 17 22 17 34 3 11 -13 9 -20 -16 -46 -15 -16
-45 -35 -66 -41 -21 -6 -38 -15 -38 -20 0 -23 84 12 126 53 27 26 32 28 50 15
19 -14 18 -15 -6 -41 -32 -34 -95 -71 -138 -80 -17 -4 -32 -11 -32 -17 0 -13
55 0 105 25 22 11 55 35 73 55 27 29 37 33 54 25 21 -9 20 -11 -22 -57 -48
-51 -113 -89 -172 -100 -21 -4 -38 -11 -38 -17 0 -10 29 -5 105 18 37 12 65
32 111 78 56 57 62 61 90 52 16 -5 31 -11 32 -13 10 -7 -65 -99 -109 -134 -50
-39 -142 -80 -182 -80 -12 0 -29 -5 -37 -10 -13 -8 -13 -11 0 -22 9 -7 33 -39
54 -71 63 -93 168 -159 287 -178 154 -25 325 56 415 197 29 45 37 51 63 50 25
-1 36 -10 60 -47 67 -106 180 -181 302 -200 158 -24 324 54 415 197 29 45 37
51 63 50 24 -1 36 -10 59 -46 16 -25 52 -67 81 -93 197 -183 503 -134 649 104
18 29 27 35 46 32 15 -3 29 -16 37 -34 19 -48 113 -135 181 -168 196 -97 425
-31 544 155 28 44 37 51 63 50 24 -1 36 -12 69 -61 92 -137 261 -212 415 -184
121 21 228 93 293 195 29 45 37 51 63 50 24 -1 36 -10 59 -46 69 -108 181
-182 303 -201 154 -24 319 52 411 190 17 25 38 52 46 58 21 17 15 21 -46 33
-63 12 -139 49 -188 92 -38 34 -94 104 -94 119 0 5 15 12 32 17 31 8 36 5 85
-49 54 -57 112 -90 186 -103 57 -11 44 9 -16 23 -60 13 -145 66 -176 110 -25
35 -25 37 -5 45 10 4 33 -10 66 -39 56 -51 168 -94 168 -65 0 6 -8 10 -17 10
-31 0 -117 46 -148 79 -27 29 -28 33 -13 48 15 15 19 13 49 -16 32 -32 55 -45
104 -57 44 -11 26 11 -23 28 -26 10 -59 29 -72 43 -22 24 -23 27 -7 42 15 16
18 16 39 -4 41 -37 88 -55 88 -33 0 6 -7 10 -15 10 -8 0 -29 13 -47 28 -30 27
-31 30 -16 51 16 23 16 23 27 3 11 -21 40 -36 49 -27 3 3 -3 12 -15 20 -23 16
-36 52 -22 61 14 8 11 24 -5 24 -8 0 -24 -15 -35 -34 -33 -52 -106 -114 -172
-146 -155 -73 -324 -37 -450 97 -32 35 -59 68 -59 73 0 6 -7 10 -15 10 -11 0
-14 -7 -9 -24 9 -37 -12 -66 -46 -66 -39 0 -67 39 -50 69 20 39 -16 24 -45
-19 -42 -61 -100 -109 -174 -143 -58 -27 -76 -31 -151 -31 -113 0 -180 27
-261 101 -32 31 -67 68 -76 84 -23 38 -44 38 -37 1 11 -57 -60 -86 -91 -38
-13 19 -14 29 -5 45 21 41 -18 23 -49 -22 -156 -227 -482 -231 -641 -7 -40 56
-63 65 -54 22 7 -34 -16 -62 -50 -62 -37 0 -52 25 -32 55 20 30 20 35 2 35 -8
0 -24 -15 -35 -34 -56 -91 -185 -169 -295 -181 -72 -8 -167 12 -225 47 -47 28
-129 106 -147 141 -20 38 -45 36 -38 -3 8 -38 -10 -60 -47 -60 -38 0 -66 39
-49 69 20 39 -16 24 -45 -19 -140 -202 -410 -236 -586 -73 -32 31 -67 68 -76
84 -21 36 -46 39 -37 5 9 -37 -12 -66 -46 -66 -39 0 -67 39 -50 69 21 41 -18
23 -49 -22 -156 -227 -482 -231 -641 -7 -40 56 -63 65 -54 21z m790 -81 c15 0
38 10 51 22 22 21 24 21 41 4 16 -16 15 -19 -16 -47 -38 -34 -88 -39 -133 -12
-34 21 -42 38 -28 62 11 16 13 16 35 -6 13 -13 35 -23 50 -23z m840 0 c15 0
38 10 51 22 22 21 24 21 41 4 16 -16 15 -19 -16 -47 -44 -40 -99 -40 -143 -1
-28 25 -30 30 -18 49 l13 22 23 -25 c13 -14 33 -24 49 -24z m1660 0 c15 0 38
10 51 22 22 21 24 21 41 4 16 -16 15 -19 -16 -47 -37 -33 -85 -38 -131 -14
-34 17 -45 40 -31 65 10 18 11 18 35 -6 14 -14 36 -24 51 -24z m840 0 c15 0
38 10 51 22 22 21 24 21 41 4 16 -16 15 -19 -16 -47 -38 -34 -88 -39 -133 -12
-35 21 -42 38 -27 63 12 18 13 18 35 -6 13 -14 33 -24 49 -24z m-1585 24 c20
-24 -38 -74 -87 -74 -41 0 -94 25 -94 44 0 25 23 36 44 20 28 -20 70 -17 91 6
22 24 29 25 46 4z m-1850 -50 c47 -57 134 -58 195 -3 17 16 23 17 39 5 18 -13
17 -14 -8 -40 -56 -56 -139 -71 -205 -37 -54 28 -78 57 -62 76 16 19 24 19 41
-1z m840 0 c48 -58 134 -58 197 -1 21 19 24 20 39 5 14 -15 13 -18 -11 -43
-55 -55 -138 -70 -204 -36 -54 28 -78 57 -62 76 16 19 24 19 41 -1z m1038 -40
c-50 -55 -131 -69 -198 -35 -55 28 -69 48 -48 68 15 16 18 15 40 -5 45 -43
141 -38 183 9 16 17 19 18 33 5 13 -14 12 -18 -10 -42z m632 30 c49 -47 145
-42 188 10 10 12 18 13 32 5 18 -9 18 -11 3 -34 -21 -32 -91 -65 -138 -65 -41
0 -101 27 -130 59 -15 17 -16 23 -6 36 17 20 19 19 51 -11z m830 10 c48 -58
134 -58 197 -1 21 19 24 20 39 5 14 -15 13 -18 -11 -43 -55 -55 -138 -70 -204
-36 -54 28 -78 57 -62 76 16 19 24 19 41 -1z m-3377 -59 c79 -74 192 -72 272
6 27 26 32 28 50 15 18 -14 18 -15 -11 -46 -93 -98 -234 -104 -333 -15 -41 37
-45 44 -33 59 7 9 15 16 16 16 1 0 19 -16 39 -35z m838 2 c80 -75 194 -73 274
4 27 26 32 28 50 15 18 -14 18 -15 -11 -46 -93 -98 -234 -104 -333 -15 -41 37
-45 44 -33 59 7 9 15 16 16 16 1 0 18 -15 37 -33z m1148 -7 c-14 -27 -73 -70
-117 -86 -81 -28 -176 -7 -238 53 -33 32 -35 36 -19 48 15 10 24 7 61 -21 79
-60 179 -56 251 11 29 26 41 31 54 24 14 -8 16 -14 8 -29z m514 5 c79 -74 192
-72 272 6 27 26 32 28 50 15 18 -14 18 -15 -11 -46 -93 -98 -234 -104 -333
-15 -41 37 -45 44 -33 59 7 9 15 16 16 16 1 0 19 -16 39 -35z m840 0 c79 -74
192 -72 272 6 27 26 32 28 50 15 18 -14 18 -15 -11 -47 -16 -17 -52 -42 -80
-55 -88 -42 -177 -27 -253 42 -41 36 -45 43 -33 58 7 9 15 16 16 16 1 0 19
-16 39 -35z m-3382 -50 c60 -54 137 -81 206 -71 54 7 135 50 168 89 17 21 29
27 44 22 11 -3 20 -10 20 -14 0 -15 -97 -100 -137 -120 -120 -60 -286 -19
-363 89 -19 26 -20 34 -9 41 19 12 16 14 71 -36z m840 0 c111 -100 275 -94
369 13 22 24 35 32 49 27 28 -9 26 -15 -20 -63 -82 -85 -197 -119 -302 -88
-89 26 -201 125 -167 147 19 12 16 14 71 -36z m1247 36 c11 -7 4 -20 -33 -59
-63 -67 -130 -96 -221 -97 -86 0 -164 34 -221 97 -36 41 -37 42 -16 51 18 8
29 3 66 -31 54 -50 137 -77 204 -68 55 7 138 52 165 88 22 30 33 33 56 19z
m411 -35 c57 -54 138 -82 208 -72 55 7 138 52 165 88 22 30 33 33 57 18 12 -8
7 -17 -30 -55 -87 -90 -195 -122 -303 -91 -59 17 -127 63 -161 109 -18 24 -19
29 -6 37 21 13 18 15 70 -34z m842 -1 c59 -53 137 -81 204 -71 58 8 135 47
168 86 19 23 31 30 46 25 28 -9 26 -15 -22 -64 -85 -86 -195 -118 -300 -87
-89 26 -201 125 -167 147 19 12 16 14 71 -36z m-3355 -78 c63 -43 114 -60 183
-61 101 -1 163 25 236 99 56 57 62 61 90 52 16 -5 31 -11 32 -13 2 -1 -10 -22
-26 -47 -113 -163 -320 -219 -495 -132 -57 29 -137 101 -167 152 l-18 31 36 9
c35 9 38 7 64 -27 15 -20 44 -49 65 -63z m830 9 c58 -49 121 -70 204 -70 98 1
167 32 236 108 45 49 50 52 81 44 17 -5 32 -13 32 -17 0 -16 -78 -108 -112
-134 -153 -114 -347 -110 -488 10 -42 36 -100 108 -100 124 0 5 15 12 33 17
29 7 35 5 58 -24 14 -18 39 -44 56 -58z m1372 68 c9 -7 -75 -108 -116 -139
-140 -107 -342 -106 -474 2 -48 40 -109 112 -109 130 0 6 14 13 31 17 27 5 36
0 80 -45 86 -89 198 -123 307 -95 76 19 129 52 177 110 36 42 39 44 69 34 17
-6 33 -12 35 -14z m298 -77 c94 -65 179 -79 284 -47 64 19 81 30 134 84 57 58
63 62 91 53 16 -5 31 -11 32 -13 9 -7 -62 -96 -101 -127 -60 -49 -114 -74
-189 -87 -147 -26 -289 38 -390 175 l-30 40 39 11 c37 11 39 10 65 -26 15 -20
44 -49 65 -63z m835 3 c91 -71 226 -86 330 -36 34 16 76 48 105 79 46 50 50
52 81 43 17 -5 32 -12 32 -17 0 -14 -79 -107 -112 -132 -153 -114 -347 -110
-488 10 -42 36 -100 108 -100 124 0 5 15 12 33 17 29 8 34 5 62 -29 17 -21 42
-47 57 -59z m-3512 32 c0 -53 -66 -72 -95 -28 -22 34 -6 64 38 68 33 3 57 -13
57 -40z m835 14 c12 -36 -3 -60 -43 -64 -24 -2 -34 3 -48 22 -14 23 -15 28 -2
49 23 34 80 30 93 -7z m828 -8 c21 -37 9 -58 -34 -58 -19 0 -34 8 -45 25 -15
23 -15 27 -1 49 21 31 57 24 80 -16z m830 13 c27 -59 -53 -101 -89 -46 -14 22
-15 27 -2 48 21 30 78 30 91 -2z m847 -19 c0 -53 -66 -72 -95 -28 -22 34 -6
64 38 68 33 3 57 -13 57 -40z m835 14 c12 -36 -3 -60 -43 -64 -24 -2 -34 3
-48 22 -14 23 -15 28 -2 49 23 34 80 30 93 -7z m-4232 -86 c18 0 40 9 54 22
22 21 24 21 41 4 16 -16 15 -19 -16 -47 -39 -35 -91 -39 -139 -9 -36 21 -39
30 -22 61 10 20 11 19 30 -5 14 -18 30 -26 52 -26z m846 0 c18 0 38 9 51 22
19 21 21 21 38 4 16 -16 15 -19 -16 -47 -37 -33 -85 -38 -131 -14 -34 17 -45
40 -30 64 11 16 13 16 35 -6 14 -14 35 -23 53 -23z m838 0 c16 0 38 7 50 15
20 14 23 14 32 -4 9 -16 6 -23 -15 -40 -31 -25 -83 -27 -123 -6 -35 17 -45 40
-29 65 12 18 13 18 35 -6 13 -14 33 -24 50 -24z m816 0 c18 0 40 9 54 22 22
21 24 21 41 4 16 -16 15 -19 -16 -47 -39 -35 -91 -39 -139 -9 -36 21 -39 30
-22 61 10 20 11 19 30 -5 14 -18 30 -26 52 -26z m843 0 c15 0 38 10 51 22 22
21 24 21 41 4 16 -16 15 -19 -16 -47 -37 -33 -85 -38 -131 -14 -34 17 -45 40
-31 65 10 18 11 18 35 -6 14 -14 36 -24 51 -24z m844 0 c17 0 39 9 51 21 20
20 22 20 38 4 15 -15 14 -18 -17 -46 -37 -33 -85 -38 -131 -14 -34 17 -45 40
-30 64 11 16 13 16 35 -6 14 -14 35 -23 54 -23z m-4270 -35 c29 -28 84 -41
124 -31 13 3 38 18 55 32 25 21 34 24 46 14 21 -17 4 -44 -49 -75 -71 -42
-160 -29 -216 30 -19 20 -21 27 -10 40 17 20 19 19 50 -10z m840 0 c29 -28 84
-41 124 -31 13 3 39 18 56 32 28 24 33 25 47 11 14 -14 13 -18 -11 -42 -72
-72 -188 -72 -256 0 -19 20 -21 27 -10 40 17 20 19 19 50 -10z m841 -1 c42
-40 112 -44 163 -9 35 24 41 25 54 11 19 -19 5 -39 -49 -67 -69 -35 -157 -20
-209 36 -19 20 -21 27 -10 40 17 20 19 19 51 -11z m819 1 c29 -28 84 -41 124
-31 13 3 38 18 55 32 25 21 34 24 46 14 35 -29 -63 -100 -138 -100 -48 0 -95
20 -126 53 -20 22 -22 29 -11 42 17 20 19 19 50 -10z m840 0 c29 -28 84 -41
124 -31 13 3 38 18 55 32 25 21 34 24 46 14 21 -17 4 -44 -49 -75 -71 -42
-160 -29 -216 30 -19 20 -21 27 -10 40 17 20 19 19 50 -10z m840 0 c29 -28 84
-41 124 -31 13 3 38 18 55 32 25 21 34 24 46 14 21 -17 4 -44 -49 -75 -71 -42
-160 -29 -216 30 -19 20 -21 27 -10 40 17 20 19 19 50 -10z m-4239 -39 c26
-33 97 -66 142 -66 49 0 104 24 143 61 27 26 32 28 50 15 18 -14 18 -15 -11
-47 -84 -89 -216 -103 -317 -32 -49 33 -64 59 -47 79 15 19 18 18 40 -10z
m840 0 c26 -33 97 -66 142 -66 49 0 104 24 143 61 27 26 32 28 50 15 18 -14
18 -15 -11 -47 -85 -90 -230 -103 -323 -28 -44 35 -56 57 -41 75 15 19 18 18
40 -10z m840 0 c26 -33 97 -66 142 -66 47 0 104 23 140 58 26 24 28 25 44 9
16 -16 15 -18 -8 -43 -13 -15 -46 -37 -74 -50 -88 -42 -177 -27 -253 42 -41
36 -45 43 -33 58 17 21 20 20 42 -8z m820 0 c26 -33 97 -66 142 -66 49 0 104
24 143 61 27 26 32 28 50 15 18 -14 18 -15 -11 -47 -84 -89 -216 -103 -317
-32 -49 33 -64 59 -47 79 15 19 18 18 40 -10z m840 0 c26 -33 97 -66 142 -66
49 0 104 24 143 61 27 26 32 28 50 15 18 -14 18 -15 -11 -47 -82 -88 -221
-103 -314 -35 -49 36 -66 63 -51 81 16 20 19 19 41 -9z m840 0 c26 -33 97 -66
142 -66 49 0 104 24 143 61 27 26 32 28 50 15 18 -14 18 -15 -11 -47 -39 -41
-120 -79 -171 -79 -62 0 -127 27 -169 70 -32 33 -36 42 -25 55 16 20 19 19 41
-9z m-4220 -52 c102 -106 259 -110 364 -9 34 33 52 44 66 40 10 -4 19 -10 19
-15 0 -4 -26 -32 -59 -62 -121 -112 -282 -116 -404 -8 -49 42 -64 70 -46 81
21 13 22 12 60 -27z m840 0 c102 -106 260 -110 366 -9 32 31 52 43 65 39 26
-8 23 -16 -27 -67 -84 -85 -190 -114 -298 -83 -59 17 -127 63 -161 109 -18 24
-19 29 -6 37 22 14 23 13 61 -26z m844 -4 c42 -43 124 -80 179 -80 59 0 131
29 180 71 38 34 51 40 68 32 19 -8 18 -11 -24 -54 -105 -108 -257 -128 -381
-49 -59 37 -106 98 -86 111 21 13 21 13 64 -31z m816 4 c55 -58 103 -78 184
-78 82 -1 130 19 188 77 27 27 43 36 58 32 10 -4 19 -10 19 -15 0 -4 -26 -32
-59 -62 -96 -89 -210 -110 -323 -60 -73 32 -148 107 -133 132 11 18 31 10 66
-26z m840 0 c102 -106 260 -110 366 -9 32 31 52 43 65 39 10 -3 18 -9 18 -13
0 -16 -96 -102 -136 -122 -121 -58 -286 -16 -368 94 -18 24 -19 29 -6 37 22
14 23 13 61 -26z m840 0 c102 -106 260 -110 366 -9 32 31 52 43 65 39 27 -8
23 -18 -27 -67 -107 -107 -255 -126 -378 -47 -59 37 -106 98 -86 111 21 13 22
12 60 -27z m-4248 -25 c33 -48 103 -94 176 -116 111 -32 235 7 318 102 43 48
49 52 76 44 16 -5 32 -10 34 -13 8 -8 -54 -91 -93 -126 -21 -18 -67 -47 -103
-63 -55 -26 -77 -31 -145 -31 -137 -1 -243 52 -328 165 l-40 53 34 12 c18 7
35 13 38 13 3 0 17 -18 33 -40z m839 2 c35 -49 107 -97 177 -118 110 -32 232
7 318 101 45 49 50 52 81 44 17 -5 32 -13 32 -17 0 -16 -77 -108 -112 -135
-19 -14 -61 -38 -93 -53 -80 -36 -201 -38 -287 -4 -61 24 -144 91 -190 156
l-29 40 33 12 c18 6 35 12 38 12 3 0 17 -17 32 -38z m836 4 c82 -119 263 -166
393 -102 31 15 78 50 103 77 44 47 50 50 82 44 19 -3 34 -10 34 -14 0 -14 -57
-85 -95 -119 -55 -48 -150 -90 -220 -97 -69 -7 -167 14 -224 48 -68 40 -175
157 -159 173 4 4 50 23 58 24 3 1 16 -15 28 -34z m825 -6 c33 -48 103 -94 176
-116 111 -32 235 7 318 102 43 48 49 52 76 44 16 -5 32 -10 34 -13 8 -8 -54
-91 -92 -124 -176 -155 -432 -124 -578 71 l-39 51 34 12 c18 7 35 13 38 13 3
0 17 -18 33 -40z m839 2 c35 -49 107 -97 177 -118 110 -32 232 7 318 101 45
49 50 52 81 44 17 -5 32 -13 32 -17 0 -16 -77 -108 -112 -135 -19 -14 -61 -38
-93 -53 -80 -36 -201 -38 -287 -4 -61 24 -144 91 -190 156 l-29 40 33 12 c18
6 35 12 38 12 3 0 17 -17 32 -38z m836 4 c82 -119 263 -166 394 -102 33 16 77
50 105 81 45 49 50 52 81 44 17 -5 32 -12 32 -17 0 -4 -13 -26 -28 -47 -97
-133 -264 -198 -412 -160 -98 25 -174 79 -242 171 l-29 40 33 12 c18 6 35 12
38 12 3 1 16 -15 28 -34z"/>
<path d="M150 791 c0 -17 74 -74 130 -100 79 -37 184 -36 260 1 58 29 146 108
119 108 -8 0 -28 -14 -45 -31 -16 -17 -51 -43 -79 -57 -41 -22 -63 -27 -125
-27 -87 0 -145 22 -207 79 -41 37 -53 43 -53 27z"/>
<path d="M245 790 c12 -19 84 -50 130 -56 52 -8 119 7 170 37 55 33 33 35 -36
4 -53 -23 -71 -27 -121 -22 -32 3 -74 14 -94 26 -38 23 -59 27 -49 11z"/>
<path d="M999 782 c14 -26 73 -69 129 -95 34 -15 67 -21 122 -21 90 -1 162 29
225 94 48 49 32 53 -21 5 -64 -59 -118 -80 -204 -80 -87 0 -145 22 -207 79
-45 40 -59 46 -44 18z"/>
<path d="M1085 790 c12 -20 87 -51 134 -57 55 -6 142 16 181 47 35 27 13 25
-55 -6 -68 -31 -136 -30 -206 4 -50 24 -63 27 -54 12z"/>
<path d="M1839 782 c14 -26 73 -69 129 -95 34 -15 67 -21 122 -21 90 -1 162
29 225 94 48 49 32 53 -21 5 -64 -59 -118 -80 -204 -80 -87 0 -145 22 -207 79
-45 40 -59 46 -44 18z"/>
<path d="M1940 780 c32 -25 105 -50 145 -50 44 0 125 26 155 50 35 27 13 25
-55 -6 -68 -32 -138 -30 -204 4 -52 27 -75 28 -41 2z"/>
<path d="M2650 791 c0 -17 74 -74 130 -100 79 -37 184 -36 260 1 58 29 146
108 119 108 -8 0 -28 -14 -45 -31 -16 -17 -51 -43 -79 -57 -41 -22 -63 -27
-125 -27 -87 0 -145 22 -207 79 -41 37 -53 43 -53 27z"/>
<path d="M2745 790 c12 -19 84 -50 130 -56 55 -8 126 9 174 41 47 32 28 32
-44 -1 -48 -22 -67 -26 -116 -21 -33 3 -75 14 -95 26 -38 23 -59 27 -49 11z"/>
<path d="M3502 778 c24 -35 105 -87 166 -104 105 -31 226 3 307 86 48 49 32
53 -20 5 -63 -58 -119 -79 -205 -79 -87 -1 -144 21 -207 78 -46 41 -62 47 -41
14z"/>
<path d="M3585 790 c12 -20 87 -51 134 -57 55 -6 142 16 181 47 35 27 13 25
-55 -6 -48 -22 -67 -26 -116 -21 -33 3 -75 14 -95 26 -38 23 -59 27 -49 11z"/>
<path d="M4339 782 c14 -26 73 -69 129 -95 34 -15 67 -21 122 -21 90 -1 162
29 225 94 48 49 32 53 -21 5 -64 -59 -118 -80 -204 -80 -87 0 -145 22 -207 79
-45 40 -59 46 -44 18z"/>
<path d="M4430 785 c17 -20 114 -55 154 -55 44 0 126 26 156 50 35 27 13 25
-55 -6 -68 -31 -136 -30 -206 4 -53 26 -66 28 -49 7z"/>
</g>
</svg>
