<?xml version="1.0" standalone="no"?>
<!DOCTYPE svg PUBLIC "-//W3C//DTD SVG 20010904//EN"
 "http://www.w3.org/TR/2001/REC-SVG-20010904/DTD/svg10.dtd">
<svg version="1.0" xmlns="http://www.w3.org/2000/svg"
 width="1024.000000pt" height="1024.000000pt" viewBox="0 0 1024.000000 1024.000000"
 preserveAspectRatio="xMidYMid meet">

<g transform="translate(0.000000,1024.000000) scale(0.100000,-0.100000)"
fill="#000000" stroke="none">
<path d="M4905 9648 c-859 -44 -1761 -380 -2480 -921 -269 -202 -607 -535
-831 -817 -366 -461 -651 -1022 -804 -1578 -127 -460 -176 -921 -152 -1405 18
-346 57 -609 143 -952 130 -517 417 -1119 737 -1544 343 -456 771 -848 1237
-1134 208 -128 256 -154 435 -241 238 -115 511 -222 715 -282 167 -48 190 -54
357 -89 543 -113 1051 -120 1584 -24 618 111 1253 367 1764 712 575 389 995
827 1337 1395 530 880 753 1938 623 2954 -92 719 -390 1460 -822 2048 -370
504 -837 933 -1338 1232 -451 269 -902 447 -1420 562 -315 69 -738 102 -1085
84z m615 -373 c510 -57 954 -192 1435 -439 424 -217 705 -420 1049 -756 257
-251 414 -443 601 -729 310 -478 511 -1026 600 -1636 67 -464 58 -866 -31
-1350 -116 -633 -362 -1204 -733 -1705 -120 -163 -377 -448 -527 -586 -706
-647 -1542 -1021 -2464 -1104 -167 -15 -523 -12 -701 5 -566 55 -1134 239
-1669 543 -534 303 -1053 789 -1395 1306 -368 559 -581 1140 -671 1836 -22
169 -30 628 -15 802 49 547 183 1031 418 1511 224 457 562 890 1003 1286 145
130 404 320 575 422 511 305 1063 503 1610 579 83 11 197 24 255 29 143 13
483 5 660 -14z m2250 -565 c0 -5 -2 -10 -4 -10 -3 0 -8 5 -11 10 -3 6 -1 10 4
10 6 0 11 -4 11 -10z"/>
<path d="M4900 9173 c-19 -1 -87 -8 -150 -13 -102 -10 -310 -39 -318 -45 -1
-1 6 -63 18 -136 11 -74 40 -302 65 -508 24 -206 46 -375 47 -376 2 -1 37 3
80 11 269 47 712 46 963 -1 39 -7 71 -12 73 -10 1 1 11 78 22 171 40 353 94
779 105 830 5 23 6 23 -138 44 -217 32 -607 49 -767 33z m189 -182 c11 -7 13
-26 7 -91 l-7 -82 164 3 163 4 23 -28 c13 -15 20 -31 16 -35 -3 -4 -87 -8
-186 -11 l-179 -3 0 -35 c0 -60 -31 -187 -58 -236 -58 -107 -212 -199 -286
-171 -19 7 -21 44 -3 44 8 0 41 14 75 31 114 56 174 157 183 304 l4 60 -101 0
c-105 0 -127 7 -137 44 -4 18 5 20 121 26 l125 8 -7 75 c-3 41 -11 81 -17 88
-9 12 -3 14 37 14 27 0 55 -4 63 -9z m215 -297 c13 -5 16 -24 16 -107 0 -81 4
-109 21 -143 23 -49 82 -84 142 -84 45 0 57 -18 27 -42 -68 -55 -224 25 -263
134 -9 24 -18 89 -20 146 l-4 102 33 0 c18 0 39 -3 48 -6z"/>
<path d="M4150 9044 c-85 -24 -167 -47 -182 -50 -33 -8 -34 -17 -9 -109 31
-111 167 -648 196 -777 l27 -116 53 18 c28 10 96 28 151 40 54 13 103 26 107
30 5 4 -3 63 -17 131 -30 148 -130 692 -147 802 -6 42 -15 77 -18 76 -3 0 -76
-20 -161 -45z"/>
<path d="M5916 9062 c-3 -15 -24 -135 -46 -266 -22 -132 -58 -327 -79 -435
-56 -279 -57 -291 -36 -291 9 0 72 -14 138 -31 178 -46 167 -44 167 -21 0 24
129 543 194 785 25 93 46 172 46 176 0 8 -97 40 -230 74 -157 41 -148 41 -154
9z"/>
<path d="M3680 8886 c-159 -64 -200 -83 -200 -92 0 -3 36 -96 79 -207 84 -216
245 -654 256 -699 4 -16 10 -28 15 -28 4 0 49 17 101 38 52 22 115 47 142 56
30 11 47 24 47 34 0 19 -255 887 -273 931 l-12 29 -155 -62z"/>
<path d="M6396 8941 c-6 -9 -180 -586 -241 -795 -25 -88 -42 -163 -38 -166 5
-4 53 -25 108 -47 55 -23 117 -48 138 -57 l37 -16 11 27 c38 98 66 173 106
283 43 121 73 198 190 494 30 76 53 139 51 140 -45 32 -355 149 -362 137z"/>
<path d="M6781 8593 c-154 -351 -321 -742 -321 -751 0 -7 282 -172 295 -172 2
0 66 120 143 268 76 147 180 340 231 428 50 89 91 168 91 177 0 17 -69 60
-239 151 -69 36 -125 66 -126 66 0 0 -34 -75 -74 -167z"/>
<path d="M3263 8696 c-148 -78 -252 -140 -253 -150 0 -5 33 -68 73 -140 92
-162 162 -295 291 -547 l101 -196 55 34 c30 18 97 56 148 84 87 47 93 53 87
76 -17 69 -377 893 -390 893 -5 0 -56 -25 -112 -54z"/>
<path d="M2750 8371 c-246 -184 -457 -379 -674 -625 l-78 -88 73 -67 c41 -36
132 -120 204 -186 71 -66 177 -163 235 -215 57 -52 127 -116 155 -142 27 -26
53 -48 56 -48 4 0 52 53 107 118 55 64 130 146 168 182 77 73 254 214 354 280
36 24 66 44 68 45 2 2 -23 45 -54 96 -31 52 -71 119 -89 149 -40 69 -152 255
-177 295 -10 17 -56 93 -102 169 -45 77 -87 141 -92 143 -5 1 -74 -46 -154
-106z m13 -330 c15 -8 27 -21 27 -30 -1 -16 -31 -80 -66 -138 -18 -30 -18 -33
-2 -49 17 -17 22 -15 280 159 26 18 26 18 47 -11 l20 -29 -140 -94 c-117 -79
-139 -97 -134 -114 36 -125 19 -220 -56 -316 -28 -35 -93 -78 -104 -68 -3 4
13 37 35 75 85 145 92 263 18 341 l-21 22 -57 -52 c-48 -45 -138 -103 -145
-95 -7 9 -25 48 -25 55 0 4 14 14 32 22 80 36 227 222 244 311 4 17 9 29 13
28 3 -2 18 -10 34 -17z"/>
<path d="M7302 8448 c-11 -18 -65 -109 -120 -203 -124 -211 -351 -586 -363
-601 -6 -8 0 -17 18 -29 176 -114 464 -372 606 -542 33 -40 62 -73 66 -73 3 0
92 80 197 178 104 97 265 244 357 325 92 82 167 153 167 158 0 27 -261 302
-452 476 -112 103 -427 343 -448 343 -5 0 -17 -15 -28 -32z m227 -418 c70 -56
92 -61 111 -25 17 32 27 31 69 -5 l34 -29 -37 -17 c-20 -10 -36 -20 -36 -23 0
-3 39 -33 86 -65 l86 -60 -24 -18 c-13 -10 -27 -18 -31 -18 -5 0 -42 27 -83
61 l-74 60 -35 -27 c-19 -14 -35 -28 -35 -30 0 -2 33 -25 73 -52 85 -58 112
-86 104 -107 -11 -27 -41 -16 -137 54 -52 37 -97 65 -100 62 -3 -4 -44 -37
-92 -74 -49 -38 -88 -71 -88 -74 0 -18 135 -173 151 -173 3 0 0 24 -8 53 -15
54 -11 143 7 178 24 43 44 41 119 -12 39 -27 71 -53 71 -58 0 -5 -7 -14 -15
-21 -12 -10 -22 -6 -57 24 -63 54 -72 50 -66 -32 3 -45 14 -89 31 -127 15 -31
25 -61 22 -65 -11 -18 -64 -21 -101 -5 -62 26 -109 62 -156 122 -68 87 -65 85
-96 69 -51 -26 -144 -46 -164 -35 -29 16 -18 29 41 50 30 10 65 26 78 35 l25
16 -41 42 -42 43 23 15 c21 14 25 13 71 -25 56 -48 48 -50 165 46 l72 60 -47
32 c-61 42 -87 70 -80 90 10 25 35 17 95 -28 82 -62 81 -62 108 -36 13 12 24
27 24 33 -1 6 -30 33 -65 61 -36 27 -65 52 -65 55 0 10 24 30 35 30 7 0 40
-22 74 -50z"/>
<path d="M1852 7467 c-158 -211 -351 -553 -437 -775 -26 -66 -31 -90 -22 -98
7 -6 111 -55 232 -109 341 -152 433 -194 527 -241 48 -24 92 -44 98 -44 6 0
18 19 27 43 26 66 138 289 190 380 26 45 85 138 131 205 83 123 84 124 62 139
-12 9 -67 52 -122 97 -55 44 -149 119 -208 166 -60 47 -176 140 -258 207
l-151 123 -69 -93z m279 -346 l23 -18 -77 -183 c-42 -101 -79 -185 -81 -187
-3 -4 -42 12 -54 22 -2 2 22 66 52 144 31 77 56 143 56 145 0 15 41 96 49 96
5 0 19 -8 32 -19z m-232 -11 l23 -20 -58 -135 -58 -136 -30 7 c-17 3 -32 8
-34 9 -2 1 19 56 47 121 27 66 53 131 56 147 8 32 21 34 54 7z m422 -159 l23
-18 -34 -94 c-35 -99 -113 -263 -129 -273 -5 -4 -30 -9 -56 -13 l-46 -6 39 57
c42 60 123 240 143 319 12 51 25 57 60 28z"/>
<path d="M8185 7459 c-237 -198 -267 -222 -430 -349 -91 -71 -175 -136 -186
-144 -20 -14 -19 -17 73 -158 134 -203 210 -341 288 -521 24 -54 46 -96 49
-94 92 51 438 210 816 375 33 14 61 27 63 28 2 1 -20 55 -48 120 -67 156 -191
395 -276 531 -71 113 -214 313 -223 313 -3 -1 -60 -46 -126 -101z m144 -326
c37 -44 40 -66 10 -61 -24 3 -53 39 -64 76 -10 35 19 27 54 -15z m-102 -10
c26 -28 96 -133 167 -252 l39 -64 -24 -18 c-13 -10 -28 -19 -34 -19 -5 1 -37
48 -70 105 -32 58 -62 104 -65 102 -3 -2 -19 -9 -37 -16 l-31 -12 25 -37 c21
-32 24 -46 21 -98 -5 -89 -59 -193 -138 -268 -59 -56 -62 -58 -80 -41 -11 10
-20 21 -20 24 0 4 22 31 49 60 26 29 60 77 75 107 33 67 45 169 23 198 -14 19
-17 19 -117 -17 -57 -20 -104 -36 -105 -35 0 2 -9 16 -19 31 -10 16 -16 30
-14 32 2 2 39 15 83 30 102 35 245 101 245 113 0 5 -9 21 -20 35 -23 29 -25
38 -8 55 18 18 26 15 55 -15z"/>
<path d="M3701 7469 c-130 -20 -228 -65 -309 -143 -86 -82 -104 -174 -53 -274
51 -100 58 -103 53 -30 -8 123 37 206 148 271 36 20 69 37 73 37 5 0 -12 -23
-38 -52 -73 -82 -109 -170 -118 -290 -4 -57 0 -67 18 -49 21 21 134 70 200 87
92 24 283 24 375 0 161 -41 285 -126 361 -245 27 -42 49 -71 49 -66 0 6 4 38
9 72 34 231 -121 503 -352 617 -120 59 -285 85 -416 65z"/>
<path d="M3045 7214 c-33 -18 -64 -35 -69 -37 -5 -1 19 -39 52 -82 34 -44 102
-133 152 -199 50 -65 83 -115 73 -111 -122 52 -238 46 -373 -18 -94 -45 -223
-176 -277 -282 -53 -103 -78 -187 -92 -305 -13 -101 -9 -161 16 -280 37 -179
150 -345 291 -427 35 -21 175 -83 187 -83 2 0 -8 34 -21 76 -104 327 -25 634
298 1151 l45 73 84 -111 c46 -60 108 -140 136 -177 29 -37 53 -70 53 -74 0 -5
-18 -8 -39 -8 -31 0 -44 6 -63 28 -13 15 -28 31 -34 34 -9 6 -207 -52 -219
-64 -4 -4 87 -123 405 -529 193 -246 922 -1160 1127 -1414 60 -74 111 -126
158 -160 l70 -50 -2 -320 c-5 -559 -23 -1347 -34 -1445 -27 -245 -83 -340
-284 -477 -49 -34 -106 -78 -124 -97 l-35 -36 -120 0 -119 0 64 42 c35 22 89
56 119 75 l55 34 -40 -7 c-212 -34 -481 -107 -715 -194 -101 -37 -380 -171
-416 -199 l-25 -20 88 -44 c105 -53 257 -117 278 -117 8 0 39 11 70 25 374
172 900 258 1370 226 177 -13 333 -31 470 -57 227 -42 543 -137 709 -214 l89
-40 91 34 c161 61 311 125 314 134 1 4 -35 29 -80 54 -228 127 -560 256 -938
363 -278 79 -378 140 -448 273 -71 136 -87 304 -97 1052 -3 217 -8 521 -11
676 l-6 281 51 32 c83 54 101 74 513 591 538 676 635 798 698 880 36 47 99
128 142 180 66 82 143 179 248 310 15 19 58 73 95 119 37 46 59 81 50 77 -20
-7 -340 -51 -483 -65 -57 -6 -198 -16 -314 -21 -236 -12 -228 -14 -228 57 0
151 66 310 175 418 287 286 758 205 943 -161 32 -64 62 -191 62 -263 -1 -190
-102 -378 -258 -479 -62 -39 -181 -82 -228 -82 -35 0 -74 -34 -149 -134 l-37
-49 103 6 c217 11 423 110 549 262 99 119 151 238 170 390 31 248 -76 514
-274 682 -59 51 -190 117 -271 139 -302 78 -634 -42 -806 -291 -81 -117 -129
-275 -129 -425 l0 -80 -617 0 c-564 0 -1185 12 -1339 26 -62 5 -62 5 -110 67
-27 34 -83 110 -126 170 -43 59 -138 187 -211 285 -73 97 -178 237 -232 310
-54 72 -101 131 -104 131 -3 -1 -33 -16 -66 -35z m-16 -521 c-7 -10 -23 -30
-35 -44 -11 -15 -39 -64 -62 -110 -77 -159 -112 -334 -112 -564 0 -220 35
-413 90 -504 12 -18 19 -35 17 -37 -2 -2 -26 15 -53 38 -154 131 -257 348
-271 573 -16 253 143 532 362 636 69 33 83 36 64 12z m656 -493 c191 -18 395
-28 910 -47 275 -10 491 -19 480 -20 -96 -11 -932 -60 -1102 -64 -40 -1 -73
-6 -73 -11 0 -5 33 -53 73 -106 40 -53 98 -131 129 -172 387 -521 471 -633
512 -679 150 -169 308 -241 526 -241 175 0 330 51 467 155 91 67 415 400 724
740 157 173 218 238 197 210 -55 -74 -318 -411 -398 -510 -53 -66 -132 -165
-175 -220 -275 -347 -395 -448 -600 -507 -67 -19 -104 -23 -225 -22 -167 0
-237 14 -369 75 -145 67 -286 190 -422 365 -29 39 -117 151 -194 249 -77 98
-194 246 -260 330 -66 84 -147 187 -180 230 -33 43 -92 116 -132 164 -40 47
-72 90 -73 94 0 5 17 6 38 3 20 -3 87 -10 147 -16z"/>
<path d="M6601 6639 c0 -115 4 -177 9 -164 43 97 118 321 110 329 -5 5 -34 11
-65 14 l-55 4 1 -183z"/>
<path d="M6390 6788 c-30 -12 -57 -23 -59 -24 -2 -2 11 -22 27 -46 17 -24 60
-92 96 -152 36 -60 66 -104 66 -97 0 11 -33 235 -45 309 -7 37 -12 38 -85 10z"/>
<path d="M6838 6698 c-13 -18 -51 -76 -83 -128 -32 -52 -65 -103 -73 -112 -26
-31 -4 -20 61 30 34 26 80 60 102 75 22 15 58 43 80 62 l40 35 -40 35 c-22 19
-45 35 -51 35 -7 0 -23 -15 -36 -32z"/>
<path d="M6197 6648 c-8 -13 -24 -33 -36 -45 l-20 -22 77 -44 c42 -24 104 -58
137 -76 33 -17 71 -39 85 -48 l24 -18 -17 25 c-28 40 -219 250 -227 250 -4 0
-14 -10 -23 -22z"/>
<path d="M4710 6583 c-335 -17 -923 -73 -938 -88 -2 -2 15 -29 38 -60 36 -49
45 -56 68 -51 40 8 309 34 542 51 306 23 793 30 1065 15 336 -19 299 -22 306
25 3 22 9 50 12 61 7 20 3 22 -50 28 -193 21 -796 33 -1043 19z"/>
<path d="M6940 6483 c-41 -20 -104 -49 -140 -64 l-65 -28 40 -1 c22 0 97 5
168 12 140 13 136 10 116 81 -12 46 -22 46 -119 0z"/>
<path d="M1298 6378 c-40 -122 -90 -309 -84 -315 6 -6 276 -63 421 -88 77 -14
220 -40 319 -60 98 -19 185 -35 192 -35 8 0 14 9 14 19 0 10 17 69 39 131 24
72 34 113 27 115 -44 14 -377 142 -601 230 -148 59 -275 109 -280 111 -6 3
-27 -46 -47 -108z"/>
<path d="M8645 6388 c-417 -164 -499 -196 -570 -220 -38 -12 -72 -24 -74 -26
-3 -1 15 -62 39 -135 l43 -133 191 37 c105 21 313 61 461 90 149 29 274 56
278 59 10 9 -4 72 -60 263 -35 116 -51 157 -63 156 -8 0 -118 -41 -245 -91z"/>
<path d="M6080 6384 l0 -57 142 7 c79 4 150 12 158 17 11 6 8 8 -13 9 -16 0
-81 18 -144 40 -64 22 -122 40 -130 40 -9 0 -13 -16 -13 -56z"/>
<path d="M7058 6260 c-27 -39 -27 -40 -7 -51 11 -6 22 -9 24 -7 5 5 18 98 14
98 -2 -1 -16 -18 -31 -40z"/>
<path d="M6931 6100 l-22 -31 28 -34 c15 -18 31 -34 34 -34 3 -1 20 19 38 44
l32 44 -40 21 c-22 11 -42 20 -44 20 -2 0 -13 -14 -26 -30z"/>
<path d="M1180 5923 c-33 -188 -37 -225 -26 -228 6 -2 76 -13 156 -24 845
-117 768 -110 774 -80 3 13 15 65 26 114 11 50 23 97 25 105 4 12 -16 19 -98
34 -56 10 -181 34 -277 52 -227 45 -514 94 -544 94 -22 0 -25 -7 -36 -67z"/>
<path d="M8900 5974 c-41 -8 -194 -37 -340 -65 -146 -27 -295 -56 -332 -64
-37 -8 -81 -15 -97 -15 -17 0 -31 -5 -31 -12 0 -11 51 -250 54 -255 1 -1 60 6
131 17 72 11 281 40 465 66 184 26 337 48 339 50 4 3 -13 109 -36 217 -16 76
-17 77 -47 76 -17 0 -65 -7 -106 -15z"/>
<path d="M6795 5930 c-64 -79 -63 -79 48 -31 l48 21 -21 30 c-12 16 -24 30
-28 30 -4 -1 -25 -23 -47 -50z"/>
<path d="M1135 5597 c-8 -21 -25 -229 -25 -299 0 -63 2 -68 23 -69 12 -1 221
-3 465 -5 334 -2 442 0 442 9 1 26 20 214 25 247 l6 35 -48 3 c-50 3 -793 78
-851 86 -20 3 -35 0 -37 -7z"/>
<path d="M8795 5575 c-159 -18 -366 -40 -460 -50 -93 -9 -171 -18 -173 -20 -1
-1 2 -35 8 -76 5 -41 12 -104 15 -141 l6 -66 470 -1 470 -1 -6 102 c-10 151
-23 271 -32 278 -5 4 -138 -7 -298 -25z"/>
<path d="M1548 5193 l-438 -3 0 -45 0 -45 460 0 c253 0 460 3 461 8 1 4 3 26
4 50 4 40 3 42 -23 40 -15 -2 -224 -4 -464 -5z"/>
<path d="M8194 5189 c-2 -4 -3 -25 -2 -48 l1 -41 469 0 468 0 0 45 0 45 -292
0 c-161 0 -371 1 -466 3 -96 1 -176 -1 -178 -4z"/>
<path d="M1143 5013 c-33 -4 -33 -4 -33 -62 l0 -58 48 -6 c26 -4 236 -7 466
-7 l419 -1 -6 62 c-3 34 -10 65 -16 69 -12 7 -825 10 -878 3z"/>
<path d="M8196 4986 c-3 -16 -6 -46 -6 -67 l0 -38 464 0 464 0 7 59 c4 32 4
64 0 70 -4 7 -147 10 -465 8 l-458 -3 -6 -29z"/>
<path d="M1128 4730 l4 -70 462 0 462 0 -3 38 c-2 20 -6 52 -9 70 l-5 32 -457
0 -457 0 3 -70z"/>
<path d="M8186 4778 c-3 -13 -6 -44 -6 -70 l0 -48 459 0 459 0 6 31 c3 17 6
49 6 70 l0 39 -459 0 -459 0 -6 -22z"/>
<path d="M1150 4545 l0 -35 368 -1 c202 0 411 -3 466 -5 87 -4 98 -2 92 12 -3
8 -6 27 -6 40 l0 24 -460 0 -460 0 0 -35z"/>
<path d="M8160 4556 c0 -13 -3 -32 -6 -41 -6 -14 32 -15 457 -9 255 4 464 7
465 8 1 0 4 16 7 34 l7 32 -465 0 -465 0 0 -24z m50 -36 c0 -5 -2 -10 -4 -10
-3 0 -8 5 -11 10 -3 6 -1 10 4 10 6 0 11 -4 11 -10z"/>
<path d="M1175 4412 c-3 -3 11 -72 17 -77 1 -1 209 -5 462 -7 l458 -5 -6 40
c-4 22 -9 44 -12 49 -5 8 -910 8 -919 0z"/>
<path d="M8137 4413 c-4 -6 -9 -28 -13 -49 l-6 -39 464 3 c254 2 464 5 464 6
1 0 5 19 8 41 l7 40 -459 4 c-290 2 -462 0 -465 -6z"/>
<path d="M1679 4226 c-3 -3 -104 -6 -225 -7 -122 0 -227 -5 -235 -10 -12 -7
-12 -11 1 -23 13 -13 87 -17 474 -27 252 -6 460 -8 462 -6 3 3 1 20 -4 38 l-8
34 -230 3 c-127 1 -232 0 -235 -2z"/>
<path d="M8086 4213 c-2 -10 -7 -29 -11 -42 l-7 -23 328 7 c341 7 601 19 611
29 3 3 3 11 0 19 -4 11 -69 15 -338 20 -532 11 -577 10 -583 -10z"/>
<path d="M1735 4049 c-523 -8 -475 -5 -475 -29 0 -16 7 -20 38 -21 20 -1 60
-3 87 -4 400 -17 835 -29 835 -23 0 31 -35 91 -50 86 -3 -1 -198 -5 -435 -9z"/>
<path d="M8024 4014 c-8 -20 -13 -38 -10 -41 6 -6 766 15 879 24 63 5 77 9 77
23 0 15 -16 18 -122 23 -66 4 -276 7 -465 7 l-344 0 -15 -36z"/>
<path d="M1698 3863 c-247 -2 -388 -7 -388 -13 0 -6 37 -10 90 -10 120 0 727
-18 818 -25 l72 -5 -15 30 -16 30 -87 -2 c-48 -2 -261 -4 -474 -5z"/>
<path d="M7963 3851 c-22 -36 -16 -43 30 -37 23 3 134 8 247 11 532 13 656 18
670 26 8 5 -122 9 -296 9 -171 0 -385 3 -475 6 -159 6 -164 6 -176 -15z"/>
<path d="M1848 3710 c-262 -3 -480 -8 -484 -12 -4 -5 13 -8 37 -8 24 0 114 -5
199 -10 85 -5 247 -14 360 -20 113 -5 251 -12 308 -16 l103 -5 -21 40 c-11 23
-21 40 -23 39 -1 -1 -217 -5 -479 -8z"/>
<path d="M7886 3682 c-9 -18 -16 -35 -16 -38 0 -8 980 42 988 51 9 8 -239 16
-580 18 l-377 2 -15 -33z"/>
<path d="M3078 3560 c-93 -29 -143 -98 -136 -187 5 -57 29 -92 80 -119 33 -17
90 -18 106 -2 24 24 12 -12 -42 -134 -71 -155 -110 -211 -224 -318 -117 -110
-130 -117 -185 -102 -23 7 -81 22 -129 35 -48 12 -88 27 -88 33 0 23 112 191
156 233 40 38 49 42 77 36 18 -4 59 -8 92 -9 33 -1 75 -6 93 -10 29 -7 36 -4
67 27 30 30 35 42 35 81 0 63 -19 100 -82 167 -31 32 -59 74 -68 100 -20 58
-66 89 -132 89 -51 0 -126 -30 -141 -57 -6 -10 -18 -12 -37 -8 -19 4 -45 -1
-73 -13 -36 -16 -47 -27 -57 -57 -27 -83 10 -160 82 -172 30 -4 38 -9 33 -21
-6 -17 -183 -283 -213 -320 l-18 -24 -43 65 c-39 60 -66 125 -57 135 3 2 20
-2 39 -9 43 -15 82 -6 113 28 59 64 1 183 -89 183 -14 0 -31 7 -38 17 -52 62
-202 53 -264 -17 -11 -12 -36 -30 -56 -41 -91 -46 -89 -183 2 -211 30 -8 48
-8 76 0 45 14 57 5 97 -68 l27 -49 -131 -3 -131 -3 70 -94 c39 -52 73 -96 75
-99 3 -2 58 -4 123 -3 273 4 526 -56 802 -190 210 -101 401 -239 564 -406 l69
-71 90 39 c253 110 719 215 976 221 48 1 65 3 37 5 -401 23 -397 23 -418 51
-77 103 -198 186 -317 218 -123 33 -376 22 -502 -22 -21 -7 -38 -12 -38 -10 0
2 11 28 24 57 13 30 32 83 42 119 18 66 30 90 73 147 23 30 24 31 57 17 86
-36 164 4 164 84 0 64 -33 100 -140 155 -86 44 -100 49 -148 45 -58 -5 -105
-39 -116 -84 -10 -38 21 -94 55 -101 31 -6 37 -21 17 -41 -20 -20 -47 -13 -62
16 -25 48 -42 57 -71 38 -57 -37 -36 -111 34 -122 32 -5 40 -11 44 -32 6 -34
-6 -71 -18 -52 -5 9 -16 -11 -32 -59 -19 -61 -93 -181 -110 -181 -3 0 -49 25
-103 55 -54 30 -103 55 -109 55 -19 0 -12 15 25 56 51 57 146 190 183 259 73
133 124 212 144 225 12 8 50 19 84 26 59 11 65 10 110 -13 71 -36 129 -12 153
64 26 76 -39 195 -113 210 -19 4 -37 19 -52 43 -34 55 -101 84 -170 76 -35 -4
-64 -1 -86 8 -46 19 -118 27 -151 16z m182 -367 c-1 -5 -22 -30 -47 -58 -45
-48 -46 -49 -40 -20 13 67 25 85 57 85 16 0 30 -3 30 -7z m-688 -130 c-44 -38
-57 -42 -41 -10 32 59 40 67 59 55 17 -11 16 -14 -18 -45z m-456 -92 c3 -14 8
-33 10 -41 3 -9 2 -11 -3 -5 -5 6 -19 22 -32 37 -13 14 -20 31 -17 37 11 17
36 1 42 -28z m1348 -109 c3 -5 -8 -22 -24 -37 -33 -31 -42 -16 -14 23 16 23
29 28 38 14z m387 -437 c35 -9 90 -31 122 -48 59 -31 160 -115 122 -101 -172
62 -222 75 -311 84 -112 10 -281 -1 -362 -25 -50 -15 -53 -15 -82 7 -16 12
-30 25 -30 28 0 11 124 51 202 66 90 17 250 12 339 -11z"/>
<path d="M7054 3561 c-17 -4 -37 -12 -45 -17 -8 -4 -48 -9 -90 -9 -88 -2 -134
-23 -169 -80 -13 -21 -32 -36 -50 -40 -100 -22 -158 -178 -94 -254 36 -43 79
-49 140 -18 27 13 54 23 59 21 6 -1 36 -8 68 -14 54 -11 59 -14 96 -68 21 -31
64 -104 96 -162 64 -117 107 -180 178 -258 44 -49 57 -72 39 -72 -4 0 -52 -25
-107 -55 -54 -30 -100 -55 -102 -55 -2 0 -23 27 -48 61 -25 34 -54 89 -66 129
-20 61 -25 68 -41 59 -14 -8 -18 -6 -18 8 0 47 12 62 53 70 71 14 91 94 31
121 -32 15 -39 11 -65 -39 -20 -40 -26 -41 -61 -11 -25 21 -22 32 6 32 32 0
66 44 66 84 0 61 -55 106 -131 106 -53 0 -217 -79 -247 -119 -35 -47 -33 -114
3 -154 29 -30 63 -34 126 -16 35 11 39 10 64 -17 38 -43 60 -89 84 -177 12
-44 28 -92 36 -108 18 -35 19 -35 -81 -8 -63 18 -108 22 -224 22 -234 1 -335
-38 -480 -183 -47 -47 -94 -86 -105 -87 -11 -2 -119 -6 -240 -10 l-220 -8 150
-12 c318 -27 643 -101 931 -215 l104 -41 112 109 c279 269 568 431 932 519
123 30 324 49 436 41 l85 -6 75 96 c41 52 77 99 78 104 2 6 -48 10 -127 10
-72 0 -131 2 -131 5 0 11 43 90 57 107 13 14 18 15 47 3 38 -16 97 -6 127 21
57 51 35 155 -39 190 -22 11 -45 29 -51 41 -6 13 -32 30 -68 43 -72 27 -136
22 -190 -15 -21 -14 -46 -25 -56 -25 -61 0 -114 -70 -101 -136 12 -64 89 -103
146 -73 11 6 22 8 26 5 10 -11 -19 -78 -60 -139 l-39 -58 -28 38 c-54 75 -158
229 -184 274 l-27 46 41 6 c50 7 76 29 90 78 9 27 9 46 0 70 -6 17 -11 35 -11
39 0 4 174 11 388 15 441 8 634 22 327 23 -104 0 -311 -3 -460 -7 -257 -7
-271 -7 -303 12 -24 14 -43 18 -71 13 -30 -4 -40 -2 -45 9 -9 24 -85 55 -134
55 -24 0 -56 -7 -73 -15 -30 -16 -69 -68 -69 -94 0 -8 -28 -42 -62 -77 -78
-80 -81 -85 -80 -151 1 -90 48 -135 123 -116 23 6 44 6 58 -1 16 -7 36 -6 67
2 60 16 58 16 99 -20 67 -58 179 -244 153 -252 -36 -12 -206 -59 -226 -63 -38
-9 -209 133 -285 237 -68 91 -185 372 -135 322 33 -33 138 3 171 59 21 37 22
110 3 147 -22 42 -67 80 -115 97 -47 16 -68 17 -117 6z m-15 -383 c5 -13 12
-39 16 -58 l7 -35 -30 42 c-17 22 -35 44 -41 48 -19 11 -12 25 14 25 17 0 28
-7 34 -22z m659 -138 c-2 -4 -19 5 -38 22 -34 28 -34 30 -15 44 18 13 21 12
38 -22 10 -19 17 -39 15 -44z m443 -85 c-33 -38 -38 -35 -20 12 12 32 30 46
43 33 5 -5 -4 -23 -23 -45z m-1332 -111 c11 -15 18 -31 15 -36 -3 -5 -7 -8 -8
-6 0 2 -14 18 -30 36 -22 24 -26 32 -14 32 9 0 26 -12 37 -26z m-23 -424 c94
-24 134 -39 134 -51 0 -5 -4 -9 -10 -9 -5 0 -17 -9 -27 -20 -18 -18 -21 -18
-63 -4 -57 20 -251 32 -356 23 -95 -8 -200 -33 -273 -65 -30 -14 -56 -22 -59
-20 -2 3 10 18 28 33 97 82 178 115 335 137 59 8 214 -5 291 -24z"/>
<path d="M1430 3541 c0 -5 78 -12 173 -15 94 -4 287 -13 427 -21 140 -8 295
-14 344 -14 l89 -1 -19 23 c-10 12 -23 25 -27 28 -14 10 -987 10 -987 0z"/>
<path d="M7807 3524 c-11 -14 -16 -28 -13 -32 6 -5 413 11 891 35 237 12 81
20 -397 21 l-463 1 -18 -25z"/>
<path d="M1585 3390 c140 -12 805 -24 805 -14 0 5 -21 9 -48 10 -602 10 -830
11 -757 4z"/>
<path d="M2190 2384 c0 -12 199 -207 305 -300 90 -79 286 -230 419 -323 78
-55 90 -60 105 -48 15 13 223 132 309 177 l40 21 -41 38 c-229 206 -483 336
-791 406 -121 27 -346 46 -346 29z"/>
<path d="M7820 2375 c-191 -28 -345 -74 -510 -151 -63 -30 -137 -69 -165 -86
-98 -63 -285 -213 -285 -230 0 -3 73 -47 163 -98 89 -51 169 -99 178 -107 15
-12 29 -5 130 63 216 146 472 359 649 538 l85 86 -80 -1 c-44 -1 -118 -7 -165
-14z"/>
<path d="M4660 2123 c-197 -18 -275 -28 -394 -49 -235 -43 -524 -129 -736
-221 -107 -46 -314 -152 -370 -189 -37 -25 -40 -30 -25 -39 10 -5 36 -22 58
-37 41 -27 42 -27 72 -9 177 106 309 172 500 249 295 118 522 178 910 238 17
2 46 18 65 34 l35 29 -40 -1 c-22 -1 -56 -3 -75 -5z"/>
<path d="M5526 2098 c28 -30 81 -53 154 -68 441 -87 825 -228 1205 -443 l79
-45 68 36 c37 21 68 39 68 42 0 18 -315 182 -469 245 -305 123 -628 203 -946
235 -60 5 -125 12 -144 15 -33 4 -33 4 -15 -17z"/>
<path d="M4970 1380 c-243 -15 -521 -63 -762 -134 -83 -24 -106 -34 -88 -38
14 -3 100 -22 191 -42 300 -65 452 -80 799 -80 229 0 340 4 445 17 131 16 557
97 605 115 17 6 2 14 -81 41 -288 94 -736 143 -1109 121z"/>
<path d="M2 48 l1 -53 7 45 7 45 1 -42 c2 -36 5 -43 22 -43 17 0 20 7 20 50 0
49 -1 50 -30 50 -30 0 -30 0 -28 -52z"/>
</g>
</svg>
