<?xml version="1.0" standalone="no"?>
<!DOCTYPE svg PUBLIC "-//W3C//DTD SVG 20010904//EN"
 "http://www.w3.org/TR/2001/REC-SVG-20010904/DTD/svg10.dtd">
<svg version="1.0" xmlns="http://www.w3.org/2000/svg"
 width="1024.000000pt" height="1024.000000pt" viewBox="0 0 1024.000000 1024.000000"
 preserveAspectRatio="xMidYMid meet">

<g transform="translate(0.000000,1024.000000) scale(0.100000,-0.100000)"
fill="#000000" stroke="none">
<path d="M4889 9690 c-253 -14 -632 -70 -874 -131 -243 -61 -641 -198 -854
-293 -809 -365 -1520 -969 -1994 -1694 -538 -823 -795 -1759 -745 -2712 46
-884 323 -1683 838 -2420 238 -341 611 -722 985 -1006 286 -218 692 -450 1030
-589 927 -382 1905 -468 2880 -254 703 154 1402 490 1950 938 395 323 704 663
968 1067 414 633 655 1341 728 2134 16 172 16 536 0 710 -97 1055 -547 2051
-1254 2778 -417 428 -829 731 -1331 978 -726 357 -1560 534 -2327 494z m546
-355 c827 -72 1578 -345 2232 -810 300 -214 634 -522 846 -781 402 -492 688
-1052 837 -1641 43 -172 93 -450 109 -608 47 -467 6 -991 -114 -1450 -167
-642 -456 -1191 -885 -1685 -329 -379 -791 -755 -1218 -991 -815 -451 -1762
-630 -2687 -508 -700 92 -1318 325 -1895 712 -442 297 -875 719 -1168 1137
-386 551 -632 1206 -719 1910 -25 210 -25 729 0 925 130 994 532 1811 1237
2515 540 539 1189 915 1941 1124 502 140 1016 192 1484 151z"/>
<path d="M5074 9265 c-51 -69 -91 -83 -271 -100 -528 -50 -971 -161 -1422
-357 -504 -219 -907 -493 -1297 -883 -387 -386 -642 -758 -864 -1261 -257
-581 -361 -1242 -305 -1937 67 -828 390 -1596 937 -2232 345 -400 751 -727
1216 -980 541 -294 1133 -464 1796 -515 343 -27 746 5 1146 90 608 128 1217
409 1705 785 725 559 1225 1276 1455 2090 271 956 193 1957 -220 2820 -325
680 -747 1173 -1405 1640 -170 120 -522 309 -770 412 -433 181 -872 289 -1310
323 -219 17 -238 22 -305 88 l-57 57 -29 -40z m-424 -320 c0 -69 -2 -75 -20
-75 -11 0 -46 -13 -77 -30 -31 -16 -66 -30 -79 -30 -45 0 -282 -52 -434 -95
-928 -265 -1682 -787 -2210 -1530 -277 -390 -475 -827 -569 -1255 -23 -107
-54 -293 -73 -450 -17 -138 -17 -621 0 -760 77 -622 230 -1062 535 -1536 180
-279 308 -436 571 -699 415 -415 894 -719 1481 -940 441 -166 977 -257 1430
-242 708 24 1373 222 1990 595 435 262 891 681 1178 1082 278 389 456 763 566
1190 158 612 156 1273 -5 1890 -187 711 -663 1426 -1274 1913 -308 245 -615
419 -1085 612 -219 90 -596 197 -795 226 -56 8 -97 20 -120 36 -19 13 -50 23
-69 23 l-34 0 8 73 c3 39 8 73 9 74 5 5 202 -19 301 -38 379 -71 716 -185
1100 -374 326 -161 565 -316 835 -541 435 -364 748 -762 1010 -1284 232 -462
358 -944 390 -1490 37 -622 -107 -1334 -381 -1883 -124 -248 -291 -510 -465
-727 -137 -171 -438 -472 -618 -618 -607 -492 -1323 -802 -2096 -907 -224 -30
-373 -38 -620 -32 -620 15 -1201 158 -1755 430 -523 258 -957 594 -1340 1039
-399 464 -667 979 -809 1561 -155 631 -152 1299 9 1912 241 918 830 1730 1655
2282 502 336 1200 597 1770 662 41 5 78 9 83 10 4 0 7 -33 7 -74z m513 40 c30
-13 91 -34 134 -46 43 -12 87 -30 98 -41 12 -11 26 -46 35 -91 15 -71 16 -72
48 -75 24 -2 43 4 67 22 45 35 60 33 91 -13 24 -37 24 -41 11 -68 -8 -15 -24
-36 -35 -47 -20 -18 -22 -17 -57 10 -35 26 -88 35 -106 17 -4 -4 -11 -64 -15
-131 -6 -101 -4 -126 7 -133 25 -16 69 -9 106 16 41 27 52 23 84 -29 15 -25
16 -33 4 -55 -7 -14 -22 -34 -34 -45 -20 -18 -21 -18 -51 8 -38 32 -105 37
-114 9 -12 -41 -18 -250 -8 -257 25 -15 83 -9 112 12 41 31 67 28 90 -10 27
-44 26 -52 -14 -95 l-34 -37 -36 28 c-32 24 -42 27 -73 19 -31 -7 -38 -14 -49
-52 -7 -24 -28 -66 -46 -93 -27 -40 -37 -48 -57 -45 l-23 5 4 -1484 c3 -1332
2 -1484 -12 -1479 -8 4 -27 9 -42 12 l-28 5 -2 1472 -3 1471 -37 3 -38 3 -2
-1467 -3 -1467 -38 -1 -37 -1 -2 1305 c-1 718 -2 1377 -2 1465 l-1 160 -35 0
-35 0 -3 -1467 -2 -1468 -36 -15 c-20 -8 -39 -15 -42 -15 -3 0 -2 666 2 1479
l7 1480 -28 3 c-21 2 -36 16 -61 52 -18 27 -35 60 -38 75 -8 40 -19 55 -46 65
-19 7 -33 3 -67 -19 l-42 -28 -28 27 c-37 36 -42 56 -23 95 24 50 46 56 89 26
38 -25 86 -32 112 -16 11 7 12 28 7 102 -11 150 -16 163 -55 167 -23 2 -42 -4
-66 -22 -19 -14 -38 -26 -44 -26 -6 0 -22 20 -37 45 l-26 46 23 34 c32 46 40
48 83 19 25 -17 47 -24 69 -22 l32 3 -3 105 c-4 161 -6 170 -46 170 -18 0 -45
-9 -59 -20 -34 -27 -52 -25 -76 9 -28 38 -26 63 5 100 31 37 38 38 76 6 33
-28 69 -32 87 -11 6 8 16 41 22 74 6 34 16 68 23 77 6 8 57 29 114 45 56 17
119 39 140 49 49 25 51 25 115 -4z m1289 -561 l37 -6 -29 -42 c-30 -43 -66
-124 -58 -131 9 -10 164 -45 200 -47 44 -2 45 -5 17 -52 -23 -40 -9 -40 -157
-1 l-84 22 -9 -24 c-14 -37 -11 -63 8 -63 9 0 67 -20 129 -45 61 -25 117 -45
123 -45 20 0 12 -20 -12 -31 -18 -8 -52 -4 -153 19 -71 17 -132 27 -135 24 -3
-4 -18 -51 -34 -104 -15 -55 -33 -98 -40 -98 -13 0 -75 20 -75 24 0 2 13 47
30 102 34 112 34 114 19 114 -6 0 -38 12 -70 26 -55 25 -57 27 -47 50 13 28
23 29 69 10 74 -30 76 -30 89 9 14 42 8 65 -17 65 -20 1 -182 45 -189 52 -5 5
34 98 41 98 2 0 19 -9 38 -20 44 -26 148 -62 163 -56 7 3 24 41 39 86 24 73
29 81 49 76 11 -3 38 -9 58 -12z m-2503 -123 c74 -38 130 -145 116 -220 -34
-183 -251 -255 -383 -128 -48 46 -62 78 -62 144 0 73 25 130 76 172 75 61 171
73 253 32z m-629 -170 c0 -52 -65 -135 -157 -198 -29 -20 -53 -40 -53 -44 0
-5 15 -36 33 -69 l34 -60 60 62 c32 35 68 84 78 110 l19 46 49 -24 48 -25 -23
-40 c-59 -105 -218 -240 -372 -315 -49 -24 -94 -44 -100 -44 -12 1 -56 35 -56
44 0 3 6 6 13 6 14 0 182 102 205 124 11 10 6 24 -24 74 l-36 62 -65 -60 c-87
-79 -159 -115 -208 -104 l-36 9 109 88 c60 48 119 98 130 110 l21 23 -39 43
c-22 24 -39 45 -38 47 2 1 23 18 47 37 l45 35 22 -48 c12 -26 27 -51 33 -54 6
-4 35 13 64 37 59 50 178 136 190 137 4 0 7 -4 7 -9z m3861 -66 c65 -23 119
-64 151 -114 15 -25 28 -48 28 -52 0 -5 -19 1 -42 11 -50 23 -116 25 -161 6
-49 -20 -95 -78 -102 -130 -13 -85 27 -150 112 -182 54 -21 107 -11 175 32
l41 26 -7 -29 c-20 -80 -83 -155 -163 -194 -67 -33 -187 -33 -258 -1 -69 32
-138 102 -171 176 -95 211 64 464 292 465 34 1 81 -6 105 -14z m-2649 -183
c13 -16 33 -34 43 -40 24 -13 31 -11 -140 -51 -284 -67 -583 -183 -840 -326
-109 -60 -323 -206 -437 -297 -180 -144 -450 -426 -583 -611 -19 -26 -24 -28
-85 -25 l-63 3 106 141 c120 160 312 364 468 498 395 339 901 599 1384 711
127 30 119 30 147 -3z m1358 -12 c118 -29 352 -111 495 -173 258 -111 524
-269 755 -448 194 -150 490 -460 608 -638 61 -92 62 -89 -9 -126 -26 -14 -27
-13 -62 39 -110 166 -368 445 -550 595 -331 273 -687 468 -1118 611 -110 36
-325 90 -366 91 l-28 0 25 17 c14 9 36 29 50 45 28 31 17 32 200 -13z m-2497
-232 l26 -67 -102 -64 c-56 -35 -128 -79 -160 -96 l-57 -32 -24 28 c-13 15
-25 31 -27 35 -2 4 32 25 76 46 104 51 179 111 213 172 15 26 28 48 29 47 1
-1 13 -32 26 -69z m1287 -63 c0 -76 -3 -107 -12 -109 -7 -2 -76 -15 -153 -30
-160 -31 -411 -112 -576 -186 -434 -194 -844 -526 -1098 -887 l-43 -62 -69 35
c-38 19 -69 38 -69 43 0 4 25 46 56 92 249 373 691 742 1150 960 262 125 640
246 772 248 l42 1 0 -105z m1029 80 c195 -41 463 -137 684 -245 293 -142 561
-329 796 -554 126 -121 315 -355 364 -452 l16 -30 -65 -32 c-35 -18 -68 -32
-72 -32 -4 0 -18 17 -32 38 -76 114 -242 303 -361 410 -371 332 -905 599
-1385 692 -59 11 -110 23 -115 26 -5 3 -9 50 -9 105 l0 99 30 0 c16 0 84 -11
149 -25z m-1029 -463 l0 -129 -107 -21 c-695 -137 -1320 -583 -1673 -1192 -72
-124 -104 -150 -187 -150 -43 0 -67 11 -213 96 -187 108 -235 134 -250 134 -6
0 -33 -21 -60 -46 -60 -56 -91 -131 -144 -344 -60 -244 -79 -402 -80 -660 0
-244 9 -344 54 -572 91 -455 290 -893 557 -1223 206 -255 429 -456 904 -814
33 -24 57 -46 55 -48 -6 -6 -213 84 -286 124 -225 124 -517 377 -738 638 -255
303 -459 712 -567 1139 -54 212 -73 342 -85 562 -15 298 13 607 80 876 31 125
116 386 130 401 4 5 22 -1 40 -12 33 -19 50 -20 50 -1 0 6 -28 24 -62 40 -69
34 -158 95 -158 109 0 9 47 21 82 21 11 0 53 -16 94 -35 40 -19 77 -35 82 -35
7 0 54 60 75 97 5 7 -10 20 -39 34 -25 13 -48 27 -50 31 -3 4 10 21 28 37 l33
29 31 -19 c17 -10 35 -19 40 -19 8 0 64 72 64 83 0 2 -25 20 -55 38 -30 18
-55 36 -55 39 0 4 13 19 29 34 l29 28 38 -26 c48 -32 57 -32 74 -1 7 14 20 26
29 27 30 2 76 -4 94 -13 16 -9 15 -12 -8 -47 -14 -20 -25 -42 -25 -48 0 -25
126 -107 278 -181 8 -3 -30 -64 -43 -69 -22 -9 -148 63 -224 126 l-69 58 -31
-44 c-17 -25 -31 -47 -31 -49 0 -18 243 -167 328 -200 42 -17 43 -17 67 5 13
13 34 53 46 89 26 81 60 137 155 261 75 99 275 302 379 387 299 243 681 438
1039 529 98 25 218 51 244 53 9 1 12 -31 12 -127z m1045 91 c539 -124 1119
-476 1457 -883 94 -113 143 -206 164 -315 9 -44 23 -88 32 -97 30 -35 28 -36
387 190 83 52 167 106 188 120 l38 25 28 -34 c16 -19 28 -38 27 -44 0 -5 -41
-34 -91 -64 -239 -143 -443 -273 -465 -296 -20 -21 -22 -30 -14 -53 20 -56 24
-54 380 180 l211 139 35 -35 c20 -20 31 -37 25 -39 -6 -2 4 -35 25 -78 99
-205 174 -496 210 -814 16 -140 15 -500 -1 -630 -63 -513 -226 -982 -463
-1335 -203 -302 -543 -643 -810 -814 -112 -71 -390 -197 -405 -183 -2 2 16 17
39 32 24 15 63 45 88 65 25 20 117 91 205 158 240 183 328 261 510 453 309
324 520 718 646 1207 154 597 123 1203 -87 1745 -25 64 -48 117 -51 117 -8 0
-125 -73 -285 -176 -161 -105 -198 -124 -246 -124 -55 0 -100 34 -140 105
-182 324 -481 644 -795 851 -288 190 -647 336 -969 394 l-68 12 0 122 c0 68 3
125 6 129 8 8 60 0 189 -30z m-3220 -130 c36 -36 47 -68 39 -109 -13 -70 -89
-109 -158 -80 -62 26 -88 92 -61 151 33 69 128 89 180 38z m5372 -8 c33 -33
35 -39 31 -85 -3 -28 -13 -59 -23 -70 -27 -30 -79 -44 -119 -30 -126 41 -100
220 33 220 36 0 49 -6 78 -35z m549 -220 c31 -32 38 -45 26 -45 -23 0 -162
-78 -168 -94 -3 -8 11 -39 31 -70 l36 -57 31 28 c18 15 47 43 65 61 l33 34 36
-31 c19 -17 39 -31 45 -31 6 0 -23 -22 -64 -50 -99 -66 -105 -74 -84 -108 65
-102 189 -313 186 -316 -2 -2 -22 -6 -44 -8 -45 -3 -39 -10 -178 217 l-58 95
-75 -62 c-40 -35 -74 -65 -74 -69 0 -3 36 -64 80 -134 44 -70 80 -134 80 -141
0 -10 -13 -14 -39 -14 -38 0 -41 3 -77 63 -21 34 -70 112 -109 172 -72 111
-185 306 -185 318 0 4 10 7 23 7 25 0 152 62 193 95 26 21 27 23 11 45 -16 24
-16 24 26 46 l42 21 11 -24 c10 -24 11 -23 79 37 37 33 70 60 72 60 3 0 24
-20 49 -45z m-6365 -46 c19 -7 35 -13 37 -14 2 -2 -11 -31 -29 -66 -25 -51
-29 -65 -18 -71 8 -5 40 -24 71 -42 l57 -34 10 30 c8 23 15 29 28 23 10 -4 33
-9 51 -12 17 -3 32 -7 32 -8 0 -27 -150 -303 -212 -391 l-29 -41 -107 58 c-59
33 -110 59 -113 59 -3 0 -26 -29 -52 -65 l-47 -65 -51 0 c-49 0 -51 1 -37 18
9 9 36 47 61 84 53 77 58 68 -63 113 -41 15 -78 31 -83 34 -4 4 12 21 36 38
l44 30 69 -38 c71 -40 94 -47 94 -29 0 6 11 28 25 50 14 22 25 42 25 45 0 2
-27 18 -59 35 -33 16 -81 43 -107 59 -46 30 -46 30 -23 42 13 6 41 32 62 58
93 113 86 107 97 90 11 -19 113 -89 128 -89 5 0 20 25 32 55 12 30 26 55 30
55 4 0 22 -5 41 -11z m2619 -133 l0 -144 -77 -16 c-268 -57 -609 -198 -821
-341 -283 -189 -533 -473 -682 -774 -82 -166 -94 -215 -94 -391 0 -167 17
-290 74 -526 87 -363 259 -710 467 -942 l61 -68 -39 -74 c-21 -40 -42 -77 -47
-82 -13 -13 -180 166 -271 289 -228 307 -365 673 -402 1075 -6 69 -9 173 -5
237 3 63 4 112 1 110 -2 -3 -14 -63 -27 -135 -30 -176 -33 -525 -5 -651 59
-270 201 -556 392 -793 28 -36 97 -113 153 -171 l101 -106 -14 -40 c-8 -22
-22 -81 -31 -131 -10 -51 -21 -92 -25 -92 -15 0 -241 225 -300 298 -240 298
-401 634 -476 990 -22 109 -26 152 -26 302 -1 314 65 577 223 890 297 589 753
1038 1285 1265 180 77 358 131 525 158 64 11 60 21 60 -137z m1002 120 c482
-103 956 -378 1289 -749 476 -528 725 -1158 670 -1692 -52 -501 -339 -1051
-725 -1386 -43 -38 -83 -69 -87 -69 -5 0 -9 15 -9 33 0 17 -12 79 -26 137
l-26 105 119 120 c172 174 285 329 387 534 67 132 116 273 147 421 38 180 29
460 -24 739 -11 60 -12 50 -13 -145 -1 -230 -13 -329 -65 -524 -95 -358 -262
-654 -528 -932 -40 -43 -76 -78 -80 -78 -3 0 -26 38 -50 84 l-45 84 78 84
c232 248 391 595 492 1073 29 137 37 199 41 321 7 182 -6 252 -70 394 -169
373 -483 703 -867 913 -197 107 -492 215 -702 257 l-58 11 0 138 c0 76 3 141
7 144 10 11 24 9 145 -17z m-1004 -497 l-3 -111 -90 -23 c-205 -52 -408 -144
-610 -279 -150 -100 -350 -295 -439 -430 -170 -257 -245 -515 -233 -800 10
-228 51 -393 151 -602 60 -124 107 -198 203 -316 l65 -80 -23 -44 c-13 -24
-29 -44 -35 -44 -16 0 -126 118 -205 220 -155 199 -259 413 -320 660 -21 83
-24 119 -24 285 0 217 15 298 87 480 128 326 429 682 768 909 197 132 558 283
683 285 l28 1 -3 -111z m982 91 c197 -50 424 -152 600 -268 132 -87 303 -234
400 -343 41 -46 81 -91 89 -99 33 -34 133 -175 180 -254 95 -157 147 -292 177
-459 19 -110 18 -351 -1 -458 -36 -191 -129 -416 -251 -600 -62 -94 -208 -273
-266 -326 l-24 -23 -33 47 c-22 30 -30 51 -25 59 5 6 38 45 73 85 120 137 215
309 280 506 53 158 72 280 72 456 0 228 -39 388 -148 598 -154 299 -428 548
-795 724 -129 61 -312 127 -393 141 -22 4 -45 10 -50 15 -8 6 -13 199 -6 217
3 7 51 0 121 -18z m2220 1 c0 -5 12 -24 26 -41 15 -17 25 -32 23 -34 -2 -2
-83 -53 -179 -113 -96 -60 -201 -127 -233 -148 l-58 -39 -27 27 c-42 43 -43
42 261 236 81 52 152 100 158 107 13 16 29 18 29 5z m-3200 -425 l0 -93 -77
-28 c-357 -125 -654 -428 -791 -805 -64 -173 -76 -248 -77 -440 0 -237 34
-389 131 -586 24 -49 44 -96 44 -103 0 -14 -20 -42 -75 -103 -42 -46 -32 -52
-114 67 -338 490 -317 1075 57 1575 79 105 252 281 350 355 143 107 314 193
472 236 36 10 68 18 73 18 4 1 7 -41 7 -93z m976 63 c228 -70 434 -202 637
-406 206 -207 348 -443 408 -678 26 -101 32 -145 36 -278 4 -101 1 -185 -7
-235 -34 -217 -119 -416 -255 -601 l-48 -65 -26 31 c-14 17 -41 50 -60 73
l-35 43 41 76 c49 91 104 245 129 361 25 118 25 354 1 470 -40 185 -117 371
-218 524 -62 93 -217 258 -307 325 -83 63 -223 137 -332 176 l-85 30 -3 45
c-1 25 0 64 3 88 7 51 19 53 121 21z m-4061 -189 c0 -27 -22 -39 -31 -16 -8
22 3 49 19 43 6 -2 12 -14 12 -27z m7070 0 c0 -16 -6 -26 -18 -28 -19 -4 -32
20 -23 44 9 25 41 13 41 -16z m-60 -111 c8 -25 -11 -59 -33 -59 -39 0 -55 45
-27 73 18 19 52 11 60 -14z m-6911 -1 c16 -26 -26 -68 -52 -52 -19 12 -27 37
-18 60 8 20 56 14 70 -8z m-148 -29 c17 -19 17 -23 3 -47 -8 -15 -22 -28 -31
-30 -36 -7 -64 58 -36 86 18 18 43 15 64 -9z m7196 4 c24 -21 23 -45 -2 -68
-17 -15 -24 -16 -45 -7 -29 14 -33 47 -8 74 20 22 31 23 55 1z m-4072 -62 l0
-49 -57 -23 c-162 -64 -279 -141 -411 -271 -89 -87 -152 -174 -204 -277 -43
-87 -49 -77 -14 25 31 91 78 185 131 259 49 69 179 197 246 242 81 56 257 138
302 142 4 1 7 -21 7 -48z m1027 -1 c224 -104 396 -266 495 -465 35 -69 68
-167 68 -200 0 -9 -16 14 -36 52 -80 151 -197 284 -344 393 -84 62 -230 140
-302 162 -37 11 -38 12 -38 61 l0 49 38 -7 c20 -4 74 -24 119 -45z m-3341 5
c32 -32 30 -70 -14 -237 -53 -201 -66 -315 -67 -588 0 -190 4 -271 18 -359 75
-464 318 -960 674 -1372 101 -117 254 -265 349 -337 l70 -54 18 -110 c9 -61
15 -112 12 -115 -7 -8 -118 71 -255 181 -148 118 -369 335 -465 456 -242 304
-414 658 -510 1052 -60 245 -71 342 -71 628 1 285 12 381 71 621 38 156 55
203 86 236 28 30 53 29 84 -2z m5596 14 c28 -15 52 -74 92 -234 48 -191 65
-294 76 -470 35 -545 -134 -1177 -441 -1650 -144 -221 -375 -473 -594 -647
-112 -90 -274 -202 -281 -195 -2 1 3 39 11 82 8 44 14 94 15 111 0 26 11 38
72 85 419 316 812 892 961 1409 72 249 97 424 97 682 -1 244 -34 483 -95 686
-20 64 -19 95 6 126 22 28 48 33 81 15z m-6366 -378 c38 -23 58 -70 50 -115
-19 -100 -148 -128 -207 -44 -17 23 -20 39 -16 76 10 88 97 130 173 83z m7194
-8 c55 -50 56 -125 4 -174 -20 -19 -36 -24 -76 -24 -43 0 -53 4 -79 33 -23 26
-29 42 -29 78 0 39 5 51 34 80 45 45 101 48 146 7z m-3960 -284 l0 -301 -51
-56 c-96 -105 -134 -213 -127 -355 4 -74 11 -106 34 -157 26 -59 98 -160 131
-185 11 -8 13 -82 11 -380 l-3 -370 -240 -6 c-132 -4 -243 -7 -247 -8 -19 -3
-5 -19 30 -33 20 -8 72 -40 115 -72 l78 -56 135 0 134 0 0 -82 0 -83 121 -2
c66 -1 123 -4 126 -7 3 -3 12 -195 19 -427 7 -232 16 -424 19 -427 3 -3 5 15
5 39 0 24 4 179 10 344 6 165 11 338 13 385 l2 84 40 9 c22 5 77 6 122 3 95
-6 93 -8 93 95 l0 69 140 0 c139 0 139 0 172 28 45 39 134 99 158 107 22 7 27
24 8 26 -7 1 -116 4 -243 8 l-230 6 -3 369 -2 369 49 52 c84 89 131 209 131
335 0 121 -44 229 -132 326 l-48 52 0 302 0 302 53 -7 c156 -20 348 -117 452
-226 74 -79 110 -148 132 -255 22 -107 8 -221 -52 -418 -58 -193 -69 -251 -63
-339 7 -97 25 -131 178 -335 191 -255 285 -421 343 -607 56 -180 67 -400 28
-547 -114 -431 -539 -700 -1181 -748 -469 -35 -914 68 -1195 277 -372 276
-456 722 -225 1198 63 131 151 267 286 445 141 186 159 226 158 345 0 92 -2
99 -79 370 -43 152 -56 297 -35 386 35 147 157 292 312 369 84 41 237 89 291
90 l27 0 0 -301z m-3244 -580 c7 -51 7 -51 -17 -44 -56 16 -89 29 -89 36 0 3
19 28 42 54 39 44 42 46 49 26 5 -11 11 -44 15 -72z m7142 41 c17 -21 32 -41
32 -44 0 -7 -47 -31 -77 -40 -20 -6 -23 -4 -23 21 0 51 12 103 24 103 6 0 26
-18 44 -40z m-7128 -206 c7 -19 10 -37 8 -38 -7 -6 -78 6 -78 14 0 11 40 60
50 60 5 0 14 -16 20 -36z m7089 5 c13 -17 22 -31 20 -33 -2 -2 -21 -6 -41 -9
-42 -6 -47 3 -26 48 14 31 17 31 47 -6z m-7014 -339 c20 -40 19 -50 -7 -50
-43 0 -52 14 -34 49 9 17 19 31 21 31 2 0 11 -13 20 -30z m6945 -27 c0 -20 -5
-23 -35 -23 -41 0 -42 3 -12 47 20 30 23 31 35 16 6 -9 12 -27 12 -40z m-3665
-20 l35 -17 -1 -315 c-1 -174 -4 -322 -6 -328 -3 -8 -22 -13 -44 -13 l-39 0 0
323 c0 286 4 367 16 367 2 0 19 -8 39 -17z m365 -327 l0 -344 -27 -4 c-68 -9
-64 -31 -61 334 l3 331 35 13 c19 7 38 13 43 13 4 1 7 -154 7 -343z m-170 -21
c0 -179 -3 -325 -7 -325 -5 0 -17 -3 -29 -6 -13 -3 -28 1 -38 11 -13 14 -16
41 -16 179 0 90 3 231 7 314 l6 152 39 0 38 0 0 -325z m3100 -231 c-86 -166
-199 -347 -297 -479 -315 -421 -814 -792 -1343 -998 -177 -69 -178 -66 -7 21
439 223 769 455 1062 747 240 238 410 451 556 692 40 67 75 121 77 119 2 -2
-20 -48 -48 -102z m-6190 -64 c256 -403 622 -780 1034 -1065 140 -97 346 -220
511 -306 83 -43 147 -79 143 -79 -4 0 -64 23 -134 50 -437 175 -860 465 -1160
797 -167 186 -293 369 -429 628 -70 133 -62 127 35 -25z m2930 -239 c0 -16 -3
-43 -6 -60 -6 -30 -9 -32 -43 -29 -35 3 -36 4 -39 47 -5 62 1 71 48 71 37 0
40 -2 40 -29z m160 -26 l0 -55 -40 0 -40 0 0 55 0 55 40 0 40 0 0 -55z m170
-6 c0 -52 -2 -60 -16 -55 -9 3 -29 6 -45 6 -29 0 -29 1 -29 55 l0 55 45 0 45
0 0 -61z"/>
<path d="M4880 8780 c-26 -26 -26 -81 0 -105 45 -40 114 -6 112 57 -2 60 -70
90 -112 48z"/>
<path d="M5222 8777 c-31 -33 -29 -80 5 -107 70 -55 151 42 88 105 -30 31 -65
32 -93 2z"/>
<path d="M4891 8441 c-28 -28 -26 -67 4 -96 39 -40 83 -29 105 25 11 28 11 34
-7 58 -26 35 -74 41 -102 13z"/>
<path d="M5216 8447 c-28 -20 -26 -85 3 -108 13 -11 32 -19 43 -19 26 0 68 44
68 73 0 52 -70 86 -114 54z"/>
<path d="M4940 8122 c-49 -16 -68 -83 -32 -115 45 -41 112 -8 112 54 0 38 -45
72 -80 61z"/>
<path d="M5225 8118 c-28 -16 -35 -28 -35 -64 0 -38 27 -64 67 -64 61 0 84 70
38 115 -27 28 -40 30 -70 13z"/>
<path d="M3780 8263 l-35 -15 25 -10 c14 -5 41 -29 60 -54 29 -38 39 -44 60
-39 73 18 78 18 95 -8 13 -20 14 -30 5 -47 -7 -13 -18 -19 -28 -16 -72 20 -78
19 -97 -23 -21 -47 -49 -75 -90 -88 l-30 -10 44 -12 c79 -22 149 7 198 80 22
33 27 53 27 95 -2 125 -120 199 -234 147z"/>
<path d="M3680 8168 c-23 -51 -25 -87 -6 -131 13 -31 52 -75 60 -66 32 38 66
97 66 117 0 42 -61 122 -93 122 -4 0 -17 -19 -27 -42z"/>
<path d="M2333 6070 c-18 -27 -33 -52 -33 -54 0 -3 48 -31 108 -62 59 -31 142
-77 186 -100 43 -24 84 -44 92 -44 16 0 44 39 44 62 0 10 -18 27 -42 41 -175
97 -219 125 -265 163 -28 24 -53 44 -55 44 -1 0 -18 -23 -35 -50z"/>
<path d="M8115 6684 c-38 -24 -71 -48 -73 -53 -2 -6 16 -39 39 -76 l42 -66 26
23 c14 13 42 36 63 51 71 52 71 50 31 112 -20 30 -41 55 -47 54 -6 0 -42 -21
-81 -45z"/>
<path d="M1780 6754 c-6 -14 -8 -30 -4 -35 4 -7 75 -48 116 -67 7 -3 42 57 36
63 -2 1 -34 17 -71 33 l-68 31 -9 -25z"/>
<path d="M1992 6658 c-30 -39 -24 -52 49 -95 l70 -42 19 32 c11 18 20 34 20
37 0 5 -135 80 -143 80 -3 0 -9 -6 -15 -12z"/>
<path d="M1906 6496 c-14 -25 -26 -47 -26 -50 0 -7 136 -86 147 -86 4 0 20 21
34 47 l26 47 -73 43 c-40 24 -75 43 -78 43 -2 0 -16 -20 -30 -44z"/>
</g>
</svg>
