<?xml version="1.0" standalone="no"?>
<!DOCTYPE svg PUBLIC "-//W3C//DTD SVG 20010904//EN"
 "http://www.w3.org/TR/2001/REC-SVG-20010904/DTD/svg10.dtd">
<svg version="1.0" xmlns="http://www.w3.org/2000/svg"
 width="1024.000000pt" height="1024.000000pt" viewBox="0 0 1024.000000 1024.000000"
 preserveAspectRatio="xMidYMid meet">

<g transform="translate(0.000000,1024.000000) scale(0.100000,-0.100000)"
fill="#000000" stroke="none">
<path d="M4960 9927 c-3 -2 -48 -7 -100 -10 -52 -4 -131 -11 -175 -17 -44 -5
-96 -12 -116 -15 -100 -13 -432 -81 -567 -115 -319 -83 -517 -156 -847 -313
-597 -284 -1081 -648 -1549 -1162 -60 -66 -123 -138 -140 -161 -253 -335 -312
-420 -423 -614 -219 -381 -424 -885 -527 -1295 -75 -299 -125 -667 -135 -1000
-13 -450 16 -817 95 -1198 157 -754 498 -1463 1012 -2105 279 -348 668 -697
1077 -964 206 -135 299 -187 547 -308 916 -444 1862 -589 2868 -439 731 110
1495 431 2117 890 278 205 652 563 852 813 542 681 871 1391 1035 2234 114
583 112 1265 -5 1847 -84 421 -238 866 -440 1268 -200 400 -397 695 -677 1014
-433 493 -924 868 -1545 1178 -307 153 -553 246 -850 320 -56 14 -118 30 -137
35 -72 18 -440 79 -575 95 -132 16 -783 34 -795 22z m185 -211 c33 -13 61 -29
63 -35 2 -6 -14 -29 -35 -50 -40 -41 -108 -67 -143 -56 -13 4 -20 2 -20 -6 0
-7 -16 -52 -36 -99 -34 -82 -37 -87 -74 -97 -39 -10 -40 -9 -49 21 -12 36 -15
72 -13 139 2 38 5 47 20 47 35 0 119 51 173 104 30 30 54 55 55 55 0 1 27 -10
59 -23z m345 -41 c82 -65 136 -95 170 -95 14 0 19 -12 25 -55 6 -49 -9 -165
-21 -165 -3 0 -20 7 -40 15 -19 8 -37 13 -40 12 -3 -1 -23 40 -46 91 -38 86
-42 92 -70 92 -17 0 -46 8 -65 17 -35 16 -103 79 -103 94 0 8 86 57 101 59 3
0 43 -29 89 -65z m-204 -70 c9 -14 48 -40 86 -58 l70 -33 -51 -39 c-59 -45
-103 -103 -124 -165 -9 -25 -16 -37 -17 -27 -1 50 -87 164 -165 221 -22 16
-25 14 47 36 20 6 56 29 80 50 24 22 46 39 50 40 4 0 15 -11 24 -25z m-100
-310 c13 -28 27 -72 30 -98 6 -44 5 -46 -21 -53 -23 -6 -32 -2 -47 16 l-19 24
6 -27 c5 -18 3 -27 -5 -27 -6 0 -8 4 -5 10 3 6 -1 7 -10 4 -10 -4 -31 9 -59
38 -71 70 -83 157 -34 251 l21 41 60 -63 c33 -36 70 -88 83 -116z m313 109
c26 -68 26 -107 1 -161 -22 -50 -71 -104 -78 -85 -5 17 -22 15 -22 -2 0 -23
-33 -29 -48 -9 -9 11 -16 14 -19 7 -2 -7 -13 -9 -24 -7 -18 5 -20 11 -14 57 4
28 18 74 32 101 25 51 130 168 144 159 4 -2 17 -29 28 -60z m-730 -16 c16 -34
27 -66 25 -70 -11 -17 -62 -36 -114 -41 -389 -42 -884 -193 -1305 -397 -446
-217 -775 -445 -1100 -767 -402 -397 -651 -752 -901 -1286 -142 -305 -253
-638 -303 -912 -6 -33 -17 -94 -25 -135 -48 -253 -66 -498 -60 -825 2 -154 6
-296 9 -315 2 -19 7 -60 10 -90 74 -707 353 -1420 796 -2035 59 -81 82 -135
59 -135 -7 0 -26 -11 -42 -25 -16 -14 -35 -22 -41 -18 -7 4 -6 -1 2 -10 11
-15 11 -17 -2 -17 -23 0 -97 94 -220 277 -237 355 -402 695 -535 1103 -49 151
-85 279 -97 350 -3 19 -12 64 -20 100 -43 209 -51 266 -75 532 -10 112 -14
610 -6 673 2 17 7 66 10 110 13 147 17 179 46 353 52 302 89 449 177 692 153
426 385 864 638 1205 187 253 444 527 700 747 393 337 989 660 1533 832 183
57 540 137 682 152 36 3 67 8 69 10 2 2 17 4 32 4 24 0 32 -8 58 -62z m1156
42 c569 -88 1056 -271 1609 -607 440 -267 833 -622 1171 -1057 17 -22 39 -51
51 -65 11 -14 57 -80 101 -146 217 -326 413 -722 542 -1098 216 -627 281
-1390 176 -2067 -2 -14 -7 -45 -10 -70 -3 -25 -8 -52 -10 -60 -3 -8 -12 -55
-20 -105 -41 -233 -151 -590 -268 -867 -51 -121 -173 -359 -243 -475 -111
-183 -323 -489 -353 -507 -6 -4 -18 0 -27 8 -8 9 -20 16 -25 16 -6 0 -7 4 -4
10 3 6 -1 7 -9 4 -10 -4 -16 -1 -16 7 0 7 -3 9 -7 6 -3 -4 -12 2 -20 13 -17
24 -13 34 72 150 223 305 427 680 558 1025 251 663 327 1486 207 2224 -70 429
-230 891 -453 1307 -311 581 -672 1001 -1222 1421 -200 152 -579 370 -840 484
-308 133 -709 249 -990 285 -101 13 -190 39 -183 53 32 65 70 131 76 131 4 0
66 -9 137 -20z m-990 -147 c11 -59 44 -120 86 -158 44 -40 46 -45 20 -69 -16
-15 -25 -15 -67 -5 -77 18 -129 53 -153 101 -35 74 -33 86 29 129 30 21 60 39
66 39 7 0 15 -17 19 -37z m711 8 c69 -50 79 -65 63 -103 -31 -77 -81 -117
-173 -138 -47 -10 -51 -9 -72 13 l-22 24 22 11 c33 15 94 110 108 170 7 28 18
52 24 52 6 0 29 -13 50 -29z m-284 -233 c44 -24 88 -78 88 -108 0 -25 -28 -30
-192 -30 -159 0 -198 8 -198 40 0 28 81 107 122 119 49 15 132 6 180 -21z
m-664 -47 l73 -68 -33 -6 c-18 -3 -73 -13 -123 -22 -407 -70 -705 -169 -1098
-362 -480 -236 -851 -516 -1194 -899 -405 -454 -727 -1069 -873 -1669 -41
-166 -84 -390 -94 -485 -26 -246 -35 -531 -22 -700 13 -162 19 -213 36 -330
92 -627 332 -1221 693 -1722 42 -56 71 -105 66 -106 -6 -2 -4 -11 3 -20 7 -10
8 -14 4 -10 -11 10 -49 -49 -40 -63 3 -5 0 -8 -7 -7 -7 2 -13 -2 -14 -9 0 -19
-12 -24 -12 -6 0 10 5 21 11 25 7 5 5 8 -6 8 -9 0 -18 -6 -21 -12 -13 -36
-210 229 -344 462 -224 390 -396 857 -472 1286 -44 248 -61 458 -61 760 -1
1100 465 2188 1265 2952 485 463 1149 830 1796 991 109 28 354 78 384 80 6 0
43 -31 83 -68z m1307 43 c232 -46 368 -83 553 -150 254 -92 468 -193 724 -343
408 -239 839 -617 1116 -979 195 -255 321 -462 471 -772 220 -457 340 -884
386 -1375 14 -156 17 -554 4 -685 -23 -229 -32 -305 -55 -444 -28 -172 -87
-414 -137 -561 -86 -252 -238 -578 -374 -802 -124 -205 -303 -436 -303 -391 0
17 -45 18 -71 3 -8 -5 -5 1 5 13 16 18 16 22 4 22 -9 0 -19 7 -22 16 -9 23 -7
54 3 54 5 0 14 14 21 31 7 17 18 36 25 42 58 60 245 365 346 567 208 415 315
773 378 1261 29 218 35 670 12 884 -39 373 -118 692 -262 1051 -120 301 -230
507 -420 789 -135 201 -244 333 -412 503 -428 433 -863 716 -1450 943 -200 78
-571 174 -747 195 -30 3 -57 8 -59 10 -2 2 27 35 65 72 77 76 66 73 199 46z
m-945 -374 c12 -8 16 -44 18 -200 l4 -190 -26 0 c-20 0 -26 5 -26 23 -1 12 -3
38 -5 57 -18 148 -25 293 -14 306 13 16 28 18 49 4z m360 -5 c13 -15 9 -185
-6 -336 -6 -52 -8 -55 -30 -51 l-23 4 -1 186 c0 184 5 212 35 212 7 0 18 -7
25 -15z m-1226 -120 c8 -8 17 -23 20 -33 3 -9 25 -89 50 -177 83 -295 84 -305
45 -305 -26 0 -37 27 -114 279 -65 214 -67 225 -50 237 24 18 30 17 49 -1z
m2120 9 c26 -10 19 -46 -40 -233 -30 -97 -60 -192 -66 -211 -21 -72 -59 -104
-73 -61 -10 32 107 463 136 497 13 16 20 17 43 8z m360 -109 c17 -17 13 -32
-23 -103 -27 -53 -42 -64 -65 -47 -16 12 -17 18 -6 52 20 62 49 113 64 113 8
0 21 -7 30 -15z m-2792 -60 c49 -90 188 -433 182 -448 -8 -22 -35 -30 -50 -15
-14 16 -214 464 -214 482 0 18 22 37 40 34 8 -2 27 -26 42 -53z m754 -55 c6
-30 14 -80 17 -111 6 -53 5 -57 -15 -62 -26 -7 -27 -6 -33 19 -2 11 -12 56
-21 101 -15 69 -16 84 -4 98 24 29 44 13 56 -45z m1258 44 c10 -9 14 -24 11
-37 -3 -12 -14 -56 -23 -97 -16 -68 -20 -75 -42 -75 -28 0 -28 2 -16 115 7 63
27 110 46 110 4 0 16 -7 24 -16z m-2276 -296 c123 -188 165 -268 141 -268 -25
0 -93 93 -177 241 -84 146 -97 179 -73 179 5 0 54 -69 109 -152z m3277 -4
c-69 -121 -149 -236 -179 -256 -42 -28 37 125 139 272 17 25 46 67 64 93 23
34 36 46 44 38 7 -7 -14 -52 -68 -147z m-352 98 c15 -16 13 -23 -17 -92 -47
-107 -75 -160 -85 -160 -20 0 -41 13 -41 25 0 21 80 208 97 228 20 21 26 21
46 -1z m-1122 -162 c118 -21 225 -51 269 -76 24 -14 23 -14 -15 -7 -22 5 -110
8 -195 8 -129 -1 -169 -4 -239 -23 -199 -54 -332 -132 -481 -281 -212 -213
-364 -500 -432 -816 -26 -122 -35 -405 -18 -545 l13 -105 18 120 c97 660 433
1231 849 1440 178 89 321 120 535 112 178 -6 265 -26 404 -93 98 -46 114 -64
40 -43 -76 22 -300 16 -404 -10 -109 -27 -303 -120 -395 -190 -181 -137 -359
-375 -449 -603 -29 -73 -94 -298 -88 -305 2 -1 28 46 58 104 243 477 577 797
935 895 64 17 107 21 234 22 178 0 236 -11 365 -75 85 -41 248 -159 273 -197
14 -21 12 -21 -49 8 -86 40 -194 61 -314 61 -380 2 -734 -249 -945 -671 -76
-152 -153 -419 -175 -605 -3 -28 -8 -66 -11 -85 -6 -41 -15 -128 -15 -152 0
-22 -8 -23 -23 -3 -8 12 -11 3 -10 -40 1 -31 4 -59 8 -62 3 -4 6 -13 6 -22 -1
-13 -3 -12 -15 3 -11 15 -15 16 -15 5 0 -12 -19 -16 -102 -17 -169 -4 -740 16
-938 33 -350 29 -737 88 -764 115 -15 15 9 335 34 460 26 127 89 324 140 440
170 384 495 751 776 875 l56 25 -83 -88 c-116 -122 -276 -325 -329 -418 -57
-100 -125 -267 -147 -364 -22 -96 -24 -352 -4 -460 l15 -75 13 105 c59 481
181 794 438 1129 213 278 464 439 750 480 114 16 304 12 426 -9z m-2087 -186
c79 -98 146 -197 146 -215 0 -22 -16 -33 -34 -22 -7 4 -38 37 -67 73 -29 36
-73 87 -96 114 -44 50 -52 73 -31 94 20 20 39 10 82 -44z m3864 44 c7 -7 12
-20 12 -29 0 -25 -220 -280 -239 -277 -38 7 -22 47 55 145 82 103 144 173 154
173 3 0 11 -5 18 -12z m-4344 -88 c48 -52 52 -66 24 -84 -12 -7 -27 0 -66 35
-52 45 -61 66 -40 87 20 20 33 14 82 -38z m4856 25 c18 -22 4 -49 -47 -89 -50
-39 -52 -40 -72 -27 -20 13 -5 45 44 90 49 45 57 48 75 26z m-350 -283 c-57
-64 -140 -134 -165 -138 -26 -4 73 112 160 187 70 59 73 28 5 -49z m-4197 18
c56 -53 60 -61 47 -75 -14 -13 -22 -9 -79 49 -57 57 -70 86 -39 86 5 0 38 -27
71 -60z m-650 -66 c49 -38 51 -42 41 -68 -9 -23 -21 -20 -75 14 -52 34 -65 55
-48 76 17 21 32 17 82 -22z m5525 24 c27 -27 11 -50 -60 -88 -33 -18 -37 -18
-49 -4 -11 14 -7 22 33 60 50 47 58 50 76 32z m-5212 -222 c34 -29 37 -35 25
-50 -19 -22 -35 -20 -70 10 -33 28 -38 43 -19 62 17 17 20 16 64 -22z m3738
14 c235 -60 402 -233 525 -543 17 -43 31 -82 31 -88 0 -6 -20 16 -45 49 -79
105 -222 197 -363 233 -269 69 -602 -36 -795 -250 -50 -57 -137 -175 -137
-187 0 -5 26 17 58 47 183 179 415 290 638 308 213 16 377 -32 540 -161 114
-89 172 -205 199 -399 26 -191 21 -176 60 -183 l35 -7 0 -152 c0 -84 3 -162 6
-173 4 -15 19 -26 50 -34 58 -17 91 -43 99 -80 8 -37 -7 -66 -48 -86 -47 -25
-227 -84 -255 -84 -23 0 -71 29 -162 98 -42 33 -47 34 -105 27 -287 -31 -834
-129 -902 -162 -19 -9 -83 -63 -142 -119 l-108 -103 -134 -21 c-74 -11 -210
-34 -304 -50 -421 -73 -833 -132 -1050 -150 -579 -49 -1175 10 -1359 135 -33
22 -36 23 -36 6 0 -27 41 -83 77 -103 202 -119 848 -168 1408 -107 137 15 380
47 475 64 47 8 278 47 515 86 236 39 439 76 450 82 11 5 47 37 79 70 86 86
153 133 216 150 233 67 777 150 808 125 27 -23 172 -256 172 -277 0 -4 -16
-13 -36 -20 -43 -16 -30 -31 -125 144 -39 72 -72 131 -73 132 -2 2 -86 -9
-187 -23 -271 -37 -559 -97 -618 -129 -14 -7 -72 -56 -127 -109 l-101 -95
-249 -41 c-137 -22 -341 -56 -454 -75 -464 -78 -748 -112 -1048 -125 -471 -21
-933 29 -1113 120 -58 30 -99 84 -99 131 0 33 7 47 43 86 79 86 377 269 425
260 15 -2 86 -18 157 -35 72 -17 211 -43 310 -57 234 -34 245 -36 275 -40 14
-2 25 -4 25 -5 0 -1 15 -3 34 -4 19 -1 36 -7 38 -13 3 -9 10 -9 29 -1 20 10
28 8 42 -6 16 -17 16 -18 -3 -16 -33 4 -45 1 -45 -11 0 -5 4 -8 9 -4 5 3 12 1
16 -5 3 -5 17 -10 30 -10 13 0 25 -6 28 -12 3 -8 9 -2 15 14 6 14 15 29 20 32
16 9 2 -32 -15 -46 -19 -15 -96 -18 -105 -4 -5 7 -8 5 -8 -5 0 -15 41 -34 55
-27 2 2 11 -6 18 -16 14 -19 15 -19 21 2 9 26 16 27 42 7 19 -15 18 -16 -3
-13 -13 2 -28 -5 -37 -17 -9 -11 -16 -14 -16 -7 0 14 -30 17 -30 2 0 -5 5 -10
10 -10 6 0 10 -6 10 -12 -1 -7 -11 0 -25 16 -28 35 -69 44 -59 13 4 -13 2 -17
-5 -13 -6 4 -11 2 -11 -3 0 -6 5 -11 10 -11 22 0 8 -16 -15 -18 -18 -1 -25 3
-26 16 0 13 -3 11 -9 -6 -7 -16 -18 -22 -37 -22 -66 0 -219 -13 -238 -21 -27
-11 392 -9 510 2 132 13 313 36 545 69 113 16 291 41 395 55 264 36 414 62
432 76 8 7 34 38 58 69 l43 57 0 165 c0 194 13 238 91 311 132 124 614 229
785 171 64 -22 148 -101 185 -175 16 -33 37 -93 46 -134 16 -68 19 -75 42 -75
32 0 74 -23 151 -81 35 -27 69 -49 76 -49 24 0 191 51 201 61 6 6 -1 6 -18 0
-32 -12 -51 -6 -40 12 3 7 -3 3 -15 -7 -12 -11 -25 -16 -29 -12 -4 4 -2 11 5
15 22 14 -14 34 -48 27 -22 -4 -30 -2 -30 9 0 7 5 17 11 21 7 4 8 9 1 13 -6 3
-7 25 -3 51 9 65 -1 146 -17 142 -8 -1 -11 2 -7 8 3 6 11 8 16 5 5 -4 9 5 9
19 0 14 -4 26 -10 26 -5 0 -10 -4 -10 -10 0 -5 -4 -10 -10 -10 -5 0 -10 7 -10
15 0 8 -4 15 -10 15 -5 0 -7 7 -4 15 4 8 1 15 -5 15 -6 0 -8 6 -5 14 3 7 -2
21 -11 30 -12 12 -13 16 -3 16 10 0 11 2 0 8 -7 5 -10 15 -7 24 8 20 -23 47
-35 29 -10 -17 -22 2 -14 23 3 9 1 16 -6 16 -6 0 -9 4 -5 9 3 5 0 13 -6 17 -9
5 -10 -3 -6 -29 7 -43 -11 -51 -19 -8 -5 23 -11 28 -35 29 -16 0 -29 -4 -29
-10 0 -6 -3 -9 -6 -5 -3 3 -5 8 -5 11 1 3 -8 15 -19 26 -22 22 -40 19 -40 -6
0 -8 -6 -14 -14 -14 -17 0 -29 27 -15 32 6 2 7 11 4 21 -9 23 -25 11 -25 -19
0 -17 -5 -24 -20 -24 -11 0 -20 5 -20 10 0 6 -5 10 -11 10 -6 0 -9 -7 -5 -15
3 -8 0 -15 -7 -16 -66 -4 -113 -13 -125 -26 -14 -13 -16 -13 -24 1 -6 11 -14
14 -26 7 -9 -5 -60 -12 -112 -15 -114 -9 -119 -9 -193 -25 -46 -10 -61 -10
-73 0 -8 6 -17 9 -21 5 -3 -3 -1 -6 5 -6 25 0 10 -19 -19 -25 -22 -5 -35 -3
-41 6 -7 11 -8 9 -4 -5 5 -15 2 -17 -14 -13 -11 3 -20 1 -20 -4 0 -5 -7 -9
-15 -9 -8 0 -15 5 -15 11 0 5 -5 7 -10 4 -6 -4 -8 -11 -5 -16 6 -8 -1 -10 -46
-13 -9 -1 -23 -7 -32 -14 -9 -8 -21 -11 -28 -7 -6 4 -15 2 -19 -6 -7 -10 -11
-10 -24 1 -14 11 -16 10 -10 -3 3 -10 -2 -20 -16 -27 -20 -11 -21 -10 -15 12
7 20 6 21 -8 10 -9 -8 -14 -19 -11 -27 6 -16 -3 -22 -40 -29 -37 -7 -42 -12
-26 -31 7 -8 10 -15 7 -15 -3 0 -13 -3 -22 -7 -14 -5 -16 -2 -10 15 7 24 -9
29 -35 11 -11 -8 -12 -12 -2 -16 19 -7 14 -19 -8 -20 -11 -1 -20 3 -20 9 0 6
-9 8 -20 5 -24 -6 -38 12 -19 24 12 7 12 9 0 9 -12 0 -13 23 -7 136 4 74 9
143 12 152 14 48 -48 -84 -72 -153 -32 -94 -31 -92 -46 -77 -18 18 -25 15 -37
-18 -10 -31 -31 -41 -31 -15 0 8 6 15 13 15 6 0 -1 7 -17 15 -33 18 -39 19
-31 5 13 -21 -13 -9 -28 13 -12 18 -18 20 -28 10 -8 -8 -9 -13 -2 -13 6 0 10
-11 9 -25 -1 -22 -4 -25 -26 -20 -28 7 -50 23 -50 36 0 5 5 9 10 9 6 0 10 -7
10 -15 0 -8 5 -15 10 -15 17 0 23 27 11 48 -8 15 -7 23 4 32 22 18 18 32 -5
18 -11 -7 -20 -20 -20 -30 0 -23 -16 -32 -24 -13 -3 9 -3 50 0 93 32 485 355
942 769 1091 151 54 341 67 479 31z m-3142 -92 c-260 -201 -332 -260 -469
-387 -267 -247 -500 -526 -593 -711 l-30 -60 40 -20 40 -20 0 25 c0 57 119
248 270 435 99 121 367 394 489 495 52 44 92 74 90 68 -2 -6 -76 -85 -164
-175 -289 -295 -471 -527 -570 -727 -47 -94 -66 -161 -45 -161 7 0 39 -16 72
-36 56 -34 59 -38 52 -68 -10 -47 -192 -404 -219 -432 l-25 -25 -50 26 c-27
14 -50 30 -50 35 0 13 4 13 44 -6 44 -21 60 -15 86 35 22 44 25 61 10 61 -5 0
-6 -8 -3 -17 6 -16 5 -17 -12 -3 -11 9 -16 10 -11 3 4 -8 1 -13 -8 -13 -10 0
-13 6 -9 17 5 12 2 15 -10 10 -11 -4 -17 -1 -17 7 0 13 -39 30 -48 21 -3 -3 1
-11 8 -20 11 -13 10 -14 -4 -9 -10 4 -16 15 -14 27 2 11 -3 22 -11 25 -8 3
-11 0 -7 -7 4 -7 0 -11 -13 -11 -13 0 -21 8 -23 22 -2 14 -11 24 -23 25 -11 2
-14 0 -7 -3 20 -9 15 -34 -5 -27 -32 13 -41 26 -26 41 23 23 14 34 -9 12 -19
-18 -24 -19 -26 -6 -4 18 -18 21 -27 6 -4 -6 -11 -8 -16 -4 -5 3 -7 9 -4 14 3
4 -2 11 -11 14 -8 3 -13 2 -10 -3 4 -5 -3 -7 -13 -4 -11 3 -18 10 -16 16 6 16
-51 84 -62 74 -4 -5 2 -17 15 -27 27 -23 28 -30 2 -30 -11 0 -23 7 -26 15 -4
8 -14 15 -24 15 -23 0 -37 20 -20 30 9 5 8 9 -3 13 -8 3 -20 0 -26 -6 -9 -9
-11 -6 -9 12 2 14 -3 26 -12 29 -13 4 -13 3 -2 -10 9 -11 10 -18 2 -23 -5 -3
-12 1 -15 9 -16 51 -14 49 -31 32 -8 -9 -18 -31 -21 -50 -5 -31 -2 -37 28 -55
19 -12 39 -23 44 -25 6 -2 6 -7 2 -12 -5 -5 -34 5 -65 21 -71 38 -72 47 -3
187 44 92 166 316 177 328 3 2 38 -12 78 -32 l73 -36 54 71 c238 315 558 603
939 846 119 77 392 230 409 231 7 0 -41 -42 -107 -92z m4304 78 c3 -8 1 -24
-5 -35 -11 -20 -390 -276 -398 -268 -2 2 38 36 89 75 51 40 138 110 193 157
55 46 104 85 108 85 4 0 10 -6 13 -14z m-5151 -280 c-16 -14 -32 -20 -34 -15
-4 13 29 38 49 39 9 0 3 -10 -15 -24z m5395 -31 c0 -15 -80 -67 -108 -69 -35
-2 -23 32 24 68 37 28 50 34 65 25 11 -5 19 -16 19 -24z m-5867 -77 c12 -6 60
-36 106 -67 l83 -55 -26 -23 -27 -23 -82 45 c-114 61 -130 77 -115 109 12 28
28 32 61 14z m6297 -12 c27 -34 8 -58 -90 -114 -151 -87 -780 -402 -801 -402
-29 0 -24 35 9 58 27 19 227 131 467 260 72 38 189 102 260 141 72 39 133 71
136 71 4 0 12 -7 19 -14z m100 -401 c26 -31 -2 -58 -106 -102 -751 -320 -751
-320 -777 -310 -55 21 17 64 383 225 113 50 261 115 330 146 136 60 151 64
170 41z m-1570 -270 c13 -16 7 -45 -10 -45 -7 0 -9 8 -5 20 4 11 2 20 -4 20
-6 0 -11 5 -11 10 0 15 16 12 30 -5z m-98 -20 c0 -5 -5 -11 -11 -13 -6 -2 -11
4 -11 13 0 9 5 15 11 13 6 -2 11 -8 11 -13z m-122 -5 c12 -8 11 -10 -7 -10
-13 0 -23 5 -23 10 0 13 11 13 30 0z m70 0 c0 -5 -4 -10 -10 -10 -5 0 -10 5
-10 10 0 6 5 10 10 10 6 0 10 -4 10 -10z m90 -5 c0 -8 -4 -15 -10 -15 -5 0
-10 7 -10 15 0 8 5 15 10 15 6 0 10 -7 10 -15z m130 -10 c0 -8 -7 -15 -15 -15
-8 0 -15 7 -15 15 0 8 7 15 15 15 8 0 15 -7 15 -15z m-4202 -80 c79 -53 97
-77 69 -88 -18 -7 -197 100 -197 117 0 41 34 34 128 -29z m4252 25 c0 -5 -4
-10 -10 -10 -5 0 -10 5 -10 10 0 6 5 10 10 10 6 0 10 -4 10 -10z m40 0 c0 -5
-7 -10 -16 -10 -8 0 -12 5 -9 10 3 6 10 10 16 10 5 0 9 -4 9 -10z m1387 -76
c66 -32 130 -102 199 -220 104 -178 137 -293 110 -386 -27 -93 -73 -128 -390
-293 -197 -102 -237 -93 -331 77 -32 57 -103 180 -159 273 -89 150 -101 175
-101 217 0 74 17 88 290 241 249 140 271 145 382 91z m-2917 -28 c0 -15 -18
-42 -24 -36 -5 6 -9 30 -7 47 1 15 31 5 31 -11z m-102 2 c-3 -7 -11 -13 -18
-13 -7 0 -15 6 -17 13 -3 7 4 12 17 12 13 0 20 -5 18 -12z m-118 -12 c0 -3 -4
-8 -10 -11 -5 -3 -10 -1 -10 4 0 6 5 11 10 11 6 0 10 -2 10 -4z m65 -26 c3 -5
-1 -10 -9 -10 -9 0 -16 5 -16 10 0 6 4 10 9 10 6 0 13 -4 16 -10z m35 -20 c0
-5 -2 -10 -4 -10 -3 0 -8 5 -11 10 -3 6 -1 10 4 10 6 0 11 -4 11 -10z m50 0
c0 -5 -4 -10 -10 -10 -5 0 -10 5 -10 10 0 6 5 10 10 10 6 0 10 -4 10 -10z
m190 -45 c-21 -26 -31 -16 -13 11 9 15 19 21 21 15 2 -6 -2 -18 -8 -26z m43
-18 c-3 -5 -10 -4 -15 1 -6 6 -7 16 -3 22 6 9 9 9 16 -1 4 -7 5 -17 2 -22z
m-2179 -82 c341 -63 821 -98 1338 -99 l398 -1 0 -147 0 -146 -31 -7 c-52 -12
-792 -8 -949 5 -394 31 -880 105 -987 150 -22 9 -23 14 -23 159 l0 149 62 -19
c34 -11 120 -30 192 -44z m1646 51 c0 -3 -4 -8 -10 -11 -5 -3 -10 -1 -10 4 0
6 5 11 10 11 6 0 10 -2 10 -4z m-13 -48 c-3 -8 -6 -5 -6 6 -1 11 2 17 5 13 3
-3 4 -12 1 -19z m-2398 -94 c123 -65 291 -165 291 -174 0 -10 -227 -133 -237
-129 -4 2 -7 10 -7 17 1 6 -6 12 -17 12 -10 0 -21 5 -24 10 -3 6 -11 10 -17
10 -7 0 -2 -10 11 -21 17 -16 20 -24 11 -33 -8 -8 -14 -7 -23 5 -7 9 -19 14
-27 12 -13 -4 -13 -3 0 6 12 8 12 13 3 22 -10 10 -14 9 -19 -5 -5 -14 -9 -15
-15 -5 -4 7 -4 18 1 24 6 8 4 19 -6 31 -14 16 -15 17 -10 2 7 -22 -2 -48 -17
-48 -6 0 -7 3 -4 7 4 3 -1 15 -10 25 -16 18 -16 18 0 12 19 -7 22 3 8 25 -6 9
-28 14 -60 15 -52 1 -71 19 -31 29 20 5 29 37 10 37 -16 0 -12 18 17 84 30 69
41 86 56 86 6 0 58 -25 116 -56z m2815 4 c13 -18 16 -51 16 -154 0 -154 14
-140 -149 -150 l-101 -7 0 161 0 161 48 4 c138 11 170 8 186 -15z m1656 -32
c0 -3 -4 -8 -10 -11 -5 -3 -10 -1 -10 4 0 6 5 11 10 11 6 0 10 -2 10 -4z
m-5217 -120 c213 -104 198 -85 153 -195 -37 -86 -48 -102 -60 -82 -21 34 -294
161 -347 161 -10 0 -19 5 -19 12 0 22 95 178 108 178 7 0 82 -33 165 -74z
m557 14 c0 -5 -4 -10 -10 -10 -5 0 -10 5 -10 10 0 6 5 10 10 10 6 0 10 -4 10
-10z m5252 -103 c43 -68 88 -156 88 -174 0 -6 -109 -79 -129 -87 -2 0 -10 9
-18 20 -13 20 -10 24 52 64 36 24 63 45 61 48 -3 3 -34 -14 -68 -36 l-63 -41
-24 32 c-14 17 -48 56 -77 85 l-52 53 51 33 c62 40 120 74 127 75 3 0 26 -32
52 -72z m-5209 23 c-3 -11 -12 -20 -19 -20 -17 0 -18 12 -2 28 18 18 27 15 21
-8z m4930 -61 c27 -14 77 -60 77 -71 0 -5 -23 3 -52 18 -43 22 -62 25 -110 22
-32 -2 -58 -1 -58 2 0 12 64 39 93 39 16 1 38 -4 50 -10z m-5731 -47 c31 -10
101 -44 156 -76 96 -54 137 -89 126 -108 -3 -4 -71 25 -152 66 -81 40 -171 81
-200 91 -43 14 -51 19 -41 31 15 19 45 18 111 -4z m5542 -43 c115 -54 251
-254 287 -424 6 -33 15 -64 19 -68 11 -12 59 32 80 74 22 43 40 51 40 19 0
-50 -59 -120 -105 -123 -22 -2 -31 -11 -49 -53 -36 -86 -87 -134 -141 -134
-35 0 -85 33 -85 55 0 34 -46 132 -99 212 -67 102 -182 223 -210 223 -37 0
-33 -21 16 -73 55 -58 100 -121 133 -186 18 -37 19 -43 5 -38 -12 5 -19 -1
-27 -24 -6 -19 -15 -28 -24 -25 -14 5 -9 -18 9 -41 7 -9 5 -13 -6 -13 -10 0
-13 -6 -10 -20 9 -36 -4 -22 -61 64 -61 91 -144 181 -206 222 l-40 27 36 24
c19 14 55 33 79 44 23 10 50 31 60 45 18 28 70 54 110 54 33 0 78 -23 132 -67
76 -63 202 -283 219 -385 5 -29 4 -31 -8 -16 -7 10 -33 53 -56 97 -24 43 -57
94 -72 112 l-29 34 35 -95 c20 -52 36 -108 36 -125 2 -95 109 -82 158 20 28
57 28 133 1 206 -19 51 -52 99 -68 99 -4 0 4 -11 17 -26 21 -21 22 -27 10 -34
-23 -15 -29 -12 -23 10 4 14 0 20 -11 20 -9 0 -15 3 -15 8 1 4 1 16 0 26 -1
20 -1 20 -16 0 -8 -10 -15 -14 -15 -8 0 21 -123 134 -169 156 -32 16 -64 23
-104 23 -57 0 -58 0 -52 25 13 52 79 100 138 100 20 0 57 -9 81 -21z m187 -18
c73 -45 136 -134 168 -234 17 -52 7 -70 -13 -23 -9 22 -19 37 -22 34 -3 -3 2
-23 10 -43 9 -21 16 -52 16 -69 0 -27 -3 -24 -25 28 -38 93 -115 213 -178 277
-56 58 -56 59 -29 59 15 0 48 -13 73 -29z m-3311 -1 c0 -5 -4 -10 -10 -10 -5
0 -10 5 -10 10 0 6 5 10 10 10 6 0 10 -4 10 -10z m-1625 -45 c17 -14 26 -25
20 -25 -5 0 -23 11 -40 25 -16 13 -25 24 -20 24 6 0 24 -11 40 -24z m-875 -55
c58 -21 224 -81 370 -133 358 -128 475 -175 678 -272 382 -185 703 -383 1212
-749 241 -174 254 -185 185 -158 -287 113 -611 250 -1140 482 -617 271 -762
328 -1241 490 -164 55 -300 103 -303 105 -2 3 16 68 40 145 51 163 29 153 199
90z m2424 -26 c9 -22 -3 -32 -14 -14 -12 19 -12 30 -1 30 5 0 12 -7 15 -16z
m3825 -60 c-7 -8 -47 -36 -90 -62 -43 -25 -80 -53 -83 -62 -2 -10 -4 -8 -5 5
-1 31 9 42 95 94 75 46 110 57 83 25z m-1202 -118 c77 -36 166 -99 208 -148
86 -100 162 -278 149 -352 -8 -48 -49 -94 -91 -102 -28 -5 -37 -2 -60 24 -16
16 -43 68 -61 116 -63 162 -200 357 -294 419 -27 16 -48 32 -48 34 0 2 15 10
33 18 48 21 106 18 164 -9z m1977 -122 c20 -20 20 -27 -1 -46 -13 -11 -61 -19
-177 -27 -88 -7 -185 -14 -215 -18 -31 -3 -72 -6 -91 -7 -19 0 -40 -4 -47 -9
-6 -4 -15 -2 -19 4 -4 7 -3 9 3 6 6 -4 14 0 17 9 4 9 9 14 13 11 3 -3 19 1 35
9 15 8 52 19 81 24 28 6 61 12 73 14 18 4 174 29 244 39 52 8 69 7 84 -9z
m-2101 -34 c44 -39 125 -176 112 -189 -4 -3 -10 0 -14 7 -6 10 -12 4 -21 -17
-7 -17 -17 -28 -22 -25 -5 3 -17 3 -26 -1 -15 -6 -14 -8 6 -16 19 -7 21 -12
12 -29 -6 -11 -7 -20 -2 -20 5 0 9 -12 8 -27 -1 -16 5 -43 12 -62 7 -18 11
-35 8 -38 -3 -3 1 -12 9 -20 18 -17 20 -37 3 -27 -7 4 -8 3 -4 -4 4 -6 13 -9
21 -5 9 3 15 -1 15 -11 0 -9 7 -16 16 -16 18 0 75 30 86 45 15 21 18 -5 4 -38
-17 -41 -41 -57 -89 -57 -43 0 -64 22 -116 128 -85 172 -231 355 -231 289 0
-6 27 -59 60 -115 33 -57 60 -105 60 -107 0 -2 -15 -12 -32 -23 -104 -62 -308
-183 -370 -218 -101 -57 -636 -365 -788 -454 -69 -41 -162 -97 -208 -127 -45
-29 -86 -53 -90 -52 -4 0 -44 47 -89 104 -60 76 -79 106 -70 113 40 33 1333
785 1470 855 33 17 37 23 37 59 0 81 58 138 141 138 40 0 53 -6 92 -40z m607
-71 c0 -6 -4 -7 -10 -4 -5 3 -10 11 -10 16 0 6 5 7 10 4 6 -3 10 -11 10 -16z
m-3341 -25 l174 -7 306 -187 c168 -103 367 -224 441 -270 74 -46 159 -97 187
-114 29 -17 53 -33 53 -36 0 -6 -164 -107 -218 -134 l-33 -17 -167 104 c-92
58 -250 156 -352 219 -184 114 -370 235 -380 245 -3 4 1 3 9 -2 10 -6 12 -4 7
4 -5 7 -15 10 -23 7 -8 -3 -11 -1 -8 4 3 6 2 10 -4 10 -5 0 -29 19 -53 42 -43
41 -43 41 -8 21 85 -49 301 -155 306 -150 2 1 -29 20 -69 42 -40 21 -83 46
-98 56 -14 10 -97 54 -185 100 -149 77 -156 81 -109 76 28 -4 128 -10 224 -13z
m4429 -56 c8 -8 8 -17 1 -30 -9 -17 -22 -19 -123 -17 -63 1 -119 5 -126 9 -7
5 -24 4 -37 -1 -14 -5 -23 -5 -23 1 0 5 -7 7 -15 4 -8 -4 -15 -1 -15 5 0 6 8
11 18 12 9 0 28 3 42 5 36 6 178 20 226 22 22 1 45 -3 52 -10z m-1000 -32
c-36 -32 -178 -110 -185 -102 -10 10 5 21 102 75 97 55 125 64 83 27z m-3511
-184 c167 -76 354 -174 563 -294 293 -170 367 -219 356 -236 -13 -21 -35 -13
-139 51 -56 35 -192 114 -302 176 -110 63 -256 146 -325 186 -69 39 -167 95
-217 125 -51 29 -93 55 -93 57 0 6 -8 9 157 -65z m2756 -63 c4 -15 2 -19 -9
-15 -7 3 -18 -3 -24 -15 -6 -11 -15 -17 -21 -14 -5 4 -9 1 -9 -4 0 -6 -7 -11
-15 -11 -8 0 -15 -4 -15 -9 0 -5 -9 -13 -20 -16 -11 -4 -32 -17 -45 -31 -13
-13 -28 -24 -33 -24 -5 0 -51 -26 -103 -57 -116 -70 -352 -209 -399 -235 -19
-11 -71 -41 -115 -67 -167 -99 -323 -190 -415 -241 -52 -29 -128 -73 -168 -97
-70 -43 -74 -44 -87 -27 -11 15 -11 22 -2 30 13 12 192 118 497 294 107 62
220 127 250 145 30 18 156 89 280 160 124 70 250 142 280 159 30 18 79 43 108
56 28 13 52 27 52 32 0 15 8 8 13 -13z m1730 -59 c129 -9 157 -18 157 -50 0
-16 -45 -44 -58 -36 -4 2 -45 7 -92 10 -190 15 -439 38 -505 47 -38 5 -97 11
-130 15 -84 8 -98 17 -40 24 65 9 502 2 668 -10z m-5844 -1 c17 -6 31 -15 31
-21 0 -6 -6 -8 -14 -5 -8 3 -17 3 -20 -1 -8 -7 -3 -7 -188 -26 -84 -9 -195
-17 -247 -19 -79 -2 -95 1 -104 15 -21 32 13 52 105 59 144 11 403 10 437 -2z
m4165 -39 c-5 -5 -99 -61 -209 -126 -336 -196 -668 -393 -1069 -633 -121 -72
-222 -129 -225 -126 -2 3 2 11 10 19 23 21 288 184 494 303 66 39 210 123 320
188 250 147 556 325 561 325 2 0 29 16 61 35 52 31 81 39 57 15z m-4866 -8 c9
9 12 7 12 -9 0 -19 -10 -24 -75 -38 -83 -19 -109 -11 -103 29 3 18 12 22 68
26 44 3 68 1 76 -7 8 -9 13 -10 22 -1z m7010 3 c16 -6 15 -40 -2 -54 -21 -17
-149 7 -141 26 2 8 0 11 -5 8 -6 -3 -10 -2 -10 3 0 24 101 34 158 17z m-4434
-207 c171 -106 309 -198 303 -205 -7 -7 -68 27 -179 99 -54 35 -156 101 -228
147 -71 45 -130 85 -130 87 0 9 105 -49 234 -128z m3337 -48 c341 -37 625 -83
648 -105 18 -17 6 -65 -15 -65 -51 0 -817 171 -833 186 -7 6 5 5 200 -16z
m-4906 -15 c-49 -13 -209 -49 -355 -80 -146 -31 -288 -61 -317 -67 -41 -9 -56
-8 -68 2 -19 16 -19 44 -1 59 31 26 616 108 781 109 48 0 47 0 -40 -23z m-932
-148 c4 3 7 -1 7 -9 0 -10 -20 -21 -55 -32 -68 -22 -89 -18 -93 16 -3 24 1 28
30 32 71 12 83 12 94 -1 6 -7 14 -10 17 -6z m6800 12 c68 -18 39 -81 -30 -63
-40 10 -59 33 -50 58 7 19 27 20 80 5z m-1316 -85 c-3 -3 -12 -4 -19 -1 -8 3
-5 6 6 6 11 1 17 -2 13 -5z m-4317 -18 c-8 -7 -71 -35 -140 -61 -176 -67 -688
-245 -703 -245 -37 0 -49 53 -17 70 59 32 485 159 720 216 160 38 158 38 140
20z m1974 -116 c83 -105 104 -143 103 -184 -1 -36 -2 -37 -17 -19 -8 11 -20
18 -26 16 -6 -2 -19 9 -29 24 -10 15 -36 47 -58 70 -86 89 -157 168 -157 175
0 3 15 15 32 27 l33 20 34 -32 c18 -18 56 -61 85 -97z m2586 80 c191 -47 254
-65 445 -126 201 -65 223 -73 229 -89 8 -21 -3 -43 -23 -50 -19 -6 -367 112
-667 224 -103 39 -188 71 -190 71 -2 0 -4 5 -4 10 0 12 -8 13 210 -40z m-2712
-89 c67 -66 88 -95 131 -182 73 -149 68 -141 94 -128 19 10 20 10 7 -3 -14
-14 -127 -86 -360 -230 -58 -36 -190 -119 -295 -185 -104 -66 -237 -149 -295
-186 -58 -36 -150 -95 -205 -130 -55 -35 -208 -133 -340 -217 -132 -84 -276
-176 -320 -205 -44 -28 -138 -89 -210 -135 -71 -46 -231 -151 -355 -233 -130
-87 -226 -144 -228 -138 -2 7 -2 13 -1 15 2 1 36 22 74 46 39 24 72 45 74 47
3 2 -11 20 -30 40 -19 21 -26 31 -16 24 9 -7 17 -11 17 -8 0 3 -27 27 -61 54
-41 33 -92 92 -160 186 -111 153 -109 141 -31 183 l34 18 25 -29 c51 -62 124
-181 188 -306 36 -71 68 -129 71 -129 9 0 94 52 94 57 0 3 -40 47 -89 97 -49
50 -107 114 -128 141 -50 65 -133 182 -133 188 0 3 23 20 51 37 l52 32 24 -29
c50 -58 132 -192 193 -313 35 -69 64 -126 66 -128 4 -6 84 50 84 59 0 7 -50
64 -136 154 -22 23 -63 77 -93 120 -30 44 -64 91 -77 105 -34 38 -33 47 16 80
l44 29 29 -27 c44 -42 109 -146 182 -293 37 -74 69 -136 71 -138 5 -6 84 30
90 41 6 10 -67 103 -97 125 -26 19 -189 230 -233 301 -4 7 12 23 41 41 44 28
49 29 65 14 37 -34 138 -193 197 -313 34 -68 64 -126 66 -128 4 -5 44 16 73
38 l22 18 -81 83 c-45 46 -118 134 -162 194 -44 61 -84 113 -90 116 -17 12 0
37 43 64 34 21 44 24 56 14 34 -28 126 -173 194 -307 80 -154 76 -151 137
-109 39 27 38 28 -69 137 -46 47 -106 117 -133 155 -27 39 -64 89 -82 111
l-33 42 51 32 50 33 35 -39 c60 -68 120 -165 184 -296 34 -71 64 -128 66 -128
9 0 94 56 94 62 0 4 -40 47 -88 95 -49 48 -117 126 -152 173 -35 47 -74 97
-88 112 -29 31 -26 38 34 73 l46 27 29 -34 c49 -54 132 -185 195 -305 32 -62
63 -113 68 -113 15 0 76 44 76 55 0 6 -34 44 -75 85 -42 41 -109 120 -149 175
-41 55 -83 109 -95 119 -31 28 -27 38 28 68 l49 28 30 -34 c59 -68 121 -164
182 -281 33 -66 65 -124 70 -129 10 -10 90 33 90 49 0 7 -40 52 -88 101 -49
49 -113 121 -142 159 -30 39 -66 86 -82 105 -15 19 -28 39 -28 45 0 5 20 23
45 38 l44 28 31 -33 c77 -84 145 -185 200 -296 33 -67 63 -122 67 -122 4 0 24
12 45 26 l38 26 -19 27 c-11 14 -43 49 -71 76 -82 79 -262 295 -257 309 3 6
21 20 41 31 l36 19 105 -107 c58 -59 105 -114 105 -122 0 -10 5 -13 12 -9 7 4
8 3 4 -4 -4 -6 -2 -21 5 -33 8 -16 8 -23 0 -29 -9 -5 -8 -10 4 -20 8 -7 27
-34 42 -61 14 -27 31 -49 37 -49 7 0 27 13 45 28 l33 28 -178 183 c-99 101
-182 189 -186 196 -9 15 67 69 87 62 33 -13 175 -203 226 -302 29 -59 59 -111
66 -116 12 -11 73 14 73 30 0 4 -35 46 -78 92 -154 167 -262 299 -262 320 0 5
19 18 42 30 l42 22 35 -39 c75 -86 156 -204 202 -296 27 -54 55 -98 62 -98 15
0 77 37 77 46 0 4 -42 50 -93 103 -92 94 -247 282 -247 299 0 5 21 20 48 35
l47 26 58 -68 c90 -106 113 -140 172 -260 l56 -112 37 22 c20 12 41 25 45 29
5 4 -34 52 -85 107 -51 54 -104 112 -118 129 -87 102 -130 157 -130 167 0 12
76 57 96 57 11 0 92 -102 151 -190 17 -25 49 -89 73 -142 24 -54 48 -98 54
-98 6 0 28 12 49 26 38 25 38 26 20 47 -10 12 -22 27 -28 35 -5 7 -23 25 -39
40 -57 53 -79 78 -163 190 l-85 113 24 19 c13 10 36 25 52 31 27 12 30 10 62
-27 76 -88 133 -186 209 -361 18 -40 24 -40 75 -7 47 31 46 35 -40 118 -33 32
-104 115 -156 183 -105 137 -104 127 -28 168 33 17 33 17 59 -11 67 -75 147
-199 191 -294 26 -58 49 -107 50 -108 4 -7 94 50 94 58 0 5 -33 42 -74 82 -61
60 -114 124 -248 295 -7 9 4 21 38 43 l48 30 34 -32 c57 -56 127 -159 181
-265 28 -57 51 -109 51 -118 0 -8 3 -15 6 -15 9 0 94 51 94 57 0 10 -46 64
-89 106 -24 23 -88 95 -143 160 -110 132 -109 125 -27 162 l36 17 42 -44 c56
-59 163 -218 157 -234 -3 -7 -2 -14 3 -16 8 -4 51 -93 51 -108 0 -5 5 -10 11
-10 19 0 89 43 89 55 0 6 -27 37 -61 70 -68 67 -259 290 -259 303 0 5 22 21
49 35 l49 27 63 -68 c66 -70 149 -185 149 -207 0 -11 47 -122 56 -134 5 -6 84
42 84 52 0 9 -124 147 -258 288 l-73 77 43 26 c24 14 46 26 50 26 3 0 42 -35
86 -79z m2917 -350 c333 -167 397 -205 393 -234 -7 -48 -27 -41 -253 81 -354
191 -725 400 -725 407 0 1 69 -24 153 -56 83 -32 278 -121 432 -198z m-4636
216 c-50 -42 -895 -487 -924 -487 -19 0 -37 34 -29 55 7 18 465 249 654 329
179 77 331 129 299 103z m3000 -16 l23 -18 -93 -113 c-52 -63 -125 -148 -162
-189 -37 -41 -66 -81 -65 -89 2 -8 22 -25 45 -39 38 -22 41 -23 36 -5 -2 11 5
39 16 63 12 23 21 47 21 51 0 15 79 129 153 220 l70 87 29 -17 c15 -9 40 -26
54 -37 l26 -20 -103 -125 c-56 -69 -130 -151 -165 -183 -35 -32 -64 -65 -64
-73 0 -7 21 -29 48 -49 51 -37 64 -43 56 -22 -13 34 113 262 210 382 22 28 42
52 43 54 3 5 113 -67 113 -73 0 -3 -6 -11 -13 -18 -7 -7 -45 -56 -85 -109 -82
-111 -169 -209 -186 -209 -14 0 -48 -59 -40 -71 3 -5 1 -9 -3 -9 -19 0 -586
371 -578 378 2 2 45 -22 97 -53 51 -32 107 -66 124 -76 l31 -19 11 39 c7 21
19 44 27 51 8 7 15 17 15 22 0 17 124 192 171 240 37 39 52 48 80 48 19 0 45
-9 58 -19z m373 -242 c26 -17 48 -33 48 -36 0 -3 -21 -31 -47 -63 -27 -32 -68
-84 -93 -115 -25 -32 -78 -94 -117 -139 -40 -44 -73 -84 -73 -87 0 -8 76 -59
87 -59 5 0 17 20 28 45 11 25 23 45 27 45 5 0 8 5 8 11 0 5 -4 7 -10 4 -5 -3
-10 -1 -10 4 0 6 6 11 14 11 21 0 31 21 16 30 -10 6 -6 21 20 63 43 72 171
233 182 229 4 -1 29 -15 54 -31 l46 -28 -29 -34 c-17 -19 -68 -86 -115 -149
-48 -63 -107 -137 -132 -165 -25 -27 -46 -55 -46 -61 0 -6 17 -23 37 -37 l37
-26 12 27 c22 54 66 148 87 190 31 61 166 238 179 234 6 -2 30 -16 54 -32 l42
-30 -111 -149 c-62 -82 -124 -157 -140 -167 -31 -21 -80 -90 -73 -103 7 -11
86 -65 89 -60 14 22 40 87 38 97 -1 6 3 12 9 12 6 0 9 4 5 9 -3 5 -1 12 5 16
5 3 14 23 20 44 11 41 83 158 149 241 l40 50 48 -36 c26 -20 49 -38 51 -39 1
-1 -30 -47 -71 -101 -40 -55 -83 -115 -95 -135 -12 -20 -37 -48 -56 -62 -18
-15 -50 -49 -70 -76 l-36 -50 44 -26 c47 -27 56 -30 56 -15 0 5 16 43 36 84
19 42 34 77 33 78 -8 11 83 156 158 250 l30 37 52 -35 c47 -32 51 -37 39 -54
-7 -9 -46 -64 -87 -121 -41 -57 -102 -133 -136 -169 -34 -36 -69 -76 -78 -89
-15 -23 -15 -25 6 -41 12 -9 32 -22 44 -29 21 -10 24 -8 44 30 11 23 36 77 53
119 32 74 117 212 170 274 l24 29 51 -32 c28 -18 51 -35 51 -36 0 -11 -164
-223 -275 -355 -30 -36 -55 -68 -55 -72 0 -4 19 -18 43 -32 l42 -26 9 23 c42
97 136 273 181 336 91 127 76 118 132 80 26 -18 49 -33 51 -34 7 -6 -179 -256
-225 -302 -85 -86 -108 -120 -92 -139 13 -16 69 -48 73 -42 2 2 19 33 40 71
24 44 32 67 24 68 -10 0 -10 2 0 6 8 3 23 26 33 52 22 49 141 232 165 251 11
10 24 6 64 -20 l51 -33 -24 -26 c-14 -14 -50 -65 -81 -112 -31 -48 -88 -122
-128 -165 -125 -137 -117 -117 -63 -154 25 -18 48 -30 49 -28 9 11 59 124 58
131 -4 14 56 122 116 212 95 141 83 132 136 101 25 -14 48 -31 51 -36 3 -5 -7
-27 -23 -47 -16 -21 -59 -81 -95 -135 -37 -53 -98 -128 -137 -167 -38 -39 -70
-75 -70 -81 0 -9 89 -65 93 -59 2 2 20 42 41 89 21 47 48 105 59 130 22 47
154 250 163 250 4 0 87 -54 103 -67 3 -2 -7 -16 -21 -31 -14 -15 -51 -66 -83
-114 -31 -48 -91 -124 -132 -169 -92 -102 -98 -112 -75 -131 17 -15 56 -38 65
-38 4 0 16 25 105 210 22 47 68 124 102 172 l61 87 27 -17 c15 -9 39 -25 52
-34 l24 -18 -21 -28 c-11 -16 -51 -73 -89 -128 -37 -54 -100 -136 -141 -181
-40 -46 -73 -87 -73 -92 0 -13 54 -51 72 -51 7 0 40 57 73 127 60 128 186 333
204 333 14 0 101 -53 101 -62 0 -20 -208 -305 -227 -311 -4 -1 -23 -20 -43
-42 -19 -22 -41 -46 -47 -53 -7 -7 -13 -17 -13 -21 0 -10 72 -61 86 -61 5 1
23 31 39 67 56 124 115 235 160 301 79 116 68 109 115 78 23 -15 43 -33 46
-39 8 -21 -164 -268 -230 -332 -18 -16 -44 -47 -59 -67 l-28 -38 53 -34 c56
-35 98 -76 80 -76 -6 0 -84 49 -174 109 -90 59 -329 219 -533 354 -850 564
-1000 668 -998 691 0 11 17 56 37 99 20 42 36 80 36 83 0 21 173 274 188 274
3 0 27 -14 54 -31z m720 -65 c67 -42 150 -90 183 -106 72 -37 302 -180 392
-244 49 -35 63 -51 61 -67 -2 -13 -11 -23 -23 -25 -20 -2 -73 34 -477 324
-101 72 -202 144 -225 159 -39 25 -50 35 -39 35 2 0 60 -34 128 -76z m-4242
-144 c-57 -50 -408 -291 -440 -302 -19 -7 -50 9 -50 26 0 20 37 50 170 132
257 159 422 233 320 144z m2810 -402 c0 -17 -10 -6 -25 25 l-16 32 20 -25 c11
-14 21 -28 21 -32z m-1175 -5 c-10 -15 -20 -22 -22 -16 -4 11 28 53 36 47 2
-2 -4 -16 -14 -31z m3719 -161 c2 -4 -4 -8 -15 -8 -10 0 -19 4 -19 8 0 4 6 8
14 8 8 0 17 -4 20 -8z m-2123 -103 c45 -63 260 -420 393 -651 37 -65 66 -125
64 -134 -2 -9 -11 -22 -20 -28 -14 -9 -22 -6 -42 14 -43 45 -412 729 -457 847
-16 43 12 21 62 -48z m-1983 20 c-15 -44 -165 -336 -238 -464 -31 -55 -87
-155 -124 -221 -75 -136 -94 -159 -125 -149 -25 8 -27 35 -5 78 22 41 366 615
412 687 36 57 83 112 89 107 2 -2 -2 -19 -9 -38z m272 -75 c-51 -165 -141
-408 -176 -476 -16 -32 -23 -34 -49 -14 -19 13 -18 16 9 87 38 98 225 483 232
476 3 -2 -5 -36 -16 -73z m1137 -77 c54 -183 132 -519 167 -726 4 -19 3 -32 0
-28 -4 4 -13 2 -20 -4 -7 -5 -14 -6 -17 -2 -20 34 -148 612 -162 733 -4 30
-10 81 -14 113 -4 31 -5 57 -2 57 3 0 25 -64 48 -143z m303 36 c68 -142 190
-419 190 -432 0 -13 -38 -34 -49 -27 -14 9 -93 234 -86 245 3 6 2 11 -2 11 -5
0 -9 8 -10 18 -1 14 -74 219 -98 275 -4 9 -5 17 -2 17 3 0 29 -48 57 -107z
m-1144 15 c-10 -121 -46 -295 -163 -795 -3 -13 -9 -20 -14 -17 -5 3 -9 0 -9
-7 0 -9 -4 -9 -15 1 -16 13 -17 4 30 245 52 258 155 645 172 645 3 0 2 -33 -1
-72z m3408 -151 c6 -9 -12 -45 -62 -118 -78 -115 -149 -198 -138 -162 4 12 2
24 -4 28 -9 6 -15 -28 -11 -62 1 -8 -5 -10 -14 -7 -8 3 -15 13 -15 22 0 8 -6
23 -14 31 -12 14 -11 24 10 75 13 32 53 103 90 157 l65 99 42 -24 c23 -14 46
-31 51 -39z m-5893 -29 c54 -73 129 -212 129 -239 0 -5 -7 -9 -16 -9 -8 0 -13
4 -10 9 8 13 -20 45 -32 37 -18 -11 -14 -29 4 -22 9 4 13 2 8 -5 -3 -6 -1 -22
7 -35 10 -19 10 -27 0 -37 -10 -9 -11 -8 -6 6 5 12 2 17 -10 17 -9 0 -19 9
-22 20 -3 11 -9 18 -13 15 -12 -8 -190 244 -190 268 0 8 72 57 82 57 5 0 36
-37 69 -82z m2755 -200 c-7 -306 -17 -557 -26 -588 -7 -27 -35 -36 -59 -21
-13 8 -13 37 3 218 9 114 24 264 32 333 9 69 17 141 20 160 4 34 10 70 14 80
1 3 2 9 1 14 -3 12 7 36 14 36 3 0 4 -105 1 -232z m-2889 100 c76 -117 106
-176 98 -196 -4 -12 -8 -13 -18 -3 -9 9 -9 14 1 20 10 6 10 11 -3 21 -13 11
-18 11 -28 0 -9 -10 -9 -11 1 -6 16 9 16 -16 0 -32 -9 -9 -8 -12 5 -12 11 0
14 -5 10 -15 -3 -9 -13 -15 -22 -13 -9 1 -22 -1 -29 -5 -7 -5 -19 -2 -28 7
-29 29 -28 16 1 -14 16 -16 25 -33 20 -37 -4 -5 -10 -2 -12 5 -7 17 -24 15
-39 -5 -8 -11 -13 -13 -14 -5 0 6 -6 12 -12 12 -7 0 2 -14 20 -30 27 -25 29
-30 13 -30 -10 0 -21 7 -25 15 -3 8 -10 15 -16 15 -6 0 3 -20 20 -45 17 -25
27 -45 22 -45 -4 0 -17 -7 -28 -15 -19 -14 -19 -14 1 -9 13 3 24 -2 33 -16 10
-16 10 -20 0 -21 -25 -1 28 -18 59 -18 23 -1 57 16 123 60 50 34 94 58 97 55
8 -7 -25 -35 -115 -96 -83 -56 -119 -62 -187 -31 -63 28 -156 148 -217 277
-34 72 -34 118 0 164 18 26 178 139 198 139 5 1 37 -41 71 -91z m3179 1 c8
-46 19 -140 24 -209 6 -69 12 -156 15 -195 3 -38 11 -118 17 -177 11 -115 6
-138 -33 -138 -29 0 -36 26 -44 155 -9 148 -15 636 -8 648 9 15 14 1 29 -84z
m3002 31 c149 -97 166 -163 79 -302 -107 -170 -179 -233 -268 -233 -37 0 -56
8 -110 45 -85 59 -133 99 -126 107 3 3 39 -17 79 -44 120 -82 168 -101 168
-67 0 9 6 14 13 11 16 -5 47 91 37 118 -5 11 -13 19 -19 17 -13 -3 -15 15 -2
22 5 4 11 0 14 -6 3 -10 8 -10 18 1 8 8 9 11 3 8 -7 -4 -15 0 -18 8 -4 12 -10
13 -24 6 -14 -7 -21 -5 -30 10 -17 26 -15 49 2 26 10 -13 16 -15 21 -7 4 7 1
19 -8 27 -13 13 -18 12 -42 -14 -15 -15 -25 -23 -21 -16 10 19 -5 43 -28 43
-16 0 -18 2 -7 9 8 5 11 16 8 25 -4 10 -1 19 8 22 8 4 12 10 9 15 -7 11 6 35
75 141 31 48 61 88 67 88 7 0 53 -27 102 -60z m-4744 5 c-9 -14 -26 -31 -38
-37 -14 -7 -10 1 13 26 41 42 48 45 25 11z m3205 -25 c29 -40 22 -38 -20 6
-18 19 -27 32 -18 29 9 -3 26 -19 38 -35z m177 -200 c19 -18 34 -39 34 -47 0
-20 -28 -27 -46 -12 -14 11 -54 81 -54 93 0 14 37 -5 66 -34z m-4556 20 c0 -5
-2 -10 -4 -10 -3 0 -8 5 -11 10 -3 6 -1 10 4 10 6 0 11 -4 11 -10z m1010 -4
c0 -19 -50 -86 -64 -86 -20 0 -28 30 -14 49 31 40 78 63 78 37z m4491 -8 c3
-27 -4 -53 -17 -72 -12 -17 -14 -18 -14 -4 0 9 6 19 13 22 10 5 10 7 0 12 -7
3 -13 12 -13 20 0 9 5 12 12 8 8 -5 9 -2 5 9 -3 10 -2 17 3 17 6 0 11 -6 11
-12z m-5687 -83 c-4 -8 -10 -15 -15 -15 -4 0 -6 7 -3 15 4 8 10 15 15 15 4 0
6 -7 3 -15z m2020 -1 c3 -8 2 -12 -4 -9 -6 3 -10 10 -10 16 0 14 7 11 14 -7z
m1902 -29 c8 -19 14 -36 14 -37 -1 -2 19 -47 45 -100 25 -54 45 -111 45 -128
0 -34 -22 -49 -45 -30 -14 12 -106 237 -119 293 -6 26 -5 28 15 22 14 -5 19
-4 15 4 -4 6 -2 11 4 11 6 0 18 -16 26 -35z m-1913 3 c9 -13 0 -46 -37 -145
-27 -70 -55 -136 -64 -145 -20 -24 -39 -23 -52 2 -9 16 1 47 51 165 63 147 77
164 102 123z m-1053 -119 c747 -449 1656 -633 2530 -513 490 67 913 214 1380
479 162 93 172 97 185 79 8 -11 15 -23 15 -29 0 -5 5 -3 10 5 7 12 10 8 11
-15 0 -16 3 -24 6 -17 6 16 28 15 42 -2 14 -17 -37 -61 -181 -152 -451 -286
-1049 -479 -1654 -534 -152 -14 -585 -14 -719 0 -645 66 -1292 286 -1782 606
l-114 74 58 50 c32 27 63 50 68 50 6 0 71 -36 145 -81z m4998 49 l12 -33 -20
25 c-21 27 -25 40 -12 40 4 0 13 -15 20 -32z m-5351 -242 c477 -328 1061 -556
1684 -655 119 -19 396 -47 544 -54 l70 -4 3 -139 c2 -80 -1 -155 -8 -176 -21
-73 -89 -128 -159 -128 -32 0 -91 43 -91 65 0 8 22 33 50 56 67 56 82 100 48
136 -25 27 -39 30 -198 43 -355 29 -699 105 -1095 240 -338 116 -716 313
-1003 525 -55 40 -62 48 -50 62 14 17 109 83 120 83 3 0 42 -24 85 -54z m1751
32 c7 -7 12 -24 12 -38 0 -30 -17 -50 -42 -50 -26 0 -34 44 -14 75 18 28 27
30 44 13z m1217 -12 c22 -33 11 -76 -20 -76 -25 0 -35 17 -35 59 0 48 29 57
55 17z m1791 5 c13 -10 20 -21 17 -25 -3 -3 1 -6 9 -6 9 0 21 -7 28 -15 11
-13 10 -15 -6 -9 -16 5 -16 4 -4 -5 8 -6 24 -11 35 -11 29 -1 -45 -65 -180
-154 -309 -204 -678 -378 -1030 -485 -99 -30 -401 -105 -460 -114 -16 -3 -70
-12 -120 -21 -49 -8 -155 -22 -235 -31 -211 -22 -230 -25 -230 -36 0 -5 -6 -9
-14 -9 -20 0 -26 -50 -10 -81 7 -15 33 -43 56 -62 39 -33 42 -38 33 -64 -8
-21 -21 -31 -53 -42 -53 -16 -82 -9 -128 31 -57 50 -64 78 -64 247 l0 149 38
6 c20 3 82 8 137 11 493 28 958 135 1390 320 215 92 526 261 701 383 33 23 61
41 62 41 2 1 15 -7 28 -18z"/>
<path d="M2083 2588 c-2 -16 1 -18 10 -9 7 7 8 14 1 21 -6 6 -10 2 -11 -12z"/>
<path d="M4526 7715 c-211 -185 -356 -424 -426 -701 -32 -128 -22 -128 25 0
76 203 223 460 353 613 31 38 59 70 62 73 32 32 83 90 78 90 -3 0 -44 -34 -92
-75z"/>
<path d="M5150 5969 c0 -5 5 -7 10 -4 6 3 10 8 10 11 0 2 -4 4 -10 4 -5 0 -10
-5 -10 -11z"/>
<path d="M6895 6290 c-3 -5 -2 -10 4 -10 5 0 13 5 16 10 3 6 2 10 -4 10 -5 0
-13 -4 -16 -10z"/>
<path d="M7037 6283 c-3 -5 -1 -17 3 -27 6 -17 7 -18 13 -3 4 10 1 17 -6 17
-8 0 -6 4 3 10 9 6 10 10 3 10 -6 0 -14 -3 -16 -7z"/>
<path d="M6790 6270 c0 -5 5 -10 10 -10 6 0 10 5 10 10 0 6 -4 10 -10 10 -5 0
-10 -4 -10 -10z"/>
<path d="M6940 6261 c0 -5 14 -16 30 -25 17 -8 30 -13 30 -11 0 2 3 11 6 20 5
13 2 15 -20 9 -16 -4 -26 -2 -26 5 0 6 -4 11 -10 11 -5 0 -10 -4 -10 -9z"/>
<path d="M6726 6245 c-19 -14 -18 -15 13 -15 29 0 32 2 21 15 -7 8 -13 15 -14
15 0 0 -10 -7 -20 -15z"/>
<path d="M6624 6235 c-18 -14 -17 -14 10 -5 20 7 32 7 42 -1 11 -9 14 -8 14 5
0 21 -39 21 -66 1z"/>
<path d="M6490 6220 c0 -5 5 -10 11 -10 5 0 7 5 4 10 -3 6 -8 10 -11 10 -2 0
-4 -4 -4 -10z"/>
<path d="M6538 6218 c7 -7 16 -7 28 0 14 8 13 10 -10 10 -18 0 -24 -4 -18 -10z"/>
<path d="M6445 6210 c3 -5 8 -10 11 -10 2 0 4 5 4 10 0 6 -5 10 -11 10 -5 0
-7 -4 -4 -10z"/>
<path d="M7126 6194 c-8 -20 8 -51 18 -35 4 6 2 11 -4 11 -7 0 -9 8 -5 20 8
24 0 27 -9 4z"/>
<path d="M5340 6159 c0 -5 5 -7 10 -4 6 3 10 8 10 11 0 2 -4 4 -10 4 -5 0 -10
-5 -10 -11z"/>
<path d="M5450 6101 c0 -11 4 -22 9 -25 5 -3 8 5 7 19 -1 29 -16 34 -16 6z"/>
<path d="M5400 6099 c0 -5 5 -7 10 -4 6 3 10 8 10 11 0 2 -4 4 -10 4 -5 0 -10
-5 -10 -11z"/>
<path d="M7172 6076 c-7 -16 -8 -26 -1 -26 12 0 22 25 17 41 -2 6 -9 0 -16
-15z"/>
<path d="M5821 6053 c-1 -7 -9 -13 -18 -13 -15 0 -16 -2 -3 -10 18 -11 35 2
27 22 -4 9 -6 10 -6 1z"/>
<path d="M6371 6040 c-235 -48 -374 -121 -428 -223 -11 -22 -18 -64 -21 -132
-4 -76 -8 -103 -21 -112 -13 -11 -11 -11 14 -3 107 33 685 136 878 156 50 5
67 10 63 20 -3 7 -10 32 -16 56 -29 104 -91 192 -165 231 -57 29 -181 32 -304
7z"/>
<path d="M5743 6035 c0 -8 4 -12 9 -9 4 3 8 9 8 15 0 5 -4 9 -8 9 -5 0 -9 -7
-9 -15z"/>
<path d="M5693 6019 c2 -21 7 -26 24 -25 23 1 33 16 12 16 -7 0 -18 8 -24 17
-12 16 -13 15 -12 -8z"/>
<path d="M7180 6024 c0 -8 5 -12 10 -9 6 3 10 10 10 16 0 5 -4 9 -10 9 -5 0
-10 -7 -10 -16z"/>
<path d="M5809 5503 c-13 -16 -12 -17 4 -4 9 7 17 15 17 17 0 8 -8 3 -21 -13z"/>
<path d="M4080 5341 c0 -6 4 -13 10 -16 6 -3 7 1 4 9 -7 18 -14 21 -14 7z"/>
<path d="M4106 5313 c-4 -10 -4 -14 0 -10 4 4 13 2 20 -4 9 -8 11 -5 7 10 -7
25 -19 27 -27 4z"/>
<path d="M4110 5270 c-9 -6 -10 -10 -3 -10 6 0 15 5 18 10 8 12 4 12 -15 0z"/>
<path d="M4025 5209 c-4 -6 -5 -12 -2 -15 2 -3 7 2 10 11 7 17 1 20 -8 4z"/>
<path d="M1840 5868 c0 -7 5 -20 10 -28 8 -12 10 -11 10 7 0 12 -4 25 -10 28
-5 3 -10 0 -10 -7z"/>
<path d="M1887 5833 c-6 -5 3 -16 36 -42 24 -19 21 -8 -7 22 -13 14 -26 23
-29 20z"/>
<path d="M2385 5640 c3 -5 8 -10 11 -10 2 0 4 5 4 10 0 6 -5 10 -11 10 -5 0
-7 -4 -4 -10z"/>
<path d="M2290 5610 c0 -5 6 -10 14 -10 8 0 23 -3 33 -6 16 -6 16 -5 -2 9 -23
19 -45 22 -45 7z"/>
<path d="M2388 5583 c6 -2 18 -2 25 0 6 3 1 5 -13 5 -14 0 -19 -2 -12 -5z"/>
<path d="M8681 5526 c-6 -14 -18 -26 -27 -26 -13 0 -14 -3 -5 -14 9 -11 29
-14 63 -7 7 1 -7 59 -16 69 -3 3 -10 -7 -15 -22z"/>
<path d="M8745 5540 c3 -5 8 -10 11 -10 2 0 4 5 4 10 0 6 -5 10 -11 10 -5 0
-7 -4 -4 -10z"/>
<path d="M8590 5520 c0 -5 5 -10 10 -10 6 0 10 5 10 10 0 6 -4 10 -10 10 -5 0
-10 -4 -10 -10z"/>
<path d="M8445 5490 c-3 -5 1 -10 10 -10 9 0 13 5 10 10 -3 6 -8 10 -10 10 -2
0 -7 -4 -10 -10z"/>
<path d="M8594 5489 c-3 -5 -1 -9 5 -9 12 0 46 -48 39 -55 -6 -6 -53 36 -62
56 -3 8 -4 4 -2 -8 2 -13 0 -23 -5 -23 -6 0 -9 -6 -8 -12 3 -27 -2 -38 -17
-38 -10 0 -14 6 -10 15 3 9 -3 19 -14 25 -17 9 -20 7 -20 -10 0 -11 -7 -20
-15 -20 -8 0 -15 7 -15 15 0 8 -7 15 -15 15 -18 0 -20 -16 -2 -24 9 -5 9 -7
-1 -12 -10 -5 -10 -9 -1 -20 9 -11 8 -14 -5 -14 -9 0 -16 8 -16 19 0 10 -7 22
-16 25 -14 5 -15 4 -4 -9 13 -16 7 -45 -10 -45 -5 0 -10 9 -10 20 0 13 -5 18
-15 14 -8 -4 -12 -10 -9 -16 3 -5 -2 -18 -12 -29 -10 -11 -12 -19 -6 -19 7 0
12 -7 12 -15 0 -18 -19 -20 -24 -2 -16 52 -15 51 -36 32 -15 -14 -23 -15 -34
-6 -8 7 -17 8 -20 3 -3 -6 1 -13 10 -16 17 -7 11 -41 -11 -65 -17 -18 -55 -5
-55 19 0 13 -5 18 -15 14 -11 -5 -13 -10 -5 -19 8 -9 7 -14 -2 -18 -10 -3 -10
-9 -2 -24 9 -15 8 -23 -2 -38 -19 -26 -18 -35 6 -35 11 0 20 -5 20 -11 0 -6
-8 -8 -17 -5 -13 4 -11 0 6 -14 35 -30 68 -25 177 30 257 128 354 191 384 249
23 45 29 108 7 80 -7 -9 -22 -19 -35 -23 -12 -4 -22 -11 -22 -16 0 -4 -9 -6
-20 -3 -11 3 -20 10 -20 17 0 15 -48 37 -56 25z m36 -88 c0 -6 -4 -13 -10 -16
-5 -3 -10 1 -10 9 0 9 5 16 10 16 6 0 10 -4 10 -9z m-114 -13 c5 -7 2 -9 -9
-5 -9 3 -18 1 -20 -6 -2 -7 -8 -8 -13 -4 -5 4 -2 12 6 17 20 13 27 12 36 -2z
m44 -24 c0 -2 -7 -4 -15 -4 -8 0 -15 4 -15 10 0 5 7 7 15 4 8 -4 15 -8 15 -10z
m-120 -14 c0 -5 -7 -10 -15 -10 -8 0 -15 5 -15 10 0 6 7 10 15 10 8 0 15 -4
15 -10z m60 0 c0 -5 -4 -10 -10 -10 -5 0 -10 5 -10 10 0 6 5 10 10 10 6 0 10
-4 10 -10z m-185 -47 c-8 -35 -9 -35 -29 -27 -17 7 -22 24 -6 24 6 0 10 7 10
15 0 8 7 15 16 15 13 0 15 -6 9 -27z m95 17 c0 -5 -4 -10 -10 -10 -5 0 -10 5
-10 10 0 6 5 10 10 10 6 0 10 -4 10 -10z m-210 -86 c0 -8 -5 -12 -10 -9 -6 4
-8 11 -5 16 9 14 15 11 15 -7z m65 -14 c-3 -5 -10 -10 -16 -10 -5 0 -9 5 -9
10 0 6 7 10 16 10 8 0 12 -4 9 -10z"/>
<path d="M8517 5484 c-3 -5 1 -15 9 -22 16 -14 18 -5 5 17 -5 7 -11 9 -14 5z"/>
<path d="M8310 5390 c0 -5 7 -10 16 -10 8 0 12 5 9 10 -3 6 -10 10 -16 10 -5
0 -9 -4 -9 -10z"/>
<path d="M8208 5313 c6 -2 12 -11 12 -19 0 -8 5 -14 10 -14 16 0 11 27 -6 34
-9 3 -19 6 -22 5 -4 0 -1 -3 6 -6z"/>
<path d="M8115 5260 c-3 -5 -2 -10 4 -10 5 0 13 5 16 10 3 6 2 10 -4 10 -5 0
-13 -4 -16 -10z"/>
<path d="M8130 5230 c0 -5 5 -10 10 -10 6 0 10 5 10 10 0 6 -4 10 -10 10 -5 0
-10 -4 -10 -10z"/>
<path d="M8135 5190 c3 -5 8 -10 11 -10 2 0 4 5 4 10 0 6 -5 10 -11 10 -5 0
-7 -4 -4 -10z"/>
<path d="M2745 5490 c-3 -5 -1 -10 4 -10 6 0 11 5 11 10 0 6 -2 10 -4 10 -3 0
-8 -4 -11 -10z"/>
<path d="M7460 5135 c7 -9 15 -13 17 -11 7 7 -7 26 -19 26 -6 0 -6 -6 2 -15z"/>
<path d="M6855 4870 c5 -8 19 -28 31 -45 12 -16 47 -92 78 -169 61 -152 79
-186 101 -186 27 0 48 47 42 92 -8 63 -81 200 -137 260 l-50 53 26 -47 c14
-27 23 -48 19 -48 -3 0 -31 24 -62 53 -31 28 -53 45 -48 37z"/>
<path d="M6710 4731 c0 -6 5 -13 10 -16 6 -3 10 1 10 9 0 9 -4 16 -10 16 -5 0
-10 -4 -10 -9z"/>
<path d="M6700 4695 c0 -2 8 -9 18 -14 14 -8 19 -6 19 5 0 7 -9 14 -19 14 -10
0 -18 -2 -18 -5z"/>
<path d="M6516 4562 c-3 -5 1 -9 9 -9 8 0 12 4 9 9 -3 4 -7 8 -9 8 -2 0 -6 -4
-9 -8z"/>
<path d="M4320 3126 c0 -2 7 -7 16 -10 8 -3 12 -2 9 4 -6 10 -25 14 -25 6z"/>
<path d="M5843 3185 c0 -8 4 -12 9 -9 5 3 6 10 3 15 -9 13 -12 11 -12 -6z"/>
<path d="M6715 2810 c-3 -5 -1 -10 4 -10 6 0 11 5 11 10 0 6 -2 10 -4 10 -3 0
-8 -4 -11 -10z"/>
<path d="M8037 2013 c-4 -3 -7 -13 -7 -22 1 -13 3 -13 11 2 11 19 8 33 -4 20z"/>
<path d="M2400 2000 c0 -5 5 -10 11 -10 5 0 7 5 4 10 -3 6 -8 10 -11 10 -2 0
-4 -4 -4 -10z"/>
<path d="M2217 1881 c3 -12 9 -21 14 -21 14 0 11 16 -5 29 -12 10 -13 8 -9 -8z"/>
<path d="M2139 1683 c-13 -16 -12 -17 4 -4 9 7 17 15 17 17 0 8 -8 3 -21 -13z"/>
<path d="M8181 1914 c0 -11 3 -14 6 -6 3 7 2 16 -1 19 -3 4 -6 -2 -5 -13z"/>
<path d="M8155 1890 c3 -5 14 -10 23 -10 15 0 15 2 2 10 -20 13 -33 13 -25 0z"/>
<path d="M8260 1840 c0 -5 5 -10 10 -10 6 0 10 5 10 10 0 6 -4 10 -10 10 -5 0
-10 -4 -10 -10z"/>
</g>
</svg>
