<?xml version="1.0" standalone="no"?>
<!DOCTYPE svg PUBLIC "-//W3C//DTD SVG 20010904//EN"
 "http://www.w3.org/TR/2001/REC-SVG-20010904/DTD/svg10.dtd">
<svg version="1.0" xmlns="http://www.w3.org/2000/svg"
 width="1024.000000pt" height="1024.000000pt" viewBox="0 0 1024.000000 1024.000000"
 preserveAspectRatio="xMidYMid meet">

<g transform="translate(0.000000,1024.000000) scale(0.100000,-0.100000)"
fill="#000000" stroke="none">
<path d="M4968 9585 c-2 -2 -64 -5 -138 -8 -207 -10 -443 -41 -647 -88 -44
-10 -96 -21 -115 -24 -50 -8 -393 -107 -458 -132 -8 -3 -19 -7 -25 -9 -17 -4
-239 -94 -270 -109 -206 -99 -389 -192 -470 -239 -163 -96 -184 -110 -185
-122 0 -6 -6 -11 -13 -11 -8 0 -35 -15 -61 -34 -27 -19 -56 -38 -65 -44 -9 -5
-35 -25 -58 -42 -23 -18 -46 -33 -52 -33 -5 0 -16 -8 -23 -17 -7 -10 -29 -29
-49 -43 -44 -30 -108 -83 -208 -171 -116 -102 -131 -117 -131 -134 0 -9 -4
-13 -10 -10 -5 3 -10 1 -10 -4 0 -6 -3 -10 -7 -9 -5 2 -10 -1 -12 -7 -3 -5
-26 -28 -53 -49 -26 -22 -48 -43 -48 -46 0 -4 -30 -37 -66 -73 -36 -37 -63
-71 -59 -77 3 -5 -2 -13 -12 -17 -19 -7 -23 -11 -85 -84 -65 -78 -98 -122 -98
-130 0 -5 -7 -9 -15 -9 -8 0 -15 -6 -15 -12 0 -7 -11 -26 -25 -42 -14 -16 -25
-32 -25 -35 0 -3 -13 -21 -29 -40 -16 -19 -35 -46 -42 -60 -17 -33 -62 -95
-72 -99 -4 -2 -5 -8 -1 -13 3 -5 0 -9 -5 -9 -6 0 -11 -5 -11 -12 0 -6 -11 -26
-25 -44 -14 -18 -25 -40 -25 -48 0 -9 -9 -21 -20 -28 -11 -7 -20 -17 -20 -22
0 -5 -13 -30 -29 -56 -16 -27 -27 -51 -24 -54 4 -3 2 -6 -4 -6 -6 0 -16 -15
-23 -32 -8 -18 -20 -41 -28 -50 -8 -9 -11 -21 -8 -27 4 -6 -2 -19 -14 -31 -11
-11 -20 -27 -20 -35 0 -8 -4 -15 -10 -15 -5 0 -10 -16 -10 -35 0 -29 -4 -35
-22 -36 -13 0 -17 -3 -10 -6 6 -2 12 -16 12 -30 0 -19 -4 -24 -16 -19 -13 5
-35 -28 -46 -71 -1 -5 -12 -28 -25 -52 -12 -25 -20 -48 -17 -53 3 -4 1 -8 -5
-8 -5 0 -13 -14 -16 -32 -4 -17 -15 -45 -25 -62 -9 -17 -15 -36 -13 -43 2 -6
-1 -14 -6 -18 -6 -3 -11 -15 -11 -25 0 -10 -3 -20 -8 -22 -10 -4 -88 -255 -97
-312 -2 -15 -10 -35 -16 -42 -7 -8 -9 -17 -6 -21 4 -3 2 -12 -4 -20 -6 -7 -9
-13 -6 -13 3 0 1 -15 -4 -32 -6 -18 -12 -44 -15 -58 -3 -13 -12 -55 -20 -93
-8 -38 -12 -73 -8 -78 3 -5 1 -9 -3 -9 -5 0 -9 -8 -9 -17 -2 -31 -15 -127 -23
-163 -4 -19 -6 -52 -5 -72 1 -21 -1 -38 -5 -38 -4 0 -8 -6 -8 -12 -1 -43 -14
-197 -19 -220 -3 -14 0 -29 5 -33 8 -4 8 -12 1 -25 -15 -29 -4 -514 15 -665 3
-22 8 -58 11 -80 2 -22 7 -56 9 -75 2 -19 6 -44 8 -55 3 -11 7 -36 11 -55 3
-19 8 -44 10 -55 2 -11 7 -42 11 -70 8 -59 15 -73 55 -117 34 -37 37 -54 15
-85 -15 -22 -11 -58 18 -158 2 -5 7 -26 11 -45 5 -19 12 -40 18 -46 5 -7 8
-16 7 -20 -1 -5 0 -16 3 -24 4 -8 13 -38 22 -67 9 -28 21 -64 27 -80 7 -15 13
-35 15 -43 2 -8 8 -16 14 -18 5 -2 8 -7 5 -11 -4 -8 74 -200 112 -276 12 -22
20 -43 19 -46 0 -3 7 -13 17 -23 9 -10 15 -21 12 -26 -3 -4 2 -13 10 -20 8 -7
13 -16 10 -20 -3 -4 2 -11 11 -14 9 -3 14 -13 11 -20 -3 -8 2 -25 12 -38 9
-13 30 -48 45 -78 65 -129 202 -359 226 -380 3 -3 21 -29 39 -58 25 -39 36
-50 43 -40 7 10 8 9 6 -4 -3 -18 84 -148 135 -201 15 -16 27 -32 27 -35 1 -4
21 -29 45 -56 28 -31 49 -47 58 -43 8 3 23 -3 33 -14 9 -10 14 -19 9 -19 -4 0
-13 7 -20 17 -7 9 -15 12 -18 7 -3 -6 11 -28 32 -49 20 -22 40 -48 44 -58 3
-9 18 -22 32 -29 14 -6 25 -18 26 -27 1 -21 117 -124 130 -115 6 4 4 16 -7 32
-16 25 -128 156 -164 192 -29 29 -62 82 -55 88 4 4 11 -1 16 -11 6 -9 33 -42
62 -73 81 -88 155 -185 166 -216 6 -18 7 -26 1 -23 -6 4 -10 -1 -10 -10 0 -8
8 -19 17 -22 10 -4 29 -20 43 -35 13 -15 28 -28 31 -28 4 0 21 -14 38 -31 18
-17 36 -27 42 -23 7 4 9 3 6 -3 -8 -12 109 -107 121 -99 5 3 14 -5 20 -18 6
-13 29 -34 51 -47 23 -12 41 -27 41 -32 0 -5 7 -7 15 -3 8 3 14 2 12 -3 -4
-16 63 -63 80 -56 10 3 15 3 11 0 -8 -8 51 -65 67 -65 6 0 21 -9 32 -20 61
-56 464 -278 471 -259 6 16 22 10 22 -8 0 -13 37 -34 142 -78 79 -33 163 -67
188 -76 201 -72 286 -101 341 -114 35 -9 72 -18 82 -20 9 -3 25 -7 35 -9 9 -2
37 -11 62 -20 26 -9 46 -11 48 -6 2 5 10 3 19 -5 8 -8 24 -16 36 -16 41 -3 62
-6 87 -14 14 -5 34 -10 45 -12 11 -1 43 -7 70 -12 28 -5 64 -12 80 -15 17 -3
50 -8 75 -10 25 -3 59 -8 76 -10 17 -3 60 -8 95 -11 35 -4 84 -9 109 -12 25
-3 173 -7 330 -10 284 -5 491 5 660 33 19 3 49 7 65 9 17 2 62 8 100 14 39 5
93 13 120 16 28 4 88 16 135 27 47 11 93 22 102 23 42 9 261 68 338 93 80 25
93 33 104 57 3 6 8 5 13 -2 7 -10 28 -6 88 16 190 68 519 218 628 287 23 14
96 59 161 99 66 40 132 84 148 97 16 12 32 23 36 23 5 0 16 8 26 17 10 10 21
18 25 18 5 0 21 12 36 28 15 15 30 27 34 27 10 0 161 119 206 161 22 21 43 38
47 39 8 0 120 109 273 265 181 186 200 208 383 450 31 41 60 77 65 78 4 2 7 8
7 13 0 5 26 49 59 97 69 103 133 206 174 282 64 119 147 287 147 299 0 7 9 24
20 38 11 14 20 32 20 40 0 15 21 68 46 115 8 14 14 35 14 46 0 12 5 24 10 27
6 4 8 11 5 16 -4 5 -1 9 5 9 7 0 10 6 7 14 -3 7 1 23 10 35 14 21 10 29 -65
144 -43 67 -96 151 -117 187 -38 63 -136 202 -161 228 -20 20 -120 164 -137
199 -9 17 -19 48 -22 70 -6 44 -7 234 -1 278 2 17 7 61 11 99 9 91 36 165 87
239 42 63 103 186 95 193 -2 3 -28 -24 -58 -58 -81 -97 -83 -98 -75 -65 6 26
48 97 108 183 37 53 46 129 52 412 3 172 1 232 -7 232 -8 0 -9 3 -1 8 5 4 11
30 12 57 l2 50 -16 -30 c-9 -16 -22 -37 -29 -45 -7 -8 -24 -35 -37 -60 -14
-25 -60 -103 -103 -175 -104 -172 -129 -244 -122 -347 3 -43 8 -82 11 -87 3
-5 17 -51 32 -102 14 -52 32 -115 39 -141 12 -45 11 -88 -4 -88 -4 0 -15 14
-26 32 -38 66 -148 178 -287 297 -49 41 -88 78 -88 82 0 14 -99 157 -126 183
-57 54 -109 70 -265 81 -46 3 -91 8 -100 11 -28 8 -359 14 -359 6 1 -4 40 -33
88 -65 48 -32 128 -87 177 -122 88 -63 159 -102 200 -110 11 -2 21 -4 23 -6 1
-1 5 -2 10 -3 62 -15 80 -19 97 -22 101 -16 239 -59 299 -95 20 -12 39 -19 42
-17 6 6 59 -39 149 -127 85 -83 135 -164 135 -217 0 -47 -12 -48 -39 -4 -31
50 -173 181 -249 230 -98 64 -153 77 -297 71 -128 -4 -180 -10 -217 -24 -13
-4 -29 -6 -35 -4 -33 12 -8 -9 40 -33 28 -15 64 -35 78 -45 14 -10 29 -16 33
-12 3 3 6 2 6 -4 0 -10 34 -30 135 -82 18 -9 64 -16 115 -18 130 -4 201 -11
214 -22 6 -5 16 -10 21 -11 54 -8 153 -101 171 -161 6 -19 10 -52 8 -74 -1
-22 -2 -69 -3 -104 -1 -40 -5 -61 -10 -55 -5 5 -28 55 -50 112 -72 184 -105
208 -283 215 -32 2 -58 0 -58 -3 1 -3 23 -45 49 -95 60 -111 102 -153 210
-212 108 -60 124 -75 151 -153 12 -36 37 -91 55 -122 56 -96 22 -85 -101 32
-102 98 -141 114 -255 107 -46 -3 -96 -7 -111 -10 -16 -2 -28 0 -28 5 0 5 -4
7 -9 4 -5 -3 -19 2 -32 12 -13 10 -54 31 -91 46 -61 25 -68 31 -68 56 0 25 -4
29 -40 35 -21 4 -44 4 -49 0 -18 -10 -210 94 -293 159 -14 12 -40 32 -58 46
-163 124 -383 408 -487 630 -36 75 -34 79 25 102 47 18 65 39 44 52 -5 3 -33
-1 -63 -9 -30 -8 -54 -15 -55 -15 0 0 -9 27 -19 60 -10 33 -21 60 -24 60 -3 0
-14 -6 -23 -14 -15 -11 -16 -17 -3 -59 8 -26 10 -49 5 -52 -15 -9 -320 -53
-415 -60 -49 -4 -115 -8 -145 -11 -78 -5 -374 -6 -445 0 -33 3 -98 8 -145 11
-205 14 -544 73 -810 140 -80 20 -155 39 -167 42 -29 7 -29 22 3 90 22 45 24
57 13 64 -26 16 -36 9 -59 -46 -13 -30 -26 -55 -30 -55 -4 0 -14 23 -22 52
-15 54 -24 63 -47 49 -11 -7 -11 -17 4 -60 9 -29 15 -54 13 -56 -2 -2 -34 5
-72 16 -74 22 -96 20 -96 -10 0 -15 13 -23 58 -36 100 -28 113 -35 106 -58 -4
-11 -29 -63 -56 -116 -28 -53 -59 -112 -68 -131 -41 -79 -224 -355 -245 -368
-6 -4 -16 -15 -21 -24 -16 -29 -87 -110 -153 -174 -123 -120 -367 -284 -423
-284 -51 0 -84 -21 -80 -52 1 -17 -3 -28 -15 -31 -10 -4 -56 -34 -103 -67 -47
-34 -116 -80 -155 -102 -38 -23 -79 -47 -91 -55 -21 -13 -21 -12 -23 55 -1 61
1 71 25 97 25 27 26 32 20 104 -5 49 -14 87 -28 109 -17 27 -20 49 -20 120 1
53 -4 92 -11 101 -10 12 -9 13 1 7 10 -6 13 -3 10 10 -2 11 -10 18 -17 16 -7
-1 -9 2 -5 9 3 6 0 15 -7 20 -11 7 -11 9 3 9 9 0 19 -6 21 -12 4 -9 6 -10 6
-1 1 6 -6 18 -14 26 -10 10 -11 17 -4 19 6 2 12 17 14 33 2 17 8 42 14 57 24
61 -9 78 -224 114 -126 21 -625 14 -735 -10 -114 -26 -152 -64 -116 -118 12
-19 15 -56 13 -198 -2 -160 -4 -177 -24 -205 -15 -22 -23 -51 -27 -107 -5 -72
-4 -79 20 -107 22 -27 26 -42 30 -126 4 -86 2 -99 -16 -122 -25 -32 -25 -62
-1 -105 17 -29 19 -56 20 -231 2 -185 0 -200 -19 -224 -25 -32 -25 -49 0 -98
18 -36 20 -59 20 -297 0 -142 -3 -258 -7 -258 -11 0 -33 -50 -33 -75 0 -34 26
-61 82 -85 132 -57 210 -65 588 -64 151 1 455 2 675 3 220 0 445 5 500 11 55
6 125 12 155 15 50 4 95 11 95 15 0 1 13 3 29 5 16 2 32 9 36 16 5 7 10 7 14
1 6 -11 76 17 76 30 0 5 -8 12 -17 15 -10 4 -21 11 -25 17 -5 7 -8 6 -8 -3 0
-11 -4 -9 -15 5 -8 10 -15 15 -15 10 0 -5 -6 -4 -12 1 -7 6 -29 13 -48 17 -19
3 -46 8 -60 11 -39 8 -131 19 -255 30 -33 3 -78 7 -100 9 -22 2 -103 7 -180
11 -77 4 -143 9 -147 12 -5 2 -8 67 -8 143 0 124 -2 139 -16 133 -14 -5 -14
-3 -2 16 12 20 10 24 -12 41 -34 26 -96 40 -174 40 l-66 0 0 79 c0 58 4 82 15
91 19 16 19 77 0 110 -8 14 -14 47 -15 74 0 48 1 49 108 161 102 106 254 285
280 330 11 19 11 19 13 -5 1 -14 2 -29 4 -35 1 -5 3 -115 3 -243 l2 -234 78
42 c93 50 152 94 280 208 137 121 324 338 402 467 13 22 30 46 37 53 6 7 40
70 76 140 53 106 71 145 92 202 2 5 10 27 37 93 6 15 12 26 14 24 5 -5 -41
-140 -67 -195 -11 -24 -27 -62 -36 -85 -9 -23 -25 -54 -35 -69 -10 -14 -18
-32 -18 -40 0 -8 -4 -18 -9 -23 -5 -6 -19 -27 -30 -47 -54 -97 -66 -117 -105
-173 -22 -33 -49 -69 -59 -80 -11 -11 -32 -38 -47 -60 -30 -43 -214 -225 -265
-262 -79 -59 -236 -161 -287 -188 l-58 -30 0 -309 c0 -282 1 -308 16 -302 14
5 15 4 4 -9 -26 -32 -3 -23 43 16 26 22 47 47 47 55 0 9 5 12 10 9 6 -3 10 -1
10 5 0 6 4 9 8 6 11 -7 202 200 202 218 0 5 10 20 21 32 12 13 27 32 33 43 6
10 29 45 51 77 22 32 45 66 50 75 6 9 53 81 105 160 53 79 106 161 119 182 26
42 35 48 22 15 -44 -115 -155 -336 -219 -438 -59 -93 -184 -283 -193 -294 -5
-6 -34 -42 -64 -80 -31 -37 -65 -76 -78 -87 -41 -34 -3 -19 43 17 40 32 78 69
170 169 101 110 332 509 425 735 14 36 32 79 40 95 31 69 98 260 125 360 5 17
18 64 30 105 12 41 28 102 35 135 11 52 13 -7 12 -459 l-2 -520 -82 -24 c-136
-41 -101 -51 87 -26 43 6 170 59 170 71 0 3 -24 3 -54 -1 l-53 -6 -1 523 0
522 34 -185 c19 -102 36 -201 40 -220 3 -19 10 -55 16 -80 5 -25 12 -55 14
-68 2 -12 16 -64 30 -115 14 -50 34 -126 45 -167 11 -41 29 -95 38 -120 56
-139 111 -287 111 -295 0 -15 -138 -55 -188 -55 -23 0 -84 4 -135 10 -51 5
-117 11 -147 14 -30 3 -97 10 -147 17 -65 8 -97 8 -105 1 -9 -7 -12 -37 -11
-94 0 -45 2 -161 2 -255 l1 -173 26 0 c21 0 25 4 21 20 -3 13 0 20 9 20 8 0
14 -8 14 -19 0 -34 14 -39 155 -56 66 -9 162 -18 193 -19 17 0 32 -4 32 -9 0
-4 16 -6 35 -4 19 3 35 1 35 -2 0 -12 64 -10 72 2 5 8 8 5 8 -8 0 -17 2 -17
10 -5 6 10 10 11 10 3 0 -8 14 -13 39 -13 l38 0 -24 103 c-33 142 -43 188 -48
220 -2 15 -12 54 -21 86 -17 62 -16 86 1 73 15 -10 66 -180 105 -347 19 -77
35 -142 37 -145 2 -2 8 2 13 10 8 12 10 12 10 -4 0 -15 3 -16 14 -7 11 9 15 9
18 -1 4 -10 8 -10 22 1 14 12 16 12 10 -2 -4 -12 1 -15 23 -13 15 1 34 5 41
10 7 4 12 4 11 -1 -4 -22 2 -25 16 -7 15 18 15 18 8 0 -5 -16 -3 -18 15 -14
14 4 20 2 16 -4 -4 -6 1 -8 15 -3 13 4 21 2 21 -5 0 -6 6 -10 13 -9 6 2 38 -3
69 -10 32 -7 62 -10 68 -6 5 3 10 1 10 -4 0 -6 10 -11 23 -11 18 0 19 2 7 11
-12 9 -12 10 3 5 10 -3 21 -6 23 -6 3 0 2 -4 -1 -10 -3 -5 -2 -10 4 -10 18 0
24 23 8 32 -95 53 -353 451 -478 738 -43 98 -139 354 -139 367 1 5 26 -41 56
-102 173 -339 477 -708 730 -885 l36 -25 -4 -77 c-2 -49 1 -77 7 -75 6 2 11
260 13 722 2 396 5 721 6 723 2 2 13 -25 25 -59 21 -61 21 -78 21 -725 l0
-662 85 2 c47 0 85 -1 85 -4 0 -3 57 -4 127 -3 71 0 128 2 128 2 0 2 347 11
438 12 20 0 37 4 37 9 0 4 9 6 20 3 12 -3 29 2 40 12 25 23 109 45 135 35 11
-4 76 -7 145 -8 110 0 119 1 73 10 -32 6 -53 15 -53 22 0 8 9 35 21 61 11 25
19 48 17 51 -3 2 -26 -25 -52 -61 -26 -36 -52 -65 -57 -65 -11 0 -12 -3 7 59
18 62 68 147 94 161 39 21 121 -35 135 -91 12 -49 28 -52 35 -7 3 20 11 33 20
33 13 0 15 -32 12 -241 l-4 -241 24 -6 c46 -13 48 -10 48 61 0 37 3 84 6 104
l7 38 65 0 c82 0 72 18 -11 22 l-57 2 0 103 c0 86 3 103 15 103 17 0 58 -14
255 -90 111 -42 146 -51 198 -51 35 0 66 2 69 4 2 3 -63 31 -144 62 -81 32
-185 74 -231 93 l-83 36 6 36 c6 36 6 36 -37 45 -27 7 -43 15 -43 25 0 12 12
14 59 12 32 -1 63 -5 68 -8 4 -3 8 1 8 8 0 8 3 9 8 3 11 -16 44 -18 53 -3 5 7
9 8 9 2 0 -7 24 -10 65 -10 36 1 65 -2 65 -6 0 -4 17 -7 38 -6 20 1 64 -1 97
-6 106 -14 147 -17 280 -23 137 -6 168 2 49 13 -38 3 -77 6 -86 6 -10 -1 -18
3 -18 8 0 5 25 49 56 97 109 168 208 339 256 443 57 121 137 314 141 338 1 10
5 22 8 27 8 13 45 140 54 182 5 24 3 33 -7 34 -7 1 -22 3 -33 5 -108 18 -105
18 -105 -4 0 -11 -5 -33 -12 -49 -6 -15 -12 -30 -12 -33 -1 -3 -5 -11 -10 -18
-4 -7 -5 -16 -2 -19 3 -3 2 -11 -2 -17 -5 -6 -19 -40 -31 -76 -13 -36 -31 -83
-41 -105 -45 -103 -84 -184 -105 -225 -14 -25 -37 -68 -51 -97 l-27 -51 -46 4
c-25 2 -71 6 -102 9 -30 3 -77 6 -103 7 l-47 1 2 134 c0 74 0 136 -2 138 -2 2
-1 61 3 132 10 207 9 353 -2 353 -7 0 -7 6 0 19 5 11 10 66 10 123 0 57 3 113
6 125 6 21 8 21 34 8 55 -28 130 -53 136 -44 3 5 10 9 16 9 7 0 6 -5 -1 -14
-10 -12 -6 -19 22 -38 19 -13 76 -51 127 -85 50 -35 108 -67 129 -73 39 -10
195 -38 221 -38 8 -1 37 -6 63 -12 37 -9 51 -9 62 0 12 10 15 9 15 -6 0 -19
64 -94 80 -94 4 0 11 6 14 13 4 8 5 7 4 -3 -2 -21 13 -51 22 -45 10 6 -43
-197 -65 -249 -9 -21 -14 -45 -11 -53 3 -7 -1 -16 -9 -19 -8 -4 -20 -25 -26
-47 -10 -38 -23 -70 -69 -172 -10 -22 -30 -67 -45 -100 -43 -96 -120 -245
-161 -310 -13 -22 -32 -56 -42 -75 -9 -19 -19 -37 -22 -40 -14 -14 -50 -70
-50 -78 0 -4 -8 -17 -18 -28 -26 -29 -135 -173 -149 -197 -6 -12 -24 -34 -39
-49 -14 -16 -38 -45 -51 -66 -14 -20 -32 -41 -39 -45 -8 -4 -21 -22 -30 -38
-8 -17 -18 -28 -22 -25 -3 4 -11 -3 -17 -14 -13 -25 -298 -314 -342 -347 -16
-12 -41 -33 -55 -45 -38 -33 -162 -131 -241 -189 -37 -28 -65 -54 -62 -59 8
-12 -23 -70 -36 -70 -8 0 -8 -4 0 -14 7 -8 8 -17 3 -20 -6 -3 -17 5 -25 17
-17 27 -47 31 -48 8 0 -12 -2 -12 -8 3 -7 17 -9 16 -24 -8 -10 -14 -26 -26
-37 -26 -11 0 -20 -5 -20 -12 0 -6 -3 -9 -6 -5 -3 3 -35 -12 -70 -34 -35 -21
-68 -39 -73 -39 -5 0 -11 -3 -13 -7 -6 -16 -317 -163 -342 -163 -9 0 -16 -4
-16 -9 0 -5 -10 -11 -22 -14 -13 -2 -61 -19 -108 -36 -136 -51 -278 -97 -384
-126 -55 -14 -103 -28 -106 -30 -10 -6 -400 -84 -457 -91 -26 -3 -59 -7 -73
-9 -31 -4 -143 -14 -230 -20 -66 -5 -575 -5 -640 0 -53 4 -282 32 -410 50 -63
8 -233 44 -310 64 -41 11 -86 22 -100 25 -14 2 -70 18 -125 36 -55 17 -111 33
-124 36 -13 3 -40 12 -60 20 -20 9 -77 31 -127 49 -50 18 -131 52 -180 75 -49
23 -94 43 -100 44 -7 1 -18 7 -25 12 -8 6 -48 27 -89 47 -78 38 -167 87 -210
116 -14 9 -38 23 -55 31 -31 16 -36 18 -74 50 -13 11 -27 17 -32 15 -4 -3 -22
8 -39 25 -18 18 -38 29 -47 26 -8 -3 -12 -2 -9 2 9 16 -80 81 -102 75 -16 -4
-20 -1 -16 14 3 12 -7 26 -34 45 -69 48 -230 190 -262 231 -14 18 -30 27 -44
25 -13 -2 -20 2 -18 10 3 15 -23 44 -32 35 -3 -4 -6 0 -6 8 0 8 -8 22 -17 30
-10 9 -26 26 -35 38 -19 22 -38 28 -38 10 0 -5 -5 -7 -10 -4 -6 4 -8 15 -5 24
5 18 -14 48 -70 107 -48 51 -85 94 -85 100 0 6 -20 30 -43 52 -9 9 -17 22 -17
29 0 7 -3 13 -8 13 -4 0 -23 24 -41 53 -19 28 -58 84 -86 122 -28 39 -64 93
-80 120 -15 28 -31 52 -34 55 -3 3 -14 21 -25 40 -10 19 -43 80 -74 135 -60
108 -154 302 -197 405 -40 98 -111 290 -125 335 -6 22 -14 47 -17 55 -9 24
-13 43 -15 73 0 15 -4 27 -8 27 -7 0 -18 38 -40 133 -5 23 -16 71 -24 107 -8
36 -18 81 -21 100 -3 19 -11 38 -18 42 -9 6 -9 8 1 8 9 0 10 5 4 17 -5 10 -15
61 -21 113 -7 52 -14 109 -17 125 -3 17 -8 100 -11 185 -3 85 -10 161 -15 168
-7 8 -7 12 0 12 7 0 11 64 12 193 0 105 2 203 4 217 2 14 7 52 11 85 4 33 11
65 15 70 3 6 7 21 8 35 1 26 20 151 27 185 2 11 7 35 9 53 3 17 7 42 10 55 2
12 7 40 11 62 24 133 108 419 174 588 6 15 8 27 4 27 -3 0 2 9 11 19 10 11 16
26 14 33 -3 7 3 24 13 37 11 13 19 29 19 36 0 7 41 96 91 197 116 231 124 245
144 268 9 10 15 27 13 37 -2 11 5 22 17 28 11 6 21 19 23 30 2 11 12 29 22 40
9 11 52 72 95 135 43 63 122 172 176 241 55 70 99 132 99 138 0 6 -11 8 -30 5
-23 -5 -30 -3 -30 9 0 20 22 35 28 19 2 -7 14 -12 28 -12 17 0 72 49 211 188
103 104 196 191 206 195 13 5 17 13 13 29 -3 13 -3 17 0 10 9 -20 67 26 61 49
-3 12 0 16 9 12 8 -3 11 -10 7 -17 -4 -6 1 -5 10 3 9 7 14 18 10 24 -3 5 -2 7
4 4 5 -4 19 2 29 11 10 10 22 19 26 20 16 4 128 96 128 104 0 5 4 7 9 4 5 -3
14 1 21 9 7 9 27 22 44 30 18 9 47 29 65 45 18 17 38 30 46 30 7 0 15 3 17 8
13 29 398 231 633 332 176 75 589 202 760 234 11 2 61 11 110 21 102 19 106
19 230 34 82 10 311 29 360 30 60 2 180 0 250 -5 341 -21 518 -42 733 -89 39
-9 82 -18 95 -19 12 -2 29 -6 37 -9 8 -3 62 -20 120 -37 245 -75 426 -138 515
-180 22 -10 67 -30 100 -45 141 -62 262 -127 500 -270 62 -37 180 -119 213
-147 18 -15 39 -28 47 -28 8 0 15 -4 15 -10 0 -5 17 -22 39 -38 40 -29 119
-95 179 -150 20 -18 42 -30 49 -28 7 3 13 -1 13 -9 0 -8 14 -27 31 -42 75 -67
257 -260 373 -396 22 -25 44 -43 49 -40 6 3 7 1 3 -6 -5 -7 8 -31 30 -59 43
-53 55 -63 66 -56 4 3 8 -6 8 -19 0 -14 9 -35 20 -48 l19 -24 1 23 c0 13 -4
21 -9 17 -10 -6 -16 19 -26 118 -4 31 -12 63 -18 70 -13 14 -60 108 -55 112
14 11 51 25 55 21 6 -5 17 -66 29 -145 2 -19 10 -41 16 -49 9 -10 8 -16 -3
-23 -12 -7 -11 -9 3 -9 9 0 20 -5 24 -12 4 -7 3 -8 -4 -4 -15 9 -15 -9 0 -37
15 -29 16 -87 1 -87 -8 0 -5 -12 8 -35 12 -19 24 -33 28 -30 4 2 8 -2 8 -9 0
-7 13 -32 30 -57 17 -24 59 -91 93 -149 35 -58 67 -108 72 -111 6 -3 9 -9 8
-13 -2 -12 63 -136 71 -136 5 0 9 -5 9 -12 0 -6 31 -82 69 -168 71 -158 83
-188 129 -317 15 -43 30 -70 36 -66 6 3 6 0 -1 -7 -12 -13 1 -57 21 -71 5 -4
5 -12 1 -18 -4 -7 -2 -17 3 -24 5 -7 15 -37 22 -67 7 -30 15 -62 18 -70 3 -8
6 -19 7 -25 1 -8 5 -28 21 -97 1 -5 2 -9 4 -10 1 -2 3 -12 5 -23 2 -11 8 -34
13 -52 6 -17 8 -34 5 -37 -3 -2 -1 -11 3 -18 9 -14 13 -37 17 -85 1 -18 5 -33
9 -33 4 0 7 -8 6 -17 0 -10 3 -47 7 -83 29 -280 35 -538 21 -815 -12 -245 -14
-266 -38 -375 -6 -30 -12 -62 -13 -70 -2 -14 -4 -25 -26 -115 -5 -22 -11 -51
-14 -65 -2 -14 -10 -46 -16 -71 -7 -26 -9 -57 -6 -71 7 -27 175 -292 227 -358
29 -36 36 -41 39 -25 2 11 10 29 18 41 8 12 13 28 12 36 -1 7 3 27 10 43 29
69 108 385 126 500 2 17 9 50 15 75 5 25 11 70 12 100 2 30 7 58 11 61 14 10
37 360 37 569 0 201 -17 510 -29 510 -3 0 -7 15 -7 33 -2 52 -14 171 -19 187
-2 8 -16 76 -30 150 -14 74 -32 160 -40 190 -9 30 -17 61 -19 68 -1 8 -9 18
-17 23 -10 6 -10 9 -1 9 8 0 9 5 3 18 -15 29 -55 166 -52 180 1 6 -2 12 -7 12
-6 0 -13 15 -16 33 -12 58 -124 322 -136 319 -6 -1 -9 2 -5 8 8 13 -16 80 -28
80 -5 0 -7 6 -4 14 3 8 -1 20 -9 26 -8 7 -14 19 -14 26 0 8 -4 14 -10 14 -5 0
-10 11 -10 24 0 13 -7 26 -15 30 -8 3 -15 1 -15 -4 0 -6 -4 -10 -10 -10 -5 0
-10 10 -10 23 0 13 -5 28 -12 35 -9 9 -9 12 0 12 7 0 12 -5 12 -11 0 -5 5 -7
10 -4 6 4 5 12 -4 21 -8 8 -20 30 -27 49 -7 19 -17 35 -22 35 -4 0 -5 5 -2 10
3 6 -1 13 -9 16 -9 3 -14 10 -11 14 3 5 0 14 -7 22 -7 7 -14 20 -16 28 -2 8
-8 17 -13 18 -5 2 -9 9 -9 16 0 7 -8 21 -17 32 -10 10 -25 33 -33 49 -18 38
-69 114 -92 139 -10 11 -18 25 -18 31 0 6 -9 17 -19 24 -11 8 -17 20 -14 28 3
7 0 13 -6 13 -6 0 -11 7 -11 15 0 7 -8 19 -17 24 -10 6 -14 11 -9 11 5 0 3 7
-4 15 -7 8 -17 12 -23 8 -6 -4 -8 0 -4 10 3 9 -5 27 -21 44 -15 15 -27 33 -27
38 -1 6 -6 9 -13 8 -7 -2 -12 4 -12 12 0 8 -4 15 -10 15 -5 0 -10 6 -10 14 0
8 -7 16 -15 20 -8 3 -14 10 -13 15 4 14 -94 139 -114 146 -10 4 -18 12 -18 19
0 7 -16 27 -36 44 -20 18 -34 32 -31 32 7 0 -88 104 -162 177 -29 29 -58 53
-62 53 -5 0 -9 4 -9 10 0 10 -95 102 -112 109 -5 2 -24 17 -42 35 -77 76 -250
208 -260 199 -3 -4 -6 1 -6 10 0 8 -8 18 -18 21 -10 4 -27 14 -38 24 -37 35
-316 212 -334 212 -4 0 -13 7 -20 15 -7 8 -16 12 -21 10 -4 -3 -11 1 -16 8
-12 21 -398 207 -578 280 -88 35 -205 78 -260 95 -90 28 -390 108 -440 118
-11 2 -54 11 -95 19 -70 14 -221 39 -300 49 -112 15 -301 27 -487 30 -117 1
-214 2 -215 1z m1809 -471 c-3 -3 -12 -4 -19 -1 -8 3 -5 6 6 6 11 1 17 -2 13
-5z m3 -23 c0 -6 -4 -13 -10 -16 -5 -3 -10 1 -10 9 0 9 5 16 10 16 6 0 10 -4
10 -9z m321 -184 c-10 -9 -11 -8 -5 6 3 10 9 15 12 12 3 -3 0 -11 -7 -18z
m-4717 -303 c3 -8 2 -12 -4 -9 -6 3 -10 10 -10 16 0 14 7 11 14 -7z m-54 -39
c0 -8 -2 -15 -4 -15 -2 0 -6 7 -10 15 -3 8 -1 15 4 15 6 0 10 -7 10 -15z m280
-95 c0 -5 -4 -10 -10 -10 -5 0 -10 5 -10 10 0 6 5 10 10 10 6 0 10 -4 10 -10z
m5730 -300 c0 -5 -2 -10 -4 -10 -3 0 -8 5 -11 10 -3 6 -1 10 4 10 6 0 11 -4
11 -10z m-6530 -470 c0 -4 -7 -11 -16 -14 -13 -5 -14 -4 -6 7 7 8 8 18 4 22
-4 5 -1 5 6 1 6 -4 12 -11 12 -16z m-40 -14 c0 -2 -7 -7 -16 -10 -8 -3 -12 -2
-9 4 6 10 25 14 25 6z m6807 -248 c-3 -8 -6 -5 -6 6 -1 11 2 17 5 13 3 -3 4
-12 1 -19z m53 -40 c7 -18 30 -55 50 -83 20 -27 43 -63 50 -80 8 -16 17 -32
20 -35 3 -3 31 -57 63 -120 32 -63 52 -107 43 -96 -22 28 -176 301 -176 314 0
6 -4 12 -8 14 -13 5 -59 72 -67 96 -10 34 11 26 25 -10z m605 -708 c3 -5 -1
-10 -9 -10 -9 0 -16 5 -16 10 0 6 4 10 9 10 6 0 13 -4 16 -10z m65 -90 c0 -5
-5 -10 -11 -10 -5 0 -7 5 -4 10 3 6 8 10 11 10 2 0 4 -4 4 -10z m124 -266 c3
-8 2 -12 -4 -9 -6 3 -10 10 -10 16 0 14 7 11 14 -7z m-8440 -46 c-4 -6 -10 -5
-15 3 -14 22 -10 33 6 19 8 -7 12 -17 9 -22z m-13 -262 c-1 -58 -6 -117 -12
-133 -6 -20 -8 -6 -4 51 3 43 5 106 5 139 0 33 3 57 7 54 3 -4 5 -54 4 -111z
m8259 -41 c5 -11 16 -58 24 -105 9 -47 23 -114 31 -150 9 -36 16 -72 16 -80 1
-8 3 -22 6 -30 3 -8 6 -28 8 -45 6 -60 16 -139 20 -145 2 -3 6 -37 9 -75 6
-77 17 -186 22 -225 1 -14 6 -65 9 -115 3 -49 8 -107 10 -127 2 -21 -1 -40 -6
-44 -5 -3 -9 5 -10 18 -5 112 -8 138 -14 148 -4 6 -8 37 -10 68 -1 31 -6 86
-10 122 -4 36 -8 79 -10 95 -4 48 -15 121 -36 245 -65 376 -86 513 -73 480 3
-8 9 -24 14 -35z m-8275 -174 c-3 -15 -6 -48 -7 -73 -1 -53 -25 -164 -29 -133
-2 23 -2 23 6 125 3 41 9 85 12 97 7 32 25 17 18 -16z m-228 -41 c-1 -12 -5
-16 -10 -11 -5 5 -6 14 -3 20 11 16 15 13 13 -9z m-40 -15 c0 -8 -4 -12 -9 -9
-5 3 -6 10 -3 15 9 13 12 11 12 -6z m-1 -55 c-1 -37 -7 -38 -23 -4 -10 22 -10
25 3 20 7 -3 14 -1 14 4 0 6 2 10 4 10 2 0 3 -13 2 -30z m8874 -35 c-7 -9 -15
-13 -17 -11 -7 7 7 26 19 26 6 0 6 -6 -2 -15z m-40 -10 c0 -8 -4 -15 -10 -15
-5 0 -7 7 -4 15 4 8 8 15 10 15 2 0 4 -7 4 -15z m-4489 -267 c122 -209 286
-451 371 -548 143 -162 356 -351 521 -461 71 -48 67 -41 -18 27 -112 89 -258
242 -401 419 -74 91 -87 122 -23 52 111 -121 474 -427 654 -552 85 -59 78 -51
-50 56 -132 109 -258 232 -359 349 -150 174 -164 200 -45 81 116 -115 460
-400 459 -379 0 2 -57 62 -126 133 -69 72 -153 164 -186 205 l-61 75 58 -55
c33 -30 64 -60 69 -66 6 -6 63 -56 126 -111 140 -121 285 -230 405 -305 110
-67 115 -70 115 -65 0 3 -24 20 -52 38 -131 84 -258 200 -443 405 -129 144
-139 170 -19 53 197 -191 421 -362 617 -470 37 -21 67 -34 67 -31 0 4 -18 17
-40 30 -55 31 -221 167 -316 259 -154 149 -265 279 -131 155 135 -126 299
-246 452 -332 102 -57 225 -114 225 -104 0 2 -24 16 -52 30 -29 15 -82 47
-118 72 -92 66 -315 269 -401 367 -38 43 -35 41 31 -19 115 -105 307 -244 427
-310 120 -66 239 -126 249 -126 4 0 -27 22 -67 49 -95 62 -244 188 -339 287
l-75 78 70 -61 c65 -56 285 -213 299 -213 4 0 25 -12 49 -27 23 -15 91 -53
151 -84 113 -58 113 -60 47 -74 -12 -3 -31 -7 -43 -10 -140 -30 -729 -50 -915
-31 -71 8 -72 8 -75 39 -2 26 -8 33 -30 35 -22 3 -27 0 -22 -12 5 -12 -1 -16
-25 -16 -36 0 -41 16 -8 31 18 8 16 9 -13 4 -42 -7 -50 -18 -50 -73 l0 -43
-62 42 c-171 114 -378 304 -532 487 -206 245 -409 612 -460 835 -13 56 14 23
95 -115z m3861 -190 c-7 -7 -10 30 -10 118 l1 129 10 -118 c6 -81 6 -122 -1
-129z m-3944 -47 c2 -91 0 -212 -4 -270 l-8 -106 -7 75 c-3 41 -6 171 -6 289
-1 163 2 210 10 195 7 -11 13 -88 15 -183z m3501 65 c-3 -3 -11 5 -18 17 -13
21 -12 21 5 5 10 -10 16 -20 13 -22z m-7539 -51 c0 -8 -4 -15 -10 -15 -5 0
-10 7 -10 15 0 8 5 15 10 15 6 0 10 -7 10 -15z m7980 -49 c-7 -7 -10 4 -9 30
1 39 1 39 10 9 5 -18 5 -33 -1 -39z m-5687 -138 c29 -15 18 -52 -18 -59 -73
-16 -202 -3 -181 18 3 4 44 7 91 7 55 1 88 5 97 14 11 11 -2 13 -72 11 -110
-3 -114 -4 -133 -45 -17 -34 -17 -35 9 -44 14 -6 67 -10 117 -10 58 0 87 -4
78 -9 -8 -5 -20 -7 -27 -4 -6 2 -15 0 -18 -6 -11 -16 -446 -14 -562 3 -107 16
-184 39 -195 58 -13 21 1 28 24 13 38 -24 146 -43 282 -48 l130 -5 -93 14
c-102 15 -139 28 -106 37 36 12 80 17 184 24 l105 7 -65 8 c-36 4 -92 5 -125
3 -53 -4 -56 -3 -25 6 44 13 345 28 425 22 33 -3 68 -10 78 -15z m122 -12 c75
-19 99 -34 85 -51 -18 -21 -69 -36 -170 -50 -34 -5 -34 -5 -9 8 14 6 34 19 44
27 11 9 16 10 11 3 -4 -7 -3 -13 3 -13 5 0 12 4 16 10 3 5 12 7 20 3 8 -3 22
-2 31 1 13 5 14 9 4 21 -18 21 -80 31 -91 14 -7 -11 -9 -11 -9 3 0 9 -8 22
-17 27 -16 9 -15 10 7 11 14 0 48 -6 75 -14z m3540 -333 c126 -109 208 -165
337 -233 84 -44 247 -105 256 -95 2 2 -18 16 -45 31 -72 41 -264 169 -298 199
-25 22 -20 20 25 -8 113 -69 257 -146 324 -172 68 -27 204 -46 192 -27 -5 8
-55 23 -72 21 -4 0 -10 3 -13 8 -3 4 -23 16 -43 25 -54 25 -208 123 -248 158
-23 21 -8 14 45 -20 110 -71 293 -160 333 -163 21 -1 31 -6 27 -14 -3 -9 7
-13 33 -14 35 -1 34 -2 -23 -20 -62 -19 -194 -43 -300 -55 -33 -3 -63 -8 -67
-10 -3 -2 -8 -1 -10 3 -1 5 -30 21 -63 37 -33 17 -114 66 -180 110 -144 97
-349 292 -458 435 -119 157 -116 163 14 27 68 -71 173 -172 234 -223z m-4037
138 c2 -6 11 -11 20 -11 15 0 15 2 2 10 -8 5 -10 10 -4 10 21 0 24 -14 7 -32
-16 -18 -16 -19 3 -13 13 4 11 2 -5 -8 l-24 -15 24 -7 24 -8 -23 -8 c-28 -11
-28 -25 1 -33 18 -5 20 -8 7 -16 -13 -9 -13 -10 0 -10 9 -1 5 -6 -10 -15 l-25
-14 25 -2 25 -1 -25 -8 c-17 -5 -19 -8 -7 -9 20 -1 23 -17 5 -24 -8 -3 -6 -6
5 -6 25 -1 21 -21 -5 -22 -22 0 -22 -1 2 -11 l25 -11 -25 -7 c-23 -7 -23 -8
-3 -9 26 -1 25 -31 -3 -42 -17 -7 -17 -8 -1 -8 25 -1 21 -19 -5 -24 -18 -3
-17 -5 7 -6 21 -1 26 -4 16 -10 -11 -7 -11 -10 0 -17 17 -10 258 -12 328 -1
30 4 66 9 80 11 41 5 104 27 133 48 29 20 49 8 28 -17 -16 -19 -104 -51 -165
-60 -28 -4 -58 -9 -68 -11 -98 -18 -416 -26 -524 -14 -162 17 -303 62 -303 96
0 19 9 18 66 -8 43 -19 204 -42 204 -29 0 2 -7 13 -17 23 -13 14 -13 18 -2 19
8 0 6 4 -6 9 l-20 9 20 1 c16 1 14 4 -10 15 l-30 13 35 2 c19 1 27 4 18 7 -10
2 -15 10 -11 19 3 8 -4 17 -18 23 l-24 10 25 1 c24 1 24 1 6 15 -18 14 -18 15
-2 15 9 0 14 5 11 10 -3 6 0 10 7 10 7 1 2 7 -11 14 l-24 14 23 7 c13 4 18 10
12 14 -14 8 -11 51 3 51 5 0 1 7 -9 15 -18 14 -18 15 -2 15 16 0 16 1 2 16
-19 19 -21 28 -3 18 7 -5 6 0 -3 11 -14 17 -11 18 100 13 70 -4 116 -10 118
-17z m2254 -164 c172 -349 419 -677 657 -871 73 -60 182 -136 230 -160 l31
-17 0 -97 c0 -53 -4 -102 -8 -108 -12 -19 -146 89 -292 235 -315 317 -559 705
-674 1072 -39 124 -44 155 -18 99 9 -19 42 -88 74 -153z m-2215 67 c-3 -3 -12
-4 -19 -1 -8 3 -5 6 6 6 11 1 17 -2 13 -5z m6471 -69 c-3 -3 -9 2 -12 12 -6
14 -5 15 5 6 7 -7 10 -15 7 -18z m57 15 c3 -5 1 -10 -4 -10 -6 0 -11 5 -11 10
0 6 2 10 4 10 3 0 8 -4 11 -10z m-1765 -167 c38 -21 70 -41 70 -45 0 -6 -137
65 -149 77 -13 13 17 1 79 -32z m-3621 -120 c-78 -80 -183 -203 -250 -293
-107 -142 -296 -360 -319 -368 -9 -3 -17 125 -10 153 13 50 12 55 -6 49 -11
-4 -27 -14 -36 -22 -37 -32 -16 0 28 43 49 46 50 52 29 135 -6 23 -1 28 62 57
37 18 122 68 188 111 66 44 123 78 128 75 4 -2 7 -20 7 -38 l0 -34 66 64 c78
78 225 204 238 204 5 1 -51 -61 -125 -136z m4101 123 c0 -3 -4 -8 -10 -11 -5
-3 -10 -1 -10 4 0 6 5 11 10 11 6 0 10 -2 10 -4z m-4660 -79 c0 -15 -76 -54
-86 -45 -2 3 14 17 38 31 51 31 48 30 48 14z m-1065 -6 c3 -5 29 -19 59 -30
53 -19 159 -34 348 -47 54 -3 95 -10 92 -15 -3 -5 -14 -9 -24 -9 -13 0 -18 -5
-13 -15 5 -13 31 -16 177 -14 187 1 283 18 379 63 28 14 53 23 56 21 17 -18
-108 -75 -199 -90 -25 -4 -54 -9 -65 -11 -126 -25 -401 -31 -545 -14 -159 20
-274 60 -304 106 l-16 23 35 -23 c38 -26 156 -56 214 -55 31 0 27 3 -33 20
-80 23 -169 63 -186 84 -10 12 -9 15 3 15 9 0 18 -4 22 -9z m5445 -25 c0 -2
-9 -6 -20 -9 -11 -3 -18 -1 -14 4 5 9 34 13 34 5z m-1725 -273 c101 -197 230
-368 402 -533 122 -116 143 -135 229 -200 32 -25 61 -47 64 -50 15 -15 71 -50
79 -50 6 0 14 -6 18 -13 7 -10 68 -49 233 -146 32 -19 185 -99 273 -143 23
-12 37 -25 37 -38 0 -22 -19 -37 -29 -22 -3 6 -37 25 -75 42 -151 70 -436 232
-444 252 -2 4 -8 8 -14 8 -10 0 -137 86 -148 100 -3 4 -12 11 -21 16 -42 23
-117 91 -265 238 -218 219 -344 398 -393 560 -24 78 -25 89 -9 84 6 -2 34 -49
63 -105z m-3255 68 c85 -8 85 -8 25 -11 -41 -1 -52 -4 -36 -9 22 -6 23 -8 8
-23 -15 -15 -15 -17 1 -23 15 -7 15 -8 -3 -15 -15 -7 -16 -9 -4 -9 19 -1 32
-38 17 -47 -6 -4 -5 -10 3 -15 11 -7 9 -9 -6 -9 -20 -1 -20 -1 -1 -15 18 -14
11 -15 -75 -15 -98 0 -164 11 -182 29 -7 7 -4 9 11 6 25 -4 30 12 7 21 -22 9
-18 24 6 24 21 0 21 0 -2 21 -13 11 -18 18 -11 14 6 -3 12 -2 12 4 0 5 -10 12
-22 14 -16 3 -13 5 12 6 l35 3 -30 13 c-22 10 -25 14 -11 15 11 0 16 3 13 7
-4 3 -2 12 3 18 11 13 67 12 230 -4z m4407 -183 c-2 -35 -3 -7 -3 62 0 69 1
97 3 63 2 -35 2 -91 0 -125z m2213 92 c0 -5 -4 -10 -10 -10 -5 0 -10 5 -10 10
0 6 5 10 10 10 6 0 10 -4 10 -10z m-6862 -122 c165 -19 564 -16 657 6 41 10
131 35 148 41 39 15 14 -16 -31 -39 -127 -64 -495 -95 -742 -61 -125 16 -230
47 -254 74 -31 34 -9 40 59 15 36 -13 110 -29 163 -36z m797 -98 c-10 -11 -20
-18 -23 -15 -7 6 18 35 31 35 5 0 2 -9 -8 -20z m-665 -34 c41 -3 76 -6 78 -7
5 -3 23 -7 43 -8 19 -1 19 -2 -6 -25 l-26 -24 28 -10 28 -10 -25 -2 c-23 -1
-23 -2 -5 -10 19 -8 19 -8 -4 -17 -22 -9 -23 -10 -5 -17 16 -6 16 -9 4 -16
-13 -9 -13 -10 0 -11 10 0 8 -3 -5 -9 -16 -7 -17 -9 -3 -9 12 -1 16 -9 15 -33
-1 -18 -6 -36 -12 -40 -6 -5 -5 -8 4 -8 8 0 11 -6 7 -17 -4 -9 -1 -20 6 -25 9
-5 5 -8 -12 -8 l-25 -1 23 -9 c20 -9 21 -12 10 -32 -7 -13 -17 -26 -23 -30 -5
-4 0 -8 13 -8 13 0 20 -4 17 -10 -9 -14 -183 -11 -230 5 -22 7 -32 13 -22 14
20 1 23 17 5 24 -10 4 -9 8 2 16 13 9 12 11 -5 12 l-20 0 20 9 20 9 -20 0
c-17 1 -18 3 -5 11 13 9 13 11 0 20 -12 8 -10 10 9 10 24 0 24 0 5 16 -19 15
-19 16 1 10 18 -5 17 -4 -4 14 -18 15 -19 20 -7 20 9 0 16 5 16 10 0 6 -4 10
-8 10 -13 0 -13 50 1 50 6 1 1 8 -13 16 -24 14 -24 15 -2 11 26 -6 29 8 5 22
-17 10 -16 10 2 11 l20 1 -20 9 c-17 7 -17 9 -2 9 9 1 17 6 17 11 0 6 -8 10
-17 11 -12 1 -10 4 7 9 22 7 21 10 -9 14 -5 0 -13 5 -18 10 -4 5 -3 6 4 2 6
-3 14 -2 17 3 4 5 16 8 29 6 12 -3 56 -7 97 -9z m674 -24 c3 -5 -1 -9 -9 -9
-8 0 -12 4 -9 9 3 4 7 8 9 8 2 0 6 -4 9 -8z m-4 -66 c0 -18 -27 -29 -36 -14
-4 7 -3 8 4 4 7 -4 12 -1 12 8 0 9 5 16 10 16 6 0 10 -6 10 -14z m2260 -261
c52 -42 148 -111 213 -153 l117 -77 -2 -137 c-2 -75 -6 -140 -10 -143 -9 -10
-130 120 -225 242 -75 97 -334 453 -357 492 -5 9 31 -21 80 -66 49 -46 132
-117 184 -158z m3390 225 c0 -5 -5 -10 -11 -10 -5 0 -7 5 -4 10 3 6 8 10 11
10 2 0 4 -4 4 -10z m-6580 -276 c83 -29 242 -46 445 -47 179 -2 225 1 305 15
62 11 168 45 188 60 8 7 12 7 12 -2 0 -45 -172 -104 -340 -116 -36 -3 -77 -9
-92 -14 -16 -5 -28 -6 -28 -2 0 4 -30 5 -67 4 -142 -8 -399 33 -483 77 -22 11
-36 27 -38 41 -3 19 -1 21 15 15 10 -5 47 -18 83 -31z m1759 -56 c-9 -16 -14
-19 -17 -9 -2 7 2 17 9 22 20 13 21 11 8 -13z m-52 -30 c-3 -8 -6 -5 -6 6 -1
11 2 17 5 13 3 -3 4 -12 1 -19z m18 -53 c-16 -14 -34 -25 -39 -25 -6 0 5 11
24 25 43 32 54 32 15 0z m600 -20 c11 -2 34 -4 50 -5 l30 -2 -30 -8 c-16 -4
-78 -8 -137 -9 l-108 -1 0 29 0 28 88 -14 c48 -8 96 -16 107 -18z m-2032 3
c42 -1 77 -6 77 -10 0 -5 -6 -8 -12 -8 -8 0 -4 -8 7 -17 20 -15 20 -15 -3 -10
-12 3 -20 1 -16 -4 3 -5 13 -9 22 -10 10 0 12 -3 5 -6 -9 -3 -10 -10 -3 -24 9
-15 7 -19 -7 -20 -17 -1 -17 -2 0 -6 9 -2 17 -9 17 -14 0 -5 -8 -9 -17 -9 -16
-1 -16 -2 2 -12 19 -11 19 -11 0 -19 -17 -7 -18 -8 -2 -8 9 -1 17 -5 17 -11 0
-5 -8 -10 -17 -11 -15 0 -15 -2 2 -9 l20 -9 -20 -1 c-20 -1 -20 -1 0 -12 19
-11 19 -11 0 -19 -17 -7 -18 -8 -2 -8 25 -1 21 -21 -5 -22 l-23 -2 23 -4 c26
-5 30 -23 5 -24 -12 -1 -10 -4 7 -9 14 -4 19 -8 11 -9 -7 -1 -11 -7 -7 -16 3
-8 0 -15 -6 -15 -7 0 -6 -5 2 -15 10 -12 9 -15 -6 -15 -16 0 -17 -2 -4 -10 9
-6 14 -21 12 -40 -2 -19 1 -30 10 -31 7 -1 0 -5 -17 -9 l-30 -8 30 -2 c29 -2
29 -2 6 -9 -14 -4 -26 -11 -28 -17 -4 -13 49 -23 137 -25 l65 -2 -60 -7 c-106
-14 -243 -11 -317 6 l-72 16 30 14 c22 11 23 13 6 10 -12 -2 -20 0 -16 5 3 5
15 9 27 10 21 0 21 1 2 9 -14 6 -15 9 -5 10 10 1 9 4 -5 10 -18 8 -18 9 5 10
l25 1 -25 14 c-22 13 -23 14 -5 15 20 1 20 1 1 15 -20 15 -20 15 0 15 16 0 17
2 4 10 -13 9 -13 10 0 10 10 1 7 7 -10 22 -18 15 -20 19 -6 15 13 -5 17 -3 13
7 -3 8 -1 16 5 18 6 2 4 10 -6 20 -12 12 -13 18 -3 21 9 4 8 8 -3 16 -13 9
-12 11 4 11 19 0 19 1 1 20 -17 18 -17 20 -2 14 21 -8 22 0 1 20 -14 15 -14
16 2 16 13 0 14 3 4 15 -10 12 -9 15 6 15 16 1 15 3 -6 15 l-25 14 24 1 c24 0
24 0 5 15 -19 14 -19 14 1 16 17 1 16 2 -5 9 -20 6 -21 8 -6 9 20 1 20 1 0 16
-18 14 -18 14 6 15 23 1 23 2 8 14 -24 18 -13 25 30 21 21 -2 72 -5 115 -7z
m1367 -23 c-7 -9 -15 -13 -19 -10 -3 3 1 10 9 15 21 14 24 12 10 -5z m900 -47
c0 -4 15 -8 33 -10 24 -2 32 -8 32 -23 0 -19 -7 -20 -190 -20 -174 -1 -224 -6
-291 -32 -11 -4 -14 4 -14 36 0 39 11 53 26 30 6 -10 28 -8 94 7 14 3 59 8
100 11 41 3 77 7 80 10 7 7 130 -1 130 -9z m-1444 -18 c45 -17 15 -30 -77 -33
-80 -2 -84 -1 -87 21 -3 21 0 22 67 22 38 0 82 -5 97 -10z m4008 -19 c4 -5 1
-11 -6 -13 -10 -4 -14 -45 -18 -195 0 -17 -12 -16 -34 0 -18 13 -21 59 -16
205 0 14 66 17 74 3z m-2708 -60 c16 -6 49 -12 74 -15 25 -3 47 -5 50 -6 3 0
-1 -4 -7 -8 -11 -7 -57 -4 -210 10 -23 2 -28 9 -16 21 9 10 76 8 109 -2z
m-1501 -41 c3 -5 1 -10 -4 -10 -6 0 -11 5 -11 10 0 6 2 10 4 10 3 0 8 -4 11
-10z m1329 1 c7 -10 -3 -18 -66 -55 l-48 -27 0 46 0 45 54 0 c30 0 57 -4 60
-9z m208 -30 c54 -9 97 -20 97 -26 1 -14 -220 -11 -247 4 -12 6 -22 21 -22 32
0 19 4 20 38 14 20 -4 81 -15 134 -24z m-1535 3 c-3 -3 -12 -4 -19 -1 -8 3 -5
6 6 6 11 1 17 -2 13 -5z m3 -29 c-7 -8 -20 -15 -28 -15 -13 0 -12 3 4 15 25
19 40 19 24 0z m105 -24 c-6 -4 -22 -11 -37 -15 -21 -5 -28 -3 -28 9 0 11 11
15 37 15 22 0 33 -4 28 -9z m-105 -16 c0 -17 -2 -18 -25 -9 -13 5 -14 8 -3 15
19 13 28 11 28 -6z m1467 -10 c49 -9 104 -19 123 -24 l35 -8 -31 -7 c-17 -4
-77 -2 -134 3 -56 6 -107 11 -114 11 -20 0 -39 17 -32 29 10 15 50 14 153 -4z
m2385 -27 c4 -78 -15 -231 -33 -258 -34 -53 -40 126 -8 225 24 71 38 83 41 33z
m289 -2 c66 -20 109 -44 109 -61 0 -24 -13 -24 -92 2 -69 22 -78 28 -78 49 0
28 1 28 61 10z m-4063 -5 c10 -6 7 -10 -12 -13 -25 -5 -33 1 -19 15 8 9 15 9
31 -2z m-81 -18 c2 -6 -5 -13 -17 -16 -22 -6 -23 -5 -14 18 7 17 25 16 31 -2z
m1285 -7 c35 -8 106 -19 158 -26 102 -12 230 -38 243 -50 14 -13 -96 -11 -203
4 -267 37 -288 42 -277 70 8 19 2 19 79 2z m827 0 c-8 -8 -182 -46 -187 -41
-6 5 5 10 78 29 52 13 118 21 109 12z m-2039 -30 c0 -3 -4 -8 -10 -11 -5 -3
-10 -1 -10 4 0 6 5 11 10 11 6 0 10 -2 10 -4z m-60 -36 c0 -12 -42 -51 -48
-45 -5 5 37 55 45 55 2 0 3 -4 3 -10z m70 -30 c0 -5 -2 -10 -4 -10 -3 0 -8 5
-11 10 -3 6 -1 10 4 10 6 0 11 -4 11 -10z m-40 -29 c0 -26 -41 -60 -80 -67
-31 -5 -32 -4 -15 7 34 20 75 62 75 76 0 8 5 11 10 8 6 -3 10 -14 10 -24z
m-1031 -5 c69 -65 348 -108 700 -106 19 0 32 -2 30 -4 -11 -10 -137 -20 -254
-20 -202 -1 -340 18 -429 59 -67 31 -86 48 -86 74 0 27 8 27 39 -3z m4551 -46
c0 -5 -2 -10 -4 -10 -3 0 -8 5 -11 10 -3 6 -1 10 4 10 6 0 11 -4 11 -10z
m-5080 -296 c0 -8 -4 -12 -10 -9 -5 3 -10 10 -10 16 0 5 5 9 10 9 6 0 10 -7
10 -16z m-180 -164 c11 -7 12 -12 3 -21 -13 -13 -33 -4 -33 17 0 16 9 18 30 4z
m300 0 c0 -5 -2 -10 -4 -10 -3 0 -8 5 -11 10 -3 6 -1 10 4 10 6 0 11 -4 11
-10z m30 0 c0 -5 -4 -10 -10 -10 -5 0 -10 5 -10 10 0 6 5 10 10 10 6 0 10 -4
10 -10z m-70 -4 c0 -3 -4 -8 -10 -11 -5 -3 -10 -1 -10 4 0 6 5 11 10 11 6 0
10 -2 10 -4z m-230 -66 c0 -5 -2 -10 -4 -10 -3 0 -8 5 -11 10 -3 6 -1 10 4 10
6 0 11 -4 11 -10z m512 -160 c-6 -43 -12 -37 -12 13 0 25 4 37 8 29 5 -7 7
-26 4 -42z m5236 -455 c0 -13 -4 -22 -9 -19 -5 3 -9 14 -9 25 0 10 4 19 9 19
5 0 9 -11 9 -25z m12 -95 c0 -5 -4 -10 -10 -10 -5 0 -10 5 -10 10 0 6 5 10 10
10 6 0 10 -4 10 -10z m-22 -55 c-3 -3 -9 2 -12 12 -6 14 -5 15 5 6 7 -7 10
-15 7 -18z m9 -73 c2 -37 -1 -52 -7 -42 -5 8 -6 19 -2 25 3 5 -3 3 -13 -5 -17
-14 -18 -14 -8 5 11 22 7 45 -8 45 -6 0 -9 -6 -8 -12 3 -29 -4 -41 -10 -18
-10 32 -2 53 15 46 8 -3 14 -1 14 4 0 6 6 10 13 10 8 0 13 -19 14 -58z m-4307
-22 c0 -5 -5 -10 -11 -10 -5 0 -7 5 -4 10 3 6 8 10 11 10 2 0 4 -4 4 -10z
m966 -396 c-4 -9 -9 -15 -11 -12 -3 3 -3 13 1 22 4 9 9 15 11 12 3 -3 3 -13
-1 -22z"/>
<path d="M2820 4250 c0 -5 5 -10 11 -10 5 0 7 5 4 10 -3 6 -8 10 -11 10 -2 0
-4 -4 -4 -10z"/>
<path d="M4907 8973 c-2 -1 -37 -5 -78 -8 -41 -3 -87 -7 -104 -9 -16 -2 -57
-7 -90 -11 -224 -23 -340 -49 -709 -160 -128 -38 -399 -143 -404 -157 -2 -4
-9 -8 -17 -8 -18 0 -127 -50 -147 -68 -10 -8 -18 -12 -18 -8 0 4 -13 -2 -29
-13 -16 -12 -33 -21 -38 -21 -4 0 -57 -30 -118 -66 -60 -36 -125 -75 -143 -85
-44 -26 -200 -134 -229 -159 -13 -11 -25 -20 -28 -20 -5 0 -56 -43 -96 -81 -9
-9 -21 -18 -27 -20 -10 -4 -224 -201 -246 -227 -6 -7 -17 -18 -24 -25 -35 -31
-52 -49 -112 -118 -36 -40 -77 -86 -93 -102 -15 -16 -41 -48 -57 -70 -17 -23
-46 -62 -65 -87 -20 -25 -45 -60 -56 -77 -12 -18 -25 -33 -30 -33 -5 0 -14
-12 -20 -27 -6 -15 -17 -34 -25 -43 -44 -45 -194 -289 -194 -314 0 -9 -4 -16
-10 -16 -12 0 -126 -234 -186 -380 -14 -36 -32 -78 -39 -95 -7 -16 -18 -48
-25 -70 -6 -22 -16 -49 -21 -60 -5 -11 -10 -29 -12 -40 -1 -11 -5 -24 -8 -30
-3 -5 -12 -32 -19 -60 -7 -27 -16 -54 -20 -60 -14 -20 -18 -55 -7 -55 9 0 9
-2 1 -8 -13 -8 -48 -122 -40 -130 3 -3 1 -11 -5 -18 -6 -7 -12 -40 -12 -73 -1
-32 -5 -57 -9 -54 -22 13 -1 -32 54 -117 l62 -95 8 44 c4 25 10 63 14 85 3 22
7 43 9 46 4 6 17 92 18 123 1 9 5 17 9 17 4 0 8 8 8 18 0 10 14 68 31 128 17
60 32 114 33 119 1 6 4 15 7 20 4 6 10 24 14 40 12 44 12 45 15 50 1 3 3 8 5
13 1 4 7 21 14 37 7 17 22 56 33 88 10 32 30 83 44 112 13 30 24 56 24 60 0 7
120 247 154 305 14 25 33 59 42 75 29 52 116 180 125 183 5 2 9 9 9 16 0 7 11
25 25 40 14 15 25 29 25 31 0 21 233 302 390 469 57 61 284 265 370 333 75 59
325 227 364 244 16 7 26 20 26 33 0 14 3 17 11 9 7 -7 43 7 122 48 237 122
429 200 692 279 125 38 382 98 490 115 321 49 769 51 1080 6 201 -30 500 -105
687 -172 62 -22 140 -50 173 -61 33 -11 81 -31 107 -44 27 -13 48 -22 48 -20
0 7 240 -118 358 -186 683 -391 1243 -1032 1565 -1789 78 -182 177 -503 213
-684 7 -38 17 -85 21 -104 l8 -33 34 52 c19 29 47 66 63 82 16 16 25 34 22 40
-4 6 -9 24 -10 41 -2 16 -13 69 -25 116 -11 47 -22 93 -24 101 -57 236 -210
603 -360 865 -62 107 -205 328 -256 395 -98 128 -191 240 -199 240 -6 0 -10 6
-10 13 -1 12 -65 83 -196 217 -96 98 -201 194 -268 245 -21 17 -57 44 -80 62
-23 18 -72 54 -111 80 -38 26 -72 50 -75 53 -8 10 -140 94 -205 131 -33 19
-73 42 -90 52 -57 34 -374 187 -387 187 -8 0 -22 6 -33 13 -30 20 -228 90
-415 146 -245 73 -475 118 -685 136 -38 3 -109 10 -157 16 -77 8 -423 11 -431
2z"/>
<path d="M5000 8757 c-3 -2 -61 -7 -130 -11 -127 -6 -197 -13 -210 -21 -3 -2
-33 -7 -66 -10 -135 -15 -450 -85 -564 -127 -30 -11 -68 -23 -85 -28 -16 -5
-55 -18 -85 -30 -30 -12 -66 -25 -80 -30 -55 -17 -217 -86 -265 -113 -11 -6
-58 -30 -105 -55 -47 -24 -114 -61 -150 -83 -36 -22 -72 -42 -80 -46 -32 -14
-213 -142 -218 -155 -2 -5 -9 -8 -16 -8 -7 0 -23 -11 -36 -25 -13 -14 -29 -25
-36 -25 -7 0 -21 -10 -31 -23 -10 -12 -27 -29 -39 -37 -83 -58 -389 -360 -481
-475 -17 -22 -46 -58 -65 -81 -18 -23 -46 -60 -63 -84 -16 -23 -39 -52 -50
-64 -60 -66 -228 -339 -307 -501 -32 -66 -63 -127 -67 -136 -18 -32 -104 -258
-141 -370 -33 -101 -67 -222 -100 -364 -18 -72 -49 -269 -52 -322 -2 -29 -6
-53 -9 -53 -4 0 1 -25 9 -55 8 -30 19 -55 24 -55 5 0 6 -5 3 -10 -4 -6 -3 -35
1 -66 l6 -55 75 75 c40 42 78 76 84 76 6 0 9 9 6 20 -3 11 -1 18 3 15 10 -6
63 64 86 115 4 8 13 22 20 30 7 8 22 60 33 115 20 97 42 186 76 310 9 33 20
74 25 90 4 17 13 43 19 58 6 16 11 39 11 53 0 13 4 24 8 24 9 0 32 59 32 83 0
9 5 17 10 17 15 0 12 48 -2 53 -10 3 -10 7 0 20 9 11 10 22 4 34 -8 16 -13 36
-28 123 -2 14 -7 58 -10 97 -8 89 -5 90 102 68 113 -23 157 -28 149 -15 -3 5
-2 10 3 10 5 0 17 17 28 38 10 20 37 64 59 97 22 33 45 68 50 76 9 15 106 146
157 214 105 138 355 403 477 505 23 19 53 47 68 63 14 15 31 27 37 27 5 0 21
11 35 24 15 13 58 45 96 71 39 26 75 53 80 59 6 6 26 19 45 29 19 9 58 31 85
49 115 72 375 197 505 243 36 13 95 35 132 48 70 27 356 102 423 112 22 4 47
8 56 11 9 2 34 7 55 9 22 3 57 7 79 11 143 21 227 26 399 26 169 0 291 -7 391
-22 33 -5 79 -12 102 -15 146 -18 447 -91 583 -142 200 -74 364 -143 433 -180
42 -24 84 -43 92 -43 7 0 16 -4 19 -9 5 -8 70 -48 144 -88 13 -7 40 -26 60
-41 21 -16 48 -35 61 -42 13 -6 50 -33 83 -58 33 -26 70 -53 84 -60 13 -7 24
-17 24 -23 0 -5 9 -13 19 -17 11 -4 63 -47 115 -95 53 -49 100 -85 106 -82 5
3 10 0 10 -7 1 -7 39 -53 86 -103 47 -49 102 -110 122 -135 20 -25 43 -52 52
-60 47 -43 330 -443 330 -466 0 -4 6 -15 14 -23 30 -35 177 -334 230 -468 78
-198 148 -413 161 -498 2 -11 8 -42 14 -70 6 -27 14 -70 17 -94 3 -24 10 -55
15 -68 5 -13 9 -34 9 -45 0 -33 41 -105 79 -141 20 -18 59 -50 86 -72 28 -22
52 -43 53 -47 8 -18 23 -6 17 13 -4 11 -8 57 -10 101 -2 86 11 148 45 203 14
22 19 44 16 66 -3 19 -8 57 -11 84 -4 28 -9 62 -10 76 -2 15 -15 73 -30 130
-31 125 -30 121 -45 183 -17 75 -94 298 -143 416 -44 106 -134 291 -146 300
-3 3 -19 32 -34 65 -33 69 -35 73 -156 255 -81 123 -215 300 -244 325 -7 6
-18 22 -26 37 -8 15 -18 25 -22 22 -4 -2 -13 6 -20 18 -14 27 -100 118 -214
228 -178 171 -269 244 -480 390 -199 137 -455 273 -689 364 -197 78 -506 171
-650 196 -28 5 -100 19 -161 30 -60 11 -143 23 -185 26 -41 3 -80 7 -87 9 -19
6 -387 18 -393 12z"/>
<path d="M5052 8047 c-19 -56 -51 -139 -73 -184 l-40 -83 -278 0 c-270 0 -280
1 -351 25 -40 14 -76 25 -80 25 -3 0 -19 -26 -34 -57 -16 -32 -47 -89 -69
-127 -28 -49 -36 -70 -27 -76 11 -7 2030 -12 2030 -5 0 6 -110 248 -114 252
-2 3 -28 -3 -58 -13 -44 -15 -105 -18 -382 -22 -180 -2 -327 0 -325 5 2 4 19
38 37 76 18 37 34 76 35 87 1 11 4 20 8 20 15 0 -2 53 -24 74 -31 29 -180 106
-204 106 -14 0 -25 -22 -51 -103z"/>
<path d="M4527 7494 c-4 -4 -7 -49 -7 -99 0 -101 -7 -116 -57 -117 -15 0 -32
1 -38 2 -5 1 -66 2 -135 1 l-125 -1 -1 -105 -1 -105 46 -1 c25 0 92 0 149 0
58 0 102 -3 102 -9 0 -5 -8 -17 -18 -27 -11 -10 -27 -32 -37 -50 -10 -18 -22
-30 -27 -27 -4 3 -8 1 -8 -4 0 -22 -140 -164 -257 -260 l-71 -59 57 -63 57
-64 47 33 c53 36 196 173 253 241 l37 45 -6 -35 c-19 -111 -76 -247 -149 -361
-35 -54 -139 -166 -211 -227 l-38 -33 46 -62 c89 -121 95 -127 120 -111 12 8
24 12 27 9 3 -3 17 7 30 23 14 16 34 34 45 41 25 13 128 119 177 181 19 25 44
55 55 68 11 12 24 34 27 47 3 14 10 27 14 30 13 8 66 124 90 196 25 75 57 222
70 326 10 80 26 366 24 446 -1 56 -25 94 -73 118 -34 16 -201 26 -214 13z"/>
<path d="M4959 7490 c0 -5 0 -827 2 -1261 0 -102 -1 -190 -2 -195 -8 -44 -21
-42 364 -44 199 -1 382 -3 407 -6 25 -2 70 -6 100 -8 l55 -5 23 54 c13 30 21
58 18 64 -3 5 -1 11 4 13 12 4 69 164 78 218 13 79 7 102 -32 136 -39 34 -102
55 -178 61 -40 2 -48 0 -49 -15 -5 -92 -28 -221 -41 -237 -4 -5 -8 -17 -8 -26
0 -16 -15 -18 -147 -21 -82 -2 -188 -2 -236 0 l-88 3 2 190 2 189 381 1 c209
0 402 1 429 1 26 0 45 4 42 9 -4 5 0 6 8 3 13 -4 15 11 14 95 0 64 -4 102 -11
104 -6 3 -203 5 -436 6 l-425 1 0 123 0 122 389 1 c444 2 441 2 430 68 -9 56
-43 135 -63 145 -9 5 -165 8 -346 6 -182 -2 -349 -1 -372 2 l-42 5 1 57 c1 38
-5 66 -16 83 -17 26 -84 58 -121 57 -11 0 -46 1 -78 3 -31 2 -57 1 -58 -2z"/>
<path d="M2427 6783 c-4 -3 -7 -12 -7 -19 0 -8 -15 -38 -34 -67 l-35 -54 29
-61 c29 -62 94 -142 114 -142 19 0 52 40 85 104 30 57 40 106 21 106 -5 0 -12
16 -16 35 -3 19 -9 35 -13 35 -4 0 -16 9 -28 19 -40 38 -100 61 -116 44z"/>
<path d="M2754 6619 c-2 -3 -18 -7 -36 -8 -18 -1 -44 -3 -57 -4 -18 -2 -33
-16 -58 -57 -46 -77 -56 -109 -37 -117 9 -3 27 5 43 21 41 39 46 31 10 -14
-46 -57 -32 -68 93 -74 l98 -6 29 58 c16 31 31 73 34 92 3 19 9 45 12 57 11
36 -26 64 -81 61 -25 -2 -48 -6 -50 -9z"/>
<path d="M2064 6603 c2 -10 7 -36 10 -58 13 -90 27 -126 78 -195 14 -19 22
-21 55 -15 21 4 49 9 63 10 93 7 140 17 140 31 0 22 -123 177 -153 193 -13 7
-30 11 -38 10 -8 -2 -34 4 -59 13 -25 9 -58 19 -73 23 -24 5 -28 3 -23 -12z"/>
<path d="M2318 6578 c-9 -26 85 -158 113 -158 19 0 7 28 -38 95 -49 70 -68 86
-75 63z"/>
<path d="M2461 6374 c-12 -15 -21 -30 -21 -35 0 -21 15 -41 41 -55 27 -13 32
-13 59 3 16 9 32 23 34 30 7 16 -11 65 -27 75 -26 16 -66 8 -86 -18z m73 -20
c7 -19 -10 -44 -30 -44 -14 0 -20 41 -7 53 12 12 31 7 37 -9z"/>
<path d="M2620 6336 c0 -10 17 -24 43 -35 l42 -19 -54 2 c-83 2 -85 -13 -17
-116 l57 -86 57 5 c31 3 82 11 112 18 51 11 55 14 53 40 -3 36 -71 153 -103
177 -17 12 -51 20 -108 25 -73 5 -82 4 -82 -11z m120 -66 c8 -5 11 -10 5 -10
-5 0 -17 5 -25 10 -8 5 -10 10 -5 10 6 0 17 -5 25 -10z"/>
<path d="M2234 6320 c-60 -9 -94 -25 -94 -45 0 -8 -3 -15 -8 -15 -8 0 -38 -64
-48 -105 -8 -31 14 -58 70 -87 l39 -20 41 22 c50 28 74 49 138 123 43 49 48
60 37 73 -9 11 -22 14 -46 9 -41 -7 -44 11 -3 20 17 4 30 13 30 21 0 16 -65
17 -156 4z m66 -50 c0 -5 -4 -10 -10 -10 -5 0 -10 5 -10 10 0 6 5 10 10 10 6
0 10 -4 10 -10z"/>
<path d="M2396 6189 c-61 -68 -85 -114 -67 -132 14 -14 30 3 87 96 52 84 41
104 -20 36z"/>
<path d="M2540 6235 c0 -3 13 -31 29 -64 48 -99 91 -149 91 -106 0 37 -87 175
-111 175 -5 0 -9 -2 -9 -5z"/>
<path d="M2466 6196 c-14 -19 -26 -38 -26 -41 0 -4 -13 -24 -28 -44 -15 -20
-33 -49 -40 -64 -12 -28 -6 -40 82 -164 1 -1 13 -4 28 -7 29 -5 53 17 108 98
l33 49 -48 91 c-71 135 -69 133 -109 82z"/>
<path d="M1109 5794 c0 -60 0 -143 1 -184 9 -454 16 -489 139 -640 94 -117
120 -231 125 -558 l2 -126 -31 -36 c-17 -19 -48 -62 -70 -94 -22 -33 -62 -84
-89 -113 -32 -35 -43 -53 -32 -53 9 0 16 -6 16 -12 0 -7 25 13 55 45 30 31 58
57 62 57 5 0 74 9 155 19 179 24 212 38 347 146 55 43 99 80 98 81 -8 6 -126
17 -192 18 -99 0 -135 -17 -220 -104 -84 -86 -154 -121 -108 -53 33 48 54 101
60 154 5 43 11 54 47 83 23 18 72 50 109 71 102 56 122 77 177 186 48 96 59
126 42 115 -4 -2 -37 -5 -72 -7 -106 -4 -172 -36 -205 -99 -7 -14 -27 -68 -45
-120 -36 -107 -50 -128 -51 -85 0 17 -2 39 -5 50 -2 11 -4 57 -4 102 -1 79 1
84 36 133 64 90 124 114 309 125 55 4 111 9 125 12 36 8 101 47 209 125 51 38
98 68 103 68 5 0 7 4 4 8 -3 5 -20 8 -38 7 -18 -1 -38 1 -43 6 -6 4 -23 6 -38
5 -15 -2 -30 0 -32 5 -9 14 -198 1 -272 -19 -114 -31 -153 -62 -311 -241 -12
-14 -32 -41 -43 -58 -11 -18 -24 -33 -29 -33 -12 0 -20 69 -10 96 36 94 188
257 288 308 25 13 32 22 27 34 -5 13 -3 14 6 5 9 -9 20 -9 48 2 54 21 107 35
224 60 44 9 91 21 105 26 15 6 35 12 44 14 37 8 210 145 349 276 19 19 46 42
60 51 24 16 23 16 -26 12 -27 -2 -80 -6 -118 -9 -37 -2 -80 -7 -95 -9 -44 -8
-115 -18 -142 -21 -212 -22 -286 -63 -372 -208 -24 -42 -71 -98 -121 -145
-151 -144 -206 -203 -252 -272 -25 -38 -50 -72 -54 -75 -5 -2 -11 19 -15 48
-3 28 -23 122 -45 207 -49 199 -54 219 -42 200 13 -22 57 -161 82 -263 18 -73
24 -86 35 -75 40 40 58 261 30 366 -21 77 -111 231 -254 436 l-42 59 -1 -109z
m1106 -300 c-38 -35 -80 -70 -92 -77 -12 -7 -47 -27 -78 -46 -31 -18 -59 -30
-63 -26 -4 4 -2 10 4 12 19 7 269 185 272 194 2 5 9 9 15 9 7 -1 -19 -30 -58
-66z m-165 -24 c0 -5 -2 -10 -4 -10 -3 0 -8 5 -11 10 -3 6 -1 10 4 10 6 0 11
-4 11 -10z m-840 -181 c0 -5 -4 -9 -10 -9 -5 0 -10 7 -10 16 0 8 5 12 10 9 6
-3 10 -10 10 -16z"/>
<path d="M9105 4711 c-152 -126 -186 -184 -193 -333 -3 -54 -2 -98 2 -98 4 0
33 26 65 58 67 66 96 119 135 247 16 50 37 110 47 134 11 24 18 45 17 47 -2 1
-35 -23 -73 -55z m-100 -182 c-4 -12 -8 -31 -10 -42 -1 -12 -7 -34 -13 -48 -6
-15 -8 -29 -6 -32 3 -3 -4 -22 -15 -43 l-21 -39 0 35 c0 19 10 59 21 90 12 30
25 65 30 78 11 28 23 29 14 1z"/>
<path d="M1050 4741 c0 -6 9 -34 19 -63 10 -29 34 -100 52 -158 33 -103 35
-106 109 -179 l75 -74 3 66 c3 68 -17 167 -45 220 -27 52 -213 216 -213 188z
m210 -308 c11 -29 20 -61 19 -71 0 -17 -60 128 -73 178 -9 35 29 -41 54 -107z"/>
<path d="M1433 4023 c-5 -1 -25 -4 -46 -8 -33 -5 -36 -8 -27 -25 5 -10 10 -28
10 -39 0 -12 5 -21 11 -21 5 0 7 -5 4 -10 -6 -9 10 -63 35 -125 5 -11 25 -61
44 -111 58 -152 205 -459 229 -479 7 -6 13 -17 15 -25 3 -16 101 -182 124
-212 12 -16 19 -16 103 -1 50 8 91 16 93 18 2 2 -34 61 -81 132 -201 306 -296
499 -428 868 -13 35 -19 40 -47 40 -18 0 -35 -1 -39 -2z"/>
<path d="M8366 3860 c-5 -19 -10 -44 -12 -55 -11 -74 -39 -195 -46 -195 -9 0
-28 35 -38 69 -6 23 -8 20 -15 -22 -7 -45 -9 -48 -31 -43 -13 4 -24 2 -24 -3
0 -5 58 -9 138 -9 75 0 126 3 112 5 -41 8 -42 12 -55 138 -3 28 -9 73 -13 100
l-8 50 -8 -35z"/>
<path d="M1916 3804 c-4 -16 -9 -92 -13 -169 -3 -85 -10 -143 -17 -147 -6 -4
25 -8 70 -8 l80 0 -2 43 c-1 23 -3 62 -4 87 l-2 45 -10 -35 c-18 -62 -21 -67
-25 -45 -16 76 -56 232 -63 244 -5 9 -9 5 -14 -15z"/>
<path d="M2086 3565 c-4 -11 -12 -31 -17 -44 -12 -28 0 -44 28 -39 17 3 17 7
7 53 -9 39 -13 46 -18 30z"/>
<path d="M2139 3523 c0 -5 -2 -16 -4 -25 -2 -11 3 -16 16 -15 12 1 17 7 14 15
-3 7 -5 18 -5 23 0 11 -20 12 -21 2z"/>
<path d="M2188 3483 c6 -2 18 -2 25 0 6 3 1 5 -13 5 -14 0 -19 -2 -12 -5z"/>
<path d="M3661 3359 c-74 -14 -70 -18 19 -17 47 1 77 3 67 6 -9 2 -15 8 -12
13 7 11 -13 10 -74 -2z"/>
<path d="M4460 2920 c0 -5 7 -10 15 -10 8 0 15 5 15 10 0 6 -7 10 -15 10 -8 0
-15 -4 -15 -10z"/>
<path d="M2017 2858 c-3 -18 -13 -77 -23 -131 l-17 -99 -29 83 c-15 46 -30 88
-33 94 -13 29 1 -135 14 -167 16 -37 46 -56 55 -34 3 7 5 7 5 -1 1 -7 8 -13
17 -13 9 0 12 5 8 13 -5 9 -4 9 6 0 11 -10 17 -10 29 0 10 8 13 8 8 0 -5 -8
27 -11 120 -12 71 -1 151 -3 178 -6 49 -4 50 -4 20 10 -16 8 -40 14 -52 15
-30 0 -51 24 -59 65 -10 53 -20 51 -42 -7 l-20 -53 -11 40 c-6 22 -11 52 -11
68 0 15 -6 27 -12 27 -10 0 -9 3 1 9 9 6 11 18 7 36 -5 21 -10 24 -21 15 -17
-14 -55 -124 -55 -159 0 -14 -4 -32 -9 -40 -16 -26 -29 21 -42 152 -12 127
-22 156 -32 95z"/>
<path d="M5830 2580 c8 -5 26 -9 40 -9 23 0 23 1 5 9 -11 5 -29 9 -40 9 -17 1
-17 -1 -5 -9z"/>
<path d="M7036 2581 c-4 -5 12 -7 36 -4 57 8 61 13 10 13 -22 0 -43 -4 -46 -9z"/>
<path d="M5905 2570 c-3 -5 1 -10 9 -10 9 0 16 5 16 10 0 6 -4 10 -9 10 -6 0
-13 -4 -16 -10z"/>
<path d="M5940 2566 c0 -2 9 -6 20 -9 11 -3 20 -1 20 4 0 5 -9 9 -20 9 -11 0
-20 -2 -20 -4z"/>
<path d="M5386 2519 c-21 -16 -45 -29 -52 -29 -8 0 -14 -5 -14 -10 0 -16 101
-5 111 11 5 8 9 9 9 4 0 -6 -4 -15 -10 -20 -8 -9 32 -10 220 -4 l55 2 -74 9
c-50 6 -90 18 -125 39 -29 16 -59 29 -67 28 -8 0 -32 -14 -53 -30z m59 11 c3
-5 1 -10 -4 -10 -6 0 -11 5 -11 10 0 6 2 10 4 10 3 0 8 -4 11 -10z"/>
<path d="M7326 2424 c27 -107 40 -128 74 -122 21 3 20 6 -30 103 -29 55 -56
104 -60 109 -5 5 3 -36 16 -90z"/>
<path d="M7780 2510 c0 -5 19 -10 43 -9 32 0 37 2 22 9 -28 12 -65 12 -65 0z"/>
<path d="M7878 2503 c7 -3 16 -2 19 1 4 3 -2 6 -13 5 -11 0 -14 -3 -6 -6z"/>
<path d="M7428 2440 c-5 -145 -8 -135 35 -136 36 -2 38 0 32 23 -3 14 -9 38
-12 54 -3 16 -9 29 -13 29 -4 0 -13 20 -19 45 -6 25 -13 45 -16 45 -3 0 -6
-27 -7 -60z"/>
<path d="M3535 2415 c3 -16 6 -48 7 -70 0 -22 3 -44 7 -50 3 -5 4 -31 3 -57
-1 -32 2 -48 11 -48 9 0 9 -2 0 -8 -15 -9 6 -114 36 -185 81 -189 276 -434
389 -487 29 -14 52 -28 52 -32 0 -4 -51 -7 -112 -8 -62 0 -142 -4 -178 -10
-36 -5 -87 -10 -115 -11 l-50 0 70 -26 c58 -21 89 -26 180 -27 61 0 133 3 160
7 137 22 168 20 256 -16 71 -29 150 -58 169 -62 3 -1 30 -6 60 -13 74 -15 105
-21 168 -28 29 -3 63 -7 75 -10 12 -2 56 -7 97 -10 41 -4 77 -8 79 -10 2 -2
10 1 18 7 9 8 13 8 13 1 0 -11 298 -9 400 2 25 3 72 8 105 12 33 3 69 8 80 10
11 2 38 6 60 9 103 13 255 56 343 97 l67 31 120 -14 c191 -22 335 -19 423 10
40 13 74 26 76 30 2 3 -28 6 -67 6 -40 0 -121 6 -182 13 -60 7 -137 11 -170 8
-54 -4 -58 -3 -40 10 11 8 45 32 75 54 76 55 180 177 251 295 34 55 62 105 63
111 1 6 10 23 19 37 27 42 56 182 61 302 3 61 7 121 10 134 7 30 13 37 -84
-98 -91 -128 -118 -174 -125 -217 -2 -16 -7 -45 -11 -64 -4 -19 -8 -56 -8 -82
-1 -25 -4 -44 -8 -41 -5 2 -8 -5 -8 -17 0 -47 -41 -163 -70 -200 -61 -77 -237
-220 -270 -220 -6 0 13 21 42 46 29 25 70 64 91 87 46 51 98 160 99 205 0 17
4 32 8 32 5 0 8 8 8 18 -1 9 2 27 6 40 12 35 -10 27 -65 -25 -54 -51 -110
-136 -149 -223 -46 -104 -123 -189 -206 -226 -73 -32 -210 -73 -269 -79 -27
-3 -62 -8 -77 -11 -16 -3 -28 -4 -28 -1 0 3 24 23 53 45 28 22 117 104 197
183 155 154 175 184 217 319 23 74 23 74 18 24 -6 -54 -42 -175 -54 -184 -4
-3 -24 -31 -45 -64 -40 -63 -58 -82 -183 -188 -46 -39 -83 -71 -83 -73 0 -1
35 7 78 19 104 30 176 70 221 125 40 50 87 153 76 170 -3 6 -2 11 3 11 11 0
22 37 28 88 1 18 6 37 9 42 3 6 0 10 -7 10 -10 0 -11 2 0 8 7 5 12 22 12 38
-1 29 8 114 14 146 2 9 -1 19 -8 22 -7 3 -7 5 2 5 7 1 12 17 12 44 0 23 4 58
10 76 11 41 8 38 -56 -54 -27 -38 -71 -99 -99 -135 -47 -62 -66 -84 -182 -208
-53 -56 -104 -149 -123 -222 -14 -56 -55 -137 -87 -172 -27 -29 -116 -72 -205
-99 -64 -19 -74 -12 -28 21 16 12 33 33 36 47 4 13 18 36 31 49 25 26 25 46 0
26 -8 -7 -17 -9 -20 -5 -4 3 -7 1 -7 -5 0 -7 -6 -12 -12 -12 -7 0 -30 -15 -50
-33 -52 -45 -92 -72 -100 -69 -5 1 -8 -2 -8 -8 0 -5 -13 -16 -30 -25 -39 -20
-38 -8 3 35 19 19 35 40 36 45 4 16 102 115 113 115 6 0 9 2 7 5 -3 2 -32 -3
-65 -12 -61 -17 -137 -61 -152 -90 -9 -15 -10 -14 -16 3 -7 22 -91 78 -105 70
-5 -4 -12 -2 -16 3 -3 5 -13 10 -23 10 -9 -1 -28 2 -42 6 -21 6 -19 3 11 -18
35 -25 156 -173 148 -181 -2 -2 -38 21 -79 51 -73 53 -250 149 -250 135 0 -4
22 -23 48 -42 65 -49 143 -130 123 -130 -9 0 -61 20 -116 43 -87 37 -104 49
-136 91 -23 30 -51 89 -74 157 -43 126 -66 164 -166 281 -126 146 -196 231
-230 278 -47 67 -52 70 -45 30 3 -19 8 -89 12 -155 3 -66 7 -133 8 -150 1 -16
4 -34 7 -40 4 -5 7 -23 7 -40 1 -45 55 -186 91 -238 52 -76 111 -113 231 -146
l73 -21 -107 106 c-113 111 -173 192 -205 280 -38 100 -33 109 11 22 25 -48
70 -118 101 -155 58 -71 214 -225 257 -255 14 -9 36 -27 50 -38 l25 -21 -30 6
c-16 3 -55 7 -85 10 -65 5 -225 56 -294 93 -70 38 -129 112 -190 237 -43 88
-66 122 -114 169 -66 65 -92 83 -92 66 0 -6 9 -45 21 -88 35 -131 60 -176 155
-268 48 -46 84 -84 80 -84 -15 0 -125 81 -187 138 -94 87 -135 171 -153 322
-11 89 -39 208 -56 239 -11 21 -137 198 -175 246 -15 19 -15 19 -10 -10z"/>
<path d="M7225 2340 c8 -13 92 -43 107 -38 9 3 6 8 -8 16 -28 15 -105 32 -99
22z"/>
<path d="M2355 2310 c10 -11 20 -20 23 -20 3 0 -3 9 -13 20 -10 11 -20 20 -23
20 -3 0 3 -9 13 -20z"/>
<path d="M7857 2323 c-4 -3 -30 -8 -59 -9 -85 -6 -140 -13 -147 -19 -9 -10
142 -3 162 7 10 5 17 5 17 -1 0 -5 -20 -18 -44 -30 -68 -31 -186 -110 -186
-124 0 -7 -4 -6 -10 3 -6 10 -10 11 -10 3 0 -7 -4 -13 -9 -13 -19 0 -134 -85
-139 -102 -2 -10 -10 -18 -16 -18 -7 0 -25 -14 -42 -31 -41 -43 -84 -64 -279
-131 -93 -32 -222 -84 -285 -114 -137 -67 -251 -108 -379 -135 -155 -33 -164
-48 -45 -73 117 -25 226 -23 324 5 175 51 519 245 773 436 177 133 400 334
386 348 -3 3 -9 2 -12 -2z"/>
<path d="M4321 2287 c-6 -6 -30 -19 -54 -28 l-42 -16 32 -7 c18 -4 37 -5 43
-1 5 3 10 2 10 -4 0 -5 -8 -11 -17 -14 -10 -2 0 -7 22 -11 22 -4 53 -12 70
-17 55 -18 123 -21 197 -9 86 14 107 16 172 18 l50 2 -53 26 c-50 25 -56 26
-106 15 -53 -12 -54 -12 -102 23 l-49 35 -33 -26 -34 -27 -47 27 c-36 20 -49
24 -59 14z"/>
<path d="M2390 2280 c0 -16 30 -48 110 -116 41 -36 86 -75 100 -88 101 -94
338 -257 548 -378 111 -64 281 -146 316 -153 11 -2 21 -4 21 -5 0 -2 37 -9 72
-13 18 -2 35 -6 38 -9 3 -3 33 -4 66 -2 52 4 83 9 159 29 8 2 21 4 28 4 10 1
19 31 8 31 -1 0 -50 11 -107 26 -207 50 -278 77 -430 160 -52 29 -149 73 -215
99 -222 86 -223 86 -303 165 -51 49 -138 109 -269 184 -73 42 -135 76 -137 76
-3 0 -5 -4 -5 -10z"/>
<path d="M7120 2251 c0 -5 -7 -12 -16 -15 -8 -3 -13 -2 -10 3 4 5 -10 5 -32 0
-20 -5 -52 -12 -70 -15 -41 -7 -163 -57 -211 -86 -56 -34 -140 -117 -180 -178
-57 -86 -58 -98 -4 -54 27 21 68 54 93 74 25 19 50 40 55 46 28 31 310 205
319 197 9 -9 -436 -328 -512 -367 -19 -9 -152 -180 -152 -195 0 -10 137 27
240 64 146 53 218 103 301 207 44 56 187 280 191 299 2 8 8 17 13 21 6 4 2 8
-7 8 -10 0 -18 -4 -18 -9z"/>
<path d="M3046 2241 c-3 -5 24 -58 60 -117 37 -60 75 -123 86 -141 13 -22 25
-30 36 -26 14 4 14 3 3 -5 -12 -8 -9 -16 15 -43 94 -105 162 -145 366 -211 82
-26 154 -48 159 -48 11 0 -98 143 -146 193 -31 32 -53 48 -270 195 -60 41
-112 78 -115 81 -3 4 -29 24 -58 45 -28 21 -58 47 -66 57 -15 22 -61 35 -70
20z m139 -121 c3 -5 2 -10 -4 -10 -5 0 -13 5 -16 10 -3 6 -2 10 4 10 5 0 13
-4 16 -10z m92 -146 c-3 -3 -12 -4 -19 -1 -8 3 -5 6 6 6 11 1 17 -2 13 -5z"/>
<path d="M3155 2208 c78 -46 231 -152 280 -193 114 -96 165 -135 165 -126 0
19 -87 139 -136 187 -29 28 -76 63 -105 78 -50 24 -54 25 -61 9 -5 -15 -7 -14
-7 5 -1 12 -6 22 -12 22 -6 0 -8 -7 -5 -16 5 -14 4 -15 -9 -4 -8 7 -12 17 -8
24 3 6 3 8 -2 4 -4 -4 -14 -3 -22 4 -7 6 -16 8 -20 5 -3 -4 -11 -3 -17 2 -6 5
-27 12 -46 15 l-35 7 40 -23z"/>
<path d="M5232 2099 c-1 -17 -9 -47 -17 -66 -8 -20 -15 -37 -15 -38 0 -2 30
-3 68 -3 65 -1 66 -1 35 13 -27 11 -33 21 -44 69 -14 62 -24 72 -27 25z"/>
<path d="M5055 2051 c5 -23 3 -36 -6 -43 -10 -7 -8 -8 8 -5 12 3 24 0 26 -7 2
-6 7 -8 11 -5 3 3 -5 26 -19 50 -26 44 -26 44 -20 10z"/>
<path d="M5146 2030 c-7 -38 -5 -43 21 -38 17 3 18 5 2 37 l-16 34 -7 -33z"/>
<path d="M4925 1845 c-41 -27 -76 -44 -93 -43 -33 2 -90 -8 -123 -21 -21 -9
-19 -10 21 -11 55 -2 96 -8 135 -20 102 -31 164 -34 255 -11 46 11 105 21 132
21 26 0 48 4 48 8 0 12 -85 32 -138 32 -43 0 -54 5 -101 45 -29 25 -56 45 -61
45 -5 0 -38 -20 -75 -45z"/>
<path d="M2 48 l1 -53 7 45 7 45 1 -42 c2 -36 5 -43 22 -43 17 0 20 7 20 50 0
49 -1 50 -30 50 -30 0 -30 0 -28 -52z"/>
</g>
</svg>
